<svg xmlns="http://www.w3.org/2000/svg" width="169.188" height="235" viewBox="0 0 169.188 235">
  <g id="Grupo_14262" data-name="Grupo 14262" transform="translate(-513.089 -5512)">
    <g id="Grupo_4826" data-name="Grupo 4826" transform="translate(513.089 5577.968)">
      <path id="Caminho_2797" data-name="Caminho 2797" d="M676.717,5757.806l-34.28,5.792-23.72,7.208-15.066,16.683-19.863,5.465-14.945,6.977-10.031,18.516v23.625l15.244,13.235,29.6,12.834,5.429,17.983,19.569,18.827,22.149,5.44h25.92l26.431-5.44,12.486-18.827v-93.171l-6.684-22.148L686.93,5763.6Z" transform="translate(-557.455 -5757.806)" fill="#fff"/>
      <g id="Grupo_4825" data-name="Grupo 4825" transform="translate(0 0)">
        <path id="Caminho_2796" data-name="Caminho 2796" d="M79.116,4.341c45.663,7.691,74.052-2.874,73.528,16.059S123.189,49.279,79.116,49.279-5.049,28.989-4.04,20.4,33.453-3.351,79.116,4.341Z" transform="translate(16.538 119.752)" fill="#e0e0e0"/>
        <g id="Grupo_4816" data-name="Grupo 4816" transform="translate(0 0)">
          <g id="Grupo_4818" data-name="Grupo 4818" transform="translate(0 0)">
            <g id="Grupo_3505" data-name="Grupo 3505" transform="translate(0 30.878)">
              <g id="Grupo_3502" data-name="Grupo 3502" transform="translate(3.626 3.632)">
                <path id="Caminho_2121" data-name="Caminho 2121" d="M376.657,378.957l-24.55-.1c-2.751-.011-5.624,0-8.073,1.262-2.508,1.288-4.223,3.707-5.649,6.139a56.428,56.428,0,0,0-7.593,31.835,27.789,27.789,0,0,0,1.768,8.82,28.982,28.982,0,0,0,4.844,7.5c9.011,10.721,22.077,18.693,36.079,18.909" transform="translate(-330.687 -378.857)" fill="#f5f5f5"/>
              </g>
              <g id="Grupo_3504" data-name="Grupo 3504">
                <g id="Grupo_3503" data-name="Grupo 3503">
                  <path id="Caminho_2122" data-name="Caminho 2122" d="M377.3,375.955c-7.44-.03-14.879-.076-22.318-.09-5.675-.01-11.29.039-15.541,4.337-8.057,8.149-11.363,22.3-11.715,33.346-.414,13.031,4.757,22.512,14.482,30.91,9.03,7.8,19.943,12.667,31.919,13.151,4.686.191,4.678-7.092,0-7.282-10-.4-19.2-4.547-26.769-11.017-8.327-7.122-12.708-14.508-12.35-25.761.28-8.824,2.828-21.819,9.582-28.2,3.9-3.679,12.2-2.2,17.086-2.177l15.623.063c4.686.019,4.692-7.263,0-7.282Z" transform="translate(-327.699 -375.865)" fill="#050505"/>
                </g>
              </g>
            </g>
            <g id="Grupo_3507" data-name="Grupo 3507" transform="translate(22.138 53.982)">
              <g id="Grupo_3506" data-name="Grupo 3506">
                <path id="Caminho_2123" data-name="Caminho 2123" d="M374.032,426.476c-7.383.268-14.481-3.17-18.128-9.783-1.283-2.328-4.021-9.683-2.533-12.149,2.554-4.23,12.6-1.66,16.049-.914,4.568.989,6.521-6.03,1.936-7.023-6.105-1.322-16.547-3.653-22.072.374-4.683,3.414-3.394,11.107-2.375,15.939a26.551,26.551,0,0,0,27.123,20.839c4.673-.169,4.695-7.452,0-7.282Z" transform="translate(-345.939 -394.726)" fill="#050505"/>
              </g>
            </g>
            <g id="Grupo_3511" data-name="Grupo 3511" transform="translate(39.929)">
              <g id="Grupo_3508" data-name="Grupo 3508" transform="translate(3.95 3.311)">
                <path id="Caminho_2124" data-name="Caminho 2124" d="M367.319,375.9a648.186,648.186,0,0,0-3.351,79.26c.226,11.907,1.151,24.766,9.159,33.894,9.139,10.414,24.635,12.846,38.757,14.514,12.384,1.464,25.084,2.855,37.229.115s23.819-10.487,27.414-21.9c1.511-4.788,1.524-9.873,1.525-14.874l.016-59.183c0-10.5,0-21.068-1.978-31.4-.568-2.964-1.34-5.992-3.221-8.409-2.779-3.57-7.463-5.206-11.911-6.532-16.461-4.906-33.8-8.126-50.935-6.226s-34.1,9.437-44.293,22.721" transform="translate(-363.851 -354.612)" fill="#fff"/>
              </g>
              <g id="Grupo_3510" data-name="Grupo 3510">
                <g id="Grupo_3509" data-name="Grupo 3509">
                  <path id="Caminho_2125" data-name="Caminho 2125" d="M364.378,376.548c-1.92,18.9-3.08,37.87-3.373,56.862-.238,15.459-1.9,33.074,3.793,47.865,4.922,12.783,16.028,20.069,29.387,23.46,15.791,4.011,34.442,6.172,50.623,4.053,12.72-1.665,25.452-7.513,32.462-18.219,3.741-5.711,4.839-12.214,5.063-18.84.326-9.619.043-19.3.046-28.918.005-17.881.853-36-.448-53.842-.49-6.706-.755-14.728-4.252-20.761-3.63-6.262-10.811-8.51-17.528-10.449-33.262-9.6-73.754-10.062-96.816,18.881-3.052,3.83,3.733,7.564,6.748,3.781,18.362-23.045,51.488-24.2,78.5-17.918,6.155,1.432,14.406,2.65,19.492,6.488,6.175,4.662,5.806,15.5,6.19,22.393.839,15.041.3,30.211.3,45.27l-.005,20.933c0,7.648,1.059,16.314-1.379,23.71-4.13,12.525-18.08,18.931-30.821,20.3-13.743,1.473-28.8-.444-42.273-3.214-13.728-2.821-25.121-9.1-28.992-22.826-4.186-14.843-2.529-31.887-2.179-47.1.4-17.338,1.525-34.648,3.278-51.909.487-4.793-7.331-4.761-7.815,0Z" transform="translate(-360.596 -351.884)" fill="#050505"/>
                </g>
              </g>
            </g>
            <g id="Grupo_3515" data-name="Grupo 3515" transform="translate(61.94 21.629)">
              <g id="Grupo_3512" data-name="Grupo 3512" transform="translate(3.495 3.705)">
                <path id="Caminho_2126" data-name="Caminho 2126" d="M374.762,374.78a21.686,21.686,0,0,0,8.432,10.076c8.116,5.363,18.415,5.906,28.144,5.848,6.6-.039,13.245-.282,19.682-1.742a53.324,53.324,0,0,0,27.632-16.206" transform="translate(-374.762 -372.757)" fill="#f5f5f5"/>
              </g>
              <g id="Grupo_3514" data-name="Grupo 3514">
                <g id="Grupo_3513" data-name="Grupo 3513">
                  <path id="Caminho_2127" data-name="Caminho 2127" d="M372.234,377.27c7.4,16.633,27.159,18.031,43.022,17.684,17.923-.393,34.117-5.624,46.586-18.971,3.2-3.422-1.941-8.582-5.149-5.149-10.547,11.288-23.983,16.22-39.235,16.775-13.818.5-32.34.8-38.935-14.015-1.9-4.273-8.179-.573-6.288,3.675Z" transform="translate(-371.883 -369.704)" fill="#050505"/>
                </g>
              </g>
            </g>
            <g id="Grupo_3516" data-name="Grupo 3516" transform="translate(71.264 20.374)">
              <path id="Caminho_2128" data-name="Caminho 2128" d="M451.679,379.124a4.378,4.378,0,0,0-1.87-4.673,12.688,12.688,0,0,0-5.031-1.806c-10.184-2.082-20.479-3.97-30.873-3.975s-20.981,1.97-29.977,7.177c-1.847,1.069-3.761,2.465-4.247,4.544-.7,3.008,1.9,5.76,4.544,7.359,11.416,6.9,25.986,4.2,38.916.907,9.661-2.458,19.478-5.213,27.679-10.879" transform="translate(-379.565 -368.67)" fill="#050505"/>
            </g>
            <g id="Grupo_3517" data-name="Grupo 3517" transform="translate(46.515 28.921)">
              <path id="Caminho_2129" data-name="Caminho 2129" d="M369.7,372.12c-.57,3.822-.2,8.167,2.588,10.846,4.293,4.128,11.925,2.281,16.549,6.035,3.953,3.208,4.117,9.076,3.947,14.164l-2.625,78.547a7.619,7.619,0,0,1-.405,2.651c-.892,2.182-3.579,3.053-5.935,2.968-5.183-.187-9.8-3.716-12.55-8.113s-3.92-9.58-4.808-14.689c-5.143-29.592-2.283-59.918.59-89.816" transform="translate(-363.624 -372.12)" fill="#050505"/>
            </g>
          </g>
          <g id="Grupo_4824" data-name="Grupo 4824" transform="translate(78.389 65.241)">
            <g id="Grupo_4819" data-name="Grupo 4819" transform="translate(0 11.341)">
              <g id="Grupo_4032" data-name="Grupo 4032" transform="translate(0 0)">
                <path id="Caminho_2403" data-name="Caminho 2403" d="M976.031,780.019a15.245,15.245,0,0,0-13.943,22.467,16.655,16.655,0,0,0,12.474,8.625c6.05.571,9.576-3.631,11.967-8.632,1.631-3.41-3.456-6.406-5.1-2.979-1.65,3.453-3.271,6.287-7.745,5.438-2.683-.508-5.3-3.092-6.506-5.431a9.3,9.3,0,0,1,8.847-13.589c3.8.143,3.791-5.757,0-5.9Z" transform="translate(-960.232 -780.007)" fill="#050505"/>
              </g>
            </g>
            <g id="Grupo_4820" data-name="Grupo 4820" transform="translate(19.844 15.507)">
              <g id="Grupo_4034" data-name="Grupo 4034" transform="translate(0 0)">
                <path id="Caminho_2404" data-name="Caminho 2404" d="M984.165,792.3c-.8,5.4,2.294,10.629,8.056,11.21,6.136.619,9.07-4.735,8.79-10.257-.288-5.694-4.935-8.921-10.334-9.007-5.126-.081-11.272,2.506-10.128,8.566.705,3.726,6.393,2.148,5.69-1.569-.183-.969,4.582-1.138,5.22-1.063,1.87.22,3.333,1.006,3.624,3.017.245,1.7.034,4.465-2.08,4.478a3.328,3.328,0,0,1-3.149-3.807c.551-3.714-5.134-5.318-5.689-1.569Z" transform="translate(-980.41 -784.244)" fill="#050505"/>
              </g>
            </g>
            <g id="Grupo_4821" data-name="Grupo 4821" transform="translate(40.242 9.556)">
              <g id="Grupo_4036" data-name="Grupo 4036" transform="translate(0 0)">
                <path id="Caminho_2405" data-name="Caminho 2405" d="M1002.719,783.1a10.346,10.346,0,0,0,1.062,12.408c2.748,2.886,8.044,4.656,11.527,2.014,3.161-2.4,3.149-7.353,1.949-10.783a13.529,13.529,0,0,0-8.526-8.368c-3.6-1.246-5.14,4.452-1.569,5.69,2.7.936,5.491,4.2,4.92,7.277-.44,2.376-2.939,1.427-4.13,0a4.46,4.46,0,0,1-.141-5.258c1.931-3.28-3.168-6.253-5.094-2.978Z" transform="translate(-1001.151 -778.193)" fill="#050505"/>
              </g>
            </g>
            <g id="Grupo_4822" data-name="Grupo 4822" transform="translate(43.922 0)">
              <g id="Grupo_4038" data-name="Grupo 4038" transform="translate(0)">
                <path id="Caminho_2406" data-name="Caminho 2406" d="M1004.992,772.146a116.319,116.319,0,0,0,12.375,30.455c1.909,3.282,7.011.315,5.1-2.978a110.628,110.628,0,0,1-11.78-29.046c-.919-3.682-6.611-2.122-5.69,1.569Z" transform="translate(-1004.892 -768.476)" fill="#050505"/>
              </g>
            </g>
            <g id="Grupo_4823" data-name="Grupo 4823" transform="translate(53.032 4.103)">
              <g id="Grupo_4040" data-name="Grupo 4040" transform="translate(0 0)">
                <path id="Caminho_2407" data-name="Caminho 2407" d="M1022.17,785.24c2.956.022,5.91-.626,7.2-3.578a6.557,6.557,0,0,0-1.206-6.88c-4.506-4.841-11.565-.637-13.286,4.56-2.246,6.788.81,12.541,7.911,13.662,8.4,1.326,14.218-1.635,18.025-9.052,1.731-3.372-3.359-6.361-5.1-2.978-2.173,4.233-4.315,6.494-9.429,6.448-2.879-.026-5.822-.423-6.244-3.723a8.259,8.259,0,0,1,.714-3.225q1.031-2.588,1.406-1.135c-3.8-.029-3.8,5.872,0,5.9Z" transform="translate(-1014.156 -772.648)" fill="#050505"/>
              </g>
            </g>
          </g>
        </g>
      </g>
    </g>
    <g id="Grupo_14261" data-name="Grupo 14261" transform="translate(602.34 5512)">
      <path id="Caminho_7669" data-name="Caminho 7669" d="M348.879,229.838c-.361-.031-.181-3.681-.128-4.129a8.05,8.05,0,0,1,3.212-5.95c2.531-1.859,5.724-2.59,8.608-3.719,5.687-2.226,9.8-5.9,11.843-11.777,2.214-6.378,1.385-14.225-.911-20.477-2.177-5.929-6.8-9.441-12.946-10.608-5.23-.993-12.619-1.591-16.973,2.124-3.414,2.913-3.917,5.474,0,8.484,4.371,1.159,5.4-4.4,10.378-5.1,4.387-.408,8.872,2.666,12.3,6.2,2.049,3.308,4.146,5.767,2.007,14.745-.026,5.314-10.277,10.855-14.3,12.216-6.009,2.032-9.234,4.769-9.676,10.864-.355,4.888.83,10.28,6.282,11.478,2.963.65,4.228-3.9,1.256-4.555-4.35-.955-6.688,4.44-.947,4.923,3.028.254,3.012-4.47,0-4.723Z" transform="translate(-338.833 -172.425)" fill="#050505"/>
    </g>
  </g>
</svg>
