<svg xmlns="http://www.w3.org/2000/svg" width="186.256" height="27.211" viewBox="0 0 186.256 27.211">
  <g id="consisanet" transform="translate(-4.498 -142.677)">
    <g id="consisanet-2" data-name="consisanet" transform="translate(4.498 142.677)">
      <path id="Caminho_87" data-name="Caminho 87" d="M504.382,540.2a8.4,8.4,0,0,1,3.016.548,9.527,9.527,0,0,1,2.756,1.67l1.529,1.3.323-5.988-.459-.317a13.4,13.4,0,0,0-3.5-1.746,12.556,12.556,0,0,0-3.81-.58,12.764,12.764,0,0,0-4.711.86,11.7,11.7,0,0,0-6.5,6.428,12.412,12.412,0,0,0-.89,4.687,12.55,12.55,0,0,0,.89,4.7,11.441,11.441,0,0,0,6.486,6.4,13.288,13.288,0,0,0,4.785.85,13.049,13.049,0,0,0,3.782-.529,11,11,0,0,0,3.275-1.611l.413-.3v-6.516l-1.643,1.419a10.221,10.221,0,0,1-2.927,1.808,8.651,8.651,0,0,1-3.167.588,5.953,5.953,0,0,1-4.552-1.887,7.568,7.568,0,0,1,.05-9.891,6.433,6.433,0,0,1,4.858-1.9" transform="translate(-492.133 -533.402)" fill="#fff"/>
      <path id="Caminho_88" data-name="Caminho 88" d="M547.11,548.676c-.194-.2-.387-.4-.585-.6L531.581,533.7v25.037h5.113V545.948c.107.11.218.219.328.328l15.217,14.608V535.866H547.11Z" transform="translate(-484.402 -533.676)" fill="#fff"/>
      <path id="Caminho_89" data-name="Caminho 89" d="M559.714,544.45c-.091-.039-.218-.1-.4-.19-1.909-.873-2.96-1.8-2.96-2.6a1.45,1.45,0,0,1,.472-1.17,2.6,2.6,0,0,1,2.721-.146,3.423,3.423,0,0,1,1.051,1.117l.487.765,4.235-2.182-.3-.82a5.692,5.692,0,0,0-2.593-3.087,8.682,8.682,0,0,0-4.359-1.021,7.453,7.453,0,0,0-5.213,1.843,6.327,6.327,0,0,0-2.056,4.871,5.976,5.976,0,0,0,1.381,3.967,15.555,15.555,0,0,0,4.981,3.33c.134.055.318.147.61.291,1.131.533,2.482,1.38,2.482,2.382a1.956,1.956,0,0,1-.579,1.526,2.392,2.392,0,0,1-1.724.57,3.459,3.459,0,0,1-2.046-.549,2.755,2.755,0,0,1-1.032-1.586l-.313-1.125-4.5,2.08.181.787a6.724,6.724,0,0,0,2.618,4.094,8.308,8.308,0,0,0,4.951,1.414,8.087,8.087,0,0,0,5.726-2.015,7.119,7.119,0,0,0,2.185-5.439,6.082,6.082,0,0,0-1.392-4.048,13.556,13.556,0,0,0-4.62-3.057" transform="translate(-480.779 -533.398)" fill="#fff"/>
      <path id="Caminho_90" data-name="Caminho 90" d="M530.406,538.574a12.088,12.088,0,0,0-3.94-2.576,12.739,12.739,0,0,0-9.3,0,12.1,12.1,0,0,0-3.948,2.58,11.723,11.723,0,0,0-2.644,3.88,12.178,12.178,0,0,0,0,9.209,11.613,11.613,0,0,0,2.645,3.849,12.131,12.131,0,0,0,3.938,2.587,12.343,12.343,0,0,0,4.673.906,12.188,12.188,0,0,0,4.625-.9,12.459,12.459,0,0,0,3.955-2.588,11.876,11.876,0,0,0,2.655-13.047,12.1,12.1,0,0,0-2.655-3.9m-1.96,8.487a6.911,6.911,0,0,1-.506,2.617,6.818,6.818,0,0,1-3.6,3.687,6.608,6.608,0,0,1-5.063,0,6.407,6.407,0,0,1-2.141-1.476,6.8,6.8,0,0,1-1.446-2.2,6.925,6.925,0,0,1-.5-2.628,7.151,7.151,0,0,1,.5-2.654,6.616,6.616,0,0,1,1.447-2.2,6.449,6.449,0,0,1,4.69-1.979,6.418,6.418,0,0,1,4.664,1.984,6.786,6.786,0,0,1,1.448,2.213,7.03,7.03,0,0,1,.507,2.637" transform="translate(-488.697 -533.397)" fill="#fff"/>
      <path id="Caminho_91" data-name="Caminho 91" d="M582.124,558.736h5.769l2.424-5.381h6.975l2.372,5.381h5.785l-11.655-25.057Zm13.084-10.191h-2.745l1.374-3.056Z" transform="translate(-474.495 -533.679)" fill="#fff"/>
      <rect id="Retângulo_5" data-name="Retângulo 5" width="5.382" height="22.867" transform="translate(86.728 2.189)" fill="#fff"/>
      <path id="Caminho_92" data-name="Caminho 92" d="M584.7,547.507a13.532,13.532,0,0,0-4.619-3.057c-.091-.039-.218-.1-.4-.19-1.909-.874-2.96-1.8-2.96-2.6a1.442,1.442,0,0,1,.472-1.168,2.2,2.2,0,0,1,1.512-.462,2.224,2.224,0,0,1,1.208.315,3.426,3.426,0,0,1,1.051,1.118l.488.764,4.235-2.183-.3-.82a5.687,5.687,0,0,0-2.593-3.086,8.678,8.678,0,0,0-4.358-1.023,7.456,7.456,0,0,0-5.214,1.843,6.335,6.335,0,0,0-2.055,4.871,5.97,5.97,0,0,0,1.381,3.968,15.572,15.572,0,0,0,4.983,3.33c.13.053.308.142.543.257l.066.032c1.131.533,2.48,1.38,2.48,2.382a1.953,1.953,0,0,1-.579,1.526,2.388,2.388,0,0,1-1.722.572,3.467,3.467,0,0,1-2.046-.549,2.752,2.752,0,0,1-1.032-1.586l-.313-1.127-4.5,2.08.182.787a6.727,6.727,0,0,0,2.618,4.094,8.315,8.315,0,0,0,4.953,1.414,8.091,8.091,0,0,0,5.725-2.014,7.116,7.116,0,0,0,2.186-5.439,6.092,6.092,0,0,0-1.392-4.048" transform="translate(-476.787 -533.398)" fill="#fff"/>
      <path id="Caminho_93" data-name="Caminho 93" d="M617.962,548.679q-.289-.3-.584-.6L602.433,533.7v25.036h5.113V545.951c.108.11.216.219.328.328l15.217,14.608V535.867h-5.128Z" transform="translate(-470.515 -533.675)" fill="#fff"/>
      <path id="Caminho_94" data-name="Caminho 94" d="M622.087,558.38H635.73v-5.026h-8.261v-4.76h8.261v-4.966h-8.261v-3.246h8.261v-4.87H622.087Z" transform="translate(-466.663 -533.32)" fill="#fff"/>
      <path id="Caminho_95" data-name="Caminho 95" d="M634.111,535.512v4.87h5.551v18h5.381v-18h5.521v-4.87Z" transform="translate(-464.306 -533.32)" fill="#fff"/>
    </g>
  </g>
</svg>
