<svg xmlns="http://www.w3.org/2000/svg" width="148.543" height="65.246" viewBox="0 0 148.543 65.246">
  <g id="db1" transform="translate(0 0)">
    <path id="Caminho_174" data-name="Caminho 174" d="M790.494,711.079V684.286l-8.266-6.556,4.912-3.9v-28L763.472,664.6v25.044Z" transform="translate(-763.472 -645.834)" fill="#fff"/>
    <path id="Caminho_175" data-name="Caminho 175" d="M787.677,645.834v26.793l8.266,6.556-4.912,3.9v28L814.7,692.308V667.265Z" transform="translate(-760.655 -645.834)" fill="#fff"/>
    <path id="Caminho_176" data-name="Caminho 176" d="M844.815,664.234H824.1v27.174h19.762a9.5,9.5,0,0,0,9.5-9.5v-9.121A8.551,8.551,0,0,0,844.815,664.234Zm2.66,16.028a5.675,5.675,0,0,1-5.676,5.676H829.993V669.7h12.374a5.107,5.107,0,0,1,5.107,5.109Z" transform="translate(-756.415 -643.692)" fill="#fff"/>
    <g id="Grupo_62" data-name="Grupo 62" transform="translate(101.987 20.542)">
      <path id="Caminho_177" data-name="Caminho 177" d="M881.615,675.761a3.983,3.983,0,0,0,2-3.444v-1.479a6.6,6.6,0,0,0-6.6-6.6H854.826v27.174h19.952a9.549,9.549,0,0,0,9.548-9.55v-1.27A5.666,5.666,0,0,0,881.615,675.761Zm-20.59-6.056h15.157a1.66,1.66,0,0,1,1.66,1.659v.57a1.66,1.66,0,0,1-1.66,1.659H861.025ZM878.2,682.821a2.886,2.886,0,0,1-2.886,2.886H861.025v-6.442h14.288a2.886,2.886,0,0,1,2.886,2.886Z" transform="translate(-854.826 -664.234)" fill="#fff"/>
    </g>
    <path id="Caminho_178" data-name="Caminho 178" d="M891.735,664.234l-6.274,4.605,3.6,4.9,2.676-1.964v19.63h6.081V664.234Z" transform="translate(-749.274 -643.692)" fill="#fff"/>
    <g id="Grupo_63" data-name="Grupo 63" transform="translate(67.687 52.395)">
      <path id="Caminho_179" data-name="Caminho 179" d="M827.4,697.979a1.925,1.925,0,0,0-1.045-.23h-.731a.759.759,0,0,1-.468-.094.272.272,0,0,1-.1-.221.367.367,0,0,1,.055-.206.778.778,0,0,1,.108-.13,1.54,1.54,0,0,0,.239.076,1.5,1.5,0,0,0,.885-.061,1.452,1.452,0,0,0,.471-.279,1.311,1.311,0,0,0,.319-.445,1.432,1.432,0,0,0,.117-.587,1.172,1.172,0,0,0-.1-.483,1.277,1.277,0,0,0-.107-.2h.672v-.685h-1.4a1.945,1.945,0,0,0-.242-.064,1.776,1.776,0,0,0-.892.069,1.469,1.469,0,0,0-.488.288,1.36,1.36,0,0,0-.33.457,1.427,1.427,0,0,0-.122.6,1.274,1.274,0,0,0,.165.653,1.709,1.709,0,0,0,.288.377,1.357,1.357,0,0,0-.224.243.85.85,0,0,0-.039.908.9.9,0,0,0,.175.2,1.6,1.6,0,0,0-.34.357.9.9,0,0,0-.165.513.922.922,0,0,0,.127.486,1.079,1.079,0,0,0,.349.351,1.666,1.666,0,0,0,.525.212,3.172,3.172,0,0,0,1.486-.04,2.132,2.132,0,0,0,.631-.3,1.367,1.367,0,0,0,.41-.448,1.116,1.116,0,0,0,.145-.549A.853.853,0,0,0,827.4,697.979Zm-1.543,1.536a1.45,1.45,0,0,1-.755-.164.45.45,0,0,1-.246-.4.562.562,0,0,1,.08-.279.9.9,0,0,1,.231-.252,1.3,1.3,0,0,0,.224.04c.089.008.171.012.247.012h.653a1.2,1.2,0,0,1,.524.089.276.276,0,0,1,.142.28.456.456,0,0,1-.071.237.706.706,0,0,1-.212.215,1.308,1.308,0,0,1-.351.159A1.643,1.643,0,0,1,825.857,699.515Zm-.8-3.731a.771.771,0,0,1,.2-.579.724.724,0,0,1,1,0,.775.775,0,0,1,.2.581,1,1,0,0,1-.056.344.723.723,0,0,1-.154.25.713.713,0,0,1-.226.159.7.7,0,0,1-.537,0,.707.707,0,0,1-.38-.409A.977.977,0,0,1,825.059,695.784Z" transform="translate(-824.102 -692.583)" fill="#fff"/>
      <path id="Caminho_180" data-name="Caminho 180" d="M830.862,697.943a.234.234,0,0,1-.054.011h-.058a.063.063,0,0,1-.051-.028c-.008-.009-.031-.044-.031-.154V692.85h-.832v4.875a1.192,1.192,0,0,0,.173.694.69.69,0,0,0,.6.259,1.373,1.373,0,0,0,.235-.018.64.64,0,0,0,.174-.056l.064-.032-.116-.661Z" transform="translate(-823.435 -692.756)" fill="#fff"/>
      <path id="Caminho_181" data-name="Caminho 181" d="M836.465,694.893a1.745,1.745,0,0,0-.589-.412,1.845,1.845,0,0,0-1.405,0,1.727,1.727,0,0,0-.591.412,2.019,2.019,0,0,0-.4.658,2.623,2.623,0,0,0,0,1.752,1.968,1.968,0,0,0,.405.654,1.753,1.753,0,0,0,.59.409,1.839,1.839,0,0,0,1.405,0,1.739,1.739,0,0,0,.588-.409,1.961,1.961,0,0,0,.405-.654,2.621,2.621,0,0,0,0-1.752A2.017,2.017,0,0,0,836.465,694.893Zm-1.691,2.793a.923.923,0,0,1-.314-.268,1.317,1.317,0,0,1-.205-.424,2,2,0,0,1-.075-.564,2.047,2.047,0,0,1,.075-.568,1.328,1.328,0,0,1,.207-.432.9.9,0,0,1,.313-.271.894.894,0,0,1,.8,0,.906.906,0,0,1,.314.271,1.373,1.373,0,0,1,.207.432,2.085,2.085,0,0,1,.074.568,2.036,2.036,0,0,1-.074.564,1.34,1.34,0,0,1-.207.424.931.931,0,0,1-.314.268A.9.9,0,0,1,834.774,697.687Z" transform="translate(-823.029 -692.582)" fill="#fff"/>
      <path id="Caminho_182" data-name="Caminho 182" d="M842.413,695.079a1.4,1.4,0,0,0-.506-.417,1.561,1.561,0,0,0-1.354.015,2.715,2.715,0,0,0-.415.257l.011-2.084h-.833v5.735h.7l.045-.315a2.1,2.1,0,0,0,.442.271,1.432,1.432,0,0,0,.588.137,1.592,1.592,0,0,0,.663-.145,1.642,1.642,0,0,0,.555-.425,2.119,2.119,0,0,0,.375-.678,2.728,2.728,0,0,0,.137-.9,3.075,3.075,0,0,0-.1-.816A1.866,1.866,0,0,0,842.413,695.079Zm-.451,1.462a2.172,2.172,0,0,1-.078.6,1.374,1.374,0,0,1-.21.441.93.93,0,0,1-.31.267.892.892,0,0,1-.785.011,1.478,1.478,0,0,1-.43-.261v-1.9a1.455,1.455,0,0,1,.914-.459.874.874,0,0,1,.409.089.751.751,0,0,1,.277.252,1.176,1.176,0,0,1,.161.406A2.669,2.669,0,0,1,841.962,696.542Z" transform="translate(-822.331 -692.756)" fill="#fff"/>
      <path id="Caminho_183" data-name="Caminho 183" d="M846.573,694.342a2.274,2.274,0,0,0-.878.166,4.27,4.27,0,0,0-.661.339l-.077.049.346.616.088-.06a2.857,2.857,0,0,1,.5-.27,1.43,1.43,0,0,1,.576-.117.715.715,0,0,1,.339.07.535.535,0,0,1,.2.181.8.8,0,0,1,.107.27,1.605,1.605,0,0,1,.031.243,4.463,4.463,0,0,0-1.717.467,1.146,1.146,0,0,0-.6,1.037,1.1,1.1,0,0,0,.347.866,1.246,1.246,0,0,0,.855.3,1.57,1.57,0,0,0,.713-.17,3.428,3.428,0,0,0,.484-.306l.046.382h.712V696a1.978,1.978,0,0,0-.329-1.19A1.26,1.26,0,0,0,846.573,694.342Zm-.853,2.664a.7.7,0,0,1,.253-.234,2.05,2.05,0,0,1,.5-.192,6.032,6.032,0,0,1,.675-.131v.9a2.469,2.469,0,0,1-.462.334.976.976,0,0,1-.468.117.686.686,0,0,1-.419-.122.443.443,0,0,1-.154-.387A.535.535,0,0,1,845.72,697.006Z" transform="translate(-821.69 -692.583)" fill="#fff"/>
      <path id="Caminho_184" data-name="Caminho 184" d="M851.538,697.943a.235.235,0,0,1-.054.011h-.059c-.008,0-.026,0-.051-.028a.254.254,0,0,1-.03-.154V692.85h-.833v4.875a1.193,1.193,0,0,0,.174.694.69.69,0,0,0,.6.259,1.383,1.383,0,0,0,.235-.018.62.62,0,0,0,.173-.056l.065-.032-.116-.661Z" transform="translate(-821.028 -692.756)" fill="#fff"/>
      <path id="Caminho_185" data-name="Caminho 185" d="M858.965,696.436a1.737,1.737,0,0,0-.393-.228c-.139-.057-.275-.111-.411-.165l-.315-.119a1.4,1.4,0,0,1-.251-.124.565.565,0,0,1-.16-.145.285.285,0,0,1-.052-.173.419.419,0,0,1,.138-.311.641.641,0,0,1,.458-.136,1.03,1.03,0,0,1,.419.085,1.971,1.971,0,0,1,.386.23l.077.059.419-.558-.073-.058a2.173,2.173,0,0,0-.542-.318,1.92,1.92,0,0,0-1.271-.045,1.316,1.316,0,0,0-.441.243,1.11,1.11,0,0,0-.282.376,1.126,1.126,0,0,0-.1.464.9.9,0,0,0,.115.462,1.215,1.215,0,0,0,.284.326,1.683,1.683,0,0,0,.384.23c.135.06.275.115.407.162l.31.123a1.483,1.483,0,0,1,.259.135.68.68,0,0,1,.173.166.334.334,0,0,1,.06.2.452.452,0,0,1-.155.348.723.723,0,0,1-.495.145,1.3,1.3,0,0,1-.562-.115,2.5,2.5,0,0,1-.49-.315l-.078-.064-.435.584.071.058a2.471,2.471,0,0,0,.663.39,2.157,2.157,0,0,0,.807.155,1.91,1.91,0,0,0,.626-.1,1.353,1.353,0,0,0,.469-.263,1.151,1.151,0,0,0,.289-.392,1.169,1.169,0,0,0,.1-.475,1.006,1.006,0,0,0-.117-.5A1.149,1.149,0,0,0,858.965,696.436Z" transform="translate(-820.348 -692.583)" fill="#fff"/>
      <path id="Caminho_186" data-name="Caminho 186" d="M864.533,694.893a1.745,1.745,0,0,0-.589-.412,1.846,1.846,0,0,0-1.406,0,1.723,1.723,0,0,0-.589.412,2.02,2.02,0,0,0-.405.658,2.622,2.622,0,0,0,0,1.752,1.984,1.984,0,0,0,.405.654,1.753,1.753,0,0,0,.589.409,1.84,1.84,0,0,0,1.406,0,1.755,1.755,0,0,0,.589-.409,2,2,0,0,0,.405-.654,2.621,2.621,0,0,0,0-1.752A2.039,2.039,0,0,0,864.533,694.893Zm-1.691,2.793a.932.932,0,0,1-.314-.268,1.317,1.317,0,0,1-.205-.424,2,2,0,0,1-.075-.564,2.044,2.044,0,0,1,.075-.568,1.35,1.35,0,0,1,.206-.432.9.9,0,0,1,.313-.271.894.894,0,0,1,.8,0,.908.908,0,0,1,.314.271,1.374,1.374,0,0,1,.206.432,2.045,2.045,0,0,1,.074.568,2,2,0,0,1-.074.564,1.318,1.318,0,0,1-.206.424.923.923,0,0,1-.314.268A.9.9,0,0,1,862.842,697.687Z" transform="translate(-819.762 -692.582)" fill="#fff"/>
      <path id="Caminho_187" data-name="Caminho 187" d="M869.1,692.8a1.715,1.715,0,0,0-.359-.038,1.107,1.107,0,0,0-.913.372,1.531,1.531,0,0,0-.289.979v.509l-.514.039v.67h.514v3.26h.833v-3.26h.8v-.717h-.8v-.5c0-.568.247-.634.432-.634a.956.956,0,0,1,.387.085l.1.046.194-.682-.08-.032A1.909,1.909,0,0,0,869.1,692.8Z" transform="translate(-819.106 -692.766)" fill="#fff"/>
      <path id="Caminho_188" data-name="Caminho 188" d="M874.021,697.8a1.546,1.546,0,0,1-.2.066.756.756,0,0,1-.192.027.418.418,0,0,1-.375-.147.88.88,0,0,1-.112-.487v-2h1.019v-.717h-1.019v-1.058h-.725l-.078,1.064-.6.039v.672h.559v1.995a2.37,2.37,0,0,0,.057.536,1.115,1.115,0,0,0,.2.434.963.963,0,0,0,.372.286,1.326,1.326,0,0,0,.549.1,1.671,1.671,0,0,0,.384-.046,3.008,3.008,0,0,0,.348-.1l.085-.03-.175-.678Z" transform="translate(-818.557 -692.683)" fill="#fff"/>
      <path id="Caminho_189" data-name="Caminho 189" d="M880.7,696.688c-.041.182-.08.358-.116.53l-.04.182-.047-.185-.748-2.79h-.771l-.6,2.26c-.047.177-.09.353-.133.527l-.04.17c-.011-.054-.022-.108-.035-.163-.036-.172-.075-.348-.117-.533l-.579-2.261h-.856l1.1,3.977h.9l.548-2.094c.052-.182.1-.364.141-.545.017-.069.032-.14.048-.21.017.069.031.137.047.205.039.177.083.357.13.541l.564,2.1h.928l1.063-3.977h-.808Z" transform="translate(-817.99 -692.573)" fill="#fff"/>
      <path id="Caminho_190" data-name="Caminho 190" d="M885.483,694.342a2.273,2.273,0,0,0-.877.166,4.257,4.257,0,0,0-.661.339l-.077.049.346.616.088-.06a2.859,2.859,0,0,1,.5-.27,1.43,1.43,0,0,1,.576-.117.716.716,0,0,1,.339.07.535.535,0,0,1,.2.181.8.8,0,0,1,.107.27,1.605,1.605,0,0,1,.031.243,4.463,4.463,0,0,0-1.717.467,1.146,1.146,0,0,0-.6,1.037,1.1,1.1,0,0,0,.347.866,1.246,1.246,0,0,0,.855.3,1.569,1.569,0,0,0,.713-.17,3.434,3.434,0,0,0,.485-.306l.046.382h.712V696a1.977,1.977,0,0,0-.329-1.19A1.26,1.26,0,0,0,885.483,694.342Zm-.853,2.664a.694.694,0,0,1,.253-.234,2.049,2.049,0,0,1,.5-.192,6.043,6.043,0,0,1,.675-.131v.9a2.468,2.468,0,0,1-.462.334.976.976,0,0,1-.468.117.686.686,0,0,1-.419-.122.443.443,0,0,1-.154-.387A.536.536,0,0,1,884.63,697.006Z" transform="translate(-817.161 -692.583)" fill="#fff"/>
      <path id="Caminho_191" data-name="Caminho 191" d="M891.2,694.342a1.07,1.07,0,0,0-.662.23,1.7,1.7,0,0,0-.359.376l-.04-.513h-.717v3.977h.833V695.9a1.439,1.439,0,0,1,.416-.617.757.757,0,0,1,.443-.175,1.046,1.046,0,0,1,.175.012c.048.011.1.026.161.045l.1.034.165-.743-.074-.032A1.131,1.131,0,0,0,891.2,694.342Z" transform="translate(-816.499 -692.583)" fill="#fff"/>
      <path id="Caminho_192" data-name="Caminho 192" d="M896.776,695.453a1.721,1.721,0,0,0-.309-.593,1.376,1.376,0,0,0-.51-.386,1.719,1.719,0,0,0-1.352.013,1.742,1.742,0,0,0-.572.415,2.049,2.049,0,0,0-.4.656,2.393,2.393,0,0,0-.151.872,2.425,2.425,0,0,0,.146.867,1.913,1.913,0,0,0,.406.652,1.79,1.79,0,0,0,.608.411,1.956,1.956,0,0,0,.749.144,2.026,2.026,0,0,0,.728-.124,3.421,3.421,0,0,0,.569-.28l.077-.048-.318-.593-.088.056a2.189,2.189,0,0,1-.421.2,1.4,1.4,0,0,1-.469.076,1.064,1.064,0,0,1-.813-.324,1.333,1.333,0,0,1-.342-.8h2.523l.018-.077a1.022,1.022,0,0,0,.021-.184c0-.066,0-.133,0-.2A2.568,2.568,0,0,0,896.776,695.453Zm-.651.569h-1.812a1.5,1.5,0,0,1,.1-.361,1.145,1.145,0,0,1,.227-.342.9.9,0,0,1,.3-.208.868.868,0,0,1,.346-.07.742.742,0,0,1,.614.263A1.194,1.194,0,0,1,896.126,696.022Z" transform="translate(-816.027 -692.583)" fill="#fff"/>
    </g>
  </g>
</svg>
