<svg id="dm" xmlns="http://www.w3.org/2000/svg" width="207.649" height="62.804" viewBox="0 0 207.649 62.804">
  <path id="Caminho_37" data-name="Caminho 37" d="M539.573,412.4v-7.23a.836.836,0,0,1,1.671,0v12.946c0,3.445-2.141,5.142-5.116,5.142-3.368,0-5.351-2.01-5.351-6.29s1.879-6.264,5.246-6.264a4.422,4.422,0,0,1,3.55,1.7m0,2.114a3.956,3.956,0,0,0-3.445-2.3c-2.375,0-3.681,1.54-3.681,4.75,0,3.262,1.278,4.776,3.681,4.776,2.009,0,3.445-1.148,3.445-3.628Z" transform="translate(-470.741 -384.901)" fill="#fff"/>
  <path id="Caminho_38" data-name="Caminho 38" d="M547.866,410.036c4.176,0,4.985,3.315,4.985,5.091,0,.757,0,1.67-1.044,1.67h-7.622c0,2.584,1.488,4.255,3.941,4.255a4.807,4.807,0,0,0,3.134-1.123.726.726,0,0,1,.468-.156.758.758,0,0,1,.758.757.782.782,0,0,1-.288.6,5.808,5.808,0,0,1-4.071,1.462c-3.471,0-5.638-1.907-5.638-6.291,0-4.02,1.984-6.265,5.378-6.265m0,1.515c-2.271,0-3.525,1.461-3.681,3.785h7.022c0-1.879-.654-3.785-3.341-3.785" transform="translate(-469.378 -384.237)" fill="#fff"/>
  <path id="Caminho_39" data-name="Caminho 39" d="M555.754,405.167v14.9c0,1.043.338,1.487,1.044,1.487a.783.783,0,0,1,0,1.566c-1.748,0-2.714-1.044-2.714-3.053v-14.9a.86.86,0,0,1,.834-.836.843.843,0,0,1,.836.836" transform="translate(-468.028 -384.901)" fill="#fff"/>
  <path id="Caminho_40" data-name="Caminho 40" d="M559.039,407.2c0-.756.366-1.043.991-1.043s.994.287.994,1.043a.992.992,0,1,1-1.985,0m1.828,14.878a.835.835,0,0,1-1.67,0v-10.6a.835.835,0,1,1,1.67,0Z" transform="translate(-467.451 -384.689)" fill="#fff"/>
  <path id="Caminho_41" data-name="Caminho 41" d="M567.084,421.923l-4.435-10.545a.916.916,0,0,1-.079-.366.824.824,0,0,1,.836-.834.791.791,0,0,1,.783.547l3.681,9.006,3.679-9.006a.793.793,0,0,1,.783-.547.824.824,0,0,1,.836.834.94.94,0,0,1-.078.366l-4.437,10.545a.85.85,0,0,1-1.567,0" transform="translate(-467.04 -384.221)" fill="#fff"/>
  <path id="Caminho_42" data-name="Caminho 42" d="M578.628,410.036c4.176,0,4.986,3.315,4.986,5.091,0,.757,0,1.67-1.044,1.67h-7.622c0,2.584,1.488,4.255,3.942,4.255a4.8,4.8,0,0,0,3.131-1.123.731.731,0,0,1,.469-.156.759.759,0,0,1,.758.757.789.789,0,0,1-.287.6,5.814,5.814,0,0,1-4.072,1.462c-3.472,0-5.639-1.907-5.639-6.291,0-4.02,1.984-6.265,5.377-6.265m0,1.515c-2.27,0-3.523,1.461-3.68,3.785h7.022c0-1.879-.653-3.785-3.342-3.785" transform="translate(-465.797 -384.237)" fill="#fff"/>
  <path id="Caminho_43" data-name="Caminho 43" d="M586.518,412.172a3.768,3.768,0,0,1,3.627-2.089.809.809,0,0,1,0,1.619c-2.4,0-3.627,1.67-3.627,4.071v5.847a.836.836,0,0,1-1.671,0v-10.6a.836.836,0,1,1,1.671,0Z" transform="translate(-464.447 -384.232)" fill="#fff"/>
  <path id="Caminho_44" data-name="Caminho 44" d="M596.211,421.74l-4.359-10.362a.944.944,0,0,1-.078-.365.825.825,0,0,1,.835-.835.79.79,0,0,1,.783.548l3.68,9,3.681-9a.791.791,0,0,1,.783-.548.824.824,0,0,1,.836.835.941.941,0,0,1-.079.365l-5.141,12.241c-1.069,2.559-2.4,3.863-4.881,3.863a.783.783,0,0,1,0-1.565c2.271,0,2.87-1.541,3.942-4.176" transform="translate(-463.675 -384.221)" fill="#fff"/>
  <path id="Caminho_45" data-name="Caminho 45" d="M625.045,414.618V421.2a1.371,1.371,0,0,1-1.421,1.366A1.341,1.341,0,0,1,622.2,421.2v-6.052c0-1.5-.6-2.525-2.314-2.525-1.894,0-2.631,1.026-2.631,2.5V421.2a1.371,1.371,0,0,1-1.42,1.366,1.34,1.34,0,0,1-1.421-1.366v-6.052c0-1.5-.606-2.525-2.315-2.525-1.974,0-2.631,1.158-2.631,2.711V421.2a1.422,1.422,0,0,1-2.841,0v-9.577a1.421,1.421,0,0,1,2.841,0,3.9,3.9,0,0,1,3.368-1.578c2.157,0,3.235.684,3.894,1.709a4.251,4.251,0,0,1,3.762-1.709c3.577,0,4.551,2.289,4.551,4.577" transform="translate(-461.912 -384.237)" fill="#fff"/>
  <path id="Caminho_46" data-name="Caminho 46" d="M627.506,413.567a1.259,1.259,0,0,1-2.026-.975,1.3,1.3,0,0,1,.343-.867,5.52,5.52,0,0,1,4.315-1.684c3.261,0,5.209,1.6,5.209,4.394v6.734a1.394,1.394,0,0,1-2.789,0c-.711,1.131-1.868,1.525-3.446,1.525-2.579,0-4.289-1.6-4.289-3.972,0-2.446,1.974-3.709,4.263-3.709h3.445v-.473c0-1.185-.867-1.974-2.393-1.974a4.343,4.343,0,0,0-2.631,1m5.025,4.393v-.737h-3.077c-1.159,0-1.79.553-1.79,1.5,0,1,.71,1.6,2.184,1.6a2.484,2.484,0,0,0,2.683-2.367" transform="translate(-459.795 -384.237)" fill="#fff"/>
  <path id="Caminho_47" data-name="Caminho 47" d="M637.5,408.536a1.394,1.394,0,1,1,2.788,0v2.21h1.185a1.183,1.183,0,1,1,0,2.367h-1.185v6.367a.97.97,0,0,0,1,.948,1.236,1.236,0,1,1,0,2.473,3.484,3.484,0,0,1-3.788-3.578v-6.209h-.606a1.183,1.183,0,1,1,0-2.367h.606Z" transform="translate(-458.527 -384.574)" fill="#fff"/>
  <path id="Caminho_48" data-name="Caminho 48" d="M648.911,410.041c4.447,0,5.261,3.42,5.261,5.236,0,.972,0,2.1-1.6,2.1h-6.5c0,1.895,1.343,2.763,3.079,2.763a4.514,4.514,0,0,0,2.6-.815,1.415,1.415,0,0,1,.841-.29,1.235,1.235,0,0,1,1.238,1.237,1.316,1.316,0,0,1-.448.973,6.2,6.2,0,0,1-4.236,1.446c-3.657,0-5.92-1.972-5.92-6.366,0-4.026,2.1-6.288,5.682-6.288m-2.762,4.972h5.209a2.354,2.354,0,0,0-2.447-2.552,2.567,2.567,0,0,0-2.762,2.552" transform="translate(-457.652 -384.237)" fill="#fff"/>
  <path id="Caminho_49" data-name="Caminho 49" d="M657.549,413.513c0,1.947,6.472,1.053,6.472,5.394,0,2.473-2.1,3.734-4.814,3.734a6.272,6.272,0,0,1-4.656-1.841,1.224,1.224,0,0,1-.316-.816,1.28,1.28,0,0,1,1.264-1.262,1.235,1.235,0,0,1,.815.315,4.331,4.331,0,0,0,2.894,1.08c1.184,0,1.947-.317,1.947-1.054,0-2.13-6.446-1.026-6.446-5.5,0-2.367,1.974-3.524,4.394-3.524a5.653,5.653,0,0,1,4.261,1.631,1.129,1.129,0,0,1,.263.788,1.28,1.28,0,0,1-1.263,1.264,1.435,1.435,0,0,1-.894-.368,3.8,3.8,0,0,0-2.368-.842c-.975,0-1.553.34-1.553,1" transform="translate(-456.371 -384.237)" fill="#fff"/>
  <path id="Caminho_50" data-name="Caminho 50" d="M515.139,390.062a27.233,27.233,0,0,0-25.37,0c-6.385,3.184-12.769,8.76-12.769,21.682s6.361,22.567,12.722,28.98a57.132,57.132,0,0,0,10.677,8.432,3.961,3.961,0,0,0,4.112,0,57.146,57.146,0,0,0,7.927-5.849h9.079V432.918a38.46,38.46,0,0,0,6.391-21.175c0-12.921-6.384-18.5-12.769-21.682m-22.464,8.277a1.914,1.914,0,0,1,.785-.558l6.644-2.517a2.8,2.8,0,0,1,1.973-.007l6.866,2.552a1.624,1.624,0,0,1,.564.351A1.554,1.554,0,0,1,510,399.3v1.526c.017,0,.032,0,.05,0h1.79a.7.7,0,0,1,.7.7v1.79a.7.7,0,0,1-.7.7h-1.79c-.018,0-.033,0-.051-.006v2.591a8.937,8.937,0,0,1-8.807,8.807,8.813,8.813,0,0,1-8.813-8.807h0v-6.077a7.451,7.451,0,0,1,.3-2.177m2.862,27.423a.223.223,0,0,0-.194.332,39.145,39.145,0,0,0,8.719,10.094,3.122,3.122,0,0,1,.029,4.794,2.641,2.641,0,0,1-1.69.6,2.932,2.932,0,0,1-1.887-.685,46,46,0,0,1-9.93-11.273,5.611,5.611,0,0,1,.635-6.637,15.273,15.273,0,0,1,11.148-5.249h0a15.662,15.662,0,0,1,11.585,5.521,5.26,5.26,0,0,1,1.173,2.507Z" transform="translate(-477 -386.927)" fill="#fff"/>
</svg>
