<svg xmlns="http://www.w3.org/2000/svg" width="198.653" height="84.941" viewBox="0 0 198.653 84.941">
  <g id="hci" transform="translate(0 0)">
    <g id="Grupo_57" data-name="Grupo 57" transform="translate(84.829 19.545)">
      <path id="Caminho_135" data-name="Caminho 135" d="M558.973,664.728v7.809h-1.959V655.185h1.959v7.71h10.013v-7.71h1.959v17.352h-1.959v-7.809Z" transform="translate(-557.014 -654.443)" fill="#fff"/>
      <path id="Caminho_136" data-name="Caminho 136" d="M574.456,668.238a4.421,4.421,0,0,0,1.017,1.363,4.273,4.273,0,0,0,1.388.844,4.6,4.6,0,0,0,1.611.285,4.922,4.922,0,0,0,2.293-.5,6.789,6.789,0,0,0,1.747-1.313l1.19,1.067a7.851,7.851,0,0,1-2.206,1.746,6.516,6.516,0,0,1-3.075.656,6.4,6.4,0,0,1-2.478-.482,6.159,6.159,0,0,1-2.037-1.364,6.525,6.525,0,0,1-1.39-2.12A7.042,7.042,0,0,1,572,665.7a7.394,7.394,0,0,1,.459-2.617,6.6,6.6,0,0,1,1.276-2.13,5.959,5.959,0,0,1,1.946-1.426,6.188,6.188,0,0,1,4.995.012,5.532,5.532,0,0,1,1.883,1.45,6.306,6.306,0,0,1,1.166,2.156,8.7,8.7,0,0,1,.4,2.654v.272a2.458,2.458,0,0,1-.026.323H573.96A5.271,5.271,0,0,0,574.456,668.238Zm7.709-3.26a6.578,6.578,0,0,0-.357-1.66,4.454,4.454,0,0,0-.788-1.388,3.818,3.818,0,0,0-1.231-.954,3.761,3.761,0,0,0-1.689-.359,3.615,3.615,0,0,0-1.552.335,4.028,4.028,0,0,0-1.256.917,4.828,4.828,0,0,0-.888,1.375,5.851,5.851,0,0,0-.443,1.735Z" transform="translate(-555.269 -653.998)" fill="#fff"/>
      <path id="Caminho_137" data-name="Caminho 137" d="M587.634,661.04a11.4,11.4,0,0,0-1.822.682l-.569-1.564a13.118,13.118,0,0,1,2.156-.78,9.949,9.949,0,0,1,2.5-.285,5.756,5.756,0,0,1,4.04,1.3,4.984,4.984,0,0,1,1.413,3.855v7.833h-1.835V670.15a6.259,6.259,0,0,1-1.8,1.535,5.472,5.472,0,0,1-2.838.67,6.244,6.244,0,0,1-1.747-.248,4.771,4.771,0,0,1-1.537-.755,3.879,3.879,0,0,1-1.09-1.253,3.59,3.59,0,0,1-.41-1.759,3.913,3.913,0,0,1,.4-1.8,3.558,3.558,0,0,1,1.127-1.3,5.39,5.39,0,0,1,1.736-.795,8.439,8.439,0,0,1,2.218-.272,13.617,13.617,0,0,1,2.156.149,15.62,15.62,0,0,1,1.785.4v-.447a3.292,3.292,0,0,0-1-2.613,4.128,4.128,0,0,0-2.813-.88A7.64,7.64,0,0,0,587.634,661.04Zm-.611,5.267a2.313,2.313,0,0,0-.963,1.958,2.2,2.2,0,0,0,.26,1.09,2.527,2.527,0,0,0,.7.807,3.276,3.276,0,0,0,1.025.508,4.276,4.276,0,0,0,1.224.174,5.2,5.2,0,0,0,1.667-.261,4.4,4.4,0,0,0,1.36-.72,3.426,3.426,0,0,0,.914-1.088,2.966,2.966,0,0,0,.334-1.4v-1.239q-.717-.2-1.643-.371a11.418,11.418,0,0,0-2.113-.174A4.561,4.561,0,0,0,587.024,666.307Z" transform="translate(-553.861 -653.988)" fill="#fff"/>
      <path id="Caminho_138" data-name="Caminho 138" d="M597.092,672.614V654.52H599v18.094Z" transform="translate(-552.349 -654.52)" fill="#fff"/>
      <path id="Caminho_139" data-name="Caminho 139" d="M604.581,668.824a2.009,2.009,0,0,0,.6,1.66,2.437,2.437,0,0,0,1.562.47,4.112,4.112,0,0,0,.929-.1,4.049,4.049,0,0,0,.93-.347v1.637a4.294,4.294,0,0,1-1.054.41,5.287,5.287,0,0,1-1.251.137,5.005,5.005,0,0,1-1.437-.2,2.821,2.821,0,0,1-1.91-1.759,4.56,4.56,0,0,1-.272-1.66v-7.734h-1.784v-1.686h1.784v-3.867h1.909v3.867h4.066v1.686h-4.066Z" transform="translate(-551.907 -654.373)" fill="#fff"/>
      <path id="Caminho_140" data-name="Caminho 140" d="M611.877,672.614h-1.908V654.52h1.908v7.51a6.033,6.033,0,0,1,1.686-1.773,4.605,4.605,0,0,1,2.7-.73,5.407,5.407,0,0,1,2.07.371,4.29,4.29,0,0,1,1.537,1.053,4.676,4.676,0,0,1,.967,1.624,6.217,6.217,0,0,1,.335,2.083v7.956h-1.909v-7.487a4.122,4.122,0,0,0-.918-2.826,3.313,3.313,0,0,0-2.627-1.04,4.05,4.05,0,0,0-1.524.284,3.592,3.592,0,0,0-1.228.819,3.676,3.676,0,0,0-.8,1.277,4.515,4.515,0,0,0-.286,1.636Z" transform="translate(-550.85 -654.52)" fill="#fff"/>
    </g>
    <g id="Grupo_58" data-name="Grupo 58" transform="translate(83.689 41.029)">
      <path id="Caminho_141" data-name="Caminho 141" d="M570.618,690.3a8.232,8.232,0,0,1-1.574.98,8.122,8.122,0,0,1-1.872.62,11.265,11.265,0,0,1-2.28.209,8.961,8.961,0,0,1-3.544-.693,8.555,8.555,0,0,1-4.686-4.735,9.149,9.149,0,0,1-.669-3.494v-.05a9.062,9.062,0,0,1,.669-3.482,8.932,8.932,0,0,1,1.859-2.85,8.639,8.639,0,0,1,2.851-1.935,9.294,9.294,0,0,1,3.668-.706,11.6,11.6,0,0,1,2.218.2,9.241,9.241,0,0,1,1.823.547,8,8,0,0,1,1.512.841,10.256,10.256,0,0,1,1.288,1.092l-2.429,2.8a9.192,9.192,0,0,0-2.07-1.439,5.27,5.27,0,0,0-2.367-.52A4.849,4.849,0,0,0,563,678.1a4.794,4.794,0,0,0-1.6,1.163,5.47,5.47,0,0,0-1.04,1.723,5.841,5.841,0,0,0-.373,2.1v.048a5.928,5.928,0,0,0,.373,2.108,5.532,5.532,0,0,0,1.028,1.735,4.761,4.761,0,0,0,3.632,1.612,5.3,5.3,0,0,0,2.516-.546,9.832,9.832,0,0,0,2.044-1.487l2.43,2.453A12.624,12.624,0,0,1,570.618,690.3Z" transform="translate(-555.993 -673.718)" fill="#fff"/>
      <path id="Caminho_142" data-name="Caminho 142" d="M585.079,687.453a6.867,6.867,0,0,1-1.514,2.195,7.171,7.171,0,0,1-2.28,1.487,7.44,7.44,0,0,1-2.875.544,7.522,7.522,0,0,1-2.851-.533,6.938,6.938,0,0,1-2.267-1.462,6.772,6.772,0,0,1-1.5-2.18,6.652,6.652,0,0,1-.546-2.689v-.05a6.651,6.651,0,0,1,.546-2.688,6.853,6.853,0,0,1,1.512-2.195,7.167,7.167,0,0,1,2.281-1.487,7.441,7.441,0,0,1,2.876-.545,7.519,7.519,0,0,1,2.85.533,6.963,6.963,0,0,1,2.268,1.462,6.863,6.863,0,0,1,1.5,2.18,6.69,6.69,0,0,1,.544,2.692v.048A6.664,6.664,0,0,1,585.079,687.453Zm-3.174-2.689a3.93,3.93,0,0,0-.248-1.4,3.534,3.534,0,0,0-.719-1.166,3.494,3.494,0,0,0-1.115-.8,3.343,3.343,0,0,0-1.412-.3,3.494,3.494,0,0,0-1.45.287,3.19,3.19,0,0,0-1.078.78,3.444,3.444,0,0,0-.682,1.152,4.11,4.11,0,0,0-.236,1.4v.048a3.927,3.927,0,0,0,.248,1.4,3.547,3.547,0,0,0,1.822,1.972,3.284,3.284,0,0,0,1.426.3,3.478,3.478,0,0,0,1.45-.286,3.2,3.2,0,0,0,1.078-.781,3.419,3.419,0,0,0,.681-1.152,4.11,4.11,0,0,0,.235-1.4Z" transform="translate(-554.218 -673.288)" fill="#fff"/>
      <path id="Caminho_143" data-name="Caminho 143" d="M593.544,691.373v-1.438a5.259,5.259,0,0,1-1.661,1.228,5.473,5.473,0,0,1-2.353.458,5.9,5.9,0,0,1-1.773-.26,4.14,4.14,0,0,1-1.45-.78,3.732,3.732,0,0,1-.979-1.277,4.023,4.023,0,0,1-.359-1.747v-.05a4.185,4.185,0,0,1,.4-1.884,3.623,3.623,0,0,1,1.1-1.313,4.936,4.936,0,0,1,1.685-.78,8.417,8.417,0,0,1,2.169-.26,9.171,9.171,0,0,1,1.772.148,11.139,11.139,0,0,1,1.476.4v-.221a2.256,2.256,0,0,0-.719-1.81,3.181,3.181,0,0,0-2.132-.622,8.771,8.771,0,0,0-1.92.188,12.974,12.974,0,0,0-1.748.532L586.108,679a15.169,15.169,0,0,1,2.281-.769,12.061,12.061,0,0,1,2.876-.3,5.161,5.161,0,0,1,5.925,5.725v7.71Zm.075-5.354a5.76,5.76,0,0,0-1.1-.358,5.9,5.9,0,0,0-1.3-.137,3.351,3.351,0,0,0-1.908.472,1.539,1.539,0,0,0-.694,1.361v.05a1.394,1.394,0,0,0,.57,1.191,2.443,2.443,0,0,0,1.487.421,3.331,3.331,0,0,0,2.143-.645,2.054,2.054,0,0,0,.806-1.685Z" transform="translate(-552.621 -673.278)" fill="#fff"/>
      <path id="Caminho_144" data-name="Caminho 144" d="M607.5,691a6.681,6.681,0,0,1-3.222.679,6.97,6.97,0,0,1-2.764-.544,6.809,6.809,0,0,1-4.153-6.321v-.05a6.953,6.953,0,0,1,.521-2.676,6.861,6.861,0,0,1,1.438-2.207,6.7,6.7,0,0,1,2.194-1.487,7.1,7.1,0,0,1,2.813-.545,7.2,7.2,0,0,1,3.124.6,6.989,6.989,0,0,1,2.18,1.637l-2.3,2.477A6.186,6.186,0,0,0,606,681.492a3.347,3.347,0,0,0-1.7-.4,2.923,2.923,0,0,0-1.3.287,3.2,3.2,0,0,0-1.016.78,3.572,3.572,0,0,0-.67,1.152,4.113,4.113,0,0,0-.234,1.4v.048a4.3,4.3,0,0,0,.234,1.439,3.389,3.389,0,0,0,.682,1.163,3.2,3.2,0,0,0,1.066.781,3.262,3.262,0,0,0,1.388.286,3.4,3.4,0,0,0,1.648-.385,6.967,6.967,0,0,0,1.4-1.029l2.206,2.232A8.491,8.491,0,0,1,607.5,691Z" transform="translate(-551.178 -673.288)" fill="#fff"/>
      <path id="Caminho_145" data-name="Caminho 145" d="M618.128,691.858v-7.394a2.987,2.987,0,0,0-.594-2.015,2.125,2.125,0,0,0-1.687-.68,2.238,2.238,0,0,0-1.723.68,2.869,2.869,0,0,0-.632,2.015v7.394h-3.768V673.764h3.768v6.707a8.171,8.171,0,0,1,.707-.812,4.924,4.924,0,0,1,.855-.685,4.19,4.19,0,0,1,1.04-.475,4.417,4.417,0,0,1,1.289-.175,4.249,4.249,0,0,1,3.335,1.313,5.229,5.229,0,0,1,1.177,3.619v8.6Z" transform="translate(-549.739 -673.764)" fill="#fff"/>
      <path id="Caminho_146" data-name="Caminho 146" d="M622.736,677.11v-3.346H626.7v3.346Zm.1,14.749V678.572H626.6v13.286Z" transform="translate(-548.225 -673.764)" fill="#fff"/>
      <path id="Caminho_147" data-name="Caminho 147" d="M636.889,691.383v-7.394a2.987,2.987,0,0,0-.594-2.015,2.123,2.123,0,0,0-1.687-.68,2.238,2.238,0,0,0-1.722.68,2.874,2.874,0,0,0-.631,2.015v7.394h-3.769V678.1h3.769V680a8.127,8.127,0,0,1,.706-.812,4.964,4.964,0,0,1,.855-.685,4.176,4.176,0,0,1,1.042-.475,4.4,4.4,0,0,1,1.288-.175,4.247,4.247,0,0,1,3.335,1.313,5.23,5.23,0,0,1,1.178,3.619v8.6Z" transform="translate(-547.555 -673.288)" fill="#fff"/>
      <path id="Caminho_148" data-name="Caminho 148" d="M654.4,691.593a5.129,5.129,0,0,1-1.389,2.17A5.752,5.752,0,0,1,650.689,695a11.92,11.92,0,0,1-3.248.4,13.227,13.227,0,0,1-3.122-.361,11.656,11.656,0,0,1-2.752-1.027l1.289-2.826a11.131,11.131,0,0,0,2.094.891,8.189,8.189,0,0,0,2.392.324,3.932,3.932,0,0,0,2.862-.919,3.63,3.63,0,0,0,.93-2.7v-.645a6.856,6.856,0,0,1-1.834,1.588,4.989,4.989,0,0,1-2.5.568,6.176,6.176,0,0,1-2.231-.408,5.505,5.505,0,0,1-1.883-1.2,5.768,5.768,0,0,1-1.3-1.946,6.777,6.777,0,0,1-.485-2.641v-.048a6.626,6.626,0,0,1,.5-2.64,5.943,5.943,0,0,1,1.313-1.947,5.533,5.533,0,0,1,1.884-1.2,6.061,6.061,0,0,1,2.206-.41,5.027,5.027,0,0,1,2.529.569,7.271,7.271,0,0,1,1.759,1.413V678.1h3.769v10.286A9.9,9.9,0,0,1,654.4,691.593Zm-3.26-7.547a3.085,3.085,0,0,0-.249-1.24,2.924,2.924,0,0,0-.681-.979,3.014,3.014,0,0,0-1.028-.631,3.628,3.628,0,0,0-1.289-.224,3.519,3.519,0,0,0-1.276.224,3.042,3.042,0,0,0-1.017.631,2.928,2.928,0,0,0-.681.979,3.084,3.084,0,0,0-.248,1.24v.048a2.881,2.881,0,0,0,.917,2.232,3.271,3.271,0,0,0,2.305.843,3.653,3.653,0,0,0,1.289-.223,3.017,3.017,0,0,0,1.028-.632,2.93,2.93,0,0,0,.681-.978,3.082,3.082,0,0,0,.249-1.241Z" transform="translate(-546.111 -673.288)" fill="#fff"/>
      <path id="Caminho_149" data-name="Caminho 149" d="M655.4,690.385v-3.966h3.99v3.966Z" transform="translate(-544.423 -672.291)" fill="#fff"/>
    </g>
    <g id="Grupo_59" data-name="Grupo 59" transform="translate(84.829 62.835)">
      <path id="Caminho_150" data-name="Caminho 150" d="M557.754,693.549v6.56h-.74v-6.56Z" transform="translate(-557.014 -693.268)" fill="#fff"/>
      <path id="Caminho_151" data-name="Caminho 151" d="M559.674,699.941h-.721v-4.846h.721v.844a2.319,2.319,0,0,1,.638-.671,1.755,1.755,0,0,1,1.021-.275,2.025,2.025,0,0,1,.783.139,1.618,1.618,0,0,1,.582.4,1.737,1.737,0,0,1,.365.614,2.353,2.353,0,0,1,.126.788v3.007h-.721V697.11a1.554,1.554,0,0,0-.347-1.067,1.25,1.25,0,0,0-.993-.4,1.558,1.558,0,0,0-.576.108,1.342,1.342,0,0,0-.463.31,1.38,1.38,0,0,0-.3.482,1.719,1.719,0,0,0-.108.618Z" transform="translate(-556.788 -693.1)" fill="#fff"/>
      <path id="Caminho_152" data-name="Caminho 152" d="M564.808,698.705a.759.759,0,0,0,.226.629.922.922,0,0,0,.59.176,1.533,1.533,0,0,0,.352-.037,1.62,1.62,0,0,0,.352-.132v.62a1.71,1.71,0,0,1-.4.155,2.049,2.049,0,0,1-.472.051,1.925,1.925,0,0,1-.544-.075,1.13,1.13,0,0,1-.437-.24,1.1,1.1,0,0,1-.286-.427,1.708,1.708,0,0,1-.1-.627v-2.925h-.675v-.638h.675v-1.462h.721v1.462h1.537v.638h-1.537Z" transform="translate(-556.269 -693.241)" fill="#fff"/>
      <path id="Caminho_153" data-name="Caminho 153" d="M567.378,698.484a1.7,1.7,0,0,0,.385.515,1.646,1.646,0,0,0,.525.319,1.723,1.723,0,0,0,.609.108,1.846,1.846,0,0,0,.866-.19,2.527,2.527,0,0,0,.661-.495l.45.4a2.951,2.951,0,0,1-.834.66,2.466,2.466,0,0,1-1.162.248,2.4,2.4,0,0,1-.938-.183,2.322,2.322,0,0,1-.77-.515,2.467,2.467,0,0,1-.525-.8,2.645,2.645,0,0,1-.2-1.03,2.82,2.82,0,0,1,.173-.989,2.529,2.529,0,0,1,.484-.806,2.231,2.231,0,0,1,.736-.538,2.188,2.188,0,0,1,.932-.2,2.21,2.21,0,0,1,.956.2,2.088,2.088,0,0,1,.713.549,2.391,2.391,0,0,1,.44.815,3.262,3.262,0,0,1,.151,1v.1a.8.8,0,0,1-.01.122H567.19A2.037,2.037,0,0,0,567.378,698.484Zm2.916-1.232a2.5,2.5,0,0,0-.136-.629,1.689,1.689,0,0,0-.3-.526,1.456,1.456,0,0,0-.466-.359,1.425,1.425,0,0,0-.637-.135,1.381,1.381,0,0,0-.588.125,1.559,1.559,0,0,0-.474.346,1.811,1.811,0,0,0-.335.521,2.178,2.178,0,0,0-.169.656Z" transform="translate(-555.916 -693.1)" fill="#fff"/>
      <path id="Caminho_154" data-name="Caminho 154" d="M572.074,699.939h-.722v-4.846h.722v1.266a2.6,2.6,0,0,1,.328-.554,2.243,2.243,0,0,1,.45-.434,1.892,1.892,0,0,1,1.2-.362v.778H574a2,2,0,0,0-.745.14,1.71,1.71,0,0,0-.615.423,1.989,1.989,0,0,0-.412.7,2.861,2.861,0,0,0-.15.961Z" transform="translate(-555.345 -693.098)" fill="#fff"/>
      <path id="Caminho_155" data-name="Caminho 155" d="M575.138,699.941h-.721v-4.846h.721v.844a2.34,2.34,0,0,1,.639-.671,1.753,1.753,0,0,1,1.021-.275,2.019,2.019,0,0,1,.781.139,1.621,1.621,0,0,1,.583.4,1.753,1.753,0,0,1,.364.614,2.326,2.326,0,0,1,.127.788v3.007h-.721V697.11a1.555,1.555,0,0,0-.347-1.067,1.252,1.252,0,0,0-.994-.4,1.554,1.554,0,0,0-.576.108,1.338,1.338,0,0,0-.464.31,1.4,1.4,0,0,0-.3.482,1.718,1.718,0,0,0-.108.618Z" transform="translate(-554.988 -693.1)" fill="#fff"/>
      <path id="Caminho_156" data-name="Caminho 156" d="M580.26,695.762a4.246,4.246,0,0,0-.689.258l-.216-.591a4.84,4.84,0,0,1,.815-.295,3.732,3.732,0,0,1,.948-.108,2.17,2.17,0,0,1,1.527.492,1.881,1.881,0,0,1,.534,1.456v2.963h-.692v-.731a2.389,2.389,0,0,1-.681.582,2.072,2.072,0,0,1-1.072.251,2.369,2.369,0,0,1-.662-.091,1.8,1.8,0,0,1-.581-.287,1.465,1.465,0,0,1-.412-.472,1.374,1.374,0,0,1-.155-.667,1.484,1.484,0,0,1,.151-.68,1.334,1.334,0,0,1,.427-.491,2.03,2.03,0,0,1,.655-.3,3.175,3.175,0,0,1,.84-.1,5.109,5.109,0,0,1,.815.057,5.6,5.6,0,0,1,.675.15v-.17a1.25,1.25,0,0,0-.38-.989,1.563,1.563,0,0,0-1.065-.332A2.942,2.942,0,0,0,580.26,695.762Zm-.231,1.992a.875.875,0,0,0-.364.74.853.853,0,0,0,.1.413.943.943,0,0,0,.266.3,1.218,1.218,0,0,0,.389.193,1.573,1.573,0,0,0,.462.067,2,2,0,0,0,.631-.1,1.71,1.71,0,0,0,.513-.274,1.256,1.256,0,0,0,.346-.413,1.111,1.111,0,0,0,.125-.528v-.469c-.181-.05-.386-.1-.621-.141a4.38,4.38,0,0,0-.8-.065A1.732,1.732,0,0,0,580.029,697.753Z" transform="translate(-554.464 -693.096)" fill="#fff"/>
      <path id="Caminho_157" data-name="Caminho 157" d="M584.755,698.705a.762.762,0,0,0,.224.629.923.923,0,0,0,.591.176,1.541,1.541,0,0,0,.352-.037,1.64,1.64,0,0,0,.352-.132v.62a1.729,1.729,0,0,1-.4.155,2.052,2.052,0,0,1-.473.051,1.937,1.937,0,0,1-.544-.075,1.147,1.147,0,0,1-.436-.24,1.107,1.107,0,0,1-.286-.427,1.73,1.73,0,0,1-.1-.627v-2.925h-.676v-.638h.676v-1.462h.721v1.462h1.537v.638h-1.537Z" transform="translate(-553.948 -693.241)" fill="#fff"/>
      <path id="Caminho_158" data-name="Caminho 158" d="M586.808,694.218v-.8h.825v.8Zm.047,5.906v-4.846h.722v4.846Z" transform="translate(-553.546 -693.282)" fill="#fff"/>
      <path id="Caminho_159" data-name="Caminho 159" d="M593.254,698.492a2.478,2.478,0,0,1-1.335,1.361,2.562,2.562,0,0,1-1.013.2,2.5,2.5,0,0,1-1-.2,2.573,2.573,0,0,1-.8-.545,2.44,2.44,0,0,1-.525-.8,2.531,2.531,0,0,1-.187-.975,2.581,2.581,0,0,1,.188-.981,2.492,2.492,0,0,1,.525-.809,2.459,2.459,0,0,1,.8-.549,2.556,2.556,0,0,1,1.018-.2,2.5,2.5,0,0,1,1.809.745,2.461,2.461,0,0,1,.525.8,2.555,2.555,0,0,1,.188.975A2.525,2.525,0,0,1,593.254,698.492Zm-.683-1.7a1.824,1.824,0,0,0-.952-1.01,1.679,1.679,0,0,0-.712-.15,1.74,1.74,0,0,0-.721.146,1.6,1.6,0,0,0-.557.4,1.911,1.911,0,0,0-.36.6,2.022,2.022,0,0,0-.132.736,1.994,1.994,0,0,0,.136.739,1.85,1.85,0,0,0,.374.6,1.772,1.772,0,0,0,.567.4,1.688,1.688,0,0,0,.713.15,1.774,1.774,0,0,0,.721-.143,1.7,1.7,0,0,0,.562-.4,1.845,1.845,0,0,0,.366-.594,2.045,2.045,0,0,0,.131-.735A2,2,0,0,0,592.57,696.789Z" transform="translate(-553.362 -693.1)" fill="#fff"/>
      <path id="Caminho_160" data-name="Caminho 160" d="M594.472,699.941h-.721v-4.846h.721v.844a2.322,2.322,0,0,1,.639-.671,1.751,1.751,0,0,1,1.02-.275,2.021,2.021,0,0,1,.782.139,1.617,1.617,0,0,1,.582.4,1.74,1.74,0,0,1,.365.614,2.326,2.326,0,0,1,.127.788v3.007h-.722V697.11a1.554,1.554,0,0,0-.346-1.067,1.252,1.252,0,0,0-.994-.4,1.553,1.553,0,0,0-.576.108,1.336,1.336,0,0,0-.464.31,1.374,1.374,0,0,0-.3.482,1.715,1.715,0,0,0-.108.618Z" transform="translate(-552.738 -693.1)" fill="#fff"/>
      <path id="Caminho_161" data-name="Caminho 161" d="M599.594,695.762a4.245,4.245,0,0,0-.689.258l-.215-.591a4.8,4.8,0,0,1,.815-.295,3.732,3.732,0,0,1,.948-.108,2.172,2.172,0,0,1,1.527.492,1.882,1.882,0,0,1,.534,1.456v2.963h-.693v-.731a2.381,2.381,0,0,1-.68.582,2.072,2.072,0,0,1-1.072.251,2.371,2.371,0,0,1-.662-.091,1.8,1.8,0,0,1-.58-.287,1.452,1.452,0,0,1-.412-.472,1.363,1.363,0,0,1-.155-.667,1.5,1.5,0,0,1,.15-.68,1.337,1.337,0,0,1,.428-.491,2.029,2.029,0,0,1,.655-.3,3.176,3.176,0,0,1,.84-.1,5.108,5.108,0,0,1,.815.057,5.582,5.582,0,0,1,.674.15v-.17a1.249,1.249,0,0,0-.378-.989,1.565,1.565,0,0,0-1.065-.332A2.942,2.942,0,0,0,599.594,695.762Zm-.231,1.992a.874.874,0,0,0-.364.74.853.853,0,0,0,.1.413.943.943,0,0,0,.266.3,1.218,1.218,0,0,0,.388.193,1.568,1.568,0,0,0,.462.067,2,2,0,0,0,.631-.1,1.713,1.713,0,0,0,.514-.274,1.256,1.256,0,0,0,.346-.413,1.123,1.123,0,0,0,.125-.528v-.469c-.181-.05-.387-.1-.621-.141a4.378,4.378,0,0,0-.8-.065A1.731,1.731,0,0,0,599.363,697.753Z" transform="translate(-552.213 -693.096)" fill="#fff"/>
      <path id="Caminho_162" data-name="Caminho 162" d="M603.171,700.138V693.3h.721v6.841Z" transform="translate(-551.642 -693.297)" fill="#fff"/>
      <path id="Caminho_163" data-name="Caminho 163" d="M608.074,693.549v6.56h-.74v-6.56Z" transform="translate(-551.157 -693.268)" fill="#fff"/>
      <path id="Caminho_164" data-name="Caminho 164" d="M609.994,699.941h-.721v-4.846h.721v.844a2.318,2.318,0,0,1,.637-.671,1.755,1.755,0,0,1,1.022-.275,2.025,2.025,0,0,1,.783.139,1.617,1.617,0,0,1,.582.4,1.737,1.737,0,0,1,.365.614,2.353,2.353,0,0,1,.126.788v3.007h-.721V697.11a1.554,1.554,0,0,0-.347-1.067,1.25,1.25,0,0,0-.994-.4,1.557,1.557,0,0,0-.576.108,1.342,1.342,0,0,0-.463.31,1.38,1.38,0,0,0-.3.482,1.718,1.718,0,0,0-.108.618Z" transform="translate(-550.931 -693.1)" fill="#fff"/>
      <path id="Caminho_165" data-name="Caminho 165" d="M617.343,699.193a1.374,1.374,0,0,1-.366.454,1.613,1.613,0,0,1-.544.287,2.284,2.284,0,0,1-.679.1,3.128,3.128,0,0,1-1.06-.192,3.282,3.282,0,0,1-.947-.521l.365-.515a3.2,3.2,0,0,0,.821.46,2.431,2.431,0,0,0,.857.16,1.188,1.188,0,0,0,.721-.207.658.658,0,0,0,.281-.563v-.02a.5.5,0,0,0-.1-.308.891.891,0,0,0-.267-.23,2.133,2.133,0,0,0-.39-.173c-.146-.049-.3-.1-.454-.142q-.281-.082-.567-.183a2.284,2.284,0,0,1-.515-.247,1.254,1.254,0,0,1-.375-.376,1.009,1.009,0,0,1-.146-.562V696.4a1.315,1.315,0,0,1,.123-.568,1.289,1.289,0,0,1,.341-.44,1.591,1.591,0,0,1,.525-.281,2.174,2.174,0,0,1,.662-.1,3.034,3.034,0,0,1,.909.145,3.325,3.325,0,0,1,.834.39l-.328.543a3.3,3.3,0,0,0-.707-.343,2.262,2.262,0,0,0-.727-.125,1.056,1.056,0,0,0-.684.2.616.616,0,0,0-.253.5v.018a.458.458,0,0,0,.1.295.881.881,0,0,0,.277.22,2.455,2.455,0,0,0,.4.17c.15.05.306.1.468.148.188.057.374.121.558.189a2.2,2.2,0,0,1,.5.262,1.29,1.29,0,0,1,.362.385,1.051,1.051,0,0,1,.135.553v.019A1.338,1.338,0,0,1,617.343,699.193Z" transform="translate(-550.41 -693.098)" fill="#fff"/>
      <path id="Caminho_166" data-name="Caminho 166" d="M618.888,698.705a.759.759,0,0,0,.226.629.922.922,0,0,0,.589.176,1.534,1.534,0,0,0,.352-.037,1.651,1.651,0,0,0,.353-.132v.62a1.736,1.736,0,0,1-.4.155,2.048,2.048,0,0,1-.472.051,1.925,1.925,0,0,1-.544-.075,1.129,1.129,0,0,1-.436-.24,1.1,1.1,0,0,1-.286-.427,1.706,1.706,0,0,1-.1-.627v-2.925h-.675v-.638h.675v-1.462h.721v1.462h1.537v.638h-1.537Z" transform="translate(-549.975 -693.241)" fill="#fff"/>
      <path id="Caminho_167" data-name="Caminho 167" d="M620.943,694.218v-.8h.824v.8Zm.047,5.906v-4.846h.721v4.846Z" transform="translate(-549.573 -693.282)" fill="#fff"/>
      <path id="Caminho_168" data-name="Caminho 168" d="M623.817,698.705a.759.759,0,0,0,.225.629.92.92,0,0,0,.589.176,1.539,1.539,0,0,0,.352-.037,1.621,1.621,0,0,0,.352-.132v.62a1.712,1.712,0,0,1-.4.155,2.052,2.052,0,0,1-.473.051,1.937,1.937,0,0,1-.544-.075,1.133,1.133,0,0,1-.435-.24,1.1,1.1,0,0,1-.287-.427,1.73,1.73,0,0,1-.1-.627v-2.925h-.675v-.638h.675v-1.462h.721v1.462h1.537v.638h-1.537Z" transform="translate(-549.401 -693.241)" fill="#fff"/>
      <path id="Caminho_169" data-name="Caminho 169" d="M629.3,695.084h.711v4.846H629.3v-.844a2.3,2.3,0,0,1-.637.671,1.74,1.74,0,0,1-1.022.275,2.023,2.023,0,0,1-.783-.139,1.605,1.605,0,0,1-.582-.4,1.721,1.721,0,0,1-.365-.613,2.326,2.326,0,0,1-.126-.787v-3.01h.721v2.831a1.554,1.554,0,0,0,.347,1.067,1.25,1.25,0,0,0,.994.4,1.538,1.538,0,0,0,.576-.108,1.327,1.327,0,0,0,.459-.308,1.518,1.518,0,0,0,.3-.483,1.658,1.658,0,0,0,.113-.62Z" transform="translate(-549.009 -693.089)" fill="#fff"/>
      <path id="Caminho_170" data-name="Caminho 170" d="M631.708,698.705a.759.759,0,0,0,.226.629.922.922,0,0,0,.589.176,1.54,1.54,0,0,0,.352-.037,1.618,1.618,0,0,0,.352-.132v.62a1.711,1.711,0,0,1-.4.155,2.053,2.053,0,0,1-.473.051,1.923,1.923,0,0,1-.543-.075,1.13,1.13,0,0,1-.437-.24,1.11,1.11,0,0,1-.287-.427,1.731,1.731,0,0,1-.1-.627v-2.925h-.676v-.638h.676v-1.462h.721v1.462h1.537v.638h-1.537Z" transform="translate(-548.483 -693.241)" fill="#fff"/>
      <path id="Caminho_171" data-name="Caminho 171" d="M634.278,698.484a1.7,1.7,0,0,0,.385.515,1.646,1.646,0,0,0,.525.319,1.718,1.718,0,0,0,.609.108,1.845,1.845,0,0,0,.866-.19,2.527,2.527,0,0,0,.661-.495l.45.4a2.966,2.966,0,0,1-.834.66,2.465,2.465,0,0,1-1.162.248,2.4,2.4,0,0,1-.938-.183,2.32,2.32,0,0,1-.77-.515,2.464,2.464,0,0,1-.525-.8,2.644,2.644,0,0,1-.2-1.03,2.819,2.819,0,0,1,.173-.989,2.529,2.529,0,0,1,.482-.806,2.236,2.236,0,0,1,.737-.538,2.188,2.188,0,0,1,.932-.2,2.211,2.211,0,0,1,.956.2,2.074,2.074,0,0,1,.712.549,2.375,2.375,0,0,1,.441.815,3.26,3.26,0,0,1,.151,1v.1a.8.8,0,0,1-.01.122H634.09A2.037,2.037,0,0,0,634.278,698.484Zm2.916-1.232a2.546,2.546,0,0,0-.136-.629,1.687,1.687,0,0,0-.3-.526,1.456,1.456,0,0,0-.466-.359,1.428,1.428,0,0,0-.637-.135,1.381,1.381,0,0,0-.588.125,1.561,1.561,0,0,0-.474.346,1.81,1.81,0,0,0-.335.521,2.174,2.174,0,0,0-.169.656Z" transform="translate(-548.129 -693.1)" fill="#fff"/>
    </g>
    <g id="Grupo_60" data-name="Grupo 60">
      <path id="Caminho_172" data-name="Caminho 172" d="M486.608,661.094v35.278l30.551,17.639,30.551-17.639V661.094l-30.551-17.639Zm20.826,27.078h-3.854v-7.033h-7.108v7.033h-3.855v-17.52h3.855v6.933h7.108v-6.933h3.854Zm29.026-17.52h3.855v17.52h-3.855Zm-7.292,0h3.854v17.52h-3.854Zm-8.046-.1a9.422,9.422,0,0,1,1.84.553,7.935,7.935,0,0,1,1.526.85,10.292,10.292,0,0,1,1.3,1.1l-2.453,2.83a9.292,9.292,0,0,0-2.09-1.452,5.321,5.321,0,0,0-2.39-.526,4.9,4.9,0,0,0-2.04.425,4.843,4.843,0,0,0-1.614,1.176,5.51,5.51,0,0,0-1.051,1.739,5.893,5.893,0,0,0-.376,2.117v.048a5.992,5.992,0,0,0,.376,2.129,5.6,5.6,0,0,0,1.038,1.752,4.821,4.821,0,0,0,3.666,1.628,5.356,5.356,0,0,0,2.541-.553,9.9,9.9,0,0,0,2.064-1.5l2.453,2.476a12.657,12.657,0,0,1-1.4,1.3,8.171,8.171,0,0,1-3.479,1.615,11.39,11.39,0,0,1-2.3.211,9.053,9.053,0,0,1-3.579-.7,8.785,8.785,0,0,1-2.853-1.915,8.694,8.694,0,0,1-1.877-2.866,9.234,9.234,0,0,1-.675-3.528v-.051a9.142,9.142,0,0,1,.675-3.516,9.02,9.02,0,0,1,1.877-2.877,8.706,8.706,0,0,1,2.879-1.954,9.383,9.383,0,0,1,3.7-.714A11.736,11.736,0,0,1,521.122,670.552Z" transform="translate(-480.38 -636.263)" fill="#fff"/>
      <path id="Caminho_173" data-name="Caminho 173" d="M517.81,637.013l-36.781,21.235v42.47l36.781,21.236,36.78-21.236v-42.47Zm31.97,60.928L517.809,716.4l-31.97-18.458V661.024l31.97-18.458,31.971,18.458Z" transform="translate(-481.029 -637.013)" fill="#fff"/>
    </g>
  </g>
</svg>
