<svg xmlns="http://www.w3.org/2000/svg" width="76.772" height="72.912" viewBox="0 0 76.772 72.912">
  <g id="Grupo_106" data-name="Grupo 106" transform="translate(-1432.921 -2193.594)">
    <path id="Caminho_332" data-name="Caminho 332" d="M32.618,14.256c27.938-26.011,43.928,3.357,43.928,24.422a38.14,38.14,0,0,1-38.14,38.14c-21.064,0-35.164-14.7-35-29.012S4.68,40.267,32.618,14.256Z" transform="translate(1430 2189.689)" fill="#04bfcb"/>
    <g id="Grupo_14302" data-name="Grupo 14302" transform="translate(-201.069 1844.158)">
      <g id="Grupo_3009" data-name="Grupo 3009" transform="translate(1668.411 375.804) rotate(-25)">
        <path id="Caminho_1860" data-name="Caminho 1860" d="M35.711,16.872c1.28-2.343,1.119-5.608,1.147-8.173A22.975,22.975,0,0,0,35.706.187a.277.277,0,0,0-.461-.1c-.735.69-.66,1.679-.653,2.639.016,2.435.271,4.8.172,7.248-.155,3.815-.154,7.156-4.858,8.184a31.292,31.292,0,0,1-6.261.448c-4.125.031-8.309.405-12.413.255-3.151-.115-4.45.311-4.859-3.439-.108-.991-.257-2.22-.307-3.38.724.381,1.447.823,2.155,1.128a1.029,1.029,0,0,0,.969-1.813C8.032,10.6,6.17,8.06,4.512,8.384c-1.426.279-3.14,3.179-4.2,4.11-.922.807.431,2.453,1.387,1.662.416-.345,1.367-1.625,2.188-2.548a45.889,45.889,0,0,0,.351,5.051c.208,1.947.66,3.4,2.672,4.033a20.721,20.721,0,0,0,6.572.393c3.231-.155,6.475-.264,9.721-.294C27.34,20.752,33.4,21.1,35.711,16.872Z" transform="translate(0 0)" fill="#050505"/>
      </g>
      <g id="Grupo_2997" data-name="Grupo 2997" transform="translate(1662.346 393.051)">
        <g id="Grupo_2995" data-name="Grupo 2995" transform="translate(1.547 1.183)">
          <path id="Caminho_1849" data-name="Caminho 1849" d="M1766.878,489.139c.159,6.945.6,15.3.056,22.232,11.045,1.412,22.318-.188,33.4.926a.715.715,0,0,0,.422-.043.6.6,0,0,0,.236-.461,79.19,79.19,0,0,0,.7-21.371,1.091,1.091,0,0,0-.172-.572c-.25-.325-.761-.321-1.19-.288-11.349.862-22.76-1.433-34.12-.7" transform="translate(-1766.213 -488.718)" fill="#fff"/>
        </g>
        <g id="Grupo_2996" data-name="Grupo 2996" transform="translate(0)">
          <path id="Caminho_1850" data-name="Caminho 1850" d="M1794.909,511.524a2.712,2.712,0,0,1-.3-.018,137,137,0,0,0-15.706-.359,124.874,124.874,0,0,1-17.725-.571l-1.119-.143.088-1.124a174.183,174.183,0,0,0,.062-17.737c-.035-1.228-.073-2.434-.1-3.6a1.184,1.184,0,0,1,.424-2.254,129.932,129.932,0,0,1,16.87.373,122.257,122.257,0,0,0,17.237.325,2.45,2.45,0,0,1,2.217.745,2.2,2.2,0,0,1,.411,1.168,80.3,80.3,0,0,1-.712,21.7,1.744,1.744,0,0,1-.818,1.293A1.669,1.669,0,0,1,1794.909,511.524Zm-10.583-2.8c3.207,0,6.44.081,9.644.378a77.981,77.981,0,0,0,.624-20.331l-.113.007a124.791,124.791,0,0,1-17.573-.322,144.292,144.292,0,0,0-14.769-.464c.029,1.142.065,2.317.1,3.515.162,5.424.344,11.524.01,16.857a131.822,131.822,0,0,0,16.279.421C1780.441,508.75,1782.379,508.721,1784.325,508.721Z" transform="translate(-1759.428 -485.566)"/>
        </g>
      </g>
      <g id="Grupo_2998" data-name="Grupo 2998" transform="translate(1666.462 353.035)">
        <path id="Caminho_1851" data-name="Caminho 1851" d="M1800.581,404.628c-.36-7.866-1-17.328-.77-25.192-9.4-1.332-18.892.755-28.314-.239a.466.466,0,0,0-.355.059.78.78,0,0,0-.185.528,119.8,119.8,0,0,0,.1,24.235,1.557,1.557,0,0,0,.164.644c.223.362.653.276,1.017.3" transform="translate(-1770.391 -378.976)"/>
      </g>
      <g id="Grupo_3001" data-name="Grupo 3001" transform="translate(1662.747 349.436)">
        <g id="Grupo_2999" data-name="Grupo 2999" transform="translate(1.003 1.002)">
          <path id="Caminho_1852" data-name="Caminho 1852" d="M1793.358,397.71c-.36-7.866-1-17.328-.77-25.192-9.4-1.332-18.892.755-28.314-.239a.467.467,0,0,0-.356.059.783.783,0,0,0-.185.528,119.831,119.831,0,0,0,.1,24.235,1.557,1.557,0,0,0,.164.644c.223.362.656.345,1.017.3,9.582-1.253,19.319,1.071,28.915-.039" transform="translate(-1763.169 -372.058)" fill="#fff"/>
        </g>
        <g id="Grupo_3000" data-name="Grupo 3000" transform="translate(0 0)">
          <path id="Caminho_1853" data-name="Caminho 1853" d="M1786.363,397.649c-2.8,0-5.592-.165-8.328-.327a77.652,77.652,0,0,0-14.556.049,1.858,1.858,0,0,1-2-.769,2.449,2.449,0,0,1-.306-1.064,120.834,120.834,0,0,1-.1-24.436,1.7,1.7,0,0,1,.556-1.214,1.425,1.425,0,0,1,1.084-.274,86.684,86.684,0,0,0,13.279.025,79.448,79.448,0,0,1,15.074.219l.888.126-.026.9c-.185,6.237.192,13.647.525,20.184.076,1.487.15,2.943.217,4.352a1,1,0,0,1-.289,1.915A52.356,52.356,0,0,1,1786.363,397.649Zm-16.535-2.657c2.8,0,5.586.165,8.324.327a90.794,90.794,0,0,0,12.507.165c-.065-1.4-.139-2.842-.214-4.316-.318-6.263-.679-13.322-.55-19.438a83.16,83.16,0,0,0-13.809-.087,91.559,91.559,0,0,1-13.053.02,118.683,118.683,0,0,0,.132,23.665c0,.016,0,.037.006.06l.047-.006A50.941,50.941,0,0,1,1769.828,394.992Z" transform="translate(-1760.498 -369.39)"/>
        </g>
      </g>
      <g id="Grupo_3002" data-name="Grupo 3002" transform="translate(1669.427 401.427)">
        <path id="Caminho_1854" data-name="Caminho 1854" d="M1800.557,510.835c-2.675,0-5.377-.152-8-.3a82.96,82.96,0,0,0-12.968-.056,1.2,1.2,0,0,1-1.3-1.058,1.184,1.184,0,0,1,1.058-1.3,84.882,84.882,0,0,1,13.34.047c2.762.155,5.631.318,8.4.293h.009a1.184,1.184,0,0,1,.01,2.368Z" transform="translate(-1778.289 -507.875)"/>
      </g>
      <g id="Grupo_3003" data-name="Grupo 3003" transform="translate(1669.427 408.715)">
        <path id="Caminho_1855" data-name="Caminho 1855" d="M1797.5,530.017c-6.015,0-12.078-.121-18.071-.362a1.184,1.184,0,0,1,.1-2.366c7.158.288,14.416.408,21.571.345h.009a1.184,1.184,0,0,1,.01,2.368Q1799.31,530.018,1797.5,530.017Z" transform="translate(-1778.291 -527.288)"/>
      </g>
      <g id="Grupo_3004" data-name="Grupo 3004" transform="translate(1663.748 361.148)">
        <path id="Caminho_1856" data-name="Caminho 1856" d="M1763.832,412.381a.668.668,0,0,1-.513-1.1l6.151-7.382a1.329,1.329,0,0,1,2.085.054l3.134,4.18,10.972-7.323a1.324,1.324,0,0,1,1.821.333l6.313,8.839a.669.669,0,0,1-1.089.777l-6.313-8.839-10.972,7.323a1.329,1.329,0,0,1-1.8-.307l-3.135-4.181-6.139,7.382A.667.667,0,0,1,1763.832,412.381Z" transform="translate(-1763.163 -400.588)"/>
      </g>
      <g id="Grupo_3007" data-name="Grupo 3007" transform="translate(1674.027 356.227)">
        <g id="Grupo_3005" data-name="Grupo 3005" transform="translate(0.669 0.668)">
          <path id="Caminho_1857" data-name="Caminho 1857" d="M1793.482,389.634a.707.707,0,0,0-.591.17,1.678,1.678,0,0,0-.506,1.013,2.508,2.508,0,0,0,.4,2.058,2.832,2.832,0,0,0,1,.707,3.852,3.852,0,0,0,1.538.417,1.463,1.463,0,0,0,.654-.113,1.611,1.611,0,0,0,.706-.782,3.559,3.559,0,0,0,.384-1.624,1.849,1.849,0,0,0-.156-.785,1.99,1.99,0,0,0-.483-.6,3.244,3.244,0,0,0-1.368-.767,2.1,2.1,0,0,0-1.537.178" transform="translate(-1792.325 -389.259)" fill="#050505"/>
        </g>
        <g id="Grupo_3006" data-name="Grupo 3006" transform="translate(0)">
          <path id="Caminho_1858" data-name="Caminho 1858" d="M1794.268,393.556h-.078a4.5,4.5,0,0,1-1.806-.481,3.469,3.469,0,0,1-1.226-.885,3.145,3.145,0,0,1-.542-2.608,2.261,2.261,0,0,1,.739-1.4,1.452,1.452,0,0,1,.739-.325l-.021-.035a2.771,2.771,0,0,1,2.031-.247,3.863,3.863,0,0,1,1.655.92,2.653,2.653,0,0,1,.639.807,2.476,2.476,0,0,1,.222,1.067,4.232,4.232,0,0,1-.454,1.931,2.2,2.2,0,0,1-1.024,1.088A2.045,2.045,0,0,1,1794.268,393.556Zm-2.009-4.38a.987.987,0,0,0-.33.651,1.84,1.84,0,0,0,.259,1.51,2.153,2.153,0,0,0,.767.529,3.21,3.21,0,0,0,1.268.353.785.785,0,0,0,.358-.051,1,1,0,0,0,.388-.472,2.889,2.889,0,0,0,.313-1.319,1.2,1.2,0,0,0-.091-.5,1.4,1.4,0,0,0-.328-.391,2.544,2.544,0,0,0-1.081-.615,1.43,1.43,0,0,0-1.042.109l-.338-.588-.184.787A.1.1,0,0,0,1792.26,389.176Z" transform="translate(-1790.544 -387.48)" fill="#050505"/>
        </g>
      </g>
      <g id="Grupo_3008" data-name="Grupo 3008" transform="translate(1639.776 355.397) rotate(6)">
        <path id="Caminho_1859" data-name="Caminho 1859" d="M20.88,3.133a1.033,1.033,0,0,1,.365,1.393c-.488.7-1.167,1.2-1.687,1.886a22.5,22.5,0,0,1-1.624,2.467.9.9,0,0,1-1.495-.87,7.427,7.427,0,0,1,1.616-2.765c-2.418-.078-4.976-.895-5.98,2.9-.32,1.209.056,2.737-.1,4.01-.146,1.193-2.244.9-1.873-4.706a4.315,4.315,0,0,1,2.847-3.818,10.553,10.553,0,0,1,3.159-.453c.468-.021,1.2.086,1.9.121a17.156,17.156,0,0,1-2.027-1.578c-.608-.671-.027-2.033.964-1.656C18.511.659,19.528,2.168,20.88,3.133Z" transform="translate(0 0)"/>
      </g>
      <g id="Grupo_2992" data-name="Grupo 2992" transform="translate(1633.99 372.442)">
        <g id="Grupo_2990" data-name="Grupo 2990" transform="translate(1.003 1.002)">
          <path id="Caminho_1845" data-name="Caminho 1845" d="M1607.248,340.51c.141,6.591.527,14.524.049,21.1,9.743,1.34,19.686-.178,29.463.879a.442.442,0,0,0,.581-.478,80.8,80.8,0,0,0,.618-20.283,1.094,1.094,0,0,0-.151-.543c-.221-.308-.672-.3-1.05-.274-10.011.819-20.077-1.359-30.1-.661" transform="translate(-1606.662 -340.111)" fill="#fff"/>
        </g>
        <g id="Grupo_2991" data-name="Grupo 2991" transform="translate(0 0)">
          <path id="Caminho_1846" data-name="Caminho 1846" d="M1635.24,361.835a2.33,2.33,0,0,1-.256-.016,112.4,112.4,0,0,0-13.852-.34,102.407,102.407,0,0,1-15.64-.542l-.932-.128.068-.938c.378-5.2.206-11.393.054-16.861-.033-1.2-.065-2.369-.092-3.507a1,1,0,0,1,.332-1.919,106.512,106.512,0,0,1,14.886.354,100.812,100.812,0,0,0,15.2.307,2.07,2.07,0,0,1,1.948.691,2,2,0,0,1,.333,1.029,81.785,81.785,0,0,1-.625,20.536,1.54,1.54,0,0,1-.677,1.136A1.429,1.429,0,0,1,1635.24,361.835Zm-9.025-2.418c2.835,0,5.7.077,8.529.36a79.853,79.853,0,0,0,.556-19.542l-.129.009a102.134,102.134,0,0,1-15.5-.306,117.8,117.8,0,0,0-13.07-.438c.026,1.121.058,2.276.09,3.454.144,5.189.306,11.03,0,16.114a107.455,107.455,0,0,0,14.407.4C1622.787,359.445,1624.5,359.417,1626.215,359.417Z" transform="translate(-1603.99 -337.442)"/>
        </g>
      </g>
      <g id="Grupo_2993" data-name="Grupo 2993" transform="translate(1640.237 380.499)">
        <path id="Caminho_1847" data-name="Caminho 1847" d="M1640.076,361.363c-2.473,0-5.041-.118-7.532-.232a93.7,93.7,0,0,0-10.836-.1,1,1,0,1,1-.15-2,97.055,97.055,0,0,1,11.078.1c2.679.123,5.441.247,8.066.227h.008a1,1,0,0,1,.009,2.006Z" transform="translate(-1620.63 -358.903)"/>
      </g>
      <g id="Grupo_2994" data-name="Grupo 2994" transform="translate(1640.237 386.682)">
        <path id="Caminho_1848" data-name="Caminho 1848" d="M1640.71,378.332a.991.991,0,0,1-.3-.046c-4.1-1.283-7.9-.945-11.93-.586a52.433,52.433,0,0,1-6.89.3,1,1,0,0,1-.959-1.046,1.019,1.019,0,0,1,1.046-.959,49.773,49.773,0,0,0,6.626-.3c4.044-.36,8.228-.731,12.707.67a1,1,0,0,1-.3,1.96Z" transform="translate(-1620.63 -375.372)"/>
      </g>
    </g>
  </g>
</svg>
