<svg xmlns="http://www.w3.org/2000/svg" width="76.12" height="74.501" viewBox="0 0 76.12 74.501">
  <g id="Grupo_14364" data-name="Grupo 14364" transform="translate(-1251 -2710.672)">
    <g id="Grupo_110" data-name="Grupo 110" transform="translate(-182.669 308.996)">
      <path id="Caminho_338" data-name="Caminho 338" d="M39.6,0c21.87,0,36.193,9.247,36.193,31.117S61.466,60.367,39.6,60.367-.331,52.987-.331,31.117,17.726,0,39.6,0Z" transform="translate(1434 2415.81)" fill="#04bfcb"/>
    </g>
    <g id="Grupo_14303" data-name="Grupo 14303" transform="translate(1425.574 2966.389)">
      <path id="Caminho_7716" data-name="Caminho 7716" d="M-161.042-242.266q1.041,28.428,3.49,56.781a2.12,2.12,0,0,0,.6,1.572,2.105,2.105,0,0,0,1.375.267q20.533-.756,40.963-3.136a3.225,3.225,0,0,0,2.008-.718,3.033,3.033,0,0,0,.661-1.712,46.617,46.617,0,0,0-.167-11.4q-2.2-22.525-4.856-45a2.056,2.056,0,0,0-.472-1.3,2.065,2.065,0,0,0-1.544-.344c-13.732.633-29.309,3.35-43.04,3.983" transform="translate(0.901 2.249)"/>
      <g id="Grupo_14291" data-name="Grupo 14291" transform="translate(-165.418 -247.159)">
        <path id="Caminho_7717" data-name="Caminho 7717" d="M-163.584-243.114q1.041,28.428,3.49,56.782a2.114,2.114,0,0,0,.6,1.571,2.1,2.1,0,0,0,1.375.268q20.533-.758,40.963-3.136a3.234,3.234,0,0,0,2.008-.719,3.011,3.011,0,0,0,.661-1.71,46.614,46.614,0,0,0-.166-11.4q-2.2-22.525-4.856-45a2.054,2.054,0,0,0-.473-1.3,2.064,2.064,0,0,0-1.544-.346c-13.732.633-29.307,3.35-43.039,3.983" transform="translate(165.643 249.182)" fill="#fff"/>
        <path id="Caminho_7718" data-name="Caminho 7718" d="M-158.209-183.187a2.757,2.757,0,0,1-1.714-.494,3.1,3.1,0,0,1-1.014-2.333c-1.627-18.824-2.8-37.937-3.493-56.808a1.072,1.072,0,0,1-.987-1.02,1.072,1.072,0,0,1,1.022-1.12c6.83-.315,14.262-1.165,21.447-1.986,7.222-.825,14.691-1.679,21.594-2a3.057,3.057,0,0,1,2.329.635,3.039,3.039,0,0,1,.8,1.955c1.765,14.915,3.4,30.062,4.859,45.021a47.981,47.981,0,0,1,.161,11.66,3.974,3.974,0,0,1-.953,2.3,4.176,4.176,0,0,1-2.655,1.036c-13.58,1.582-27.39,2.639-41.046,3.143C-157.962-183.191-158.079-183.187-158.209-183.187Zm-4.078-59.74c.69,18.845,1.862,37.931,3.486,56.729.058.653.143.785.178.81a1.6,1.6,0,0,0,.684.048c13.6-.5,27.355-1.553,40.878-3.128a2.53,2.53,0,0,0,1.365-.4,2.25,2.25,0,0,0,.368-1.122,45.679,45.679,0,0,0-.172-11.134c-1.46-14.946-3.091-30.077-4.855-44.978a2.037,2.037,0,0,0-.146-.648c-.048-.035-.22-.077-.757-.051-6.828.315-14.261,1.165-21.447,1.985-6.526.747-13.254,1.515-19.583,1.891Z" transform="translate(165.418 248.957)"/>
      </g>
      <g id="Grupo_14292" data-name="Grupo 14292" transform="translate(-154.393 -255.717)">
        <path id="Caminho_7719" data-name="Caminho 7719" d="M-155.471-248.153a24.935,24.935,0,0,0-.259,6.923,1.831,1.831,0,0,0,.305.985c.419.522,1.218.457,1.879.348a132.572,132.572,0,0,1,20.526-1.738,1.573,1.573,0,0,0,1.132-.3,1.573,1.573,0,0,0,.265-1.282l-.241-2.761a4.92,4.92,0,0,0-.434-1.919,3.775,3.775,0,0,0-3.533-1.605c-1.363.044-2.7.458-4.06.476a2.032,2.032,0,0,1-1.158-.253c-.967-.643-.511-2.139-.809-3.261-.511-1.923-3.027-2.314-5.016-2.325a1.22,1.22,0,0,0-.919.252,1.153,1.153,0,0,0-.223.779,13.01,13.01,0,0,0,1.048,5.457,11.589,11.589,0,0,1-5.8.428,3.569,3.569,0,0,0-1.941-.046c-.609.243-.99,1.127-.505,1.57" transform="translate(156.934 255.942)"/>
        <path id="Caminho_7720" data-name="Caminho 7720" d="M-154.072-238.523a2.411,2.411,0,0,1-1.963-.825,2.765,2.765,0,0,1-.537-1.547,25.858,25.858,0,0,1,.271-7.221,1.07,1.07,0,0,1,1.246-.867,1.089,1.089,0,0,1,.376.143,4.332,4.332,0,0,1,2.141.02l.191.035a10.482,10.482,0,0,0,4.188-.086,14.174,14.174,0,0,1-.7-4.771,2.188,2.188,0,0,1,.511-1.484,2.206,2.206,0,0,1,1.708-.591c4.318.022,5.673,1.71,6.047,3.122a6.5,6.5,0,0,1,.165,1.491c.015.487.032,1.038.2,1.152a1.079,1.079,0,0,0,.549.075,13.24,13.24,0,0,0,1.938-.225,15.8,15.8,0,0,1,2.1-.251,4.847,4.847,0,0,1,4.514,2.17,5.872,5.872,0,0,1,.557,2.334l.241,2.76a2.566,2.566,0,0,1-.576,2.138,2.568,2.568,0,0,1-1.881.615,131.861,131.861,0,0,0-20.36,1.724A5.571,5.571,0,0,1-154.072-238.523Zm-.285-2.162a2.408,2.408,0,0,0,.862-.044,133.957,133.957,0,0,1,20.692-1.752c.067,0,.233,0,.349-.016a3.015,3.015,0,0,0-.014-.405l-.242-2.758a4.121,4.121,0,0,0-.31-1.505,2.8,2.8,0,0,0-2.553-1.042,14.032,14.032,0,0,0-1.82.223,14.849,14.849,0,0,1-2.26.254,3.175,3.175,0,0,1-1.767-.433,3.221,3.221,0,0,1-1.157-2.875,4.766,4.766,0,0,0-.095-1c-.348-1.314-2.646-1.522-3.983-1.528-.025,0-.044,0-.065,0a11.928,11.928,0,0,0,.962,4.99l.457,1.066-1.1.373a12.648,12.648,0,0,1-6.336.468l-.2-.038a2.515,2.515,0,0,0-1.141-.067,1.074,1.074,0,0,1-.116,1.3,1.058,1.058,0,0,1-.306.233,23.728,23.728,0,0,0,.065,4.133,1.685,1.685,0,0,0,.078.429Zm.1-6.311Zm7.559-6.8Z" transform="translate(156.709 255.717)"/>
      </g>
      <g id="Grupo_14293" data-name="Grupo 14293" transform="translate(-147.215 -231.023)">
        <path id="Caminho_7721" data-name="Caminho 7721" d="M-150.191-233.627l22.687-1.736" transform="translate(151.264 236.436)" fill="#f5f5f5"/>
        <path id="Caminho_7722" data-name="Caminho 7722" d="M-149.967-232.33a1.072,1.072,0,0,1-1.068-.991,1.072,1.072,0,0,1,.987-1.151l22.688-1.736a1.08,1.08,0,0,1,1.151.987,1.073,1.073,0,0,1-.987,1.152l-22.687,1.736Z" transform="translate(151.039 236.21)"/>
      </g>
      <g id="Grupo_14294" data-name="Grupo 14294" transform="translate(-157.611 -232.331)">
        <path id="Caminho_7723" data-name="Caminho 7723" d="M-158.615-235.83l.092,4.749a1.375,1.375,0,0,0,.192.82,1.381,1.381,0,0,0,1.214.329q1.851-.108,3.7-.249a1.67,1.67,0,0,0,1.068-.342,1.682,1.682,0,0,0,.306-1.317l-.149-2.877a2.459,2.459,0,0,0-.272-1.205,2.108,2.108,0,0,0-2.191-.628,5.811,5.811,0,0,1-2.389.234" transform="translate(159.42 237.413)" fill="#f5f5f5"/>
        <path id="Caminho_7724" data-name="Caminho 7724" d="M-157.224-228.947a1.9,1.9,0,0,1-1.575-.654,2.116,2.116,0,0,1-.36-1.293l-.092-4.751a.807.807,0,0,1,.79-.82.823.823,0,0,1,.82.79l.092,4.749a1.5,1.5,0,0,0,.034.36c0-.013.063.01.287.01.063,0,.141,0,.233-.008q1.844-.108,3.684-.249a1.475,1.475,0,0,0,.568-.115c.044-.043.091-.2.065-.7l-.149-2.877a1.953,1.953,0,0,0-.149-.817c-.2-.316-.836-.36-1.37-.266-.176.03-.352.07-.529.109a4.73,4.73,0,0,1-2.2.114.805.805,0,0,1-.585-.976.808.808,0,0,1,.977-.585,3.368,3.368,0,0,0,1.457-.125c.2-.044.4-.087.595-.123a2.816,2.816,0,0,1,3.012.992,3.159,3.159,0,0,1,.395,1.594l.151,2.876a2.411,2.411,0,0,1-.547,1.933,2.4,2.4,0,0,1-1.57.568q-1.857.144-3.713.252C-156.986-228.954-157.1-228.947-157.224-228.947Z" transform="translate(159.251 237.244)"/>
      </g>
      <g id="Grupo_14295" data-name="Grupo 14295" transform="translate(-146.136 -216.932)">
        <path id="Caminho_7725" data-name="Caminho 7725" d="M-149.339-222.5l22.687-1.736" transform="translate(150.412 225.304)" fill="#f5f5f5"/>
        <path id="Caminho_7726" data-name="Caminho 7726" d="M-149.115-221.2a1.072,1.072,0,0,1-1.068-.991,1.072,1.072,0,0,1,.987-1.152l22.687-1.736a1.085,1.085,0,0,1,1.152.987,1.074,1.074,0,0,1-.989,1.152l-22.687,1.736C-149.059-221.2-149.088-221.2-149.115-221.2Z" transform="translate(150.187 225.079)"/>
      </g>
      <g id="Grupo_14296" data-name="Grupo 14296" transform="translate(-156.533 -218.24)">
        <path id="Caminho_7727" data-name="Caminho 7727" d="M-157.764-224.7l.094,4.749a1.357,1.357,0,0,0,.192.82,1.376,1.376,0,0,0,1.214.33q1.851-.108,3.7-.251a1.665,1.665,0,0,0,1.068-.342,1.681,1.681,0,0,0,.306-1.317l-.151-2.876a2.464,2.464,0,0,0-.272-1.206,2.107,2.107,0,0,0-2.191-.628,5.809,5.809,0,0,1-2.388.235" transform="translate(158.568 226.282)" fill="#f5f5f5"/>
        <path id="Caminho_7728" data-name="Caminho 7728" d="M-156.37-217.816a1.9,1.9,0,0,1-1.577-.654,2.116,2.116,0,0,1-.36-1.293l-.092-4.751a.8.8,0,0,1,.789-.82.834.834,0,0,1,.82.79l.092,4.748a1.478,1.478,0,0,0,.035.358c0-.01.07.011.284.011.065,0,.143,0,.238-.008q1.84-.108,3.683-.249a1.441,1.441,0,0,0,.567-.115c.044-.042.091-.2.066-.7l-.151-2.876a1.926,1.926,0,0,0-.148-.816c-.2-.318-.837-.361-1.371-.267-.177.032-.353.071-.53.109a4.672,4.672,0,0,1-2.194.114.8.8,0,0,1-.585-.976.807.807,0,0,1,.976-.585,3.428,3.428,0,0,0,1.457-.124c.2-.044.4-.087.6-.123a2.816,2.816,0,0,1,3.012.991,3.16,3.16,0,0,1,.4,1.6l.149,2.875a2.409,2.409,0,0,1-.546,1.933,2.39,2.39,0,0,1-1.57.568q-1.857.144-3.714.252C-156.134-217.823-156.243-217.816-156.37-217.816Z" transform="translate(158.399 226.113)"/>
      </g>
      <g id="Grupo_14297" data-name="Grupo 14297" transform="translate(-145.059 -202.842)">
        <path id="Caminho_7729" data-name="Caminho 7729" d="M-148.488-211.365-125.8-213.1" transform="translate(149.561 214.174)" fill="#f5f5f5"/>
        <path id="Caminho_7730" data-name="Caminho 7730" d="M-148.264-210.066a1.073,1.073,0,0,1-1.068-.991,1.075,1.075,0,0,1,.989-1.152l22.687-1.736a1.072,1.072,0,0,1,1.151.989,1.07,1.07,0,0,1-.987,1.151l-22.687,1.736Q-148.222-210.066-148.264-210.066Z" transform="translate(149.335 213.949)"/>
      </g>
      <g id="Grupo_14298" data-name="Grupo 14298" transform="translate(-155.454 -204.149)">
        <path id="Caminho_7731" data-name="Caminho 7731" d="M-156.912-213.568l.094,4.749a1.364,1.364,0,0,0,.192.822,1.38,1.38,0,0,0,1.214.329q1.849-.108,3.7-.251a1.659,1.659,0,0,0,1.067-.342,1.676,1.676,0,0,0,.306-1.317l-.149-2.876a2.455,2.455,0,0,0-.272-1.205,2.109,2.109,0,0,0-2.191-.629,5.813,5.813,0,0,1-2.389.235" transform="translate(157.716 215.151)" fill="#f5f5f5"/>
        <path id="Caminho_7732" data-name="Caminho 7732" d="M-155.521-206.684a1.9,1.9,0,0,1-1.575-.656,2.1,2.1,0,0,1-.358-1.291l-.092-4.751a.8.8,0,0,1,.789-.82.845.845,0,0,1,.82.79l.092,4.747a1.564,1.564,0,0,0,.034.36c0-.013.06.01.287.01.063,0,.142,0,.234-.008q1.842-.106,3.684-.249a1.446,1.446,0,0,0,.567-.115c.044-.042.091-.2.065-.7l-.149-2.876a1.953,1.953,0,0,0-.148-.817c-.2-.316-.837-.361-1.371-.267-.176.032-.352.07-.529.109a4.712,4.712,0,0,1-2.2.115.806.806,0,0,1-.585-.977.811.811,0,0,1,.977-.585,3.365,3.365,0,0,0,1.457-.124c.2-.044.4-.087.6-.123a2.817,2.817,0,0,1,3.013.991,3.176,3.176,0,0,1,.395,1.6l.149,2.875a2.409,2.409,0,0,1-.546,1.933,2.4,2.4,0,0,1-1.571.57q-1.855.142-3.713.251C-155.283-206.692-155.394-206.684-155.521-206.684Z" transform="translate(157.547 214.981)"/>
      </g>
      <circle id="Elipse_278" data-name="Elipse 278" cx="1.116" cy="1.116" r="1.116" transform="translate(-144.151 -252.988)" fill="#f5f5f5"/>
      <path id="Caminho_7733" data-name="Caminho 7733" d="M-155.083-230.088l-3.991-3.424a1.073,1.073,0,0,1-.115-1.513,1.073,1.073,0,0,1,1.513-.116l2.209,1.894,3.676-5.167a1.071,1.071,0,0,1,1.5-.253,1.074,1.074,0,0,1,.252,1.5Z" transform="translate(1.587 4.481)" fill="#21bfca"/>
      <path id="Caminho_7734" data-name="Caminho 7734" d="M-154.221-218.824l-3.991-3.424a1.073,1.073,0,0,1-.115-1.513,1.075,1.075,0,0,1,1.513-.117l2.208,1.9,3.679-5.169a1.07,1.07,0,0,1,1.5-.252,1.073,1.073,0,0,1,.252,1.5Z" transform="translate(1.817 7.476)" fill="#21bfca"/>
      <g id="Grupo_14299" data-name="Grupo 14299" transform="translate(-133.217 -217.881)">
        <path id="Caminho_7735" data-name="Caminho 7735" d="M-132.663-222.465a10.319,10.319,0,0,0-4.661,5.988,30.018,30.018,0,0,0-1.2,7.756,12.5,12.5,0,0,0,.338,4.818,10.323,10.323,0,0,0,2.8,3.936c3.481,3.361,7.858,5.956,12.609,6.316s9.85-1.867,12.179-6.192c1.7-3.155,1.78-6.933,1.819-10.54a8.559,8.559,0,0,0-.341-3.072c-.395-1.067-1.055-4.105-1.832-4.914-2.845-2.961-5.975-3.823-9.808-5.128a23.73,23.73,0,0,0-6.409-.972,5.887,5.887,0,0,0-2.743.292c-.847.377-2.3,1.452-3.185,1.774-.728.266-2.614,3.129-3.917,4.7" transform="translate(140.35 226.182)" fill="#fff"/>
        <path id="Caminho_7736" data-name="Caminho 7736" d="M-133.106-223.5c-8.323,5.469-9.272,19.683-1.85,26.115,6.97,6.04,18.948,8.779,25.219.105,4.937-6.83,4.557-20.051-3.209-24.592-4.25-2.485-10.26-4.39-15.246-3.87-4.5.471-7.028,4-9.584,7.253-1.266,1.61,1,3.9,2.276,2.276,1.585-2.018,2.852-4.122,5.2-5.316,3.5-1.785,7.568-.736,11.093.476,3.727,1.281,6.688,2.553,8.323,6.421,1.247,2.951,1.068,6.718.547,9.81-1.61,9.544-10.84,12.052-18.732,7.718-3.723-2.046-7.232-5.173-7.545-9.634-.342-4.883.791-11.13,5.135-13.983,1.724-1.133.114-3.921-1.624-2.779Z" transform="translate(139.982 225.829)"/>
      </g>
      <path id="Caminho_7737" data-name="Caminho 7737" d="M-126.259-207.241a1.523,1.523,0,0,1-.472-.076,1.5,1.5,0,0,1-1.034-1.319l-.638-8.34a1.072,1.072,0,0,1,.989-1.151,1.074,1.074,0,0,1,1.151.987l.522,6.807,2.648-3.089a1.074,1.074,0,0,1,1.513-.115,1.073,1.073,0,0,1,.115,1.513l-3.651,4.256A1.5,1.5,0,0,1-126.259-207.241Z" transform="translate(9.842 9.996)" fill="#21bfca"/>
    </g>
  </g>
</svg>
