<svg xmlns="http://www.w3.org/2000/svg" width="75.856" height="73.682" viewBox="0 0 75.856 73.682">
  <g id="Grupo_105" data-name="Grupo 105" transform="translate(-1437 -2297.399)">
    <path id="Caminho_335" data-name="Caminho 335" d="M37.928,0A37.928,37.928,0,0,1,75.857,37.928c0,20.947-27.877-8.708-39.88,14.289S0,58.876,0,37.928A37.928,37.928,0,0,1,37.928,0Z" transform="translate(1437 2307.681)" fill="#04bfcb"/>
    <g id="Grupo_14290" data-name="Grupo 14290" transform="translate(1715.71 2553.732)">
      <g id="Grupo_14286" data-name="Grupo 14286" transform="translate(-277.71 -256.332)">
        <g id="Grupo_14283" data-name="Grupo 14283">
          <path id="Caminho_7703" data-name="Caminho 7703" d="M-224.66-236.174a26.954,26.954,0,0,1,9.591.855c3.067.992,5.906,3.1,7.051,6.061a12.324,12.324,0,0,1,.681,4.517,18.3,18.3,0,0,1-2.211,9.016,12.22,12.22,0,0,1-7.191,5.79,23.378,23.378,0,0,1-6.688.407c-5.739-.139-11.478.2-17.208.541-6.918.412-23.506.04-24-.042a18.443,18.443,0,0,0-3.243-.415,8.138,8.138,0,0,1-6.3-3.842,17.391,17.391,0,0,1-2.375-7.147,16.314,16.314,0,0,1,.535-8.509,9.028,9.028,0,0,1,1.889-2.841,6.553,6.553,0,0,1,4.681-2.086,10.621,10.621,0,0,1,1.394-12.266,11.1,11.1,0,0,1,12.312-2.449,6.862,6.862,0,0,1,2.492,1.785c1.211,1.452,1.484,3.426,1.712,5.291l.509,4.183a45.536,45.536,0,0,1-2.111-8.086,7.064,7.064,0,0,1,.7-4.856,12.941,12.941,0,0,1,6.421-4.515,25.324,25.324,0,0,1,16.036,1.389,19.44,19.44,0,0,1,4.118,2.509,20.1,20.1,0,0,1,5.615,6.185,10.814,10.814,0,0,1,1.108,8.072" transform="translate(277.88 256.503)" fill="#fff"/>
          <path id="Caminho_7704" data-name="Caminho 7704" d="M-249.949-207.61c-6.945,0-14.285-.179-14.683-.245l-.934-.156a11.725,11.725,0,0,0-2.169-.246,9.052,9.052,0,0,1-7.122-4.3,18.512,18.512,0,0,1-2.532-7.561c-.381-2.582-.657-5.944.6-9.039a8.932,8.932,0,0,1,5.968-5.391,11.66,11.66,0,0,1,2.195-12.114,12.092,12.092,0,0,1,13.475-2.683,9.623,9.623,0,0,1,1.222.656,5.814,5.814,0,0,1,.814-1.971,13.965,13.965,0,0,1,7.045-4.948,26.271,26.271,0,0,1,16.662,1.448,20.133,20.133,0,0,1,4.335,2.635,20.883,20.883,0,0,1,5.891,6.508,12.059,12.059,0,0,1,1.36,8.169,19.017,19.017,0,0,1,3.239.729,12.006,12.006,0,0,1,7.686,6.662,13.111,13.111,0,0,1,.749,4.889,19.091,19.091,0,0,1-2.346,9.518,13.212,13.212,0,0,1-7.807,6.265,21.864,21.864,0,0,1-6.394.457l-.585-.016c-5.709-.137-11.51.208-17.124.54C-242.772-207.659-246.306-207.61-249.949-207.61Zm-19.341-24.284c-2.66,0-4.106,1.922-4.946,3.991a11.464,11.464,0,0,0-.621,6.788,15.874,15.874,0,0,0,2.578,6.31c1.348,2.036,2.514,3.005,4.544,3.058a21.846,21.846,0,0,1,3.1.372l1.847.016c.678.064,15.289.942,22.258.527,5.658-.336,11.46-1.057,17.245-.915h.585a17.424,17.424,0,0,0,5.4-.757c2.651-.718,5.207-1.973,6.735-4.632a13.152,13.152,0,0,0,2.068-7.43,34.752,34.752,0,0,0-.84-4.589c.008-.01.111.288,0,0-.935-2.423-3.241-3.8-6.322-4.79-2.965-.958-5.19-.748-8.232-.6a2.139,2.139,0,0,1-1.617-1.409,1.019,1.019,0,0,1,.968-1.066,37.118,37.118,0,0,1,4.263,0c.539-2.168-.45-4.722-1.7-7.025a12.737,12.737,0,0,0-4.339-4.861,39.118,39.118,0,0,0-5.9-3.381c-5.16-1.648-7.985-1.552-13.412-.334a7.786,7.786,0,0,0-4.8,3.086,4.577,4.577,0,0,0-.653,2.543c1.245,1.687,1.013,3.591,1.223,5.315v4.4l-1.976.441a46.36,46.36,0,0,1-2.153-8.27c-.046-.341-.086-.719-.11-1.12a13.946,13.946,0,0,0-2.9-1.259c-4.115-.125-5.869-.527-8.576,2.38s-3.925,6.71-1.944,10.121v2.309l-1.78.785Z" transform="translate(277.71 256.332)"/>
        </g>
        <g id="Grupo_14284" data-name="Grupo 14284" transform="translate(22.161 24.727)">
          <path id="Caminho_7705" data-name="Caminho 7705" d="M-251.346-233.494c-4.305,2.406-6.418,7.319-6.619,12.017a8.675,8.675,0,0,0,.606,4.026,10.53,10.53,0,0,0,2.958,3.425,13.088,13.088,0,0,0,4.418,2.7,15.76,15.76,0,0,0,4.721.466,11.162,11.162,0,0,0,2.853-.252,8.177,8.177,0,0,0,2.836-1.515,14.342,14.342,0,0,0,5.658-12.2,10.325,10.325,0,0,0-.952-2.943,9.05,9.05,0,0,0-5.884-5.469,24.467,24.467,0,0,0-3.551-1.06,9.293,9.293,0,0,0-3.913.086,8.623,8.623,0,0,0-5.339,2.491" transform="translate(259.506 235.991)" fill="#fff"/>
          <path id="Caminho_7706" data-name="Caminho 7706" d="M-245.424-209.076a15.836,15.836,0,0,1-4.756-.537,14.478,14.478,0,0,1-4.949-2.992,11.941,11.941,0,0,1-3.36-3.954,10.3,10.3,0,0,1-.746-4.73c.25-5.866,3.016-10.833,7.4-13.283a1.431,1.431,0,0,1,.806-.193,13.292,13.292,0,0,1,2.246-.581l.514-.1a10.717,10.717,0,0,1,4.554-.082,15.1,15.1,0,0,1,2.746.777,7.841,7.841,0,0,0,.893.3,10.528,10.528,0,0,1,6.872,6.341l.089.21a9.927,9.927,0,0,1,.983,3.281,15.919,15.919,0,0,1-6.254,13.455,9.535,9.535,0,0,1-3.374,1.78,12.546,12.546,0,0,1-3.24.3Zm-7.289-20.975a14.138,14.138,0,0,0-3.471,8.894,7.064,7.064,0,0,0,.467,3.321,9.043,9.043,0,0,0,2.554,2.9,11.828,11.828,0,0,0,3.89,2.413,14.572,14.572,0,0,0,4.263.4,10.125,10.125,0,0,0,2.464-.2,6.649,6.649,0,0,0,2.3-1.25,12.772,12.772,0,0,0,5.065-10.942,9.478,9.478,0,0,0-.74-2.175l-.092-.219a7.476,7.476,0,0,0-4.9-4.6,10.509,10.509,0,0,1-1.184-.4,12.558,12.558,0,0,0-2.279-.634,7.816,7.816,0,0,0-3.27.09l-.559.11a6.529,6.529,0,0,0-4.012,1.967A1.5,1.5,0,0,1-252.713-230.051Z" transform="translate(259.251 235.737)"/>
        </g>
        <g id="Grupo_14285" data-name="Grupo 14285" transform="translate(42.802 45.25)">
          <path id="Caminho_7707" data-name="Caminho 7707" d="M-240.786-217.372a22.588,22.588,0,0,0,4.107,4.551l9.426,8.71" transform="translate(242.314 218.898)" fill="#f5f5f5"/>
          <path id="Caminho_7708" data-name="Caminho 7708" d="M-227-202.329a1.521,1.521,0,0,1-1.036-.406l-9.426-8.71a23.843,23.843,0,0,1-4.371-4.87,1.526,1.526,0,0,1,.5-2.1,1.527,1.527,0,0,1,2.1.5,21.531,21.531,0,0,0,3.844,4.232l9.426,8.71a1.526,1.526,0,0,1,.085,2.157A1.519,1.519,0,0,1-227-202.329Z" transform="translate(242.059 218.643)"/>
        </g>
      </g>
      <path id="Caminho_7709" data-name="Caminho 7709" d="M-245.62-206.955s.973.385,1.8.683c1.229.439,2.088-1.139,1.278-1.794a14.053,14.053,0,0,0-4.5-2.5c-1.419-.222-3.111,1.907-4.085,2.821-.916.654.064,2.429,1.086,1.941.591-.282.909-.627,1.511-.974h0l.392,12.421s3.251,1.125,3.251,0" transform="translate(5.451 9.206)"/>
      <g id="Grupo_14287" data-name="Grupo 14287" transform="translate(-249.404 -219.462)">
        <path id="Caminho_7710" data-name="Caminho 7710" d="M-253.26-225.052a.271.271,0,0,0-.229.066.653.653,0,0,0-.2.394.97.97,0,0,0,.156.8,1.092,1.092,0,0,0,.388.275,1.5,1.5,0,0,0,.6.162.576.576,0,0,0,.255-.043.631.631,0,0,0,.275-.3,1.388,1.388,0,0,0,.149-.632.723.723,0,0,0-.061-.306.778.778,0,0,0-.187-.233,1.278,1.278,0,0,0-.533-.3.82.82,0,0,0-.6.07" transform="translate(254.218 225.707)" fill="#21bfca"/>
        <path id="Caminho_7711" data-name="Caminho 7711" d="M-252.438-222.761h-.034a1.993,1.993,0,0,1-.8-.211,1.6,1.6,0,0,1-.562-.412,1.463,1.463,0,0,1-.263-1.22,1.133,1.133,0,0,1,.372-.69.848.848,0,0,1,.316-.164h0a1.338,1.338,0,0,1,.974-.121,1.76,1.76,0,0,1,.749.414,1.258,1.258,0,0,1,.306.39,1.209,1.209,0,0,1,.112.522,1.9,1.9,0,0,1-.2.863,1.112,1.112,0,0,1-.515.539A1.051,1.051,0,0,1-252.438-222.761Zm-.64-1.752s-.011.03-.024.1a.5.5,0,0,0,.048.382.7.7,0,0,0,.214.14,1.037,1.037,0,0,0,.393.114.8.8,0,0,0,.157-.467.2.2,0,0,0-.08-.166.765.765,0,0,0-.313-.182.306.306,0,0,0-.223.017l-.255-.445-.13.549a.252.252,0,0,0,.21-.036Z" transform="translate(254.133 225.622)" fill="#21bfca"/>
      </g>
      <g id="Grupo_14288" data-name="Grupo 14288" transform="translate(-243.299 -219.462)">
        <path id="Caminho_7712" data-name="Caminho 7712" d="M-248.175-225.052a.272.272,0,0,0-.229.066.652.652,0,0,0-.2.394.979.979,0,0,0,.156.8,1.093,1.093,0,0,0,.388.275,1.5,1.5,0,0,0,.6.162.576.576,0,0,0,.255-.043.632.632,0,0,0,.275-.3,1.388,1.388,0,0,0,.149-.632.742.742,0,0,0-.06-.306.8.8,0,0,0-.189-.233,1.278,1.278,0,0,0-.533-.3.82.82,0,0,0-.6.07" transform="translate(249.133 225.707)" fill="#21bfca"/>
        <path id="Caminho_7713" data-name="Caminho 7713" d="M-247.353-222.761h-.034a1.983,1.983,0,0,1-.8-.211,1.607,1.607,0,0,1-.563-.412,1.467,1.467,0,0,1-.263-1.22,1.133,1.133,0,0,1,.372-.69.849.849,0,0,1,.316-.164h0a1.338,1.338,0,0,1,.974-.121,1.753,1.753,0,0,1,.749.414,1.258,1.258,0,0,1,.306.39,1.21,1.21,0,0,1,.112.522,1.884,1.884,0,0,1-.2.863,1.112,1.112,0,0,1-.515.539A1.051,1.051,0,0,1-247.353-222.761Zm-.64-1.752s-.011.03-.024.1a.5.5,0,0,0,.048.382.7.7,0,0,0,.214.14,1.037,1.037,0,0,0,.393.114.814.814,0,0,0,.158-.467.2.2,0,0,0-.08-.166.768.768,0,0,0-.315-.182.306.306,0,0,0-.223.017l-.255-.445-.13.549a.252.252,0,0,0,.21-.036Z" transform="translate(249.048 225.622)" fill="#21bfca"/>
      </g>
      <g id="Grupo_14289" data-name="Grupo 14289" transform="translate(-237.194 -219.462)">
        <path id="Caminho_7714" data-name="Caminho 7714" d="M-243.089-225.052a.273.273,0,0,0-.231.066.653.653,0,0,0-.2.394.979.979,0,0,0,.156.8,1.1,1.1,0,0,0,.388.275,1.5,1.5,0,0,0,.6.162.576.576,0,0,0,.255-.043.631.631,0,0,0,.275-.3,1.373,1.373,0,0,0,.149-.632.741.741,0,0,0-.06-.306.8.8,0,0,0-.188-.233,1.281,1.281,0,0,0-.532-.3.822.822,0,0,0-.6.07" transform="translate(244.048 225.707)" fill="#21bfca"/>
        <path id="Caminho_7715" data-name="Caminho 7715" d="M-242.268-222.761h-.034a1.983,1.983,0,0,1-.8-.211,1.607,1.607,0,0,1-.563-.412,1.467,1.467,0,0,1-.263-1.22,1.133,1.133,0,0,1,.372-.69.858.858,0,0,1,.316-.164h0a1.341,1.341,0,0,1,.975-.121,1.767,1.767,0,0,1,.749.414,1.294,1.294,0,0,1,.306.39,1.209,1.209,0,0,1,.11.522,1.884,1.884,0,0,1-.2.863,1.112,1.112,0,0,1-.515.539A1.051,1.051,0,0,1-242.268-222.761Zm-.64-1.752s-.011.03-.023.1a.5.5,0,0,0,.047.382.7.7,0,0,0,.214.14,1.037,1.037,0,0,0,.393.114.806.806,0,0,0,.158-.467.2.2,0,0,0-.08-.166.768.768,0,0,0-.315-.182.306.306,0,0,0-.223.017l-.255-.445-.13.549a.253.253,0,0,0,.21-.036Z" transform="translate(243.963 225.622)" fill="#21bfca"/>
      </g>
    </g>
  </g>
</svg>
