<svg xmlns="http://www.w3.org/2000/svg" width="76" height="81.97" viewBox="0 0 76 81.97">
  <g id="Grupo_114" data-name="Grupo 114" transform="translate(-1437 -2706.368)">
    <path id="Caminho_345" data-name="Caminho 345" d="M47.954,2.73C68.53,2.73,76,20.708,76,41.283s-13.4,35.58-37.736,19.4S0,58.081,0,37.505,27.379,2.73,47.954,2.73Z" transform="translate(1437 2715.88)" fill="#04bfcb"/>
    <g id="Grupo_14301" data-name="Grupo 14301" transform="translate(1446.33 2706.368)">
      <path id="União_4" data-name="União 4" d="M0,73l7.929-5.5,9.86-3.612L12.274,59.5l-2.113-5.466V44.865L6.02,39.391,3.069,32.6l2.017-2.35H8.913l4.062-6.606-.163-.084L9.36,28.948l-5-1.236L3.422,16.231,9.36,10.909l4.919-6.993L23.878,0l4.8,3.916H31.1L37.675,0h8.511L50.7,5.534l1.288,7.023L50.7,16.231,54.034,20.8l-1.188,6.912L50.7,28.948H47.884l.238,1.3,4.458-1.205L54.373,32.6l-1.792,4.7-4.458,4.51v6.755L44.893,59.5l-5.579,4.388,1.1,2.093L54.373,73,28.887,80.242ZM46.322,25.439l-.136-.375H45.128ZM32.157,21.72,35.7,20.8H31.438ZM24.5,18.5l4.257-.933-.973-1.339Z" transform="translate(0.46 1.728)" fill="#fff"/>
      <path id="Caminho_339" data-name="Caminho 339" d="M1467.909,2429.848l2.3,5.163,2.4,2.376,3.8-1.188,2.145-2.746,1.377-3.6-9.73-.882h-14.233l1.392,3.99,2.482,3.243,2.885.541,2.5-1.729,1-4.075Z" transform="translate(-1439.648 -2361.32)" fill="#04bfcb"/>
      <g id="Grupo_98" data-name="Grupo 98" transform="translate(0 0)">
        <path id="Caminho_302" data-name="Caminho 302" d="M184.413,256.648h0a1.212,1.212,0,0,1-.176-.507c.286-.4.117-.758-.116-1.107-.142-.159-.321-.071-.487-.076l-.092-.108c-.021-.212.35-.052.277-.275-.054-.166-.264-.147-.4-.217-.024-.012-.062,0-.093.007a16.324,16.324,0,0,0-1.775-1.4c-.025-.092-.334-.2-.008-.271.2-.047.206-.223.306-.336.27.1.451.066.408-.285h0a3.7,3.7,0,0,0,.485-.953c.334-1.557.65-3.122,1.091-4.65a4.544,4.544,0,0,0,.142-2.422,12.5,12.5,0,0,0-1.619-3.2,2.968,2.968,0,0,1-.878-2.312c.058-.834.177-1.663.213-2.5a13.581,13.581,0,0,0,.067-2.345,4.643,4.643,0,0,0-.317-1.5,14.128,14.128,0,0,1-.333-1.512c-.129-.392-.5-.5-.646-.842a17.912,17.912,0,0,0-1.937-3.352,7.412,7.412,0,0,0-3.013-2.462c-.267-.124-.512.144-.671-.05a1.827,1.827,0,0,0-1.38-.551c-.548-.052-1.035-.357-1.553-.4-.558-.042-1.127-.086-1.7-.074a16.822,16.822,0,0,0-3.707.5,17.658,17.658,0,0,0-4.762,2.316,16.994,16.994,0,0,0-2.057,1.531c-.256.212-.569.305-.759.013-.234-.361-.619-.476-.912-.73a.8.8,0,0,0-.293-.431,6.461,6.461,0,0,0-2.678-1.263l-1.881-.5h0a1.7,1.7,0,0,1-.393-.016,8.6,8.6,0,0,0-3.805.113,16.192,16.192,0,0,0-3.152,1.172,11.791,11.791,0,0,0-4.479,3.2,27.4,27.4,0,0,0-2.993,4.219,19.376,19.376,0,0,1-2.368,3.088,34.881,34.881,0,0,1-3.272,3,2.839,2.839,0,0,0-.86,1.128,15.021,15.021,0,0,0-.884,5.159,19.994,19.994,0,0,0,.493,4.4,29.186,29.186,0,0,0,.847,4.154.816.816,0,0,1-.249,1.037,2.977,2.977,0,0,0-.925,1.484,6.22,6.22,0,0,0,.938,5.711,11.983,11.983,0,0,1,1.47,2.322,8.3,8.3,0,0,1,1.108,2.052.745.745,0,0,0,.959.572h0c.413.137.789-.144,1.193-.107.072.052.2.238.223.067.053-.354.293-.2.464-.245-.128.1-.079.241-.086.368-.074,1.252-.052,2.506-.077,3.759-.058,2.887-.2,5.775-.036,8.664a7.67,7.67,0,0,0,.439,2.147,9.984,9.984,0,0,0,1.067,2.269,15.365,15.365,0,0,0,2.356,2.666,13.434,13.434,0,0,0,2.755,1.912c-1.152.387-2.223.76-3.3,1.1a5.053,5.053,0,0,0-.805.222h0a.751.751,0,0,0-.607.186h0a1.09,1.09,0,0,0-.973.288c-.666.45-1.539.345-2.207.8,0,.031,0,.063,0,.094h0a.912.912,0,0,0-.4.3c-.548-.139-.873.021-.989.487h0c-.813.571-1.688,1.039-2.481,1.657-1.076.838-2.164,1.668-3.277,2.46-.249.178-.251.544-.561.659-.013,0-.012.12.006.127.384.155.127.422.1.637a.4.4,0,0,0,.01.269,1.683,1.683,0,0,0,1.941.48,12.518,12.518,0,0,0,1.344-1.226,17.858,17.858,0,0,1,5.776-3.607c1.7-.615,3.4-1.236,5.1-1.85.772-.279,1.547-.548,2.322-.82.134-.047.259-.135.353.092.442,1.068.585,2.226,1.027,3.3.252.614.47,1.25.749,1.856.527,1.143,1.09,2.27,1.622,3.412.186.4.274.847.491,1.224a1.6,1.6,0,0,0,2.445.023,26.6,26.6,0,0,0,2.638-4.062,15.316,15.316,0,0,0,1.41-2.571c.057-.195.177-.172.289-.05.234.255.449.528.693.773,2.06,2.068,4.131,4.125,6.185,6.2a1.052,1.052,0,0,0,1.147.2,4.475,4.475,0,0,0,1.075-.639.81.81,0,0,0,.333-.414c.184-.563.385-1.121.54-1.691.391-1.447.968-2.83,1.431-4.252a9.479,9.479,0,0,1,.861-1.991c.145-.241.162-.326.414-.22,1.986.829,4.06,1.44,5.981,2.436a34.223,34.223,0,0,1,6.18,4.229,1.44,1.44,0,0,0,2.005.226,1.824,1.824,0,0,1,.394-.193,1.128,1.128,0,0,0,.558-1.611,3.049,3.049,0,0,0-1.071-1.078,1.059,1.059,0,0,0-.794-.569,10.306,10.306,0,0,1-1.687-1.217,1.422,1.422,0,0,0-.885-.594l-.593-.4a.439.439,0,0,0-.4-.28,15.24,15.24,0,0,1-1.863-1.015c-1.978-1.171-4.285-1.486-6.379-2.414.6-.036.859-.562,1.31-.779a5.017,5.017,0,0,0,2.113-1.761,8.984,8.984,0,0,1,.76-.9c.53.081.486-.491.777-.692a.649.649,0,0,0,.2-.818.085.085,0,0,1,.028-.077,1.228,1.228,0,0,0,.769-1.406,8.2,8.2,0,0,0,.718-1.867,3.4,3.4,0,0,0,.306-.979,13.009,13.009,0,0,1,.3-2.391,14.093,14.093,0,0,0,.431-2.756,20.463,20.463,0,0,0,.028-4.263,23.857,23.857,0,0,1-.01-2.763c0-.118-.052-.254.13-.328a2.348,2.348,0,0,0,.964-.693,18.516,18.516,0,0,1,1.219-1.532c.274-.281.581-.528.848-.819.618-.676,1.027-1.519,1.677-2.153a9.136,9.136,0,0,0,1.343-2.282,4.285,4.285,0,0,0,.493-2.27A1.9,1.9,0,0,0,184.413,256.648Zm-46.591.5a38.2,38.2,0,0,0-.333,3.832,28.427,28.427,0,0,0-.163,3,5.973,5.973,0,0,1,.039.908.128.128,0,0,1-.075.081c0-.008-.008-.017-.013-.025-.1-.141-.135-.329-.279-.445l.005,0a2.014,2.014,0,0,0-.4-1.089c-.646-1.226-1.506-2.319-2.184-3.529a4.123,4.123,0,0,1-.592-2.683,1.575,1.575,0,0,1,1.959-1.47,2.52,2.52,0,0,1,1.042.426c.195.136.388.31.661.234C137.565,256.652,137.869,256.806,137.822,257.148Zm26.67-9.134c.185-.058.451-.1.372-.417.047-.091.142-.063.216-.087h0c.094.062.2.162.306.068.3-.263.737-.331,1-.658a20.183,20.183,0,0,1,1.983-.738,1.326,1.326,0,0,1,1.626.815,16.21,16.21,0,0,1,.621,2.476,3.368,3.368,0,0,0,2.133,2.182,6.488,6.488,0,0,0,2.019.085c.222-.019.3-.037.27.26-.051.555-.052,1.114-.131,1.669-.029.2-.088.289-.3.3a50.992,50.992,0,0,1-5.782,0c-1.017-.07-2.037-.074-3.054-.133-2.486-.144-4.975-.067-7.462-.122-1.2-.027-2.409.077-3.612.03-2.971-.116-5.944-.011-8.915-.107-.857-.028-1.715-.171-2.568-.135-.833.035-1.66-.036-2.489-.013-.271.008-.362-.064-.34-.324.031-.355-.114-.728.13-1.009-.007.168.162.226.336.278.315-.628.6-1.276.954-1.878.446-.748.692-.788,1.42-.348.574.347,1.142.7,1.713,1.057a4.374,4.374,0,0,0,3.3.2,5.6,5.6,0,0,0,1.46-.785,20.44,20.44,0,0,0,2.571-3.939,7.079,7.079,0,0,1,3.342-3.206,2.166,2.166,0,0,1,.427-.11,1.074,1.074,0,0,1,1.465.363c.527.656.858,1.435,1.353,2.111a7.568,7.568,0,0,0,1.66,1.871,3.3,3.3,0,0,0,3.078.429h0A9.15,9.15,0,0,0,164.491,248.014Zm1.619,17.26a3.383,3.383,0,0,1-3.587-1.866,17.35,17.35,0,0,1-1.587-4.806,5.031,5.031,0,0,1-.144-.927c-.011-.643-.029-.643.624-.641h.2c1.687.1,3.377.093,5.065.24a43.354,43.354,0,0,0,4.439.129,5.706,5.706,0,0,0,1.432-.116c.545-.149,1.048.191,1.6.162.284-.015.1.248.044.365a15.625,15.625,0,0,1-1.263,2.163,18.6,18.6,0,0,1-1.826,2.577A10.567,10.567,0,0,1,166.11,265.274Zm-23.061-6.024c-.111-.781-.249-1.558-.369-2.338-.078-.51-.044-.547.47-.43.151.034.3-.008.427.012.319.049.672-.238.98.2.127.18.62.113.948.14,1.53.129,3.061.108,4.6.086,1.266-.018,2.533.08,3.8.108.3.007.279.186.24.358-.113.492-.234.984-.382,1.467a26.546,26.546,0,0,1-2.417,5.05c-.6,1.091-.944,1.325-2.166,1.252a5.46,5.46,0,0,1-2.5-.448,6.066,6.066,0,0,1-1.725-1.387A6.93,6.93,0,0,1,143.049,259.249Zm11.23,33.1c-.525.931-1.012,1.885-1.56,2.8a23.969,23.969,0,0,1-1.618,2.418c-.144.186-.237.249-.379-.017a35.143,35.143,0,0,1-2.022-4.328,16.786,16.786,0,0,1-.773-2.724,23.017,23.017,0,0,0,5.216,1.386c.325.045.646.12.972.159C154.345,292.07,154.4,292.126,154.28,292.348Zm10.932-.605a15.283,15.283,0,0,0-.853,2.611c-.273,1.01-.646,1.983-.974,2.972a4.375,4.375,0,0,1-1.138-1.005c-.179-.183-.35-.393-.648-.373l-1.089-.994h0l-.4-.493a15.991,15.991,0,0,0-1.362-1.445c-.145-.117-.314-.263-.275-.435.046-.2.28-.077.428-.112s.3.018.424-.086h0a15.817,15.817,0,0,0,2.917-.388,20.869,20.869,0,0,0,2.627-.585.345.345,0,0,1,.325.074C165.3,291.555,165.257,291.647,165.212,291.742Zm8.64-11.362a10.974,10.974,0,0,1-6.6,7.2,23.883,23.883,0,0,1-4.812,1.539,18.556,18.556,0,0,1-4.067.449c-1.5-.08-2.991-.241-4.484-.415a20.059,20.059,0,0,1-5.911-1.676c-2.435-1.094-4.785-2.351-6.387-4.633a9.273,9.273,0,0,1-1.717-5.262c-.045-2.143,0-4.284.053-6.427.065-2.723.047-5.449.075-8.173.005-.528.055-1.055.085-1.583.1-.122.118-.394.382-.2h0c-.146.232-.258.464.015.688a8.163,8.163,0,0,0,.811,1.5,3.217,3.217,0,0,0,1.037,1.194h0c.062.175-.076.428.121.532.341.18.478.558.8.749a.09.09,0,0,0,.1.094l.477.328a7.261,7.261,0,0,0,6.493,1.716c.383-.065.574-.086.583.4a13.217,13.217,0,0,0,.333,2.011,2.061,2.061,0,0,0,1.155,1.351,17.829,17.829,0,0,0,1.625.788,5.251,5.251,0,0,0,3.315.168c.341-.057.721-.164,1.09-.223h0c.234-.122.549-.131.631-.461a3.26,3.26,0,0,0,.747-.837.979.979,0,0,0-.248-1.479,1.506,1.506,0,0,0-1.766-.175,3.373,3.373,0,0,1-2.332.394,1.8,1.8,0,0,1-1.557-1.719,4.528,4.528,0,0,1,.27-2.517,7.975,7.975,0,0,1,1.3-1.968,1.114,1.114,0,0,0,.261-1.27.77.77,0,0,1,.033-.706,20.453,20.453,0,0,0,1.31-4.33c.035-.137.029-.3.168-.4a.386.386,0,0,1,.627.3,22.036,22.036,0,0,0,.558,4.108,12.257,12.257,0,0,0,2.113,4.814,7.26,7.26,0,0,0,4.4,2.472,1.762,1.762,0,0,0,.894-.139,19.5,19.5,0,0,1,2.182-.556,1.006,1.006,0,0,0,.544-.182,2.645,2.645,0,0,0,1.2-.489c.273-.372.826-.306,1.09-.693h0A26.629,26.629,0,0,0,173.6,264.5a1.327,1.327,0,0,0,.605-1.021c0-.244.188-.442.485-.589.049,1.117.1,2.2.141,3.281.093,2.471.164,4.943.151,7.416a16.954,16.954,0,0,1-.256,2.651A28.069,28.069,0,0,1,173.852,280.38Zm2.5-31.672a5.384,5.384,0,0,0-2.129-.35c-.666.035-.9-.169-.968-.846a14.256,14.256,0,0,0-.728-2.462,1.371,1.371,0,0,0-.345-.538,5.574,5.574,0,0,0-1.881-1.352,3.169,3.169,0,0,0-1.957-.368,7.28,7.28,0,0,0-1.582.556c-.825.42-1.694.746-2.506,1.194a4.539,4.539,0,0,1-1.32.418,1.226,1.226,0,0,1-1.24-.311,6.2,6.2,0,0,1-1.332-1.894,4.072,4.072,0,0,0-5.407-2.25c-.348.158-.665.367-1,.549a9.9,9.9,0,0,0-3.772,3.893,19.66,19.66,0,0,1-1.647,2.756,2.335,2.335,0,0,1-3.391.642c-.738-.441-1.514-.807-2.272-1.207a1.194,1.194,0,0,0-1.144-.036,3.064,3.064,0,0,0-1.248,1.1c-.284.465-.573.928-.833,1.406a2.4,2.4,0,0,0-.384,1.52l-.007,0c-.318-.022-.365.221-.437.443-.018.055,0,.128-.064.16-.008,0-.019-.052-.039-.077-.187-.241-.274-.054-.349.093a2.628,2.628,0,0,0-.222,1.256c0,.561-.044.588-.556.379a6.256,6.256,0,0,0-2.664-.539c-.607.028-.678-.02-.672-.649a15.359,15.359,0,0,0-.254-2.512,17.36,17.36,0,0,1,.208-7.181,2.925,2.925,0,0,1,.939-1.538c.753-.642,1.51-1.277,2.22-1.974a25.5,25.5,0,0,0,2.388-2.775c.842-1.105,1.457-2.361,2.206-3.529a10.472,10.472,0,0,1,3.633-3.515,15.108,15.108,0,0,1,3.767-1.5,8.428,8.428,0,0,1,6.457.866,5.8,5.8,0,0,1,1.932,1.815,1.771,1.771,0,0,0,1.956.585,3.559,3.559,0,0,0,.99-.733,18.247,18.247,0,0,1,6.441-3.79,10.054,10.054,0,0,1,6.788.3,5.869,5.869,0,0,1,3.121,2.546c.217.373.413.754.6,1.138a8.651,8.651,0,0,1,1.025,5.834,13.6,13.6,0,0,0-.285,2.806,4.548,4.548,0,0,0,.789,2.911c.376.5.71,1.034,1.127,1.5a2.362,2.362,0,0,1,.619,1.827,14.967,14.967,0,0,1-.742,3.727,4.546,4.546,0,0,0-.2,1.116,5.134,5.134,0,0,1-.425,2.117c0,.011-.005.022-.008.033-.24-.273-.541-.182-.837-.124-.543.105-.581.074-.593-.489a1.922,1.922,0,0,0-.06-.629c-.017-.037-.037-.072-.055-.108a.5.5,0,0,0-.3-.655.377.377,0,0,1-.092-.062,2.533,2.533,0,0,1-.15-.353C177.142,249.423,176.918,248.913,176.348,248.709Zm5.347,10a5.928,5.928,0,0,1-1.4,2.742,38.175,38.175,0,0,1-2.6,2.914c-.015-2.176-.219-4.214-.047-6.261a3.888,3.888,0,0,0-.042-1.464c-.078-.26.02-.446.266-.659a2,2,0,0,1,2.965.085A2.759,2.759,0,0,1,181.7,258.713Z" transform="translate(-128.278 -222.955)" fill="#0c0c0d"/>
        <path id="Caminho_303" data-name="Caminho 303" d="M220.113,450.568a38.388,38.388,0,0,1-4.732.939,27.6,27.6,0,0,1-4.848.107,32.731,32.731,0,0,1-6.22-1.1c-.546-.152-1.216-.631-1.75.115-.025.035-.128.005-.191.022a.636.636,0,0,0-.412.789.243.243,0,0,1-.051.331.258.258,0,0,0,.03.4.348.348,0,0,1,.167.411c-.031.154.057.244.195.3a11.629,11.629,0,0,0,2.694.866,3.233,3.233,0,0,1,.986.3,4.128,4.128,0,0,0,2.451.566c.156.017-.061-.1-.055-.172h0a.539.539,0,0,1,.479.107c-.009.056-.051.167.04.143.423-.113.857.032,1.276-.074h0c.591.023,1.182.065,1.772.065a30.239,30.239,0,0,0,3.666-.231c.306-.038.575-.046.63.428.16-.263.2-.5.477-.546.647-.114,1.3-.228,1.931-.393a9.6,9.6,0,0,0,2.317-.516c.239.032.367-.119.482-.291h0c-.031-.373.322-.57.362-.983A1.361,1.361,0,0,0,220.113,450.568Z" transform="translate(-183.875 -394.743)" fill="#0c0c0d"/>
        <path id="Caminho_304" data-name="Caminho 304" d="M281.175,368.125c-.533-.113-1.036.111-1.091.445-.113.681-.23,1.364-.292,2.05a1.267,1.267,0,0,0,.374,1.3c.168.129.487-.032.54.323.015.1.069-.065.107-.109.169-.194.5-.1.652-.389.031-.061.133.262.345.372.12-.316.255-.593.617-.636.1-.012.092-.119.137-.178a1.842,1.842,0,0,0,.2-1.366A1.676,1.676,0,0,0,281.175,368.125Z" transform="translate(-242.784 -332.663)" fill="#0c0c0d"/>
        <path id="Caminho_305" data-name="Caminho 305" d="M205.758,370.366a1.028,1.028,0,0,0,.347.716c.487.39,1.052.08,1.565.236.274.083.371-.313.534-.41.6-.359.581-.8.435-1.373a5.685,5.685,0,0,1-.217-1.06,2.1,2.1,0,0,0-.27-.642c-.24.189-.33-.1-.5-.154-.117-.082-.123-.364-.332-.256-.227.118.012.307,0,.466h0c-.238.2-.281.022-.278-.161,0-.3-.211-.39-.428-.468a2.659,2.659,0,0,0-.857.821C205.865,368.844,205.631,369.606,205.758,370.366Z" transform="translate(-186.814 -332.032)" fill="#0c0c0d"/>
      </g>
    </g>
  </g>
</svg>
