<svg xmlns="http://www.w3.org/2000/svg" width="76.109" height="76.944" viewBox="0 0 76.109 76.944">
  <g id="Grupo_14365" data-name="Grupo 14365" transform="translate(-1437.179 -2819)">
    <path id="Caminho_348" data-name="Caminho 348" d="M38.487,0c21.248,0,48.08,22.389,33.781,38.472S59.735,76.944,38.487,76.944.179,50.168.179,28.92,17.24,0,38.487,0Z" transform="translate(1437 2819)" fill="#04bfcb"/>
    <g id="Grupo_115" data-name="Grupo 115" transform="translate(1448.132 2822.079)">
      <path id="Caminho_346" data-name="Caminho 346" d="M1452.46,2825.039l.954,41.857-3.149,23.259h45.117l4.319-3.1-4.319-55.726-6.1-6.291Z" transform="translate(-1449.232 -2822.586)" fill="#fff"/>
      <path id="Caminho_347" data-name="Caminho 347" d="M1493.379,2825.039l6.475,6.607-3.279,1.511h-7.4Z" transform="translate(-1452.5 -2822.586)" fill="#04bfcb"/>
      <g id="Grupo_101" data-name="Grupo 101">
        <path id="Caminho_315" data-name="Caminho 315" d="M240.009,292.975c-.048-.323.14-.675-.114-.974h0q-.006-1.471-.011-2.942h0c-.044-.614-.1-1.225-.1-1.842A10.22,10.22,0,0,0,239.7,285a16.281,16.281,0,0,0-.235-2.511c-.247.3.094.679-.333.774q.007-.483.015-.966h0c.234-.029.422-.075.348-.4a4.3,4.3,0,0,1-.051-.694h0c-.11-1.615-.219-3.231-.327-4.831-.246-.017-.15.4-.434.238.185-.561.65-1.056.429-1.715a2.355,2.355,0,0,1-.07-.862,26.446,26.446,0,0,0-.157-3.311c-.053-.614-.013-1.234-.106-1.834-.124-.792,0-1.588-.114-2.367-.087-.607-.223-1.21-.3-1.82h0c-.2-.182.105-.364,0-.546h0a6.208,6.208,0,0,0-.045-1.262c-.186-.781.193-1.625-.284-2.364a.178.178,0,0,1,0-.194c.212-.468.273-.906-.294-1.184.375-.009.474-.225.408-.556a3,3,0,0,0-.137-.577c-.172-.408.066-.9-.279-1.276a.2.2,0,0,1,.073-.282c.193-.082.134-.253.124-.377-.071-.918-.121-1.84-.252-2.75a26.748,26.748,0,0,1-.21-3.253c0-.194.08-.4-.079-.571a4,4,0,0,0-.012-.641c-.078-.446.135-.966-.318-1.322h0q0-.269-.01-.538a5.34,5.34,0,0,1,.29-1.256,5.164,5.164,0,0,0-.047-2.168c-.378-1.179-.041-2.3-.092-3.438-.018-.4.243-.737.17-1.132a1.094,1.094,0,0,0,.222-1.318h0c-.025-.285-.3-.408-.41-.641.114-.405-.3-.457-.447-.685-.414-.636-1.017-1.1-1.483-1.691-.666-.846-1.383-1.652-2.027-2.518.224-.292.136-.5-.193-.593-.244-.067-.412-.294-.68-.292-.142-.055-.154-.2-.223-.31.072-.214.087-.411-.156-.535a.445.445,0,0,1-.281-.352c-.18-.066-.235-.307-.451-.323h0c-.231-.357-.682-.4-.96-.655a1.8,1.8,0,0,0-1.381-.467.678.678,0,0,0-.523-.049,9.945,9.945,0,0,1-2.6.23c-3.228.1-6.458.1-9.687.171-1.96.041-3.919.139-5.878.2-2.541.074-5.082.121-7.623.2-3.357.107-6.713.238-10.07.357a2.3,2.3,0,0,0-2.18,1.977c-.015.105,0,.258-.128.267-.333.021-.238.251-.235.434,0,.236.035.472.03.707-.036,1.759-.11,3.518-.107,5.277,0,1.158.174,2.311.268,3.464.127,1.568.309,3.135.392,4.71.075,1.436.136,2.878.268,4.315a28.347,28.347,0,0,1,.04,3.6,6,6,0,0,1,.006,1.758.428.428,0,0,1,.158.368c-.081.728-.1,1.464-.186,2.192-.038.336.2.6.122.957a9.385,9.385,0,0,0-.2,1.7c-.006.223-.208.555.177.71.1.04.051.139-.027.14-.337,0-.178.257-.18.387a4.246,4.246,0,0,1-.034,1.314,8.224,8.224,0,0,0-.265,2.35c-.2,1.791-.156,3.608-.287,5.408-.071.976-.157,1.946-.166,2.927-.009.948-.083,1.9-.129,2.846-.039.8-.146,1.607-.152,2.418-.009,1.17-.086,2.346-.147,3.52a33.051,33.051,0,0,1-.212,4.55c-.051.268.132.52.038.805a5.583,5.583,0,0,0-.273,1.634c-.016.756-.05,1.518-.112,2.265-.084,1.022-.188,2.049-.322,3.07-.16.149,0,.424-.221.551-.247.356-.092.67.1.979.186.357.635.366.871.656a1.538,1.538,0,0,0,.32-.048,5.377,5.377,0,0,1,2.75-.278,4.883,4.883,0,0,0,1.438.214,9.65,9.65,0,0,1,1.819-.019c1.756.1,3.511.328,5.267.256.583-.024,1.346.486,1.824-.313a.268.268,0,0,1,.194.05c.21.209.448.119.667.058.3-.084.613-.059.91-.113.828-.153,1.576.334,2.4.235a19.383,19.383,0,0,1,1.958-.048c.921,0,1.836-.17,2.76-.1a.9.9,0,0,0,.631-.1,1.468,1.468,0,0,0,.859-.02h0c.553-.038,1.117.174,1.661-.074l-.008-.015a4.811,4.811,0,0,0,1.562.086c.517-.039,1.035-.033,1.554-.073,1.1-.083,2.216-.016,3.324-.01a2.926,2.926,0,0,0,1.2-.013,1.8,1.8,0,0,0,.872-.1c.081.181.245.092.376.121.558.12,1.046-.248,1.589-.223.349.267.712.116,1.081.052a2.061,2.061,0,0,1,1.3-.064,1.711,1.711,0,0,0,.852.064,14.15,14.15,0,0,1,2.35-.124,2.745,2.745,0,0,0,.379-.007,12.9,12.9,0,0,1,2.851.077,1.181,1.181,0,0,0,1.084-.326c.222-.2.54-.491.9-.136a3.187,3.187,0,0,0,1.877-1.088.745.745,0,0,1,.547-.4c.8-.191,1.04-.906,1.4-1.506a.247.247,0,0,0,.011-.212c-.173-.286-.248-.56.021-.831Zm-.458-6.759h0c0-.036,0-.073,0-.109.015.006.028.012.045.018C239.631,286.138,239.628,286.222,239.551,286.216Zm-.873-9.6a.5.5,0,0,1-.011-.192c0,.064.008.128.012.192Zm-.94-17.459Zm-8.565-25.48c.129-.29.25-.043.347.055a30.011,30.011,0,0,1,2.783,3.162c.163.217.566.4.429.682-.126.261-.493.01-.756.043-1.3.162-2.6,0-3.9.038a3.8,3.8,0,0,1-.6-.085C228.052,236.243,228.6,234.954,229.173,233.674Zm-2.019-3.151c0-.054-.007-.107-.011-.16A.223.223,0,0,1,227.154,230.523ZM192.7,276.389s0,.008,0,.013l-.009,0,.008-.008Zm-.86,12.122.026,0-.011.012Zm.871-13.636h0v0Zm-1.239,11.847-.008-.035.016.009C191.483,286.706,191.479,286.713,191.477,286.722Zm.271,7.551.015-.008v.012Zm43.32-.587c-.922.1-1.839.214-2.769.252-2.524.1-5.043.318-7.572.3-2.053-.012-4.105.044-6.158.08-2.962.053-5.923.081-8.886.21-3.122.136-6.254.216-9.383.144-.328-.007-.653-.026-.979-.066-2.4-.3-4.812-.455-7.229-.536a.449.449,0,0,0-.124.037c.064-.384.331-.7.387-1.088.063-.437.009-.491-.389-.345.031-.064.02-.106-.023-.13l0,0a.433.433,0,0,0-.048-.613.216.216,0,0,0,.083.005,3.123,3.123,0,0,0,.646-1.785,19.543,19.543,0,0,1,.191-2.741c.24-1.643.167-3.319.262-4.979a.743.743,0,0,0-.128-.568c-.045-.051-.1-.047-.016-.136.2-.2.143-.471.137-.723,0-.028-.01-.054-.015-.081.2-.138.134-.385.133-.582-.011-1.412.146-2.816.176-4.225a.943.943,0,0,0-.415-.936.129.129,0,0,0-.142.013v0l.046-.032a.557.557,0,0,0,.522-.466,17.24,17.24,0,0,0,.124-3.019c0-.247-.1-.472-.408-.423a.5.5,0,0,0-.021-.073.132.132,0,0,0-.01-.022.7.7,0,0,0,.062-.253c-.009-.394.509-.677.322-1.042a1.029,1.029,0,0,1,.246-1.341,4.275,4.275,0,0,1,.038-1.922c.187-.556-.54-1.1.071-1.586.03-.024.016-.167-.024-.2-.266-.24-.176-.459-.024-.722a.546.546,0,0,0,.023-.47c-.272-.422-.137-.883-.19-1.324h0l-.011-.539a10.824,10.824,0,0,0,.114-2.52h0a1.081,1.081,0,0,1-.085-1.2,2.943,2.943,0,0,0,.209-1c0-.2-.251-.314-.093-.583a.814.814,0,0,0-.114-1.009c-.061-.066-.132-.117-.031-.214.474-.455.275-.944,0-1.375-.168-.263-.292-.441-.026-.695a.5.5,0,0,0,.119-.3,15.628,15.628,0,0,0-.058-2.14,5.018,5.018,0,0,0-.127-2.2c-.089-.178.161-.367.071-.575a2.428,2.428,0,0,1-.149-1.389,1.454,1.454,0,0,0-.214-1.256.421.421,0,0,0,.018-.039c.34-.2.219-.389.091-.582a1.059,1.059,0,0,1,.046-.3,8.129,8.129,0,0,0-.066-3.2c-.072-.935-.275-1.854-.3-2.793-.008-.306.037-.607.029-.917a23.245,23.245,0,0,1,.071-3.963c.025-.17.047-.325.234-.39,2.415-.078,4.833-.11,7.249-.229,1.707-.084,3.418-.044,5.128-.089,2.49-.065,4.981-.218,7.475-.142a3.558,3.558,0,0,0,.763-.041,2.36,2.36,0,0,1,.427-.085c1.991.048,3.981-.145,5.972-.011a7.881,7.881,0,0,0,1.252-.011c1.464-.135,2.935-.1,4.4-.185.637-.037.724.164.41.741-.66,1.211-1.238,2.464-1.843,3.7a.77.77,0,0,0-.122.572.624.624,0,0,0,.129.06c-.031,0-.062-.005-.093-.011-.351.125-.444.454-.554.748a.883.883,0,0,0,.552,1.315,2.331,2.331,0,0,1,.434.314c.049.033.1.063.15.092a.94.94,0,0,0,1.048.4c.166.042.333.079.5.114,2.266.239,4.547.045,6.816.244l.211-.011a1.78,1.78,0,0,1,.222.81c-.044,1.425-.22,2.839-.167,4.276.042,1.13-.054,2.274,0,3.413.131,1.53.152,3.063.343,4.6a68.844,68.844,0,0,1,.452,7c.051,2.327.282,4.641.439,6.96.125,1.847.263,3.694.326,5.543q.1,2.968.268,5.933c.05.886.1,1.778.151,2.664.055.927.227,1.841.245,2.767.029,1.488.084,2.975.121,4.462a.962.962,0,0,0,.2.729,1.206,1.206,0,0,1-.058.213,12.744,12.744,0,0,0,.018,2.342C236.288,293.3,236.076,293.578,235.067,293.687Z" transform="translate(-188.331 -228.561)" fill="#0c0d0d"/>
        <path id="Caminho_316" data-name="Caminho 316" d="M346.916,381.774h0v0Z" transform="translate(-304.315 -340.617)" fill="#0c0d0d"/>
        <path id="Caminho_317" data-name="Caminho 317" d="M250.377,315.3a3.091,3.091,0,0,0,.565-.189,1.242,1.242,0,0,0,.632-.565c.074-.176-.343-.029-.394-.257.409-.363.408-.362.02-.767-.06-.063-.1-.147-.153-.215-.389-.47-.741-.966-1.467-.954s-1.442-.034-2.161-.08c-1.626-.1-3.251-.233-4.878-.329-.846-.05-1.7-.012-2.543-.083-1.009-.085-2.015-.2-3.027-.262a5.651,5.651,0,0,1-1.777-.111c-.253.01-.507.04-.76.028-.65-.032-1.279.267-1.913.19a29.811,29.811,0,0,0-4.371.147,7.582,7.582,0,0,0-2.083.208c-.486.151-.98-.112-1.454-.026-1.045.189-2.106.141-3.155.284a2.929,2.929,0,0,0-2.187,1.028c-.275.364-.09.7-.1,1.036-.008.307.26-.051.366.06.183.193.563.258.449.652-.034.12,0,.283.084.28.337-.013.6.267.907.24,1.246-.107,2.492-.184,3.743-.238,2.139-.092,4.273-.3,6.417-.3.618,0,1.236-.008,1.855-.011a.519.519,0,0,1,.363-.081,20.344,20.344,0,0,1,4.028.167c.79.132,1.595-.373,2.344.132a.105.105,0,0,0,.1-.02c.17-.326.4-.109.607-.066a3.931,3.931,0,0,0,.679.175c2.2.042,4.394.273,6.594.337a13.485,13.485,0,0,0,2.147.259c.261-.033.562.008.34-.418C250.11,315.389,250.235,315.34,250.377,315.3Z" transform="translate(-210.85 -289.216)" fill="#0c0d0d"/>
        <path id="Caminho_318" data-name="Caminho 318" d="M217.992,292.525c-.1.487.3.5.609.535a3.017,3.017,0,0,0,.69-.084,3.558,3.558,0,0,0,1.067.011c.305.16-.2.175-.051.315a4.122,4.122,0,0,0,1.13-.1.391.391,0,0,1-.467-.217h0c.213.022.414-.056.638-.023a4.114,4.114,0,0,0,1.863-.2h0a.626.626,0,0,0,.518-.118,1.205,1.205,0,0,0,1.035.044c.069-.019.144-.016.213-.036.124-.036.257-.145.351.056-.182.131-.4-.114-.562.086.122.129.264.048.4.05.384.008.771-.245,1.108-.165a11.175,11.175,0,0,0,2.049.069h0c1.631.075,3.262.161,4.9.1a1,1,0,0,1,.634-.1c1.036-.016,2.072-.019,3.109-.024,2.126-.011,4.254.013,6.372.184,1.883.152,3.763.284,5.652.27.308,0,.718.063.531-.5a.143.143,0,0,1,.062-.126c.5-.14.705-.805,1.338-.706a.637.637,0,0,1-.29-.5c.3-.4-.075-.58-.228-.827-.084-.135-.182-.263-.268-.394-.115-.174-.259-.446-.516-.4-.509.085-1-.093-1.5-.049a7.926,7.926,0,0,1-1.621.013c-1.89-.227-3.789-.283-5.687-.324-2.228-.048-4.458-.109-6.686.006a20.1,20.1,0,0,1-2.33.223,14.067,14.067,0,0,0-2.238-.052c-.689.081-1.392.1-2.084.118-.775.018-1.56,0-2.326.082-2.254.228-4.5.561-6.77.6-.248,0-.49.026-.624.319a.672.672,0,0,1-.375.3c-.433.146-.37.471-.408.823-.051.469.339.278.5.4C217.845,292.293,218.052,292.233,217.992,292.525Zm1.284.3.226.028a1.544,1.544,0,0,1-.231,0l-.011-.014C219.217,292.788,219.278,292.838,219.276,292.824Z" transform="translate(-209.452 -273)" fill="#0c0d0d"/>
        <path id="Caminho_319" data-name="Caminho 319" d="M230.8,364.141c-1.009-.145-2.02-.269-3.039-.313a6.273,6.273,0,0,0-1.636,0c-.463.037-.983-.169-1.34.315a.179.179,0,0,1-.1-.011c-.361-.362-1.143-.294-1.314.114h0c-.172-.392-.508-.352-.838-.31-.495.063-.987.139-1.482.2-.2.025-.394.037-.516.228l-.419.218c-.035.164-.191.211-.3.3-.662.573-.563.831-.028,1.3a1.12,1.12,0,0,1,.335.621c.049.407.267.486.584.563a6.508,6.508,0,0,0,2.094.129,52.2,52.2,0,0,1,9.621.369c2.766.272,5.542.377,8.316.5,2.57.112,5.146.134,7.71.361a11.447,11.447,0,0,1,3.118.392,1.464,1.464,0,0,0,1.49-.01c-.035-.185-.372-.133-.3-.339.068-.182.292-.19.477-.187.127,0,.253.018.38.027a.5.5,0,0,1,.263-.321c.495-.187.474-.52.337-.961-.142-.457-.6-.689-.731-1.112a.736.736,0,0,0-.742-.547,15.807,15.807,0,0,0-3.468-.527c-1.962-.213-3.935-.2-5.9-.282-2.187-.092-4.38-.083-6.562-.294a.179.179,0,0,0-.216-.049,6.955,6.955,0,0,0-1.55-.036h0l-2.157-.134a.361.361,0,0,0-.171-.052,6.1,6.1,0,0,0-1.149-.058h0A1.7,1.7,0,0,0,230.8,364.141Z" transform="translate(-211.026 -327.45)" fill="#0c0d0d"/>
        <path id="Caminho_320" data-name="Caminho 320" d="M254.62,340.952h0c-.065-.262-.288-.282-.5-.333-.046-.011-.136.053-.141-.077a1.25,1.25,0,0,0-.79-1.025,16.559,16.559,0,0,0-3.529-.3c-1.62-.051-3.244.009-4.858-.2-.717-.094-1.437-.177-2.158-.221-.669-.041-1.348.029-2.011-.051a11.67,11.67,0,0,1-1.943-.037c-.394-.112-.865.081-1.28.01a28.091,28.091,0,0,0-4.583-.3,4.045,4.045,0,0,1-.6-.018,30.854,30.854,0,0,0-4.917-.2c-1.788.008-3.564.323-5.358.26-.53.225-1.172.1-1.638.528-.026.066-.044.183-.08.189-.811.136-.2.937-.59,1.266a.44.44,0,0,0,.074.11c.438-.2.565.287.611.432.226.722.837.706,1.347.711,2.027.016,4.05-.22,6.082-.109,2.462.135,4.93.218,7.383.469,2.889.3,5.792.262,8.686.43,1.693.1,3.385.228,5.079.3a31.572,31.572,0,0,1,3.848.226c.267.044.635-.124.6-.227-.2-.582.427-.381.558-.637.051-.1.251-.122.386-.174.371-.143.388-.341.1-.591.051-.152.257-.223.221-.421Z" transform="translate(-211.236 -308.737)" fill="#0c0d0d"/>
        <path id="Caminho_321" data-name="Caminho 321" d="M232.942,303.668c.06-.01.121-.025.184-.042C233.065,303.643,233,303.654,232.942,303.668Z" transform="translate(-220.958 -283.462)" fill="#0c0d0d"/>
        <path id="Caminho_322" data-name="Caminho 322" d="M253.04,392.925c0-.119-.105-.215-.045-.353.127-.294-.054-.328-.283-.305-.444-.081-.886-.175-1.332-.241-2.733-.409-5.486-.681-8.191-1.284a33.006,33.006,0,0,0-5.748-.787c-1.793-.078-3.586-.026-5.38.007-.976.018-1.953-.063-2.93-.1-1.163-.112-2.311.142-3.471.146-.573,0-1.146.118-1.72.146-.254.013-.437.42-.625.226-.27-.279-.555-.181-.823-.166-.489.027-.97.022-1.459,0a1.617,1.617,0,0,0-1.408.409c-.26.27-.648.362-.848.753a1.783,1.783,0,0,0-.214.755c-.041.521.353.3.522.441a2.191,2.191,0,0,0,.3.786h0a1.145,1.145,0,0,0,.761.445,34.346,34.346,0,0,0,4.3-.053,38.864,38.864,0,0,1,4.89-.23,35.792,35.792,0,0,0,4.132.1,36.754,36.754,0,0,1,9.671.806c1.678.345,3.352.7,5.053.907,1.025.128,2.056.237,3.066.444.89.183.958.164,1.537-.437.182-.189.486-.271.647-.557.137-.244.34-.331.361-.752C253.84,393.321,253.421,393.2,253.04,392.925Z" transform="translate(-210.44 -346.512)" fill="#0c0d0d"/>
        <path id="Caminho_323" data-name="Caminho 323" d="M251.115,418.434a.775.775,0,0,0-.464-.734c-.173-.189-.2-.5-.531-.558-.445-.074-.885-.18-1.33-.252-1.895-.3-3.789-.613-5.687-.9-1.663-.249-3.3-.657-4.973-.842s-3.333-.447-5.006-.607c-1.349-.129-2.708-.156-4.063-.229a16.764,16.764,0,0,0-4.025.36c-.312.045-.73-.069-.934.194-.336.434-.458.082-.654-.094-.017-.016-.069.008-.105.013a6,6,0,0,0-1.183.157c-.272-.064-.492.217-.769.116-.371,0-.742.021-1.112,0a1.948,1.948,0,0,0-.8.2c-.468.168-.652.573-1.018.795a.648.648,0,0,0,.028,1.136c.254.177.881.151.493.768-.02.031.133.212.236.271a1.546,1.546,0,0,0,.712.237,33.479,33.479,0,0,0,5.7-.3,26.107,26.107,0,0,1,5.974-.087c1.819.187,3.64.35,5.455.583,1.939.249,3.869.571,5.782.947,2.106.414,4.236.687,6.337,1.125.262.055.608.121.823-.14a8.352,8.352,0,0,1,1.159-.87C251.655,419.3,251.638,418.889,251.115,418.434Z" transform="translate(-210.135 -364.395)" fill="#0c0d0d"/>
        <path id="Caminho_324" data-name="Caminho 324" d="M360.326,371.261c-.089-.005-.193,0-.193.12a.164.164,0,0,0,.171.163.168.168,0,0,0,.168-.167C360.476,371.286,360.4,371.265,360.326,371.261Z" transform="translate(-313.983 -332.927)" fill="#0c0d0d"/>
      </g>
    </g>
  </g>
</svg>
