<svg xmlns="http://www.w3.org/2000/svg" width="207.69" height="65.778" viewBox="0 0 207.69 65.778"><g transform="translate(0)"><g transform="translate(0.07 51.986)"><path d="M52.2,20.4c-7.957-.53-15.649-.8-23.606-.8h0c-.265,0-.53,0-.53.265-.265,0-.265.265-.265.53v2.122c0,.265,0,.265.265.53.265,0,.265.265.53.265h0l23.34-1.591c.53,0,.8-.265.8-.53C53,20.926,52.732,20.661,52.2,20.4Z" transform="translate(45.774 -19.6)"/><path d="M59.842,19.8A328.243,328.243,0,0,0,.7,26.431c-.53,0-.8.53-.53.8,0,.265.53.53.8.53h0l59.147-3.713c.53,0,.8-.265.8-.53V20.33c0-.265,0-.265-.265-.53Z" transform="translate(-0.061 -19.27)"/></g><path d="M32.3,34.44h0q-.4-.4-1.591,0h0a33.008,33.008,0,0,0-5.3,2.652,28.28,28.28,0,0,1-5.039,1.857A10.192,10.192,0,0,1,14,38.418,10.362,10.362,0,0,1,9.492,34.7,19.609,19.609,0,0,1,6.839,28.87a18.744,18.744,0,0,1-.53-6.631A18.727,18.727,0,0,1,7.9,15.873a12.021,12.021,0,0,1,3.448-4.509A8.3,8.3,0,0,1,14,10.038a12.918,12.918,0,0,1,6.366,0,6.954,6.954,0,0,1,2.387,1.326h.265c.53,0,1.326.265,1.591,0a.847.847,0,0,0,.8-.8,2.578,2.578,0,0,0-.265-2.387h0a10.294,10.294,0,0,0-3.713-2.652,25.23,25.23,0,0,0-4.774-1.061,17.848,17.848,0,0,0-5.3.265A12.223,12.223,0,0,0,6.839,7.121,18.581,18.581,0,0,0,2.861,12.16,28.219,28.219,0,0,0,.474,18.791a19.852,19.852,0,0,0-.265,6.9,32.393,32.393,0,0,0,1.591,6.9,21.2,21.2,0,0,0,3.448,5.835,13.544,13.544,0,0,0,5.57,3.978,13.851,13.851,0,0,0,5.57,1.061h.265a20.191,20.191,0,0,0,5.57-.8,18.52,18.52,0,0,0,5.3-2.122A42.914,42.914,0,0,0,32.3,37.888a1.354,1.354,0,0,0,1.061-1.326c.265-.53,0-1.061,0-1.326A3.661,3.661,0,0,0,32.3,34.44Z" transform="translate(-0.034 7.202)"/><path d="M26.415,12.952h0A10.137,10.137,0,0,0,19.784,10.3a8.524,8.524,0,0,0-5.835,3.448,10.55,10.55,0,0,0-2.387,5.835,10.483,10.483,0,0,0,.8,5.835,8.4,8.4,0,0,0,3.713,4.244,8.634,8.634,0,0,0,3.713,1.061,13.313,13.313,0,0,0,3.183-.53,11.267,11.267,0,0,0,4.509-2.652A10.383,10.383,0,0,0,30.128,23.3a9.028,9.028,0,0,0,0-5.3A10.844,10.844,0,0,0,26.415,12.952Zm-1.061,8.222a4.278,4.278,0,0,1-.8,2.387,6.169,6.169,0,0,1-2.918,1.857c-1.591.8-2.387.265-2.652,0A3.862,3.862,0,0,1,17.4,23.031a15.654,15.654,0,0,1-.53-3.713,3.52,3.52,0,0,1,.8-2.652c1.061-1.591,1.857-1.857,2.652-1.857h.265A3.8,3.8,0,0,1,23.5,16.135a6.263,6.263,0,0,1,1.591,2.387A4.363,4.363,0,0,1,25.354,21.175Z" transform="translate(18.849 17.019)"/><path d="M37.762,42.968c-.53-4.509-.8-9.018-1.061-13.792.265-2.122.8-4.774,1.061-7.427s.53-5.57.53-8.222V6.1a40.435,40.435,0,0,0-.8-5.039V.8h0A3.96,3.96,0,0,0,34.844,0a3.274,3.274,0,0,0-2.122,1.061h0A15.279,15.279,0,0,0,31.4,5.57a43.029,43.029,0,0,0-.265,6.1c0,2.387,0,5.039.265,7.692,0,2.387.265,5.3.265,7.957H29.805c-1.061.265-2.122.53-3.448.8-1.061.265-2.122.8-2.918,1.061A14.806,14.806,0,0,0,21.318,30.5a11.125,11.125,0,0,0-2.387,3.713,11.68,11.68,0,0,0-.53,4.244,7.893,7.893,0,0,0,1.326,3.978,14.071,14.071,0,0,0,2.387,2.918,5.462,5.462,0,0,0,3.978.8,8.4,8.4,0,0,0,3.183-2.122,17.028,17.028,0,0,0,2.652-3.448c0-.265.265-.265.265-.53,0,.8.265,1.326.265,2.122.265,1.857.53,3.448.8,5.3.265,1.591.53,3.448.8,4.774q.4,2.387.8,3.978h0c.53,1.326,1.061,1.857,1.857,1.857a8.2,8.2,0,0,0,2.122-.53A2.1,2.1,0,0,0,40.149,55.7h0A60.313,60.313,0,0,1,37.762,42.968ZM31.4,32.093c-.265.8-.53,1.857-.8,2.652a35.519,35.519,0,0,1-1.591,3.183,9.257,9.257,0,0,1-1.591,2.387c-.53.8-1.061.8-1.061.8a1.988,1.988,0,0,1-1.326-.265,5.8,5.8,0,0,1-.8-1.326c-.265-.53-.265-1.061-.53-1.591V36.6a3.405,3.405,0,0,1,1.061-2.652,7.066,7.066,0,0,1,2.652-1.591c1.061-.265,2.122-.53,2.918-.8.265.265.53.265,1.061.53C31.131,31.828,31.131,32.093,31.4,32.093Z" transform="translate(30.312 0)"/><path d="M58.519,27.3a16.2,16.2,0,0,0,1.857-3.713c.53-1.326,1.326-2.387,1.857-3.448a4.373,4.373,0,0,1,1.326-1.591h0s.265,0,.53.53a8.3,8.3,0,0,1,1.326,2.652,16.223,16.223,0,0,1,1.326,3.183,7.658,7.658,0,0,0,1.591,2.652,2.292,2.292,0,0,0,1.591.8,3.364,3.364,0,0,0,1.591-.265,2.071,2.071,0,0,0,1.061-1.061,2.329,2.329,0,0,0-.265-1.857h0a9.217,9.217,0,0,1-1.857-2.918c-.53-1.326-1.326-2.918-1.857-4.244a22.567,22.567,0,0,0-2.387-3.713c-1.326-1.591-2.652-1.591-3.448-1.326a6.063,6.063,0,0,0-2.652,1.857,9.526,9.526,0,0,0-1.857,2.652,10.751,10.751,0,0,0-1.326,2.387V18.284a35.365,35.365,0,0,1,0-5.3h0a2.293,2.293,0,0,0-.8-1.591,3.77,3.77,0,0,0-1.591-.53H52.949a2.648,2.648,0,0,0-1.326,1.061v.53a17.563,17.563,0,0,0-.265,3.978,28.828,28.828,0,0,0,.265,4.774v.265c-.265,0-.265.265-.53.265h0a9.264,9.264,0,0,1-3.978,1.857,38.778,38.778,0,0,1-5.3,1.326,33.819,33.819,0,0,1-5.039.265,4.085,4.085,0,0,1-2.918-.8c-.53-.53-.8-1.061-.265-2.387a11.981,11.981,0,0,0,5.3-.265,13.463,13.463,0,0,0,4.774-2.387,5.937,5.937,0,0,0,2.122-3.978,5.535,5.535,0,0,0-2.652-4.509,4.022,4.022,0,0,0-3.448-.8,32.171,32.171,0,0,0-3.713,1.326,11.9,11.9,0,0,0-3.448,2.918,28.187,28.187,0,0,0-2.387,2.918,3.77,3.77,0,0,0-1.591-.53c-.265,0-1.326-.265-1.857.53a1.54,1.54,0,0,0,0,1.857,3.129,3.129,0,0,0,1.326,1.326,11.385,11.385,0,0,0-1.061,3.713,4.946,4.946,0,0,0,1.857,4.244,10.128,10.128,0,0,0,4.244,1.591,19.57,19.57,0,0,0,5.57,0,38.048,38.048,0,0,0,5.835-1.061,31.2,31.2,0,0,0,5.3-1.857,24.645,24.645,0,0,0,2.652-1.326v.265a17.1,17.1,0,0,0,1.591,3.713h0c.53.53.8.8,1.061.8H56.4C56.927,29.424,57.723,28.628,58.519,27.3ZM35.443,17.754c.53-.53.8-1.061,1.326-1.591a5.5,5.5,0,0,1,2.652-1.591h0c.8-.265.8,0,1.061,0,.265.265,0,.53-.265.8l-1.061,1.061c-.53.265-1.061.8-1.591.8-.8.265-1.326.265-2.122.53Z" transform="translate(43.505 16.461)"/><path d="M57.369,31.71A8.572,8.572,0,0,0,63.2,29.853a28.191,28.191,0,0,0,2.387-2.918c.265.8.53,1.857.8,2.652a9.988,9.988,0,0,0,2.387,3.978,2.292,2.292,0,0,0,1.591.8,2.026,2.026,0,0,0,1.326-.53,1.559,1.559,0,0,0,.53-1.326,1.949,1.949,0,0,0-.53-1.591,1.55,1.55,0,0,1-.265-1.061,9.892,9.892,0,0,1-.53-3.183,21.036,21.036,0,0,1-.53-4.509,32.651,32.651,0,0,1-.53-5.3,17.511,17.511,0,0,0-.265-3.713,8.948,8.948,0,0,0-1.061-3.183V9.7a2.844,2.844,0,0,1-1.591-.53A2.391,2.391,0,0,0,65.591,8.9a1.988,1.988,0,0,0-1.326.265A1.762,1.762,0,0,0,63.2,10.491c0,.53-.265,1.061-.265,1.591v.8a9.018,9.018,0,0,0-3.978,1.857,19.941,19.941,0,0,0-4.244,3.978,19.145,19.145,0,0,0-2.387,5.3,6.352,6.352,0,0,0,1.061,5.3,11.536,11.536,0,0,0,1.857,1.591c.8.265,1.326.8,2.122.8Zm-.53-6.366h0A3.989,3.989,0,0,1,57.9,22.427a6.359,6.359,0,0,1,2.652-2.652,3.566,3.566,0,0,1,2.387-.53h.53a13.131,13.131,0,0,1-1.061,3.448,9.172,9.172,0,0,1-1.857,3.183A3.566,3.566,0,0,1,58.7,27.466c-.53.265-.8,0-1.326-.265A2.238,2.238,0,0,1,56.839,25.344Z" transform="translate(86.031 14.706)"/><path d="M95.41,21.632h0a2.2,2.2,0,0,0-2.918,0h0a9.264,9.264,0,0,1-3.978,1.857,38.777,38.777,0,0,1-5.3,1.326,33.818,33.818,0,0,1-5.039.265,4.085,4.085,0,0,1-2.918-.8c-.53-.53-.8-1.061-.265-2.387a11.981,11.981,0,0,0,5.3-.265,13.463,13.463,0,0,0,4.774-2.387,5.938,5.938,0,0,0,2.122-3.978,5.535,5.535,0,0,0-2.652-4.509,4.022,4.022,0,0,0-3.448-.8,32.169,32.169,0,0,0-3.713,1.326,11.9,11.9,0,0,0-3.448,2.918,28.187,28.187,0,0,0-2.387,2.918,3.77,3.77,0,0,0-1.591-.53c-.265,0-1.326-.265-1.857.53a1.54,1.54,0,0,0,0,1.857,3.129,3.129,0,0,0,1.326,1.326,11.385,11.385,0,0,0-1.061,3.713,4.946,4.946,0,0,0,1.857,4.244,10.128,10.128,0,0,0,4.244,1.591,9.945,9.945,0,0,0,2.918.265,11.894,11.894,0,0,0,2.918-.265,38.048,38.048,0,0,0,5.835-1.061,31.2,31.2,0,0,0,5.3-1.857,15.294,15.294,0,0,0,3.713-2.122h0C96.205,22.958,95.675,21.9,95.41,21.632Zm-18.3-3.713c.53-.53.8-1.061,1.326-1.591a5.5,5.5,0,0,1,2.652-1.591h0c.8-.265.8,0,1.061,0,.265.265,0,.53-.265.8l-1.061,1.061c-.53.265-1.061.8-1.591.8-.53.265-1.326.265-2.122.53Z" transform="translate(111.911 16.296)"/><path d="M65.951,34.028a56.506,56.506,0,0,0-.8-6.631L64.89,25.01a27.794,27.794,0,0,1-.265-6.631,20.475,20.475,0,0,0,.53-3.978,23.215,23.215,0,0,0-.53-4.244V9.891A2.071,2.071,0,0,0,63.564,8.83c-.53-.265-.8-.265-1.326-.53a3.364,3.364,0,0,0-1.591.265,5.8,5.8,0,0,0-1.326.8h0v.265a7.744,7.744,0,0,0-.53,2.387V13.6a6.242,6.242,0,0,0-2.122.53,16.224,16.224,0,0,0-3.183,1.326A22.125,22.125,0,0,0,50.3,17.583a12.574,12.574,0,0,0-2.652,2.652,7.967,7.967,0,0,0-1.591,2.918,4.393,4.393,0,0,0,0,3.183,2.878,2.878,0,0,0,2.122,2.122,5.246,5.246,0,0,0,2.918.53,12.644,12.644,0,0,0,5.835-1.326,9.526,9.526,0,0,0,2.652-1.857l.8,3.978a44.826,44.826,0,0,1,.8,7.957,15.555,15.555,0,0,1-.53,5.3c-.265.8-1.061,1.326-2.122,1.857a24.833,24.833,0,0,1-4.244,1.061,16.894,16.894,0,0,1-5.039.265,4.241,4.241,0,0,1-2.918-1.061h-.265a2.057,2.057,0,0,0-2.652.53,2.786,2.786,0,0,0-.265,2.652v.265A6.912,6.912,0,0,0,47.916,51a21.439,21.439,0,0,0,4.244.265A5.84,5.84,0,0,0,54.281,51a26.747,26.747,0,0,0,5.3-1.061.926.926,0,0,0,.53-.265h0c1.591-.8,3.713-2.122,4.509-3.448a14.049,14.049,0,0,0,1.326-5.039A21.616,21.616,0,0,0,65.951,34.028ZM58.79,18.909a1.6,1.6,0,0,1-.265,1.061A9.3,9.3,0,0,1,57.2,22.092a6.263,6.263,0,0,1-2.387,1.591,3.566,3.566,0,0,1-2.122.53c-.53,0-.8-.265-1.061-.265a2.078,2.078,0,0,1,.53-1.857l2.387-2.387a8.963,8.963,0,0,1,3.183-1.591,2.884,2.884,0,0,1,1.326-.265C59.055,18.379,58.79,18.644,58.79,18.909Z" transform="translate(70.818 13.714)"/><path d="M81.69,34.628A55.84,55.84,0,0,0,81.159,28l-.265-2.387a27.728,27.728,0,0,1,0-6.631A21.149,21.149,0,0,0,81.69,15a22.816,22.816,0,0,0-.265-4.244v-.265A2.071,2.071,0,0,0,80.364,9.43c-.265-.265-.8-.265-1.326-.53H77.446a5.8,5.8,0,0,0-1.326.8h0a7.745,7.745,0,0,0-.53,2.387v1.591c-.8,0-1.326.265-2.122.265a16.224,16.224,0,0,0-3.183,1.326A22.124,22.124,0,0,0,67.1,17.387,12.574,12.574,0,0,0,64.45,20.04a6.322,6.322,0,0,0-1.591,2.918,4.436,4.436,0,0,0-.265,3.183,4.233,4.233,0,0,0,1.857,2.387,5.347,5.347,0,0,0,2.918.8,14.741,14.741,0,0,0,6.1-1.061,9.526,9.526,0,0,0,2.652-1.857,20.472,20.472,0,0,1,.53,3.978c.265,2.918.53,5.57.53,7.957a14.9,14.9,0,0,1-.8,5.3c-.265.8-1.326,1.326-2.387,1.857-1.326.265-2.918.53-4.244.8a15.96,15.96,0,0,1-5.039,0c-1.326-.265-2.387-.53-2.918-1.326v-.265h-.265a2.01,2.01,0,0,0-2.652.265,2.237,2.237,0,0,0-.265,2.652v.265a8.4,8.4,0,0,0,4.774,2.652,20.474,20.474,0,0,0,3.978.53h2.122a28.063,28.063,0,0,0,5.3-.8c.265,0,.53,0,.53-.265h0A8.982,8.982,0,0,0,80.1,46.828a10.293,10.293,0,0,0,1.591-5.039A64.493,64.493,0,0,0,81.69,34.628ZM75.324,19.244c0,.265-.265.53-.265.8a5.562,5.562,0,0,1-1.591,2.122,6.263,6.263,0,0,1-2.387,1.591,8.2,8.2,0,0,1-2.122.53,1.162,1.162,0,0,1-.8-.265,3.8,3.8,0,0,1,.53-1.857,23.914,23.914,0,0,1,2.652-2.387,17.825,17.825,0,0,1,3.183-1.591,2.884,2.884,0,0,1,1.326-.265A1.714,1.714,0,0,0,75.324,19.244Z" transform="translate(96.19 14.706)"/></g></svg>