<svg xmlns="http://www.w3.org/2000/svg" width="471.37" height="292.827" viewBox="0 0 471.37 292.827">
  <g id="Grupo_14363" data-name="Grupo 14363" transform="translate(-737 -1125.423)">
    <g id="Grupo_14361" data-name="Grupo 14361" transform="translate(238.666 -14)">
      <g id="Grupo_29" data-name="Grupo 29" transform="translate(-256.768 248.525) rotate(-14)">
        <path id="União_2" data-name="União 2" d="M-206.421,105.036c0-13.127,4.63-25.546,12.88-36.6l-52.594-34.856,85.872,7.186c22.053-11.967,50.371-19.163,81.25-19.163,70.365,0,127.408,37.352,127.408,83.427S-8.649,188.463-79.014,188.463-206.421,151.112-206.421,105.036Z" transform="translate(884.121 1141.126)"/>
        <path id="União_3" data-name="União 3" d="M-222.952,97.8c0-14.3,6.035-27.7,16.564-39.2l-40.848-25.035,65.1,6.146c21.316-12.1,49.342-19.439,80.038-19.439,66.745,0,120.853,34.711,120.853,77.53s-54.108,77.53-120.853,77.53S-222.952,140.622-222.952,97.8Z" transform="translate(907.512 1148.428)" fill="#fff"/>
      </g>
      <g id="Grupo_82" data-name="Grupo 82" transform="translate(351.165 944.523)">
        <path id="Subtração_1" data-name="Subtração 1" d="M-480.411-648.56h-12.615l-11.17-9-8.723-11.088-15.306-14.732L-539.671-698.9l-6.708-22.621,2.662-24.69-5.592-16.121-5.018,11.786-6.4,21.345-8.314,15.932-3.5,14.369,3.5,15.521-8.768,14.732-11.021,7.027v-24.231l11.021-27.419,8.768-24.584,4.8-27.125,3.514-33.107V-823.01l-8.314-5.263-3.5-8.6v-6.676l11.81-3.963v-61.511l6.4-14.7,20.4-10.8h5.7l15.306,6.389,5.8,19.112v44.752L-504.2-849.9l6.781,6.348v12.982l-9.709,2.293V-817.8l2.928,19.716,11.17,17.449,8.916,18.305v30.452l9.042-5.973,15.289-5.363,11.028-16.545,2.914-17.4,8.93-12.784,15.458-18.114v23.723l-7.024,9.625-8.435,9.736-8.93,21.762L-457.45-729.2l-22.961,7.68,5.343,14.473,6.092,12.926,11.525,2.973,15.709-2.973,13.27,2.973-5.128,10.718-12.236,2.961-16.541-2.961-12.69-8.414-14.809-22.134v-13.173h-11.938l-14.855-10.641-11.556-15.752-5.7-14.432-5.75,14.432,2.617,18.666,8.828,18.611,7.945,14.369,16.084,13.05,11.17,10.967,3.15,13.263,9.464,13.057Zm-32.156-121.925h0l-4.745,9.1,6.22,12.075,7.871,7.937,13.675,7.959-3.929-10.475-2.031-13.65-5.816-8.85-11.246-4.091Z" transform="translate(741.959 1132.85)" fill="#fff"/>
        <path id="Caminho_261" data-name="Caminho 261" d="M324.618,336.061c-1.048-3.353-1.647-6.792-2.589-10.156a3.114,3.114,0,0,1,.094-2.388,4.318,4.318,0,0,0,.033-3.476c-.269-.98-1.732-1.389-1.805-2.664-.808.125-1.606-.837-2.267-.334a4.318,4.318,0,0,0-2.129,3.19c-.068,1.4.108,2.941-.43,4.152a24.948,24.948,0,0,1-4.437,6.9c-4.24,4.592-9.757,7.889-13.253,13.239-1.848,2.828-4.306,5.338-4.785,8.855a63.6,63.6,0,0,0-.458,6.966,15.445,15.445,0,0,1-1.476,6.6c-.862,1.733-1.925,3.367-2.793,5.1-1.979,3.946-3.482,8.137-6.093,11.755-.314.36-.779.624-.764,1.195h0l-5.95,5.272h0a6.724,6.724,0,0,0-1.348.516c-3.515,2.287-7.508,3.5-11.33,5.1-.533.223-1.176.688-1.22-.431a66.131,66.131,0,0,1-.163-9.261c.642-6.357.4-12.59-2.183-18.629a86.327,86.327,0,0,0-12.691-20.871,33.338,33.338,0,0,1-3.55-4.8c-2.285-4.134-3.341-8.694-4.294-13.3-1.234-5.959-.761-11.977-.9-17.975-.008-.356-.11-.839.472-.848,2.717-.039,4.663-1.816,6.887-2.992,3.6-1.907,4.56-5.3,4.872-8.9a20.448,20.448,0,0,0-1.463-8.705c-1.115-3.028-3.139-5.633-6.635-6.5a2.163,2.163,0,0,1-1.865-2.416c.06-1.352-.025-2.711-.047-4.068l.01-6.528.005-1.954c.248-4.13-.076-8.259-.016-12.388l0-1.639.006-1.952q0-.814.005-1.627c-.236-9.209.064-18.434-.621-27.626-.453-6.086-.967-12.224-5.2-17.2-.682-.8-1.37-1.6-2.055-2.4-.43-.7-.645-1.67-1.815-1.418a5.421,5.421,0,0,0-2.16-2.268c-.3.8.88,1.013.451,1.753h0a3.835,3.835,0,0,1-1.74-.751,31.43,31.43,0,0,0-4.478-3.071,22.382,22.382,0,0,0-13.2-1.992c-7.809.989-15.1,3.224-21.362,8.274a24.615,24.615,0,0,0-9.04,14.411c.023,1.758-1.459,2.943-1.74,4.591a92.007,92.007,0,0,0-.9,12.8c-.116,3.9.125,7.812-.124,11.7-.229,3.58.031,7.154-.179,10.717-.2,3.4.583,6.738.417,10.143a17.014,17.014,0,0,0-.032,4.337,39.54,39.54,0,0,1,.583,7.6c.051,3.1.018,3.025-3.005,3.944-2.655.808-5.478,1.79-6.862,4.284-1.722,3.105-3.009,6.524-1.9,10.247.354,1.187.8,2.347,1.256,3.5a14.919,14.919,0,0,0,9.556,8.981c.426.146.747.1.75.749.013,2.7.056,5.4.2,8.1.212,3.915-.712,7.723-.968,11.587a130.014,130.014,0,0,0-.018,17.859c.148,2.076-.4,4.1-.321,6.14.285,7.012-.7,13.906-1.906,20.766-.848,4.828-1.964,9.611-3.01,14.4-.768,3.52-1.4,7.092-2.476,10.518-2.068,6.559-5.312,12.626-8.491,18.695A148.049,148.049,0,0,0,150,442.549c-1.573,4.851-1.985,9.929-2.836,14.921a38.391,38.391,0,0,0,.592,6.271c.81,4.3,2.745,8.268,3.593,12.549a1.494,1.494,0,0,0,.424.846,4.19,4.19,0,0,0,6.812-1.579,10.506,10.506,0,0,1,1.566-3.16,60.74,60.74,0,0,1,7.877-8.116c2.377-3.844,5.715-7.138,6.334-11.968.367-2.862,1.558-5.659.177-8.542-.33-1.182.425-2.269-.013-3.589a25.161,25.161,0,0,1-.209-15.261,53.468,53.468,0,0,1,2.361-6.837c1.428-3.227,2.436-6.61,4.108-9.762a207.381,207.381,0,0,0,9.725-20.679c.658-.484.5-1.255.673-1.91h0c.532-1.726.567-3.6,1.475-5.3.167.191.35.3.354.42.1,3.184.846,6.34.315,9.551a64.164,64.164,0,0,0-1.045,11.973c.078,3.3.277,6.6.561,9.893a42.6,42.6,0,0,0,1.665,8.9,82.444,82.444,0,0,0,3.719,9.655,80.767,80.767,0,0,0,6.39,11.947c2.754,4.1,6.4,7.434,9.541,11.2,1.964,2.358,3.819,4.774,6.481,6.5,5.767,3.746,10.174,8.654,12.228,15.4a7.247,7.247,0,0,0,2.107,3.732,35.918,35.918,0,0,1,3.083,2.505c2.364,2.432,5.3,3.386,8.566,3.767a32.329,32.329,0,0,1,5.215,1,15.326,15.326,0,0,0,9.3.207,3.13,3.13,0,0,0,1.323-4.5c-1.06-1.435-2.151-2.851-3.256-4.253a19.117,19.117,0,0,1-4.187-10.174c-.241-2.441-.068-4.892-.356-7.31a11.135,11.135,0,0,0-6.384-8.954,1.333,1.333,0,0,0-1.359-1.251h0c-.5-.319-1-.643-1.505-.958-7.349-4.588-14.565-9.381-19.932-16.338a106.16,106.16,0,0,1-9.3-14.2c-1.637-3.017-2.426-6.324-3.622-9.486-1.812-4.792-3.64-9.614-4.376-14.724-.838-5.819-.185-11.624.395-17.476.573.258.644.8.778,1.211a42.777,42.777,0,0,0,6.409,12.3,83.077,83.077,0,0,0,10.305,11.888,31.557,31.557,0,0,0,18.074,7.978c2.775.336,2.744.274,2.8,2.919a45.4,45.4,0,0,0,.23,6.488c.594,3.617,2.4,6.659,4.148,9.786a64.845,64.845,0,0,0,11.441,15.2,48.645,48.645,0,0,0,17.45,10.907c2.217.8,4.615,1.1,6.912,1.7,5.413,1.415,10.682.573,15.722-1.393,4.638-1.81,8.712-4.516,10.979-9.291a19.435,19.435,0,0,1,2.843-4.713c1.386-1.541,1.572-3.175,1.689-5.083.119-1.932-1.541-2.047-2.452-2.769-.479-.38-1.541.387-2.153,1.215-1.36,1.842-3.434,2.708-5.525,3.45a1.964,1.964,0,0,1-2.071-.585,16.436,16.436,0,0,0-4.864-3.178,9.77,9.77,0,0,0-9.849.84,11.5,11.5,0,0,1-6.959,1.759c-3.5-.144-6.25-2.077-8.871-4.245-1.768-1.462-2.659-3.516-3.946-5.3a48.144,48.144,0,0,1-6.355-11.74c-.549-1.51-.462-3.786-3.1-3.906a9.056,9.056,0,0,1,1.826-.415,43.663,43.663,0,0,0,11.917-3.577c3.707-1.769,7.507-3.3,11.25-4.977a20.4,20.4,0,0,0,7.989-5.923,42.25,42.25,0,0,0,5.283-9.275c1.72-4,3.734-7.876,4.83-12.123.8-1.12.787-2.54,1.385-3.741,2.012-4.046,5.5-6.663,9.122-9a15.865,15.865,0,0,0,7.107-10.693c.556-2.632,1.171-5.25,1.507-7.92C324.823,342.192,325.544,339.023,324.618,336.061ZM242.773,293.4c-2.922-3.362-5.95-1.316-8.743-.6a3.655,3.655,0,0,0-1.915,5.848c.978,1.226,2.417.568,3.611.932,1.5.458,3.072-.353,4.612-.619a.529.529,0,0,0,.35-.276c.623-1.7.618-1.7,1.977-2.322h0c.628-.073.682-.383.318-.822a1.194,1.194,0,0,1-.228-1.051c.317-.488.571-.67.841.06a6,6,0,0,1-1.381,5.684,10.314,10.314,0,0,1-9.032,2.979c-3.044-.364-5.778-4.822-4.771-7.751,1.781-5.182,5.918-7.475,11.207-6.143C241.446,289.781,242.278,291.2,242.773,293.4Zm-68.142,9.438a8.471,8.471,0,0,1-2.862-7.289c.74-3.845,2.9-5.755,6.842-6.405,2.387-.393,4.462.179,6.661.505.673.1,1.1.735,1.463,1.229,1.62,2.225,3.135,4.527,2.5,7.507a7.7,7.7,0,0,1-7.615,5.828c-.488-.019-.977,0-1.843,0A7.405,7.405,0,0,1,174.63,302.838Zm89.983,125.485c2.559,4.156,4.84,8.649,8.955,11.532,2.8,1.961,5.722,3.976,9.265,4.416a17.657,17.657,0,0,0,10.962-1.917,14.206,14.206,0,0,1,2.791-1.252c2.357-.7,4.072.677,5.761,1.826,1.6,1.087,2.914,2.5,5.093,2.529.951.015.348.716,0,1.076A20.333,20.333,0,0,1,297.9,452c-7.591,2.051-14.378-.113-20.956-3.543-9.047-4.717-15.253-12.2-20.283-20.883a23.445,23.445,0,0,1-3.592-13.536c.088-1.4.469-1.888,1.8-1.557,1.863.463,3.79-.041,5.8.43-1.79,1.152-1.839,2.439-1.1,4.4A63.191,63.191,0,0,0,264.614,428.323Zm52.577-78.294a11,11,0,0,1-4.89,6.944,31.462,31.462,0,0,0-8.528,7.732c-.978,1.367-2.182,2.689-2.068,4.557l-.258.064a3.951,3.951,0,0,0-.937,1.686,45.589,45.589,0,0,0-1.643,5.277c-1.4,4.813-3.706,9.257-5.78,13.8a15.405,15.405,0,0,1-8.787,8.252c-3.347,1.3-6.511,3-9.78,4.464-5.589,2.509-11.309,4.362-17.6,4.053a76.82,76.82,0,0,1-16.506-2.715,23.345,23.345,0,0,1-11.137-6.765c-5.84-6.366-10.962-13.195-13.83-21.489-1.379-3.986-3.265-7.817-3.125-12.2.049-1.54-.7-2.132-2.261-2.08a2.73,2.73,0,0,1-1.6-.688c-.613-.392-1.231-.731-1.931-.152a12.425,12.425,0,0,0-4.28,7.284,81.753,81.753,0,0,0-1.618,9.119c-.345,4.059-.571,8.127-.663,12.181a50.187,50.187,0,0,0,2.173,14.124c1.089,4.045,3.009,7.8,4.193,11.82a42.007,42.007,0,0,0,1.925,5.19,96.1,96.1,0,0,0,9.991,16.581,28.429,28.429,0,0,0,4.825,5.716c4.241,3.466,8.572,6.83,13.065,9.969a58.871,58.871,0,0,0,8.21,4.661,4.993,4.993,0,0,1,3.133,5.044,34.384,34.384,0,0,0,.328,5.685c.588,4.511,2,8.666,5.136,12.1.3.326.818.551.718,1.24-1.091-.1-2.171-.224-3.23-.362-5.287-.687-9.533-2.973-11.488-8.246a31.913,31.913,0,0,0-8.914-12.451c-3.236-2.959-7.292-4.967-9.891-8.666a20.433,20.433,0,0,0-2.456-2.826,62.044,62.044,0,0,1-13.445-19.634,59.993,59.993,0,0,1-3.107-7.876,70.307,70.307,0,0,1-2.3-16.245,42.006,42.006,0,0,1,.108-6.512c.4-3.5.384-7.042.554-10.556.294-6.081-1.269-11.92-3.336-17.636A11.615,11.615,0,0,0,192.5,365.6c-1.278-1.1-2.2-.834-3.237.559s-1.049,3.051-1.4,4.626c-.775,3.443-1.856,6.819-2.553,10.268A38.09,38.09,0,0,1,182,390.387c-3.433,6.966-6.96,13.883-10.013,21.032-2.412,5.648-5,11.226-5.805,17.406a12.919,12.919,0,0,0,.609,7.162.3.3,0,0,0,.238.013.568.568,0,0,1-.018.067l.1.77a.753.753,0,0,0-.275.362,1.833,1.833,0,0,0,.764,1.907h0c-.433,1.152.153,2.194.519,3.219a8.384,8.384,0,0,1-.068,6.477,37.166,37.166,0,0,1-3.479,6.23c-2.013,2.956-4.9,5.08-7.07,7.865-.469.6-.968,1.734-1.742,1.477-.81-.269-.689-1.492-.852-2.326-.911-4.662.132-9.225,1.091-13.7,1.5-6.979,4.3-13.537,7.226-20.041,2.076-4.609,4.731-8.929,6.636-13.616,1-2.465,1.966-4.945,2.955-7.413a64.638,64.638,0,0,0,3.407-11.025c1.073-5.209,1.877-10.47,3.137-15.649.815-3.353,1.823-6.722,1.863-10.231a21.081,21.081,0,0,1,.449-4.2c1.529-7.134,1.215-14.344.734-21.539q-.353-5.291-.214-10.572c.179-6.449.939-12.876.7-19.348-.118-3.15-.039-3.215,2.98-4.029,8.469-2.282,11.018-9.372,9.236-16.725a25.365,25.365,0,0,0-2.032-5.988c-1.248-2.328-2.3-5.04-5.674-5.476-2.386-.308-2.712-1.151-2.934-3.493-.355-3.73-.311-7.506-.8-11.195a134.573,134.573,0,0,1-.753-14.588c-.1-4.227-.04-8.466-.255-12.686-.21-4.121.142-8.253-.418-12.364-.387-2.842,1.112-5.255,2.061-7.783a2.186,2.186,0,0,0,.1-.964,2.76,2.76,0,0,0,.227-.895,1.185,1.185,0,0,0,.188-.036.977.977,0,0,0,.311-1.3c.687-.136.83-.759,1.108-1.26a24.451,24.451,0,0,1,13.048-10.966,42.412,42.412,0,0,1,14.467-2.771,12.2,12.2,0,0,1,7.859,2.146,22.518,22.518,0,0,1,9.189,13.744,51.335,51.335,0,0,1,1,10.183c.023,4.656.336,9.313.05,13.972-.044.714-.215,1.554.595,2.063.045-.038.092-.07.137-.107a1.153,1.153,0,0,1-.028.137c.018.184.034.368.052.552a2.545,2.545,0,0,0-.036,2.088h0l.04.52q-.006.651-.013,1.3,0,3.084.008,6.166a4.521,4.521,0,0,0-.33.88c0,.781-.665,1.634.051,2.338-.044.092-.089.174-.132.276.081,7.593-.41,15.18-.284,22.773.014.866-.25,1.317-1.055,1.541a12.784,12.784,0,0,0-4,2.15,13.183,13.183,0,0,0-4.763,16.051,14.48,14.48,0,0,0,8.971,8.668c1.07.352,1.4.778.927,1.87a12.659,12.659,0,0,0-.812,4.3c-.586,9.026,1.081,17.72,3.885,26.244a16.547,16.547,0,0,0,2.924,5.783,110.31,110.31,0,0,1,13.865,19.849c2.421,4.537,4.664,9.185,4.037,14.52-.447,3.8-.2,7.581-.3,11.37-.024.949.822,2.267-.288,2.792-.92.435-2.09-.3-3.129-.6-.885-.257-.944-.65-.135-1.117a1.889,1.889,0,0,0,.864-1.966,54.943,54.943,0,0,0-1.715-12.395c-.647-2.188-1.564-4.285-2.257-6.459l-.085-.168c.276.109.215.82.726.6a29.39,29.39,0,0,0-2.911-6.421c-.367-.656-.7-.7-1.063-.321-.516-.784-.954-1.619-1.535-2.361.2.107.406.277.653-.067a16.128,16.128,0,0,0-3.777-3.546c-.511-.4-.831-.372-1.165-.171-.073-.061-.147-.12-.219-.182a3.29,3.29,0,0,0-.843-.758,21.458,21.458,0,0,0-9.255-2.182,3.069,3.069,0,0,0-1.988.635c-2.484,2-4.732,4.238-5.4,7.485a24.922,24.922,0,0,0,.848,12.519,8.711,8.711,0,0,0,2.1,3.457,20.147,20.147,0,0,1,2.517,3.193,15.926,15.926,0,0,0,2.572,2.924c2.717,2.582,5.679,4.879,8.541,7.293a23.75,23.75,0,0,0,5.232,3.567c4.08,1.874,8.228,3.681,12.831,3.921,3.075.16,6.251,1.15,9.009-1.156.08-.066.207-.071.3-.125,1.939-1.137,4.223-1.443,6.185-2.415,2.719-1.346,5.513-2.567,8.13-4.117a5.5,5.5,0,0,0,2.634-2.532l0-.005c1.511-.319,2.007-.84,2.185-2.287a.706.706,0,0,0,.567-.542c.646.056.958-.326,1.133-.884a2.163,2.163,0,0,1,.04-.267,3.053,3.053,0,0,0,1.038-1.29,3.6,3.6,0,0,1,.494-.2,28.855,28.855,0,0,0,4.155-6.376c1.9-3.595,3.173-7.5,5.424-10.929a15.517,15.517,0,0,0,2.445-7.518c.128-1.785.3-3.567.413-5.353a10.391,10.391,0,0,1,1.729-5.688c1.313-1.8,2.511-3.69,3.938-5.393,3.308-3.944,6.582-7.921,10.133-11.655.22-.232.409-.582.768-.523.5.081.41.572.492.918C319.12,340.018,318.442,345.009,317.191,350.029ZM228.982,371.41a32.456,32.456,0,0,1,.182-4.865c.171-.988.67-1.314,1.636-1.336a8.527,8.527,0,0,1,6.241,2.654,27.813,27.813,0,0,1,6.64,10.962,45.91,45.91,0,0,1,2.6,12.82c.035.513.373,1.212-.167,1.491-.523.27-.916-.362-1.31-.709-3.7-3.249-7.695-6.157-11.158-9.673-2.613-2.653-4.97-5.456-4.667-9.551C229.021,372.608,228.982,372.008,228.982,371.41Z" transform="translate(0 0)" fill="#161615"/>
        <path id="Caminho_262" data-name="Caminho 262" d="M223.462,238.394c.041-1.17-.732-2.744-1.319-2.76-.726-.02-2.075,1.573-2.074,2.62a1.8,1.8,0,0,0,1.547,1.934A1.837,1.837,0,0,0,223.462,238.394Z" transform="translate(-34.245 -19.135)" fill="#161615"/>
        <path id="Caminho_263" data-name="Caminho 263" d="M239.379,243.209a2.535,2.535,0,0,0-1.967,2.4,2.086,2.086,0,0,0,1.462,1.985c.626.3,1.86-1.378,1.871-2.535C240.683,244.254,240.406,243.057,239.379,243.209Z" transform="translate(-42.389 -22.687)" fill="#161615"/>
        <path id="Caminho_264" data-name="Caminho 264" d="M225.28,259.811a1.774,1.774,0,0,0-1.919,1.616c-.117,1.139,1.12,1.283,1.529,2.04.593-.462,1.8-.507,1.233-1.534C226.166,260.9,226.357,259.852,225.28,259.811Z" transform="translate(-35.788 -30.492)" fill="#161615"/>
        <path id="Caminho_265" data-name="Caminho 265" d="M208.427,386.523c.317-.093.9-.493.384-.746-.86-.425-.18-.389.034-.66.516-.655,2.429-.554,1.255-2.194-.03-.041.316-.351.486-.536a1.39,1.39,0,0,0-.957-1.655h0a3.453,3.453,0,0,1-1.891-.835c-.738-.461-4.745-.91-5.063-.291-.722,1.406-2.6,1.62-2.956,3.556-.313,1.69-.133,2.639,1.709,2.869a28.117,28.117,0,0,1,3.811.785A5.694,5.694,0,0,0,208.427,386.523Z" transform="translate(-24.628 -86.625)" fill="#161615"/>
      </g>
    </g>
    <g id="Grupo_14362" data-name="Grupo 14362" transform="translate(854.939 1140.803) rotate(-19)">
      <path id="Caminho_277" data-name="Caminho 277" d="M197.392,120.1a2.526,2.526,0,0,0-2.2-1.321c-1.325.044-2.65-.027-3.976-.023a78.281,78.281,0,0,1-10.973-.923,45.576,45.576,0,0,0-8.551-.637,6.03,6.03,0,0,0-5.033,3.071,1.2,1.2,0,0,0-.14,1.01,4.82,4.82,0,0,0,1.634,2.734,6.058,6.058,0,0,0,3.836,1.389c1.841.112,3.678.267,5.5.56.36.058.852.054.7.659-.434,1.766-.193,3.6-.542,5.375a2.178,2.178,0,0,0-.063.875,13.246,13.246,0,0,1,.17,3.457c-.128,1.859-.109,3.731-.111,5.586,0,2.25.139,4.507,0,6.756a69.373,69.373,0,0,0-.008,7.34c.02.439-.124.53-.576.5-1.629-.113-3.2-.8-4.843-.605-.948.109-2.141-.239-2.662,1.054a7.194,7.194,0,0,1-1.678,2.295.446.446,0,0,0-.123.556c.8,1.742,1.745,3.261,3.891,3.622a20.6,20.6,0,0,1,2.174.389,43.992,43.992,0,0,0,7.877,1.337c2.247.208,4.5.418,6.724.766a2.672,2.672,0,0,0,2.034-.2c.65-.489,2.187-.248,1.729-1.812-.012-.042.081-.138.145-.175,1.538-.906,1.659-1.291.979-2.9a2.57,2.57,0,0,1-.313-1.192,1.361,1.361,0,0,0-1.12-1.453c-1.579-.525-3.174-1.133-4.92-.727-.622.145-.941-.111-.923-.884.047-1.976.08-3.95.157-5.927.126-3.217-.137-6.438-.073-9.663.074-3.715.017-7.433.017-11.149h0c0-.685-.019-1.371.006-2.056.02-.534.219-.842.872-.8,2.156.152,4.322.116,6.477.356a2.518,2.518,0,0,0,1.531-.275,6.873,6.873,0,0,0,2.448-1.8,5.806,5.806,0,0,0,.9-2.129A4.682,4.682,0,0,0,197.392,120.1Z" transform="translate(-53.956)"/>
      <g id="Grupo_92" data-name="Grupo 92" transform="translate(87.955 174.762)">
        <path id="Caminho_278" data-name="Caminho 278" d="M233.951,349.583c-2.291-.116-4.568.225-6.857.243-2.082.017-4.164.134-6.246.215-.561.022-.782-.177-.757-.786.052-1.278.016-2.559.016-3.839h.04c0-1.34.006-2.68,0-4.019,0-.471.062-.68.661-.579a12.5,12.5,0,0,0,2.834.184,19.7,19.7,0,0,1,6,.435,1.681,1.681,0,0,0,1.324-.32,9.566,9.566,0,0,1,1.09-.888,2.586,2.586,0,0,0,1.694-2.2c.026-.4-.26-.638-.245-.964a2.725,2.725,0,0,0-2.768-2.957c-.971-.057-1.938-.077-2.908-.107-2.255-.069-4.508-.227-6.763-.311-.446-.017-.563-.152-.543-.568.046-.95.114-1.9.073-2.853a19.913,19.913,0,0,1,.569-5.365,1.84,1.84,0,0,1,1.215-1.421,5.757,5.757,0,0,1,2.872-.257c2.884.529,5.826.664,8.7,1.279a.751.751,0,0,0,.743-.184c.977-.967,1.731-1.935,1.051-3.47a3.617,3.617,0,0,0-1.83-2.11c-2.358-1.059-4.928-1.171-7.392-1.752a17.063,17.063,0,0,0-6.678.064,11.884,11.884,0,0,0-3.609,1.207,2.967,2.967,0,0,0-1.918,2.766,33.214,33.214,0,0,1-.488,3.42,39.509,39.509,0,0,0-.242,5.165c-.074,2.1-.2,4.189-.436,6.284-.419,3.687-.178,7.413-.382,11.118-.065,1.188.189,2.368.036,3.559a10.03,10.03,0,0,0,.512,4.424.689.689,0,0,0,.574.5,10.488,10.488,0,0,1,2.176.721,3.221,3.221,0,0,0,1.809.363c1.595-.389,3.186-.033,4.771-.049,2.06-.021,4.121-.124,6.182-.083,1.261.025,2.527.182,3.781.114.982-.053,2.075.281,2.929-.507.293-.271.725-.541.854-.8.254-.512.968-.33,1.013-.669a6.637,6.637,0,0,0-.271-3.194C236.593,349.943,235.3,349.651,233.951,349.583Z" transform="translate(-171.431 -313.816)"/>
        <path id="Caminho_279" data-name="Caminho 279" d="M121.708,312.7a3.834,3.834,0,0,0-3.572-3c-4.257-.163-8.517-.26-12.776-.39-1.126-.034-2.251-.092-3.376-.134a44.652,44.652,0,0,1-4.957-.553c-1.846-.275-3.713-.415-5.571-.615-1.53-.165-3.033-.227-4.142,1.135a.511.511,0,0,1-.38.191c-.616.065-.636.467-.592.968.039.439.367.809.243,1.283-.29,1.11.727,3.175,1.8,3.327a22.762,22.762,0,0,0,3.2.707,16.57,16.57,0,0,1,2.649.345c1.7.282,3.387.62,5.09.867.465.068.6.214.62.65.034.98.152,1.957.156,2.936.019,4.578.028,9.157-.143,13.733-.2,5.227-.456,10.452-.389,15.686.031,2.376,1.7,3.865,4.008,3.4a6.918,6.918,0,0,0,2.061-.352,2.828,2.828,0,0,0,1.451-3.145,37.372,37.372,0,0,1-.019-6.155c.153-4.339.433-8.672.348-13.018-.015-.767.093-1.536.112-2.305.04-1.686.129-3.375.068-5.057-.062-1.718-.266-3.432-.437-5.145-.06-.607.078-.816.753-.766,2.79.207,5.6-.016,7.81.309,2.039.059,2.038.058,3.46-.887a.59.59,0,0,1,.328-.108,3.5,3.5,0,0,0,1.841-.706c.8-.43.9-.836.457-1.66a.655.655,0,0,1-.076-.234C122.591,313.564,121.832,313.066,121.708,312.7Z" transform="translate(-86.328 -307.922)"/>
        <path id="Caminho_280" data-name="Caminho 280" d="M336.81,349.989a6.515,6.515,0,0,0-4.331-.07,17.326,17.326,0,0,1-6.9.849c-3.345-.469-5.3-2.41-6.554-5.244a14.222,14.222,0,0,1-1.173-6.879c.331-3.9,1.64-7.485,4.79-10.176a8.677,8.677,0,0,1,6.064-2.423c1.281.036,2.524.321,3.8.4,1.141.067,1.6-.825,2.168-1.436.517-.553.4-1.185.291-2.065a3.163,3.163,0,0,0-1.917-2.475,10.235,10.235,0,0,0-3.243-.833c-3.585-.622-6.877.51-10.023,2.05-2.073,1.015-3.641,2.74-5.313,4.3a2.709,2.709,0,0,0-.678.8,57.293,57.293,0,0,0-2.538,6.674,9.8,9.8,0,0,0-.413,2.075,30.049,30.049,0,0,0,.15,5.142,25.271,25.271,0,0,0,1.527,7.153,22.871,22.871,0,0,0,2.556,4.45,8.633,8.633,0,0,0,4.011,3.4,29.288,29.288,0,0,0,9.809,1.816c1.472.15,3.187-.434,4.945-.607,1.031-.1,2.273-.139,2.432-1.654.01-.093.23-.168.355-.246a2.815,2.815,0,0,0,1.412-3.464A2.115,2.115,0,0,0,336.81,349.989Z" transform="translate(-237.435 -315.689)"/>
        <path id="Caminho_281" data-name="Caminho 281" d="M444.6,344.394c-.039-1.75.164-3.5.014-5.25a42.571,42.571,0,0,0,.077-5.088c.019-3.776,0-7.555-.139-11.327-.108-2.938-1.821-3.8-4.282-3.478a2.954,2.954,0,0,0-2.249,1.988c-.135,2.553-.292,5.1-.2,7.666a28.542,28.542,0,0,1-.2,5.408l.008.021h0l0,0,0-.025a9.321,9.321,0,0,0-1.862.16c-2.785.193-5.571.377-8.354.593-1.089.085-1.129.116-1.052-1a101.858,101.858,0,0,0,.063-13.372,3.369,3.369,0,0,0-4.912-2.974c-.756.342-1.837.829-1.738,1.93a30.118,30.118,0,0,1-.1,3.466c-.083,3.662-.01,7.336-.293,10.982-.321,4.129-.622,8.257-.687,12.393-.046,2.95-.663,5.886-.162,8.856.2,1.159.517,1.948,1.249,2.177a4.6,4.6,0,0,0,2.5.061c.315-.077.776.341.879-.046.154-.58.655-.637,1-.879a2.641,2.641,0,0,0,1.163-2.05,50.251,50.251,0,0,0,.179-5.773c-.01-.8.276-1.524.271-2.3-.008-1.305.034-2.611.045-3.917,0-.334.08-.5.47-.405,1.537.386,3.067-.024,4.6-.1,2.2-.1,4.383-.394,6.588-.292a1.182,1.182,0,0,1,.166.771,19.7,19.7,0,0,0-.137,4.79c.205,2.774-.341,5.638.993,8.291.366.728,1.02,1.128,1.735.7a1.13,1.13,0,0,1,.812-.227,2.779,2.779,0,0,0,2.335-.315c.617-.284,1.134-.538,1.229-1.2a13.613,13.613,0,0,0,.186-2.395C444.682,349.622,444.655,347.008,444.6,344.394Z" transform="translate(-309.847 -314.286)"/>
      </g>
      <path id="Caminho_282" data-name="Caminho 282" d="M352.1,129.71a8.246,8.246,0,0,0-1.705-4.39c-2.164-2.861-5.279-3.679-8.654-3.327a13.607,13.607,0,0,0-5.452,1.449.109.109,0,0,0-.128.035,8.83,8.83,0,0,0-3.456,2.294,1.088,1.088,0,0,0-.5.531h0a17.524,17.524,0,0,0-2.633,2.5c-.158.171-.254.445-.539.4-.331-.051-.346-.358-.414-.615a1.942,1.942,0,0,0-.144-.316h0a8.164,8.164,0,0,0-.444-1.978,7.288,7.288,0,0,0-5.3-5.688c-.237-.255-.408-.584-.794-.666-2.431-.515-4.916-.714-7.054.7a20.509,20.509,0,0,1-2.96,1.438,7.479,7.479,0,0,0-4.029,4.071,24.922,24.922,0,0,0-1.732,6.684,21.155,21.155,0,0,0,.063,7.018c.449,1.967,1.187,3.852,1.586,5.834a23.52,23.52,0,0,0,1.8,5.432,102.414,102.414,0,0,1,4.641,10.566,7.511,7.511,0,0,0,.959,2.443h0a6.529,6.529,0,0,0,1.8,3.362,4.946,4.946,0,0,0,2.559,4.119,2.1,2.1,0,0,0,1.929.265,10.177,10.177,0,0,0,2.522-1.472c1.117-.928,1.822-2.253,3.049-3.065,1.9-1.257,3.333-3.05,5.1-4.469,1.531-1.23,2.538-3.022,4.214-4.135a2.943,2.943,0,0,0,.961-1.024,7.558,7.558,0,0,1,1.5-1.954,38.933,38.933,0,0,0,3.05-2.95c1.531-1.831,2.943-3.765,4.356-5.692.259-.353.647-.615.8-1.028a11.592,11.592,0,0,1,1.642-2.712,14.2,14.2,0,0,0,2.3-3.781c.333-1,.623-2.022.954-3.027a7.686,7.686,0,0,0,.506-2.689C352.409,132.477,352.21,131.1,352.1,129.71Zm-38.258,30.25c.015.009.027.019.042.027l-.035.014C313.85,159.988,313.848,159.974,313.845,159.96Z" transform="translate(-147.831 -1.612)" fill="#eb2226"/>
    </g>
  </g>
</svg>
