<svg xmlns="http://www.w3.org/2000/svg" width="200.95" height="47.634" viewBox="0 0 200.95 47.634">
  <g id="matera" transform="translate(0 0)">
    <path id="Caminho_249" data-name="Caminho 249" d="M1092.664,797.3a11.25,11.25,0,0,0-9.725-8.36c-3.712-.281-7.034.507-9.525,3.594a9.467,9.467,0,0,0-1.767-1.739,10.179,10.179,0,0,0-5.4-1.873,11.233,11.233,0,0,0-12.412,11.187c-.007,4.242,0,8.484,0,12.725a2.7,2.7,0,0,0,1.5,2.525,2.876,2.876,0,0,0,4.238-2.537c-.041-4.241-.012-8.482-.012-12.723a5.493,5.493,0,0,1,10.986-.007c-.04,4.255-.015,8.509-.008,12.765a2.877,2.877,0,0,0,5.669.721,4.745,4.745,0,0,0,.084-1.066q0-6.243,0-12.486a5.5,5.5,0,0,1,11,.077c0,4.241.008,8.483,0,12.725a2.76,2.76,0,0,0,1.225,2.368,2.851,2.851,0,0,0,4.482-2.338q0-6.523,0-13.043A11.025,11.025,0,0,0,1092.664,797.3Z" transform="translate(-1002.12 -777.981)" fill="#fff"/>
    <path id="Caminho_250" data-name="Caminho 250" d="M1126.267,811.051c-.583,0-1.167,0-1.749,0a1.552,1.552,0,0,1-1.656-1.671q0-6.837-.006-13.675a.434.434,0,0,1,.308-.47c1.756-.768,3.5-1.551,5.258-2.325a2.811,2.811,0,0,0,1.113-4.351,2.769,2.769,0,0,0-3.354-.837c-1.088.476-2.171.963-3.32,1.475,0-1.9.005-3.744,0-5.585a2.821,2.821,0,0,0-5.642-.021q-.007,13.02,0,26.039a7.186,7.186,0,0,0,4.859,6.689,11.137,11.137,0,0,0,4.6.332,2.73,2.73,0,0,0,2.391-3.043A2.828,2.828,0,0,0,1126.267,811.051Z" transform="translate(-994.743 -778.919)" fill="#fff"/>
    <path id="Caminho_251" data-name="Caminho 251" d="M1166.216,791.84a2.813,2.813,0,0,0-2.542-2.938,14.785,14.785,0,0,0-3.173.079,10.246,10.246,0,0,0-8.733,10.117q-.007,6.9,0,13.792a3.123,3.123,0,0,0,.059.67,2.871,2.871,0,0,0,5.664-.6c.005-2.331,0-4.663,0-7h.013c0-2.371-.036-4.744.011-7.114a4.466,4.466,0,0,1,3.364-4.1,10.632,10.632,0,0,1,2.531-.145A2.817,2.817,0,0,0,1166.216,791.84Z" transform="translate(-990.721 -777.984)" fill="#fff"/>
    <path id="Caminho_252" data-name="Caminho 252" d="M1051.208,791.783c-.045-.09-.049-.234-.2-.248-.048.135.037.238.073.346a23.407,23.407,0,0,1,.92,11.557,23.018,23.018,0,0,1-6.777,12.978,23.3,23.3,0,0,1-19.883,6.64,22.914,22.914,0,0,1-11.048-4.513c-.105-.078-.191-.233-.365-.147.035.039.067.081.1.117a22.722,22.722,0,0,0,20.155,6.474,22.32,22.32,0,0,0,15.089-9.34,23.217,23.217,0,0,0,1.935-23.865Z" transform="translate(-1006.765 -777.672)" fill="#fff"/>
    <path id="Caminho_253" data-name="Caminho 253" d="M1012.9,805.472l.585-1.765.731-1.673h0l.707-1.332q.32-.519.639-1.036h0l.624-.824.06-.16a5.428,5.428,0,0,0,.555-.721,6.214,6.214,0,0,0,.727-.871h0a4.234,4.234,0,0,0,.625-.64l.631-.632a3.351,3.351,0,0,0,.594-.55,4.51,4.51,0,0,0,.756-.643,2.992,2.992,0,0,0,.6-.468h0c.192-.192.477-.258.651-.474h0c.131-.131.342-.145.452-.307h0c.228-.215.562-.27.778-.5a2.8,2.8,0,0,0,.653-.391,2.327,2.327,0,0,0,.564-.314,3.457,3.457,0,0,0,.625-.324,3.053,3.053,0,0,0,.636-.309l.9-.393h0a2.063,2.063,0,0,0,.613-.248,4.24,4.24,0,0,0,.878-.321,5.492,5.492,0,0,0,.953-.306h0a3.772,3.772,0,0,0,.882-.248,5.251,5.251,0,0,0,1.028-.242,2.763,2.763,0,0,0,.795-.16,4.4,4.4,0,0,0,.828-.123.344.344,0,0,0,.13-.035,1.537,1.537,0,0,0,.628-.083l1.928-.151.458-.013,1.114,0,1.267.065,1.039.093,1.192.169,1.114.229,1.19.308,1.037.315,1.113.4a3.115,3.115,0,0,1,.359.165c.314.193.39.039.419-.253a22.707,22.707,0,0,0-.318-6.75.51.51,0,0,0-.285-.388,7.682,7.682,0,0,0-1.2-.818h0a7.92,7.92,0,0,0-1.2-.708,4.93,4.93,0,0,0-1.041-.537,4.344,4.344,0,0,0-1.031-.477,5.235,5.235,0,0,0-1.2-.476,4.863,4.863,0,0,0-1.192-.4,4.577,4.577,0,0,0-1.184-.323,4.022,4.022,0,0,0-1.1-.245,7.371,7.371,0,0,0-1.292-.22,2.4,2.4,0,0,0-.792-.089c-.25-.137-.557.016-.8-.156h-3.261c-.186.165-.443.028-.641.148a4.7,4.7,0,0,0-1.029.111,3.115,3.115,0,0,0-.8.141,1.986,1.986,0,0,0-.719.144,2.5,2.5,0,0,0-.792.179,2.069,2.069,0,0,0-.639.164l-.794.241-.477.158a2.24,2.24,0,0,0-.638.232,3.1,3.1,0,0,0-.795.318,1.738,1.738,0,0,0-.558.242,2.01,2.01,0,0,0-.635.3,2.055,2.055,0,0,0-.635.321,2.607,2.607,0,0,0-.717.4,2.089,2.089,0,0,0-.642.383h0a1.848,1.848,0,0,0-.548.343,2.651,2.651,0,0,0-.646.445h0a3.531,3.531,0,0,0-.708.516h0a3.046,3.046,0,0,0-.646.518h0a2.355,2.355,0,0,0-.557.471h0a3.91,3.91,0,0,0-.711.652,5.043,5.043,0,0,0-.716.716h0a4.214,4.214,0,0,0-.722.784h0a3.984,3.984,0,0,0-.624.745.63.63,0,0,0-.088.075,22.972,22.972,0,0,0-5.01,13.117h0a.221.221,0,0,1-.072.007v2.862a.351.351,0,0,0,.068,0c.065.7.106,1.4.2,2.092a19.648,19.648,0,0,0,4.66,10.25c.093.109.171.241.332.267.126-.3-.117-.524-.163-.79a23.143,23.143,0,0,1-.349-2.994,21.823,21.823,0,0,1,.6-6.5,1.254,1.254,0,0,0,.056-.625C1012.905,805.527,1012.9,805.5,1012.9,805.472Z" transform="translate(-1007.511 -779.117)" fill="#fff"/>
    <path id="Caminho_254" data-name="Caminho 254" d="M1013.026,814.506h0a1.288,1.288,0,0,0,.176.076,17.807,17.807,0,0,0,7.175.279,42.347,42.347,0,0,0,9.794-2.59c.1-.038.233-.038.3-.187-.2-.093-.383-.184-.573-.271a27.942,27.942,0,0,1-10.118-7.638,25.287,25.287,0,0,1-3.535-5.813h0a21.235,21.235,0,0,0-3.537,10.186,23.229,23.229,0,0,0,.319,5.959Z" transform="translate(-1006.914 -776.877)" fill="#fff"/>
    <path id="Caminho_255" data-name="Caminho 255" d="M1017.307,820.3a5.836,5.836,0,0,0,1.2.623,6.018,6.018,0,0,0,1.265.562h0a3.932,3.932,0,0,0,1.039.394,3.244,3.244,0,0,0,.956.317h0a4.63,4.63,0,0,0,1.177.326h0a3.65,3.65,0,0,0,1.047.232,5.755,5.755,0,0,0,1.429.241,5.424,5.424,0,0,0,1.279.144,7.008,7.008,0,0,0,1.193.077h1.193a6.542,6.542,0,0,0,1.272-.074h0a5.2,5.2,0,0,0,1.274-.141,5.012,5.012,0,0,0,1.191-.18,3.289,3.289,0,0,0,.8-.162h0l.717-.164a3.54,3.54,0,0,0,.955-.3,2.638,2.638,0,0,0,.874-.258,2.786,2.786,0,0,0,.795-.313,2.53,2.53,0,0,0,.8-.314,3.886,3.886,0,0,0,.875-.4,4.6,4.6,0,0,0,.952-.486,3.524,3.524,0,0,0,.8-.459,5.219,5.219,0,0,0,.953-.587,4.787,4.787,0,0,0,.8-.554h0a3.777,3.777,0,0,0,.714-.54,2.978,2.978,0,0,0,.645-.531,2.132,2.132,0,0,0,.554-.48h0a3.552,3.552,0,0,0,.707-.662,2.931,2.931,0,0,0,.558-.558,5.094,5.094,0,0,0,.717-.787,4.265,4.265,0,0,0,.652-.784.811.811,0,0,0,.116-.1,22.974,22.974,0,0,0,4.941-13.324,22.74,22.74,0,0,0-2.134-10.8,20.734,20.734,0,0,0-2.913-4.664h0a4.233,4.233,0,0,0-.658-.788,6.287,6.287,0,0,0-1.366-1.355,34.053,34.053,0,0,1,.565,4.96,32.626,32.626,0,0,1-.14,4.27c-.155,1.121-.31,2.242-.551,3.348l-.638,2.386-.638,1.825-.595,1.421-.785,1.6h0l-.713,1.272-.852,1.357-.9,1.265-.794,1.01h0l-.947,1.062-.8.85h0l-.872.82h0l-.893.786-.925.729-.732.552h0l-.8.55-1.018.633h0l-1.277.708h0l-1.352.654-1.112.462-1.358.49h0a5.758,5.758,0,0,0-1.028.306l-1.286.325a8.777,8.777,0,0,0-1.257.249,4.555,4.555,0,0,0-1.04.154,5.719,5.719,0,0,0-1.024.1l-1.034.071-1.113.009-1.9-.071h0l-1.118-.1-2.9-.525a14.743,14.743,0,0,0,2.813,2.292A9.562,9.562,0,0,0,1017.307,820.3Z" transform="translate(-1006.893 -778.612)" fill="#fff"/>
    <path id="Caminho_256" data-name="Caminho 256" d="M1013.664,815.372l.286.245C1013.993,815.4,1013.826,815.385,1013.664,815.372Z" transform="translate(-1006.795 -774.897)" fill="#fff"/>
    <path id="Caminho_257" data-name="Caminho 257" d="M1013.92,815.591v.007h0l.006,0h0Z" transform="translate(-1006.765 -774.872)" fill="#fff"/>
    <path id="Caminho_258" data-name="Caminho 258" d="M1190.311,802.152a13.93,13.93,0,0,0-.218-2.409,13.446,13.446,0,0,0-15.616-10.668,13.514,13.514,0,0,0-10.885,15.35,12.574,12.574,0,0,0,3.929,7.526c3.787,3.634,8.266,4.544,13.262,3.278a8.156,8.156,0,0,0,3.771-2.225c.051.278.074.473.124.662a2.9,2.9,0,0,0,3.124,2.083,2.851,2.851,0,0,0,2.509-2.82Q1190.316,807.541,1190.311,802.152Zm-13.432,7.883a7.715,7.715,0,1,1,7.7-7.685A7.7,7.7,0,0,1,1176.878,810.035Z" transform="translate(-989.362 -777.983)" fill="#fff"/>
    <path id="Caminho_259" data-name="Caminho 259" d="M1117.748,802.076a13.457,13.457,0,1,0-26.117,4.805c2.191,5.24,6.01,8.37,11.752,8.831,3.178.256,6.182-.325,8.623-2.721a2.921,2.921,0,0,0,3.071,2.774,2.977,2.977,0,0,0,2.691-3.033C1117.708,809.181,1117.752,805.629,1117.748,802.076Zm-13.439,7.959a7.715,7.715,0,1,1,7.714-7.72A7.641,7.641,0,0,1,1104.309,810.035Z" transform="translate(-997.811 -777.983)" fill="#fff"/>
    <path id="Caminho_260" data-name="Caminho 260" d="M1149.283,792.6c-4.132-3.475-8.819-4.4-13.791-2.353a12.654,12.654,0,0,0-8.189,11.175,12.014,12.014,0,0,0,1.373,7.075,13.05,13.05,0,0,0,10.932,7.2,12.717,12.717,0,0,0,5.464-.776,2.8,2.8,0,0,0,1.676-3.567,2.761,2.761,0,0,0-3.509-1.7,8.7,8.7,0,0,1-4.5.348,5.756,5.756,0,0,1-3.658-2.037c.157-.077.273-.137.394-.191q7.783-3.527,15.567-7.051a2.731,2.731,0,0,0,1.427-3.859A12.25,12.25,0,0,0,1149.283,792.6Zm-16.356,10.089a7.556,7.556,0,0,1,5.093-7.354c2.745-.934,6.395-.171,7.656,1.628Z" transform="translate(-993.575 -777.947)" fill="#fff"/>
  </g>
</svg>
