<svg xmlns="http://www.w3.org/2000/svg" width="181.6" height="51.436" viewBox="0 0 181.6 51.436">
  <g id="maxmilhas" transform="translate(0 0)">
    <path id="Caminho_109" data-name="Caminho 109" d="M1029.287,531.149a20.536,20.536,0,0,1,12.662,4.344c-5.07,3.679-7.987,7.7-10.693,11.433-4.042,5.581-7.5,10.353-20.2,11.081l-1.4.08a20.637,20.637,0,0,1,19.634-26.938Zm19.417,13.667a65.479,65.479,0,0,0-6.322,8.982c-5.887,9.528-10.142,16.418-27.416,12.806a20.625,20.625,0,0,0,33.739-21.789Z" transform="translate(-1008.667 -520.956)" fill="#fff" fill-rule="evenodd"/>
    <path id="Caminho_110" data-name="Caminho 110" d="M1050.36,570.48l2.544-29.716h3.623l4.03,20.576,4.134-20.576h3.5l2.585,29.716h-3.706l-1.2-20.844L1061.9,570.48h-2.709l-3.968-20.844-1.2,20.844Z" transform="translate(-1003.814 -519.837)" fill="#fff" fill-rule="evenodd"/>
    <path id="Caminho_111" data-name="Caminho 111" d="M1074.941,559.487a15.8,15.8,0,0,0,.641,5.4,2.2,2.2,0,0,0,4.212-.011,22.925,22.925,0,0,0,.011-10.746,2.226,2.226,0,0,0-4.234,0,15.76,15.76,0,0,0-.63,5.362Zm5.372,10.015v-1.954a5.067,5.067,0,0,1-1.719,1.76,4.377,4.377,0,0,1-2.228.558,4.116,4.116,0,0,1-3.826-2.625q-1.3-2.624-1.3-7.755a17.968,17.968,0,0,1,1.292-7.7,4.113,4.113,0,0,1,3.837-2.616,4.486,4.486,0,0,1,2.25.548,4.891,4.891,0,0,1,1.7,1.73v-1.913h3.665V569.5Z" transform="translate(-1001.384 -518.859)" fill="#fff" fill-rule="evenodd"/>
    <path id="Caminho_112" data-name="Caminho 112" d="M1089.385,558.879l-3.929-9.384h3.847l1.992,5.762,2.039-5.762h3.8l-3.888,9.384,4.581,10.584h-3.867l-2.669-6.959-2.624,6.959h-3.888Z" transform="translate(-999.808 -518.821)" fill="#fff" fill-rule="evenodd"/>
    <path id="Caminho_113" data-name="Caminho 113" d="M1098.057,570.48l2.544-29.716h3.623l4.029,20.576,4.134-20.576h3.5l2.586,29.716h-3.7l-1.2-20.844L1109.6,570.48h-2.708l-3.971-20.844-1.2,20.844Z" transform="translate(-998.263 -519.837)" fill="#fff" fill-rule="evenodd"/>
    <path id="Caminho_114" data-name="Caminho 114" d="M1119.77,570.334V550.365h3.663v19.969Zm-.51-25.934a2.334,2.334,0,0,1,.673-1.689,2.341,2.341,0,0,1,3.319,0,2.345,2.345,0,0,1,.67,1.689,2.256,2.256,0,0,1-.682,1.66,2.222,2.222,0,0,1-1.635.682,2.294,2.294,0,0,1-2.344-2.342Z" transform="translate(-995.795 -519.691)" fill="#fff" fill-rule="evenodd"/>
    <rect id="Retângulo_9" data-name="Retângulo 9" width="3.665" height="31.549" transform="translate(132.32 19.094)" fill="#fff"/>
    <path id="Caminho_115" data-name="Caminho 115" d="M1134.632,570.671V539.122h3.663V552.7a4.222,4.222,0,0,1,1.68-1.639,5.229,5.229,0,0,1,2.493-.56,4.124,4.124,0,0,1,3.268,1.222,5.529,5.529,0,0,1,1.066,3.722l0,15.229h-3.683V557.258a5.062,5.062,0,0,0-.53-2.768,2.114,2.114,0,0,0-1.831-.735,2.239,2.239,0,0,0-1.843.762,3.555,3.555,0,0,0-.622,2.272v13.881Z" transform="translate(-994.006 -520.028)" fill="#fff" fill-rule="evenodd"/>
    <path id="Caminho_116" data-name="Caminho 116" d="M1152.485,559.487a15.833,15.833,0,0,0,.641,5.4,2.2,2.2,0,0,0,4.213-.011,23.081,23.081,0,0,0,.009-10.746,2.225,2.225,0,0,0-4.232,0,15.675,15.675,0,0,0-.631,5.362Zm5.374,10.015v-1.954a5.113,5.113,0,0,1-1.721,1.76,4.378,4.378,0,0,1-2.227.558,4.117,4.117,0,0,1-3.828-2.625q-1.3-2.624-1.3-7.755a17.967,17.967,0,0,1,1.294-7.7,4.109,4.109,0,0,1,3.837-2.616,4.491,4.491,0,0,1,2.249.548,4.9,4.9,0,0,1,1.7,1.73v-1.913h3.664V569.5Z" transform="translate(-992.359 -518.859)" fill="#fff" fill-rule="evenodd"/>
    <path id="Caminho_117" data-name="Caminho 117" d="M1163.111,565.293a6.17,6.17,0,0,0,1.538,1.008,3.829,3.829,0,0,0,1.556.335,2.639,2.639,0,0,0,1.893-.693,2.329,2.329,0,0,0,.731-1.767q0-1.288-2.014-3.2c-.179-.175-.311-.3-.409-.385a14.264,14.264,0,0,1-2.624-3.074,5.472,5.472,0,0,1-.673-2.687,5.646,5.646,0,0,1,1.547-4.112,5.348,5.348,0,0,1,4.01-1.589,6.4,6.4,0,0,1,1.6.2,7.612,7.612,0,0,1,1.561.611v3.767a3.884,3.884,0,0,0-1.3-1.018,3.828,3.828,0,0,0-1.62-.325,2.279,2.279,0,0,0-1.678.653,2.216,2.216,0,0,0-.662,1.648q0,1.325,1.936,3.093c.254.23.445.406.57.529a11.931,11.931,0,0,1,2.514,3.01,6.436,6.436,0,0,1,.7,2.993,5.42,5.42,0,0,1-1.543,4.062,5.648,5.648,0,0,1-4.133,1.516,8.317,8.317,0,0,1-1.714-.182,10.414,10.414,0,0,1-1.789-.552Z" transform="translate(-990.691 -518.863)" fill="#fff" fill-rule="evenodd"/>
    <path id="Caminho_118" data-name="Caminho 118" d="M1060.308,531.216c-33.323,9.109-20.527,28.922-49.316,30.57C1043.194,570.758,1031.08,545.333,1060.308,531.216Z" transform="translate(-1008.396 -520.949)" fill="#fff" fill-rule="evenodd"/>
    <path id="Caminho_119" data-name="Caminho 119" d="M1066.751,532.531l-.057.137c-.047.123-.1.247-.151.369-.134.353-.3.7-.432,1.049-.077.205-.179.411-.261.616-.261.664-.54,1.321-.8,1.987-.095.242-.212.483-.3.726-.149.382-.322.755-.468,1.134-.039.107-.087.209-.129.315a.571.571,0,0,1-.045.131c-.4.113-.793.229-1.189.343-.012-.046-.025-.084-.038-.125a.635.635,0,0,1,.135-.1c.056-.4.133-.789.192-1.179.141-.913.289-1.816.429-2.732.064-.409.134-.818.2-1.234.018-.126.039-.247.059-.374a1.206,1.206,0,0,0,.036-.212.093.093,0,0,1-.033-.006l0,0c.023,0,.028,0,.035-.02.012-.053-.025-.123-.03-.181,0-.131-.045-.275-.051-.4-.006-.029-.012-.059-.02-.09-.007-.176-.063-.364-.069-.539-.008-.03-.015-.061-.02-.091-.007-.133-.054-.268-.062-.406,0-.071-.029-.146-.032-.223a2.045,2.045,0,0,0-.046-.338c-.492.145-.985.285-1.473.427a2.38,2.38,0,0,1-.481.126c-.034.007-.083.027-.109.028-.091.022-.181.046-.269.065q-.361.072-.721.141c-.145.01-.29.064-.439.073s-.3.038-.459.059c0,.075-.077.153-.1.221-.061.15-.136.287-.2.437-.014.041-.048.08-.065.123-.21.517-.494,1-.7,1.517-.055.128-.134.249-.185.38-.086.2-.2.4-.286.6-.009.027-.029.058-.039.086a.1.1,0,0,1,0,.036.266.266,0,0,0-.045.057c-.01.021-.018.068-.036.085-.332.091-.661.189-.994.288-.017-.029-.047-.058-.062-.083s0-.074,0-.1c.01-.086.007-.167.014-.247.019-.193.018-.383.035-.574.013-.146,0-.282.018-.425.043-.461.044-.937.087-1.4.02-.221.007-.44.035-.658-.18.04-.359.057-.531.085a.751.751,0,0,1,.023.08,1.164,1.164,0,0,0-.392.115c-.021-.074.006-.117-.016-.2a1.309,1.309,0,0,1-.274,0c-.069,0-.162.049-.222.054-.009-.006-.022-.018-.03-.022-.02-.059,0-.076-.013-.124-.126.037-.364.138-.425.059-.013-.038-.022-.074-.034-.113.02-.025.027-.057.06-.079l.334-.095c-.016-.056-.052-.072-.058-.133.06-.057.14-.04.221-.086a1.623,1.623,0,0,1,.242-.151c-.022-.071-.079-.095-.1-.168.117-.033.326-.059.442-.091.013.041-.027.022-.014.067l.014,0c.027-.034.086-.041.127-.064a2.043,2.043,0,0,1,.389-.155.956.956,0,0,0-.142-.2c-.1-.128-.184-.266-.281-.39-.076-.1-.133-.208-.212-.309-.214-.281-.415-.587-.633-.874-.07-.088-.117-.181-.189-.274-.115-.15-.216-.313-.334-.467a1.126,1.126,0,0,1-.211-.333c.347-.1.7-.2,1.045-.3.058.048.136.077.2.121.133.095.275.173.409.269.039.027.085.043.122.07.447.316.936.572,1.381.89.1.071.224.125.328.2.159.115.326.205.485.32.037.023.087.04.123.068a1.287,1.287,0,0,0,.261.163c.04-.042.158-.064.216-.1.161-.089.363-.143.528-.232.037-.013.071-.027.112-.039.15-.082.346-.115.5-.2.053-.018.106-.036.16-.051s.124-.034.181-.065a3.94,3.94,0,0,1,.633-.2l1.421-.411a1.11,1.11,0,0,0-.111-.248c-.048-.084-.068-.174-.112-.251-.018-.045-.033-.086-.05-.127-.089-.155-.137-.344-.228-.5-.01-.03-.02-.059-.032-.09-.066-.114-.1-.252-.167-.374-.042-.077-.062-.17-.111-.251a1.69,1.69,0,0,1-.124-.275.12.12,0,0,0-.036.009l0-.006.013,0a.033.033,0,0,1,.016-.015c-.223-.265-.466-.521-.69-.776-.7-.809-1.416-1.6-2.113-2.4-.246-.28-.495-.562-.739-.839-.069-.08-.141-.161-.211-.239-.028-.033-.047-.079-.084-.093-.127-.036-.141.052-.19-.143l1.189-.341c.032.03.078.048.113.075.1.07.2.137.293.211.3.225.622.431.924.656.877.653,1.787,1.263,2.667,1.911.125.087.258.169.38.259.331.239.668.462.99.706.075.055.154.107.228.16l.127.062.646.495c0,.011.181.131.205.151.145.109.3.208.445.319.109.083.234.153.347.236s.194.157.3.224a1.179,1.179,0,0,0,.207.07c.071.022.141.06.21.085a1.019,1.019,0,0,1,.136.042.1.1,0,0,1,0,.018q2.2-.636,4.4-1.276c.058.016.2-.057.271-.064.217-.049.431-.093.648-.14.181-.012.362-.076.538-.081a5.824,5.824,0,0,1,1.479.031c.077.02.167.041.256.067l.023.007a.609.609,0,0,1,.343.228c.09.14-.033.343-.09.416a2.566,2.566,0,0,1-.181.229,4.255,4.255,0,0,1-.784.586,11,11,0,0,1-2.852,1.1l-3.422.992c0,.049-.067.094-.1.133-.059.069-.109.154-.169.225-.031.04-.085.079-.1.128-.134.323-.267.645-.389.972l-.206.492Z" transform="translate(-1003.291 -522.019)" fill="#fff" fill-rule="evenodd"/>
  </g>
</svg>
