<svg xmlns="http://www.w3.org/2000/svg" width="179.546" height="228.231" viewBox="0 0 179.546 228.231">
  <g id="Grupo_14276" data-name="Grupo 14276" transform="translate(-852.838 -397.588)">
    <g id="Grupo_14271" data-name="Grupo 14271" transform="translate(852.838 397.588)">
      <path id="Caminho_7686" data-name="Caminho 7686" d="M910.536,440.348c-8.076,13.193-14.2,29.505-8.544,43.9,1.341,3.414,3.3,6.573,4.451,10.058,1.691,5.135,1.521,10.67,1.334,16.073L906.2,555.769c-.246,7.082.11,14.486-.653,21.515-.795,7.315-3.024,3.9-8.433,8.34-2.446,2.009-2.3,5.726-1.943,8.87a2.227,2.227,0,0,0,.457,1.333,2.121,2.121,0,0,0,1.4.487,20.669,20.669,0,0,0,5.383-.263c-1.364-.969-3.514.111-3.862,1.747a3.737,3.737,0,0,0,2.36,3.978,6.388,6.388,0,0,0,4.88-.271c.984-.421,2.04-1.321,1.748-2.35a16.869,16.869,0,0,0,9.451,1.271,2.024,2.024,0,0,0,1.212-.5,2.134,2.134,0,0,0,.4-1.362c.286-5.038-.153-15.294-7.2-15.914-7.428-.653-6.451,9.13-6.616,13.875-.041,1.182-.008,2.539.9,3.3a3.958,3.958,0,0,0,2.253.675l29.506,2.614c14.855,1.316,29.9,2.625,44.614.227s29.322-8.942,38.462-20.725,11.55-29.355,3.26-41.751c-4.085-6.108-10.242-10.472-16.257-14.694L984.634,510.1c-4.146-2.91-8.4-5.937-11.085-10.235s-3.4-10.24-.346-14.285c2.253-2.987,6-4.356,9.041-6.54,6.176-4.438,9.251-12.441,8.71-20.025s-4.356-14.689-9.6-20.2c-2.719-2.86-5.945-5.528-7.161-9.283-1.64-5.059.832-10.4,2.127-15.559s.541-12-4.452-13.829c-5.962-2.19-11,4.537-14.651,9.738-6.141,8.758-16.8,16.157-27.012,12.961-9.12-2.854-15.889-13.527-25.327-12.019a58.9,58.9,0,0,0,2.169,34.827" transform="translate(-859.866 -399.722)"/>
      <path id="Caminho_7687" data-name="Caminho 7687" d="M1019.844,576.639a51.167,51.167,0,0,1,12.451,36.406c-.395,6.489-2.228,13.208-6.811,17.818-3.3,3.319-7.711,5.252-12.062,6.974-48.184,19.074-97.866,26.94-147.256,11.254-1.963-.623-9.126-7.309-10.436-8.9-1.261-1.531-1.6-3.6-1.868-5.568-1.225-9.07-1.8-18.477.909-27.221s9.284-16.763,18.171-18.954c6.476-1.6,14.117.495,17.726,6.1s1.522,14.484-4.738,16.784c-4.493,1.651-9.749-.143-14.16,1.712-7.591,3.195-6.961,15.258-.724,20.635s15.168,5.921,23.4,6.2l29.165,1c10.805.37,21.937.69,32.063-3.1,13.093-4.9,22.709-15.929,32.705-25.7s17.122-35.571,31.1-35.486" transform="translate(-852.838 -429.224)"/>
      <path id="Caminho_7688" data-name="Caminho 7688" d="M956.99,458.813a8.724,8.724,0,0,0,5.971,8.048,2.2,2.2,0,0,0,1.686,0,2.4,2.4,0,0,0,.969-1.6,10.973,10.973,0,0,0-.017-6.7,5.579,5.579,0,0,0-5.163-3.743c-2.269.125-4.262,2.614-3.438,4.732" transform="translate(-870.179 -408.91)" fill="#fff"/>
      <path id="Caminho_7689" data-name="Caminho 7689" d="M983.439,449.707a18.41,18.41,0,0,0,.973,7.147c.943,2.23,3.05,4.15,5.472,4.1a2.272,2.272,0,0,0,1.577-.549,2.929,2.929,0,0,0,.657-1.583c.432-2.271.712-4.689-.143-6.837s-3.2-3.865-5.43-3.265" transform="translate(-874.621 -407.875)" fill="#fff"/>
      <path id="Caminho_7690" data-name="Caminho 7690" d="M984.531,467.376a1.276,1.276,0,0,0-2.283-.281,4.36,4.36,0,0,1-4.687,2.057c-1.567-.347-2.237,2.062-.665,2.41a7,7,0,0,0,5.245-.887v3.407a1.251,1.251,0,0,0,2.5,0v-6.176A1.258,1.258,0,0,0,984.531,467.376Z" transform="translate(-873.38 -410.859)" fill="#fff"/>
    </g>
  </g>
</svg>
