<svg xmlns="http://www.w3.org/2000/svg" width="545.781" height="470.18" viewBox="0 0 545.781 470.18">
  <g id="Grupo_14364" data-name="Grupo 14364" transform="translate(-405 -2018)">
    <g id="mobile1" transform="translate(405 2018)">
      <path id="Caminho_7816" data-name="Caminho 7816" d="M0,0H264.344V470.18H0Z" fill="#fff"/>
      <rect id="Retângulo_1512" data-name="Retângulo 1512" width="264.344" height="74.721" transform="translate(0 143.803)" fill="#f5f5f5"/>
      <rect id="Retângulo_1513" data-name="Retângulo 1513" width="264.344" height="95.869" transform="translate(0 47.934)" fill="#e0e0e0"/>
      <rect id="Retângulo_1514" data-name="Retângulo 1514" width="264.344" height="47.934"/>
      <path id="Caminho_7738" data-name="Caminho 7738" d="M153.7,150.057V144c0-6.626,10.856-12.125,24.179-12.125S202.057,137.3,202.057,144v6.062Zm12.054-36.233a12.089,12.089,0,1,1,12.125,12.054,12.109,12.109,0,0,1-12.125-12.054Z" transform="translate(-45.354 -30.01)"/>
      <path id="Caminho_7739" data-name="Caminho 7739" d="M249.82,237h62.033a2.828,2.828,0,0,1,2.82,2.82v22.557a2.828,2.828,0,0,1-2.82,2.82H249.82a2.828,2.828,0,0,1-2.82-2.82V239.82A2.828,2.828,0,0,1,249.82,237Z" transform="translate(-72.885 -69.935)"/>
      <path id="Caminho_7740" data-name="Caminho 7740" d="M284.3,258.875V253.8h3.736v.846h-2.749v1.128h2.538v.846h-2.538v1.339h2.82v.846H284.3Z" transform="translate(-83.892 -74.892)" fill="#fff"/>
      <path id="Caminho_7741" data-name="Caminho 7741" d="M291,253.8h1.833a4.033,4.033,0,0,1,.987.07,1.34,1.34,0,0,1,.775.493,2.437,2.437,0,0,1,.493.846,3.112,3.112,0,0,1,.141,1.2,4.264,4.264,0,0,1-.141,1.057,2.487,2.487,0,0,1-.564.916,6.2,6.2,0,0,1-.7.423,2.762,2.762,0,0,1-.916.141H291Zm.987.916v3.313h.775a1.565,1.565,0,0,0,.634-.07l.423-.211c.141-.07.211-.282.282-.493a5.992,5.992,0,0,0,0-1.833,1.137,1.137,0,0,0-.282-.493.64.64,0,0,0-.493-.211c-.141,0-.423-.07-.846-.07h-.493Z" transform="translate(-85.869 -74.892)" fill="#fff"/>
      <path id="Caminho_7742" data-name="Caminho 7742" d="M298.2,258.875V253.8h.987v5.075Z" transform="translate(-87.994 -74.892)" fill="#fff"/>
      <path id="Caminho_7743" data-name="Caminho 7743" d="M301.98,258.9v-4.159H300.5V253.9h4.018v.846h-1.48V258.9Z" transform="translate(-88.672 -74.922)" fill="#fff"/>
      <path id="Caminho_7744" data-name="Caminho 7744" d="M36.741,239.7h2.044v6.415a6.416,6.416,0,0,1-.211,1.9,3,3,0,0,1-1.057,1.41,3.514,3.514,0,0,1-2.044.564,3.144,3.144,0,0,1-2.326-.846,3.709,3.709,0,0,1-.846-2.467l1.9-.211a2.278,2.278,0,0,0,.282,1.2,1.125,1.125,0,0,0,.987.564,1.183,1.183,0,0,0,.987-.423,2.858,2.858,0,0,0,.282-1.621V239.7Z" transform="translate(-9.531 -70.731)"/>
      <path id="Caminho_7745" data-name="Caminho 7745" d="M43.9,247.136a3.415,3.415,0,0,1,.493-1.833,4.272,4.272,0,0,1,1.339-1.41,3.576,3.576,0,0,1,1.974-.493,3.89,3.89,0,0,1,2.749,6.556,3.667,3.667,0,0,1-2.679,1.057,4.2,4.2,0,0,1-1.9-.423,3.666,3.666,0,0,1-1.41-1.339A3.927,3.927,0,0,1,43.9,247.136Zm1.974.071a2.546,2.546,0,0,0,.493,1.692,1.531,1.531,0,0,0,1.269.564A1.765,1.765,0,0,0,48.9,248.9a2.316,2.316,0,0,0,.493-1.692,2.238,2.238,0,0,0-.493-1.621,1.709,1.709,0,0,0-2.538,0A2.238,2.238,0,0,0,45.874,247.207Z" transform="translate(-12.954 -71.823)"/>
      <path id="Caminho_7746" data-name="Caminho 7746" d="M58.674,239.7v3.736a2.943,2.943,0,0,1,2.256-1.128,2.317,2.317,0,0,1,1.2.282c.352.211.634.352.775.634a4.312,4.312,0,0,1,.352.846,7.742,7.742,0,0,1,.07,1.48v4.3h-1.9v-3.877a5.521,5.521,0,0,0-.141-1.48.948.948,0,0,0-.423-.493,1.191,1.191,0,0,0-.7-.211,1.5,1.5,0,0,0-.846.211,1.92,1.92,0,0,0-.564.7,3.73,3.73,0,0,0-.141,1.41v3.666H56.7V239.7Z" transform="translate(-16.731 -70.731)"/>
      <path id="Caminho_7747" data-name="Caminho 7747" d="M75.626,250.813h-1.9v-3.736a6.676,6.676,0,0,0-.141-1.551.876.876,0,0,0-.423-.564,1.191,1.191,0,0,0-.7-.211,1.417,1.417,0,0,0-.916.282,1.79,1.79,0,0,0-.564.7,4.865,4.865,0,0,0-.141,1.692v3.313H69v-7.331h1.762v1.057a2.856,2.856,0,0,1,2.4-1.269,3.292,3.292,0,0,1,1.2.211,1.706,1.706,0,0,1,.775.564,2.353,2.353,0,0,1,.352.846,5.752,5.752,0,0,1,.141,1.269Z" transform="translate(-20.361 -71.764)"/>
      <path id="Caminho_7748" data-name="Caminho 7748" d="M86.8,239.7h3.736a6.415,6.415,0,0,1,1.9.211,3.5,3.5,0,0,1,1.551.916,4.184,4.184,0,0,1,.987,1.621,7.486,7.486,0,0,1,.352,2.4,6.144,6.144,0,0,1-.282,2.115,5.324,5.324,0,0,1-1.057,1.762,3.054,3.054,0,0,1-1.41.775,6.206,6.206,0,0,1-1.833.211H86.941V239.7Zm2.044,1.692v6.7H90.4a5.045,5.045,0,0,0,1.2-.07,1.608,1.608,0,0,0,.846-.423,2.14,2.14,0,0,0,.564-.987,6.539,6.539,0,0,0,.211-1.833A5.394,5.394,0,0,0,93,243.013a3.3,3.3,0,0,0-.564-.987,1.924,1.924,0,0,0-.916-.493,9.567,9.567,0,0,0-1.692-.071h-.987Z" transform="translate(-25.613 -70.731)"/>
      <path id="Caminho_7749" data-name="Caminho 7749" d="M100.6,247.136a3.415,3.415,0,0,1,.493-1.833,4.272,4.272,0,0,1,1.339-1.41,3.576,3.576,0,0,1,1.974-.493,3.89,3.89,0,0,1,2.749,6.556,3.667,3.667,0,0,1-2.679,1.057,4.2,4.2,0,0,1-1.9-.423,3.666,3.666,0,0,1-1.41-1.339A3.927,3.927,0,0,1,100.6,247.136Zm1.974.071a2.546,2.546,0,0,0,.493,1.692,1.531,1.531,0,0,0,1.269.564,1.765,1.765,0,0,0,1.269-.564,2.316,2.316,0,0,0,.493-1.692,2.238,2.238,0,0,0-.493-1.621,1.709,1.709,0,0,0-2.538,0A2.238,2.238,0,0,0,102.574,247.207Z" transform="translate(-29.685 -71.823)"/>
      <path id="Caminho_7750" data-name="Caminho 7750" d="M117.393,248.546l1.9.352a3.182,3.182,0,0,1-1.2,1.621,3.607,3.607,0,0,1-1.974.564,3.274,3.274,0,0,1-2.82-1.269,4.016,4.016,0,0,1-.7-2.538,3.888,3.888,0,0,1,.916-2.82,3.3,3.3,0,0,1,2.4-1.057,3.4,3.4,0,0,1,2.608,1.057,4.9,4.9,0,0,1,.916,3.313h-4.864a1.755,1.755,0,0,0,.493,1.339,1.5,1.5,0,0,0,1.128.493,1.06,1.06,0,0,0,.775-.282A1.393,1.393,0,0,0,117.393,248.546Zm.141-1.974a1.723,1.723,0,0,0-.423-1.269,1.392,1.392,0,0,0-.987-.423,1.268,1.268,0,0,0-1.057.493,1.839,1.839,0,0,0-.423,1.269h2.89Z" transform="translate(-33.226 -71.823)"/>
      <path id="Caminho_7751" data-name="Caminho 7751" d="M32.6,269.793l.916-.071a2.378,2.378,0,0,0,.282.846,1.919,1.919,0,0,0,.7.564,2.828,2.828,0,0,0,1.057.211,3.128,3.128,0,0,0,.916-.141,2,2,0,0,0,.634-.423.984.984,0,0,0,.211-.634.8.8,0,0,0-.211-.564,2.46,2.46,0,0,0-.634-.423,12.01,12.01,0,0,0-1.269-.352,4.951,4.951,0,0,1-1.339-.423,3.741,3.741,0,0,1-.775-.634,2,2,0,0,1-.282-.846,1.618,1.618,0,0,1,.282-.987,1.891,1.891,0,0,1,.916-.7A3.991,3.991,0,0,1,35.279,265a3.156,3.156,0,0,1,1.41.282,1.667,1.667,0,0,1,.916.775,2.13,2.13,0,0,1,.352,1.128l-.916.07a1.478,1.478,0,0,0-.493-.987,2.016,2.016,0,0,0-1.2-.352,2.12,2.12,0,0,0-1.269.282.884.884,0,0,0-.423.775.687.687,0,0,0,.282.634,3.746,3.746,0,0,0,1.41.493,13.21,13.21,0,0,1,1.551.423,2.431,2.431,0,0,1,.916.7,1.619,1.619,0,0,1,.282.987,2.1,2.1,0,0,1-.352,1.057,2.009,2.009,0,0,1-.916.775,2.861,2.861,0,0,1-1.339.282,3.715,3.715,0,0,1-1.621-.282,2.344,2.344,0,0,1-.987-.846A5.009,5.009,0,0,1,32.6,269.793Z" transform="translate(-9.62 -78.197)"/>
      <path id="Caminho_7752" data-name="Caminho 7752" d="M45.5,272.152a2.686,2.686,0,0,1-.916.564,4.163,4.163,0,0,1-.987.141,1.723,1.723,0,0,1-1.269-.423,1.434,1.434,0,0,1-.423-1.057,2.085,2.085,0,0,1,.141-.7,3.066,3.066,0,0,1,.423-.493,1.741,1.741,0,0,1,.634-.282,5.269,5.269,0,0,1,.775-.141,12.791,12.791,0,0,0,1.551-.282v-.211a1.134,1.134,0,0,0-.211-.775,1.378,1.378,0,0,0-.987-.282,1.6,1.6,0,0,0-.916.211,1.187,1.187,0,0,0-.423.775l-.846-.141a2.352,2.352,0,0,1,.352-.846,1.482,1.482,0,0,1,.775-.493A2.923,2.923,0,0,1,44.3,267.5a4.266,4.266,0,0,1,1.057.141,1.027,1.027,0,0,1,.634.423,1.417,1.417,0,0,1,.282.564c0,.141.07.423.07.775v1.128a7.774,7.774,0,0,0,.07,1.551l.211.634h-.916A.8.8,0,0,1,45.5,272.152Zm-.07-1.9a8,8,0,0,1-1.41.352,6.289,6.289,0,0,1-.775.141.468.468,0,0,0-.352.282,1,1,0,0,0-.141.423.641.641,0,0,0,.282.564,1.266,1.266,0,0,0,.775.211,1.952,1.952,0,0,0,.916-.211,1.244,1.244,0,0,0,.564-.634,2.629,2.629,0,0,0,.141-.846Z" transform="translate(-12.364 -78.935)"/>
      <path id="Caminho_7753" data-name="Caminho 7753" d="M50,272.787v-5.146h.775v.7A1.805,1.805,0,0,1,52.4,267.5a3.538,3.538,0,0,1,.846.141,1.947,1.947,0,0,1,.564.423,1.742,1.742,0,0,1,.282.634c0,.141.07.423.07.846v3.172h-.846v-3.1a2.192,2.192,0,0,0-.07-.775,1.868,1.868,0,0,0-.352-.423,1.408,1.408,0,0,0-.634-.141,1.382,1.382,0,0,0-1.41,1.692v2.82Z" transform="translate(-14.754 -78.935)"/>
      <path id="Caminho_7754" data-name="Caminho 7754" d="M61.9,272.049V265h4.793v.846H62.887v2.185H66.2v.846H62.887v3.243H61.9Z" transform="translate(-18.266 -78.197)"/>
      <path id="Caminho_7755" data-name="Caminho 7755" d="M70.3,272.816V267.67h.775v.775c.211-.352.352-.634.564-.7a1.658,1.658,0,0,1,.564-.141,1.707,1.707,0,0,1,.916.282l-.282.775a1.137,1.137,0,0,0-.634-.211,1.018,1.018,0,0,0-.493.141,1.264,1.264,0,0,0-.352.493,4.161,4.161,0,0,0-.141.987v2.679H70.3Z" transform="translate(-20.744 -78.964)"/>
      <path id="Caminho_7756" data-name="Caminho 7756" d="M78.2,272.152a2.686,2.686,0,0,1-.916.564,4.163,4.163,0,0,1-.987.141,1.723,1.723,0,0,1-1.269-.423,1.434,1.434,0,0,1-.423-1.057,2.085,2.085,0,0,1,.141-.7,3.066,3.066,0,0,1,.423-.493,1.741,1.741,0,0,1,.634-.282,5.269,5.269,0,0,1,.775-.141,12.791,12.791,0,0,0,1.551-.282v-.211a1.134,1.134,0,0,0-.211-.775,1.378,1.378,0,0,0-.987-.282,1.6,1.6,0,0,0-.916.211,1.187,1.187,0,0,0-.423.775l-.846-.141a2.352,2.352,0,0,1,.352-.846,1.482,1.482,0,0,1,.775-.493A2.923,2.923,0,0,1,77,267.5a4.266,4.266,0,0,1,1.057.141,1.027,1.027,0,0,1,.634.423,1.417,1.417,0,0,1,.282.564c0,.141.07.423.07.775v1.128a7.773,7.773,0,0,0,.07,1.551l.211.634h-.916A.8.8,0,0,1,78.2,272.152Zm-.07-1.9a8,8,0,0,1-1.41.352,6.289,6.289,0,0,1-.775.141.468.468,0,0,0-.352.282,1,1,0,0,0-.141.423.641.641,0,0,0,.282.564,1.266,1.266,0,0,0,.775.211,1.952,1.952,0,0,0,.916-.211,1.244,1.244,0,0,0,.564-.634,2.629,2.629,0,0,0,.141-.846v-.282Z" transform="translate(-22.013 -78.935)"/>
      <path id="Caminho_7757" data-name="Caminho 7757" d="M82.7,272.787v-5.146h.775v.7A1.805,1.805,0,0,1,85.1,267.5a3.538,3.538,0,0,1,.846.141,1.947,1.947,0,0,1,.564.423,1.742,1.742,0,0,1,.282.634c0,.141.07.423.07.846v3.172h-.846v-3.1a2.192,2.192,0,0,0-.07-.775,1.869,1.869,0,0,0-.352-.423,1.408,1.408,0,0,0-.634-.141,1.382,1.382,0,0,0-1.41,1.692v2.82Z" transform="translate(-24.403 -78.935)"/>
      <path id="Caminho_7758" data-name="Caminho 7758" d="M93.7,270.913l.846.141a2.451,2.451,0,0,1-.7,1.41,1.92,1.92,0,0,1-1.41.493,2.09,2.09,0,0,1-1.692-.7,2.768,2.768,0,0,1-.634-1.974,3.27,3.27,0,0,1,.282-1.48,2.142,2.142,0,0,1,.846-.916,2.317,2.317,0,0,1,1.2-.282,2.033,2.033,0,0,1,1.339.423,2.276,2.276,0,0,1,.7,1.2l-.846.141a1.187,1.187,0,0,0-.423-.775,1.253,1.253,0,0,0-.7-.282,1.268,1.268,0,0,0-1.057.493,2.8,2.8,0,0,0,0,2.961,1.5,1.5,0,0,0,1.057.493,1.124,1.124,0,0,0,.846-.282A1.459,1.459,0,0,0,93.7,270.913Z" transform="translate(-26.587 -78.964)"/>
      <path id="Caminho_7759" data-name="Caminho 7759" d="M97.5,265.987V265h.846v.987Zm0,6.062V266.9h.846v5.146Z" transform="translate(-28.771 -78.197)"/>
      <path id="Caminho_7760" data-name="Caminho 7760" d="M100.1,271.236l.846-.141a1.187,1.187,0,0,0,.423.775,1.569,1.569,0,0,0,.916.282,1.6,1.6,0,0,0,.916-.211.641.641,0,0,0,.282-.564.532.532,0,0,0-.282-.493,7.792,7.792,0,0,0-.916-.282,6.022,6.022,0,0,1-1.339-.423,1.9,1.9,0,0,1-.564-.493,1.191,1.191,0,0,1-.211-.7,2.059,2.059,0,0,1,.141-.634.948.948,0,0,1,.423-.493,4.185,4.185,0,0,1,.564-.282,2.643,2.643,0,0,1,.775-.07,4.266,4.266,0,0,1,1.057.141,1.612,1.612,0,0,1,.7.493,2.525,2.525,0,0,1,.282.775l-.846.141a.949.949,0,0,0-.352-.634,1.266,1.266,0,0,0-.775-.211,1.225,1.225,0,0,0-.846.211.714.714,0,0,0-.282.493.366.366,0,0,0,.141.282,1.54,1.54,0,0,0,.352.211,7.728,7.728,0,0,0,.775.211,4.259,4.259,0,0,1,1.269.423,1.7,1.7,0,0,1,.564.423,1.134,1.134,0,0,1,.211.775,1.355,1.355,0,0,1-.282.846,1.407,1.407,0,0,1-.7.564,2.828,2.828,0,0,1-1.057.211,2.532,2.532,0,0,1-1.551-.423A1.969,1.969,0,0,1,100.1,271.236Z" transform="translate(-29.538 -78.935)"/>
      <path id="Caminho_7761" data-name="Caminho 7761" d="M110.9,270.913l.846.141a2.451,2.451,0,0,1-.7,1.41,1.92,1.92,0,0,1-1.41.493,2.09,2.09,0,0,1-1.692-.7,2.768,2.768,0,0,1-.634-1.974,3.269,3.269,0,0,1,.282-1.48,2.143,2.143,0,0,1,.846-.916,2.317,2.317,0,0,1,1.2-.282,2.033,2.033,0,0,1,1.339.423,2.277,2.277,0,0,1,.7,1.2l-.846.141a1.187,1.187,0,0,0-.423-.775,1.253,1.253,0,0,0-.7-.282,1.268,1.268,0,0,0-1.057.493,2.8,2.8,0,0,0,0,2.961,1.5,1.5,0,0,0,1.057.493,1.124,1.124,0,0,0,.846-.282A1.86,1.86,0,0,0,110.9,270.913Z" transform="translate(-31.662 -78.964)"/>
      <path id="Caminho_7762" data-name="Caminho 7762" d="M114.2,270.279a2.877,2.877,0,0,1,.775-2.115,2.513,2.513,0,0,1,1.621-.564,2.09,2.09,0,0,1,1.692.7,2.864,2.864,0,0,1,.7,1.9,3.212,3.212,0,0,1-.282,1.551,1.959,1.959,0,0,1-.846.846,3.367,3.367,0,0,1-1.269.282,2.338,2.338,0,0,1-1.762-.7A2.414,2.414,0,0,1,114.2,270.279Zm.846,0a2.313,2.313,0,0,0,.423,1.48,1.38,1.38,0,0,0,2.115,0,2.313,2.313,0,0,0,.423-1.48,1.983,1.983,0,0,0-.423-1.41,1.38,1.38,0,0,0-2.115,0A1.983,1.983,0,0,0,115.046,270.279Z" transform="translate(-33.698 -78.964)"/>
      <path id="Caminho_7763" data-name="Caminho 7763" d="M122.67,274.587V273.6h.987v.987a1.5,1.5,0,0,1-.211.846,1.125,1.125,0,0,1-.634.493l-.211-.352a.722.722,0,0,0,.423-.352,1.517,1.517,0,0,0,.141-.7h-.493Z" transform="translate(-36.177 -80.735)"/>
      <path id="Caminho_7764" data-name="Caminho 7764" d="M135.316,269.523l.916.211a3.4,3.4,0,0,1-1.057,1.762,2.761,2.761,0,0,1-1.833.634,2.836,2.836,0,0,1-1.833-.493,2.524,2.524,0,0,1-1.057-1.339,5.382,5.382,0,0,1-.352-1.9,3.994,3.994,0,0,1,.423-1.9,2.987,2.987,0,0,1,1.2-1.269,3.349,3.349,0,0,1,1.692-.423,2.923,2.923,0,0,1,1.762.564,2.4,2.4,0,0,1,.987,1.551l-.916.211a2.225,2.225,0,0,0-.7-1.128,2.275,2.275,0,0,0-2.538.07,2.3,2.3,0,0,0-.775,1.057,4.426,4.426,0,0,0-.211,1.339,3.393,3.393,0,0,0,.282,1.551,1.667,1.667,0,0,0,.846.987,2.6,2.6,0,0,0,1.2.352,2.169,2.169,0,0,0,1.339-.423A2.623,2.623,0,0,0,135.316,269.523Z" transform="translate(-38.39 -78.138)"/>
      <path id="Caminho_7765" data-name="Caminho 7765" d="M139.4,272.049,142.079,265h.987l2.89,7.049H144.9l-.846-2.115h-2.961l-.775,2.115Zm1.974-2.89h2.4l-.7-1.974a9.051,9.051,0,0,1-.493-1.48,9.389,9.389,0,0,1-.352,1.339Z" transform="translate(-41.135 -78.197)"/>
      <g id="Grupo_14308" data-name="Grupo 14308" transform="translate(22.557 246.721)">
        <path id="Caminho_7766" data-name="Caminho 7766" d="M38.639,534a5.639,5.639,0,1,0,5.639,5.639A5.656,5.656,0,0,0,38.639,534Zm0,9.587a3.927,3.927,0,0,1-3.948-3.877v-.07a3.73,3.73,0,0,1,.634-2.115l5.5,5.5A4.8,4.8,0,0,1,38.639,543.587Zm3.948-3.948a3.73,3.73,0,0,1-.634,2.115l-5.5-5.5a3.9,3.9,0,0,1,2.115-.634,4.062,4.062,0,0,1,4.018,4.018Z" transform="translate(-32.295 -404.295)"/>
        <circle id="Elipse_280" data-name="Elipse 280" cx="2.82" cy="2.82" r="2.82" transform="translate(2.82 64.852)"/>
        <path id="Caminho_7767" data-name="Caminho 7767" d="M43.279,454.82c0-1.551-2.538-2.82-5.639-2.82S32,453.269,32,454.82v1.41H43.279Z" transform="translate(-32 -380.098)"/>
        <path id="Caminho_7768" data-name="Caminho 7768" d="M33.623,359.869h3.525a1.41,1.41,0,0,0,2.82,0h3.525a.677.677,0,0,0,.634-.493.668.668,0,0,0-.211-.775,2.838,2.838,0,0,1-1.128-2.256v-2.115a4.23,4.23,0,1,0-8.459,0v2.115A2.838,2.838,0,0,1,33.2,358.6a.8.8,0,0,0-.211.775A.753.753,0,0,0,33.623,359.869Z" transform="translate(-32.284 -350)"/>
        <path id="Caminho_7769" data-name="Caminho 7769" d="M83.028,355.515l2.467,3.948h1.2V353.4H85.566v4.018L83.1,353.4H81.9v6.062h1.128Z" transform="translate(-46.725 -351.003)"/>
        <path id="Caminho_7770" data-name="Caminho 7770" d="M91.228,360.03a2.277,2.277,0,1,0,1.128-4.229,2.317,2.317,0,0,0-1.2.282,1.794,1.794,0,0,0-.775.846,2.955,2.955,0,0,0-.282,1.128,2.414,2.414,0,0,0,.282,1.269A2.072,2.072,0,0,0,91.228,360.03ZM91.651,357a1.029,1.029,0,0,1,1.551,0,1.868,1.868,0,0,1,0,1.974,1.029,1.029,0,0,1-1.551,0,1.868,1.868,0,0,1,0-1.974Z" transform="translate(-49.144 -351.711)"/>
        <path id="Caminho_7771" data-name="Caminho 7771" d="M97.664,357.97a2.432,2.432,0,0,0,.07.846.6.6,0,0,0,.141.423,1.538,1.538,0,0,0,.352.282,1.374,1.374,0,0,0,.564.07,3.571,3.571,0,0,0,.916-.141l-.07-.916a1.792,1.792,0,0,1-.493.141.259.259,0,0,1-.211-.07c-.07-.071-.07-.071-.07-.141v-2.4h.775v-.916h-.775V353.6l-1.2.7v.846H97.1v.916h.564v1.9Z" transform="translate(-51.21 -351.062)"/>
        <rect id="Retângulo_1515" data-name="Retângulo 1515" width="1.128" height="4.37" transform="translate(49.274 4.089)"/>
        <rect id="Retângulo_1516" data-name="Retângulo 1516" width="1.128" height="1.057" transform="translate(49.274 2.397)"/>
        <path id="Caminho_7772" data-name="Caminho 7772" d="M105.134,359.462h1.128v-3.454h.846v-.916h-.846v-.282a.6.6,0,0,1,.141-.423.538.538,0,0,1,.352-.141,1.752,1.752,0,0,1,.564.07l.141-.775a4.16,4.16,0,0,0-.987-.141,2.176,2.176,0,0,0-.775.141.823.823,0,0,0-.423.423,2.025,2.025,0,0,0-.141.846v.352H104.5v.916h.634Z" transform="translate(-53.394 -351.003)"/>
        <rect id="Retângulo_1517" data-name="Retângulo 1517" width="1.128" height="4.37" transform="translate(54.42 4.089)"/>
        <rect id="Retângulo_1518" data-name="Retângulo 1518" width="1.128" height="1.057" transform="translate(54.42 2.397)"/>
        <path id="Caminho_7773" data-name="Caminho 7773" d="M114.244,360.123a1.949,1.949,0,0,0,2.044-1.621l-1.128-.211a1.328,1.328,0,0,1-.282.634.8.8,0,0,1-.564.211.868.868,0,0,1-.7-.352,1.992,1.992,0,0,1-.282-1.128,1.275,1.275,0,0,1,.282-.987.905.905,0,0,1,.7-.282,1.328,1.328,0,0,1,.564.141c.141.07.211.282.282.493l1.128-.211a1.675,1.675,0,0,0-.7-1.057,2.254,2.254,0,0,0-1.269-.352,1.968,1.968,0,0,0-1.551.634,2.82,2.82,0,0,0,0,3.384A1.874,1.874,0,0,0,114.244,360.123Z" transform="translate(-55.666 -351.593)"/>
        <path id="Caminho_7774" data-name="Caminho 7774" d="M120.321,357.474a2.343,2.343,0,0,0-.916.282,3.062,3.062,0,0,0-.493.423.984.984,0,0,0-.211.634,1.137,1.137,0,0,0,.423.916,1.731,1.731,0,0,0,1.057.352,2.086,2.086,0,0,0,.7-.141,1.665,1.665,0,0,0,.634-.423.218.218,0,0,0,.07.141c.071.141.071.282.141.352h1.128a4.855,4.855,0,0,0-.211-.564,2.663,2.663,0,0,1-.07-.846v-1.339a3.434,3.434,0,0,0-.141-1.057c-.07-.211-.282-.352-.564-.493a2.472,2.472,0,0,0-1.128-.211,2.119,2.119,0,0,0-1.269.282,1.79,1.79,0,0,0-.634.916l1.057.211a.647.647,0,0,1,.282-.423,1.019,1.019,0,0,1,.493-.141,1.408,1.408,0,0,1,.634.141c.141.071.141.282.141.493v.141A1.922,1.922,0,0,1,120.321,357.474Zm1.128.7c0,.282,0,.493-.07.564a.7.7,0,0,1-.282.352,1.125,1.125,0,0,1-.564.211.64.64,0,0,1-.493-.211.529.529,0,0,1,0-.846,1.542,1.542,0,0,1,.634-.211,2.859,2.859,0,0,0,.7-.211v.352Z" transform="translate(-57.584 -351.623)"/>
        <path id="Caminho_7775" data-name="Caminho 7775" d="M127.244,358.675a.259.259,0,0,1-.211-.07c-.071-.071-.07-.071-.07-.141v-2.4h.775v-.916h-.775V353.6l-1.2.7v.846H125.2v.916h.564v1.9a2.433,2.433,0,0,0,.07.846.6.6,0,0,0,.141.423,1.537,1.537,0,0,0,.352.282,1.374,1.374,0,0,0,.564.07,3.571,3.571,0,0,0,.916-.141l-.07-.916C127.456,358.6,127.315,358.675,127.244,358.675Z" transform="translate(-59.502 -351.062)"/>
        <rect id="Retângulo_1519" data-name="Retângulo 1519" width="1.128" height="4.37" transform="translate(69.011 4.089)"/>
        <rect id="Retângulo_1520" data-name="Retângulo 1520" width="1.128" height="1.057" transform="translate(69.011 2.397)"/>
        <path id="Caminho_7776" data-name="Caminho 7776" d="M135.056,355.6a2.317,2.317,0,0,0-1.2.282,1.794,1.794,0,0,0-.775.846,2.955,2.955,0,0,0-.282,1.128,2.414,2.414,0,0,0,.282,1.269,1.793,1.793,0,0,0,.846.775,3.317,3.317,0,0,0,1.128.282,2.294,2.294,0,0,0,1.621-3.877A2.174,2.174,0,0,0,135.056,355.6Zm.775,3.313a1.029,1.029,0,0,1-1.551,0,1.868,1.868,0,0,1,0-1.974,1.029,1.029,0,0,1,1.551,0,1.868,1.868,0,0,1,0,1.974Z" transform="translate(-61.744 -351.652)"/>
        <path id="Caminho_7777" data-name="Caminho 7777" d="M144.236,356.093a1.264,1.264,0,0,0-.493-.352,2.086,2.086,0,0,0-.7-.141,1.943,1.943,0,0,0-1.48.775v-.634H140.5v4.371h1.128v-1.974a3.2,3.2,0,0,1,.07-.987c.07-.141.141-.352.352-.423a1.659,1.659,0,0,1,.564-.141,1,1,0,0,1,.423.141.388.388,0,0,1,.211.352c0,.141.07.423.07.916v2.256h1.128V357.5a2.411,2.411,0,0,0-.07-.775C144.307,356.516,144.307,356.234,144.236,356.093Z" transform="translate(-64.017 -351.652)"/>
        <path id="Caminho_7778" data-name="Caminho 7778" d="M151.036,357.885a3.143,3.143,0,0,0-1.269-.493,4.161,4.161,0,0,1-1.057-.352c-.07-.071-.141-.141-.141-.211s.07-.141.141-.211a1.408,1.408,0,0,1,.634-.141,1.328,1.328,0,0,1,.564.141.648.648,0,0,1,.282.423l1.128-.211a1.313,1.313,0,0,0-.634-.846,3.165,3.165,0,0,0-1.339-.282,1.983,1.983,0,0,0-1.41.423,1.28,1.28,0,0,0-.423.987,1.067,1.067,0,0,0,.493.987,8.485,8.485,0,0,0,1.762.564c.211.07.352.07.423.141a.259.259,0,0,1,.07.211.366.366,0,0,1-.141.282c-.141.141-.352.141-.7.141a1.407,1.407,0,0,1-.634-.141.593.593,0,0,1-.282-.493l-1.2.211a1.716,1.716,0,0,0,.7.987,2.776,2.776,0,0,0,1.41.352,2.313,2.313,0,0,0,1.48-.423,1.457,1.457,0,0,0,.141-2.044Z" transform="translate(-66.023 -351.682)"/>
        <path id="Caminho_7779" data-name="Caminho 7779" d="M83.01,405.151a3.275,3.275,0,0,0,1.621.423,3.682,3.682,0,0,0,1.48-.282,5.344,5.344,0,0,0,1.128-.634v-2.4H84.631v.987h1.41v.775a2.856,2.856,0,0,1-.634.352,2.533,2.533,0,0,1-.775.141,1.765,1.765,0,0,1-1.269-.564,2.238,2.238,0,0,1-.493-1.621,1.719,1.719,0,0,1,1.762-1.974,1.417,1.417,0,0,1,.916.282,1.192,1.192,0,0,1,.493.7l1.2-.211a2.446,2.446,0,0,0-.846-1.339,2.627,2.627,0,0,0-1.762-.493,3.27,3.27,0,0,0-1.48.282,2.5,2.5,0,0,0-1.128,1.128A4.275,4.275,0,0,0,81.6,402.4a4.181,4.181,0,0,0,.352,1.621A2.339,2.339,0,0,0,83.01,405.151Z" transform="translate(-46.636 -364.548)"/>
        <path id="Caminho_7780" data-name="Caminho 7780" d="M94.325,402.334a1.968,1.968,0,0,0-1.551-.634,1.775,1.775,0,0,0-1.41.634,2.572,2.572,0,0,0-.564,1.692,2.313,2.313,0,0,0,.423,1.48,1.956,1.956,0,0,0,1.692.775,2.016,2.016,0,0,0,1.2-.352,2.1,2.1,0,0,0,.7-.987l-1.128-.211a1.137,1.137,0,0,1-.282.493.6.6,0,0,1-.493.141.687.687,0,0,1-.634-.282,1.478,1.478,0,0,1-.282-.775h2.89A3,3,0,0,0,94.325,402.334Zm-2.4,1.269a1.421,1.421,0,0,1,.211-.775.687.687,0,0,1,.634-.282.861.861,0,0,1,.634.282.963.963,0,0,1,.282.775Z" transform="translate(-49.351 -365.256)"/>
        <path id="Caminho_7781" data-name="Caminho 7781" d="M98.957,402.419v-.634H97.9v4.37h1.128v-1.974a3.2,3.2,0,0,1,.07-.987c.07-.141.141-.352.352-.423a1.658,1.658,0,0,1,.564-.141,1,1,0,0,1,.423.141.388.388,0,0,1,.211.352c0,.141.07.423.07.916V406.3h1.128v-2.749a2.411,2.411,0,0,0-.07-.775,3.434,3.434,0,0,0-.211-.493.9.9,0,0,0-.493-.352,2.085,2.085,0,0,0-.7-.141A1.321,1.321,0,0,0,98.957,402.419Z" transform="translate(-51.446 -365.27)"/>
        <path id="Caminho_7782" data-name="Caminho 7782" d="M108.325,402.334a1.968,1.968,0,0,0-1.551-.634,1.775,1.775,0,0,0-1.41.634,2.572,2.572,0,0,0-.564,1.692,2.313,2.313,0,0,0,.423,1.48,1.956,1.956,0,0,0,1.692.775,2.016,2.016,0,0,0,1.2-.352,2.1,2.1,0,0,0,.7-.987l-1.128-.211a1.137,1.137,0,0,1-.282.493.6.6,0,0,1-.493.141.687.687,0,0,1-.634-.282,1.478,1.478,0,0,1-.282-.775h2.89A3,3,0,0,0,108.325,402.334Zm-2.4,1.269a1.421,1.421,0,0,1,.211-.775.687.687,0,0,1,.634-.282.861.861,0,0,1,.634.282.963.963,0,0,1,.282.775Z" transform="translate(-53.482 -365.256)"/>
        <path id="Caminho_7783" data-name="Caminho 7783" d="M112.928,404.8a6.946,6.946,0,0,1,.07-1.48c.07-.211.141-.423.282-.493a1,1,0,0,1,.423-.141,1.125,1.125,0,0,1,.564.211l.352-.987a1.421,1.421,0,0,0-.775-.211,1.019,1.019,0,0,0-.493.141,2.1,2.1,0,0,0-.493.564v-.634H111.8v4.37h1.128Z" transform="translate(-55.548 -365.256)"/>
        <path id="Caminho_7784" data-name="Caminho 7784" d="M117.721,403.474a2.343,2.343,0,0,0-.916.282,3.062,3.062,0,0,0-.493.423.984.984,0,0,0-.211.634,1.137,1.137,0,0,0,.423.916,1.732,1.732,0,0,0,1.057.352,2.085,2.085,0,0,0,.7-.141,1.664,1.664,0,0,0,.634-.423.218.218,0,0,0,.071.141c.07.141.07.282.141.352h1.128a4.857,4.857,0,0,0-.211-.564,2.663,2.663,0,0,1-.071-.846v-1.339a3.434,3.434,0,0,0-.141-1.057c-.07-.211-.282-.352-.564-.493a2.471,2.471,0,0,0-1.128-.211,2.12,2.12,0,0,0-1.269.282,1.79,1.79,0,0,0-.634.916l1.057.211a.647.647,0,0,1,.282-.423,1.019,1.019,0,0,1,.493-.141,1.408,1.408,0,0,1,.634.141c.141.071.141.282.141.493v.141A2.127,2.127,0,0,1,117.721,403.474Zm1.128.7c0,.282,0,.493-.07.564a.7.7,0,0,1-.282.352,1.125,1.125,0,0,1-.564.211.64.64,0,0,1-.493-.211.529.529,0,0,1,0-.846,1.541,1.541,0,0,1,.634-.211,2.857,2.857,0,0,0,.7-.211v.352Z" transform="translate(-56.816 -365.197)"/>
        <rect id="Retângulo_1521" data-name="Retângulo 1521" width="1.128" height="6.062" transform="translate(64.288 34.823)"/>
        <path id="Caminho_7785" data-name="Caminho 7785" d="M83.326,445.4,81,451.462h1.269l.493-1.41H85.23l.564,1.41h1.339l-2.4-6.062Zm-.141,3.666.846-2.256.846,2.256Z" transform="translate(-46.459 -378.151)"/>
        <path id="Caminho_7786" data-name="Caminho 7786" d="M92.315,448.487a1.329,1.329,0,0,1,.564.141c.141.071.211.282.282.493l1.128-.211a1.675,1.675,0,0,0-.7-1.057,2.254,2.254,0,0,0-1.269-.352,1.968,1.968,0,0,0-1.551.634,2.82,2.82,0,0,0,0,3.384,1.968,1.968,0,0,0,1.551.634,1.949,1.949,0,0,0,2.044-1.621l-1.128-.211a1.328,1.328,0,0,1-.282.634.8.8,0,0,1-.564.211.868.868,0,0,1-.7-.352,1.992,1.992,0,0,1-.282-1.128,1.275,1.275,0,0,1,.282-.987A.711.711,0,0,1,92.315,448.487Z" transform="translate(-49.174 -378.771)"/>
        <path id="Caminho_7787" data-name="Caminho 7787" d="M98.944,452.123a1.949,1.949,0,0,0,2.044-1.621l-1.128-.211a1.328,1.328,0,0,1-.282.634.8.8,0,0,1-.564.211.868.868,0,0,1-.7-.352,1.992,1.992,0,0,1-.282-1.128,1.275,1.275,0,0,1,.282-.987.905.905,0,0,1,.7-.282,1.328,1.328,0,0,1,.564.141c.141.07.211.282.282.493l1.128-.211a1.675,1.675,0,0,0-.7-1.057,2.254,2.254,0,0,0-1.269-.352,1.968,1.968,0,0,0-1.551.634,2.82,2.82,0,0,0,0,3.384A1.874,1.874,0,0,0,98.944,452.123Z" transform="translate(-51.151 -378.741)"/>
        <path id="Caminho_7788" data-name="Caminho 7788" d="M103.782,451.154a1.794,1.794,0,0,0,.846.775,3.317,3.317,0,0,0,1.128.282,2.256,2.256,0,1,0,0-4.512,2.317,2.317,0,0,0-1.2.282,1.794,1.794,0,0,0-.775.846,2.955,2.955,0,0,0-.282,1.128A2.317,2.317,0,0,0,103.782,451.154Zm1.2-2.185a1.029,1.029,0,0,1,1.551,0,1.868,1.868,0,0,1,0,1.974,1.029,1.029,0,0,1-1.551,0,1.868,1.868,0,0,1,0-1.974Z" transform="translate(-53.098 -378.83)"/>
        <path id="Caminho_7789" data-name="Caminho 7789" d="M114.02,449.6a4.408,4.408,0,0,1-.07,1.2.94.94,0,0,1-.352.423.847.847,0,0,1-.564.141,1,1,0,0,1-.423-.141.388.388,0,0,1-.211-.352c0-.141-.07-.493-.07-1.128V447.7H111.2v2.749a3.674,3.674,0,0,0,.141.987.978.978,0,0,0,.493.564,1.421,1.421,0,0,0,.775.211,1.877,1.877,0,0,0,.846-.211,1.664,1.664,0,0,0,.634-.564v.634h1.057V447.7H114.02v1.9Z" transform="translate(-55.371 -378.83)"/>
        <path id="Caminho_7790" data-name="Caminho 7790" d="M122.236,448.093a1.264,1.264,0,0,0-.493-.353,2.087,2.087,0,0,0-.7-.141,1.943,1.943,0,0,0-1.48.775v-.634H118.5v4.371h1.128v-1.974a3.2,3.2,0,0,1,.071-.987c.07-.141.141-.353.352-.423a1.658,1.658,0,0,1,.564-.141,1,1,0,0,1,.423.141.388.388,0,0,1,.211.352c0,.141.07.423.07.916v2.256h1.128V449.5a2.411,2.411,0,0,0-.07-.775C122.307,448.516,122.307,448.234,122.236,448.093Z" transform="translate(-57.525 -378.8)"/>
        <path id="Caminho_7791" data-name="Caminho 7791" d="M127.244,450.675a.259.259,0,0,1-.211-.07c-.071-.071-.07-.071-.07-.141v-2.4h.775v-.916h-.775V445.6l-1.2.7v.846H125.2v.916h.564v1.9a2.433,2.433,0,0,0,.07.846.6.6,0,0,0,.141.423,1.537,1.537,0,0,0,.352.282,1.374,1.374,0,0,0,.564.07,3.571,3.571,0,0,0,.916-.141l-.07-.916C127.456,450.6,127.315,450.675,127.244,450.675Z" transform="translate(-59.502 -378.21)"/>
        <path id="Caminho_7792" data-name="Caminho 7792" d="M83.069,495.266h.775a6.109,6.109,0,0,0,1.269-.07,2.5,2.5,0,0,0,.634-.282,1.9,1.9,0,0,0,.493-.564,1.763,1.763,0,0,0,.211-.916,2.185,2.185,0,0,0-.352-1.2,1.159,1.159,0,0,0-.846-.564,6.952,6.952,0,0,0-1.48-.07H81.8v6.062H83v-2.4Zm0-2.749h.564a2.434,2.434,0,0,1,.846.07,1.136,1.136,0,0,1,.493.282.8.8,0,0,1,.211.564,1.019,1.019,0,0,1-.141.493.7.7,0,0,1-.352.282,3.2,3.2,0,0,1-.987.071h-.634Z" transform="translate(-46.695 -391.784)"/>
        <path id="Caminho_7793" data-name="Caminho 7793" d="M90.928,496.8a6.947,6.947,0,0,1,.07-1.48c.07-.211.141-.423.282-.493a1,1,0,0,1,.423-.141,1.125,1.125,0,0,1,.564.211l.352-.987a1.421,1.421,0,0,0-.775-.211,1.018,1.018,0,0,0-.493.141,2.1,2.1,0,0,0-.493.564v-.634H89.8v4.37h1.128Z" transform="translate(-49.056 -392.403)"/>
        <rect id="Retângulo_1522" data-name="Retângulo 1522" width="1.128" height="4.37" transform="translate(44.057 101.367)"/>
        <rect id="Retângulo_1523" data-name="Retângulo 1523" width="1.128" height="1.057" transform="translate(44.057 99.675)"/>
        <path id="Caminho_7794" data-name="Caminho 7794" d="M99.638,496.056c-.07.141-.07.282-.141.352a1.191,1.191,0,0,1-.141.352l-.211-.7L98.3,493.8H97.1l1.762,4.37H99.92l1.762-4.37h-1.2Z" transform="translate(-51.21 -392.433)"/>
        <path id="Caminho_7795" data-name="Caminho 7795" d="M106.99,497.759c.07.141.07.282.141.352h1.128a4.856,4.856,0,0,0-.211-.564,2.663,2.663,0,0,1-.07-.846v-1.339a3.434,3.434,0,0,0-.141-1.057c-.07-.211-.282-.352-.564-.493a2.471,2.471,0,0,0-1.128-.211,2.12,2.12,0,0,0-1.269.282,1.79,1.79,0,0,0-.634.916l1.057.211a.647.647,0,0,1,.282-.423,1.019,1.019,0,0,1,.493-.141,1.408,1.408,0,0,1,.634.141c.141.071.141.282.141.493v.141a5.03,5.03,0,0,1-1.128.282,2.343,2.343,0,0,0-.916.282,3.064,3.064,0,0,0-.493.423.984.984,0,0,0-.211.634,1.137,1.137,0,0,0,.423.916,1.731,1.731,0,0,0,1.057.352,2.085,2.085,0,0,0,.7-.141,1.664,1.664,0,0,0,.634-.423C106.92,497.689,106.92,497.689,106.99,497.759Zm-.141-1.551c0,.282,0,.493-.07.564a.7.7,0,0,1-.282.352,1.125,1.125,0,0,1-.564.211.64.64,0,0,1-.493-.211.529.529,0,0,1,0-.846,1.541,1.541,0,0,1,.634-.211,2.857,2.857,0,0,0,.7-.211v.352Z" transform="translate(-53.275 -392.374)"/>
        <path id="Caminho_7796" data-name="Caminho 7796" d="M113.579,497.025a.8.8,0,0,1-.564.211.868.868,0,0,1-.7-.352,1.992,1.992,0,0,1-.282-1.128,1.275,1.275,0,0,1,.282-.987.905.905,0,0,1,.7-.282,1.329,1.329,0,0,1,.564.141c.141.071.211.282.282.493l1.128-.211a1.675,1.675,0,0,0-.7-1.057,2.254,2.254,0,0,0-1.269-.353,1.968,1.968,0,0,0-1.551.634,2.82,2.82,0,0,0,0,3.384,1.968,1.968,0,0,0,1.551.634,1.949,1.949,0,0,0,2.044-1.621l-1.128-.211C113.79,496.672,113.72,496.954,113.579,497.025Z" transform="translate(-55.282 -392.344)"/>
        <path id="Caminho_7797" data-name="Caminho 7797" d="M119.426,496.872l-1.057-3.1H117.1l1.692,4.37a2.5,2.5,0,0,1-.282.634.585.585,0,0,1-.564.211,1.376,1.376,0,0,1-.493-.07l.07.916a1.951,1.951,0,0,0,.634.07,1.374,1.374,0,0,0,.564-.07,2.346,2.346,0,0,0,.423-.211l.352-.352a1.417,1.417,0,0,0,.282-.564l.282-.775,1.551-4.229h-1.2Z" transform="translate(-57.112 -392.403)"/>
        <path id="Caminho_7798" data-name="Caminho 7798" d="M85.748,540.19a1.244,1.244,0,0,0,.634-.564,1.607,1.607,0,0,0,.211-.775,1.191,1.191,0,0,0-.211-.7,1.647,1.647,0,0,0-.493-.493,2.5,2.5,0,0,0-.634-.282A4.052,4.052,0,0,0,84.2,537.3H81.8v6.062h2.044a6.946,6.946,0,0,0,1.48-.07,2.983,2.983,0,0,0,.846-.282.9.9,0,0,0,.493-.634,3.177,3.177,0,0,0,.211-.775,1.417,1.417,0,0,0-.282-.916A1.433,1.433,0,0,0,85.748,540.19Zm-2.679-1.833h1.762a.64.64,0,0,1,.493.211.518.518,0,0,1,.141.423.723.723,0,0,1-.7.7H83.069v-1.339Zm2.4,3.807a.609.609,0,0,1-.423.211c-.141,0-.423.07-.846.07H83.069v-1.621h.987a3.489,3.489,0,0,1,1.057.071.7.7,0,0,1,.352.282,1.019,1.019,0,0,1,.141.493A.467.467,0,0,1,85.466,542.164Z" transform="translate(-46.695 -405.269)"/>
        <rect id="Retângulo_1524" data-name="Retângulo 1524" width="1.128" height="6.062" transform="translate(41.238 132.102)"/>
        <path id="Caminho_7799" data-name="Caminho 7799" d="M95.756,539.6a2.316,2.316,0,0,0-1.2.282,1.794,1.794,0,0,0-.775.846,2.955,2.955,0,0,0-.282,1.128,2.414,2.414,0,0,0,.282,1.269,1.793,1.793,0,0,0,.846.775,3.319,3.319,0,0,0,1.128.282,2.294,2.294,0,0,0,1.621-3.877A2.3,2.3,0,0,0,95.756,539.6Zm.775,3.313a1.029,1.029,0,0,1-1.551,0,1.868,1.868,0,0,1,0-1.974,1.029,1.029,0,0,1,1.551,0,1.868,1.868,0,0,1,0,1.974Z" transform="translate(-50.148 -405.948)"/>
        <path id="Caminho_7800" data-name="Caminho 7800" d="M103.579,543.025a.8.8,0,0,1-.564.211.868.868,0,0,1-.7-.352,1.992,1.992,0,0,1-.282-1.128,1.276,1.276,0,0,1,.282-.987.9.9,0,0,1,.7-.282,1.328,1.328,0,0,1,.564.141c.141.07.211.282.282.493l1.128-.211a1.675,1.675,0,0,0-.7-1.057,2.254,2.254,0,0,0-1.269-.352,1.968,1.968,0,0,0-1.551.634,2.82,2.82,0,0,0,0,3.384,1.968,1.968,0,0,0,1.551.634,1.949,1.949,0,0,0,2.044-1.621l-1.128-.211C103.79,542.672,103.72,542.954,103.579,543.025Z" transform="translate(-52.331 -405.918)"/>
        <path id="Caminho_7801" data-name="Caminho 7801" d="M111.748,539.092h-1.41L109,540.643V537.4h-1.2v6.062H109v-1.41l.493-.564,1.128,1.974h1.269l-1.621-2.749Z" transform="translate(-54.367 -405.299)"/>
        <path id="Caminho_7802" data-name="Caminho 7802" d="M85.5,585.8H83.1v-2.4H81.9v6.062h1.2v-2.679h2.4v2.679h1.2V583.4H85.5Z" transform="translate(-46.725 -418.872)"/>
        <path id="Caminho_7803" data-name="Caminho 7803" d="M93.625,586.334a1.968,1.968,0,0,0-1.551-.634,1.775,1.775,0,0,0-1.41.634,2.572,2.572,0,0,0-.564,1.692,2.312,2.312,0,0,0,.423,1.48,1.956,1.956,0,0,0,1.692.776,2.016,2.016,0,0,0,1.2-.353,2.1,2.1,0,0,0,.7-.987l-1.128-.211a1.136,1.136,0,0,1-.282.493.6.6,0,0,1-.493.141.687.687,0,0,1-.634-.282,1.478,1.478,0,0,1-.282-.775h2.89A3,3,0,0,0,93.625,586.334ZM91.3,587.6a1.421,1.421,0,0,1,.211-.775.687.687,0,0,1,.634-.282.861.861,0,0,1,.634.282.963.963,0,0,1,.282.775Z" transform="translate(-49.144 -419.551)"/>
        <rect id="Retângulo_1525" data-name="Retângulo 1525" width="1.128" height="6.062" transform="translate(45.961 164.528)"/>
        <path id="Caminho_7804" data-name="Caminho 7804" d="M103,585.6a1.42,1.42,0,0,0-.775.211,1.443,1.443,0,0,0-.564.564v-.634H100.6V591.8h1.128v-2.185a1.942,1.942,0,0,0,.634.493,2.057,2.057,0,0,0,.634.141,1.6,1.6,0,0,0,1.269-.634,2.82,2.82,0,0,0,0-3.384A1.6,1.6,0,0,0,103,585.6Zm.352,3.384a.881.881,0,0,1-1.41,0,1.575,1.575,0,0,1-.282-1.057,1.378,1.378,0,0,1,.282-.987.881.881,0,0,1,1.41,0,1.463,1.463,0,0,1,.282,1.057A1.378,1.378,0,0,1,103.349,588.984Z" transform="translate(-52.243 -419.522)"/>
        <path id="Caminho_7805" data-name="Caminho 7805" d="M43.01,398.185l-1.692.352a4.922,4.922,0,0,0-1.692-.916L39.062,396h-1.41l-.564,1.621a3.976,3.976,0,0,0-1.692.916l-1.692-.352-.7,1.269,1.128,1.269c0,.282-.07.634-.07.916a4.019,4.019,0,0,0,.07.916L33,403.825l.7,1.269,1.692-.353a4.922,4.922,0,0,0,1.692.916l.564,1.621h1.41l.564-1.621a3.975,3.975,0,0,0,1.692-.916l1.692.353.7-1.269-1.128-1.269c0-.282.07-.634.07-.916a4.02,4.02,0,0,0-.07-.916l1.128-1.269Zm-4.723,4.864a1.41,1.41,0,1,1,1.41-1.41A1.414,1.414,0,0,1,38.287,403.049Z" transform="translate(-32.295 -363.574)"/>
        <path id="Caminho_7806" data-name="Caminho 7806" d="M41.754,490.82a2.82,2.82,0,1,0-5.639,0h-.7a1.414,1.414,0,0,0-1.41,1.41v5.639a1.414,1.414,0,0,0,1.41,1.41h7.049a1.414,1.414,0,0,0,1.41-1.41v-5.639a1.414,1.414,0,0,0-1.41-1.41Zm-2.82,5.639a1.41,1.41,0,1,1,1.41-1.41A1.414,1.414,0,0,1,38.934,496.459Zm-1.41-5.639a1.41,1.41,0,1,1,2.82,0Z" transform="translate(-32.59 -390.721)"/>
        <path id="Caminho_7807" data-name="Caminho 7807" d="M38.639,580a5.639,5.639,0,1,0,5.639,5.639A5.656,5.656,0,0,0,38.639,580Zm0,9.375h0a.8.8,0,0,1-.846-.775.775.775,0,1,1,1.551,0A.685.685,0,0,1,38.639,589.375Zm1.48-4.441-.634.7a.64.64,0,0,0-.211.493.706.706,0,0,1-.7.7.75.75,0,0,1-.7-.634v-.07a1.183,1.183,0,0,1,.423-.987l.493-.634a1.68,1.68,0,0,0,.423-.775.576.576,0,0,0-.564-.634h-.07a.7.7,0,0,0-.7.493.775.775,0,0,1-.7.423.576.576,0,0,1-.634-.564v-.071a.424.424,0,0,1,.07-.282,1.85,1.85,0,0,1,1.9-1.2,1.823,1.823,0,0,1,1.974,1.692v.141A1.251,1.251,0,0,1,40.12,584.934Z" transform="translate(-32.295 -417.869)"/>
      </g>
      <g id="Grupo_14309" data-name="Grupo 14309" transform="translate(11.279 25.377)">
        <path id="Caminho_7808" data-name="Caminho 7808" d="M158.093,41.113a8.084,8.084,0,0,0-1.551-.493,3.782,3.782,0,0,1-1.339-.493.609.609,0,0,1-.211-.423.426.426,0,0,1,.211-.423A1.824,1.824,0,0,1,156.19,39a1.6,1.6,0,0,1,.916.211,1.187,1.187,0,0,1,.423.775l1.41-.07a2.02,2.02,0,0,0-.7-1.551,3.134,3.134,0,0,0-1.974-.564,4.239,4.239,0,0,0-1.41.211,1.891,1.891,0,0,0-.916.7,1.618,1.618,0,0,0-.282.987,1.775,1.775,0,0,0,.634,1.41,3.909,3.909,0,0,0,1.621.7c.564.141.987.282,1.128.282a1.513,1.513,0,0,1,.493.282,1,1,0,0,1,.141.423.979.979,0,0,1-.352.7,1.463,1.463,0,0,1-1.057.282,1.732,1.732,0,0,1-1.057-.352,1.5,1.5,0,0,1-.493-1.057l-1.41.141a2.647,2.647,0,0,0,.846,1.833,3.084,3.084,0,0,0,2.044.634,3.393,3.393,0,0,0,1.551-.282,2.119,2.119,0,0,0,.987-.775,1.658,1.658,0,0,0,.352-1.128,1.922,1.922,0,0,0-.282-1.128A1.526,1.526,0,0,0,158.093,41.113Z" transform="translate(-56.515 -36.531)" fill="#fff"/>
        <path id="Caminho_7809" data-name="Caminho 7809" d="M164.81,41.948h3.525v-1.2H164.81V39.2h3.807V38H163.4v7.049h5.357v-1.2H164.81Z" transform="translate(-59.495 -36.59)" fill="#fff"/>
        <path id="Caminho_7810" data-name="Caminho 7810" d="M172,39.2h2.044v5.851h1.48V39.2h2.044V38H172Z" transform="translate(-62.033 -36.59)" fill="#fff"/>
        <path id="Caminho_7811" data-name="Caminho 7811" d="M180.5,39.2h2.115v5.851h1.41V39.2h2.115V38H180.5Z" transform="translate(-64.541 -36.59)" fill="#fff"/>
        <rect id="Retângulo_1526" data-name="Retângulo 1526" width="1.41" height="7.049" transform="translate(122.444 1.41)" fill="#fff"/>
        <path id="Caminho_7812" data-name="Caminho 7812" d="M198,42.723,195.11,38H193.7v7.049h1.339V40.467l2.82,4.582h1.48V38H198Z" transform="translate(-68.436 -36.59)" fill="#fff"/>
        <path id="Caminho_7813" data-name="Caminho 7813" d="M207,42.352h1.621v.916a7.688,7.688,0,0,1-.775.423,2.082,2.082,0,0,1-.916.141,1.92,1.92,0,0,1-1.48-.634,2.917,2.917,0,0,1-.564-1.9,2.638,2.638,0,0,1,.564-1.762,1.776,1.776,0,0,1,1.48-.564,1.7,1.7,0,0,1,1.057.282,1.4,1.4,0,0,1,.564.846l1.41-.282a2.818,2.818,0,0,0-.987-1.551,3.514,3.514,0,0,0-2.044-.564,3.775,3.775,0,0,0-1.692.352,3.074,3.074,0,0,0-1.339,1.339,4.3,4.3,0,0,0-.493,1.974,4.2,4.2,0,0,0,.423,1.9,3.305,3.305,0,0,0,1.269,1.339,4.235,4.235,0,0,0,1.9.493,4.845,4.845,0,0,0,1.692-.352,3.559,3.559,0,0,0,1.269-.775v-2.82h-3.1v1.2Z" transform="translate(-71.299 -36.502)" fill="#fff"/>
        <path id="Caminho_7814" data-name="Caminho 7814" d="M218.793,41.113a8.085,8.085,0,0,0-1.551-.493,3.781,3.781,0,0,1-1.339-.493.609.609,0,0,1-.211-.423.426.426,0,0,1,.211-.423A1.824,1.824,0,0,1,216.89,39a1.6,1.6,0,0,1,.916.211,1.187,1.187,0,0,1,.423.775l1.41-.07a2.02,2.02,0,0,0-.7-1.551,3.134,3.134,0,0,0-1.974-.564,4.239,4.239,0,0,0-1.41.211,2.29,2.29,0,0,0-.916.7,1.618,1.618,0,0,0-.282.987,1.775,1.775,0,0,0,.634,1.41,3.909,3.909,0,0,0,1.621.7c.564.141.987.282,1.128.282a1.513,1.513,0,0,1,.493.282,1,1,0,0,1,.141.423.979.979,0,0,1-.352.7,1.463,1.463,0,0,1-1.057.282,1.731,1.731,0,0,1-1.057-.352,1.5,1.5,0,0,1-.493-1.057l-1.41.141a2.647,2.647,0,0,0,.846,1.833,3.084,3.084,0,0,0,2.044.634,3.392,3.392,0,0,0,1.551-.282,2.055,2.055,0,0,0,1.339-1.9,1.922,1.922,0,0,0-.282-1.128A1.526,1.526,0,0,0,218.793,41.113Z" transform="translate(-74.426 -36.531)" fill="#fff"/>
        <rect id="Retângulo_1527" data-name="Retângulo 1527" width="11.279" height="1.41" transform="translate(0 4.934)" fill="#fff"/>
        <rect id="Retângulo_1528" data-name="Retângulo 1528" width="5.639" height="1.41" transform="translate(0 9.164)" fill="#fff"/>
        <rect id="Retângulo_1529" data-name="Retângulo 1529" width="11.279" height="1.41" transform="translate(0 0.705)" fill="#fff"/>
        <path id="Caminho_7815" data-name="Caminho 7815" d="M351.882,43.9A4.935,4.935,0,0,0,348,36h-.07A4.935,4.935,0,0,0,343,40.864v.07a4.935,4.935,0,0,0,4.864,4.934h.07a4.98,4.98,0,0,0,2.961-.987l2.326,2.326.987-.987Zm-.423-2.961A3.521,3.521,0,0,1,348,44.459h-.07A3.521,3.521,0,0,1,344.41,41v-.07a3.521,3.521,0,0,1,3.454-3.525h.07a3.535,3.535,0,0,1,3.525,3.525Z" transform="translate(-112.492 -36)" fill="#fff"/>
      </g>
    </g>
    <g id="mobile2" transform="translate(687 2018)">
      <rect id="Retângulo_1530" data-name="Retângulo 1530" width="263.781" height="469.179" fill="#fff"/>
      <path id="Caminho_7817" data-name="Caminho 7817" d="M28.1,500h-.844v-5.487a2.529,2.529,0,0,1-.844.563,9.783,9.783,0,0,1-.914.422v-.844a3.991,3.991,0,0,0,1.266-.844,4.1,4.1,0,0,0,.774-.914H28.1V500Z" transform="translate(-7.563 -146.186)"/>
      <path id="Caminho_7818" data-name="Caminho 7818" d="M36.932,494.659l-.844.07a1.978,1.978,0,0,0-.352-.774.947.947,0,0,0-.844-.352,1.188,1.188,0,0,0-.7.211,1.92,1.92,0,0,0-.633.844,4.722,4.722,0,0,0-.211,1.618,1.822,1.822,0,0,1,.774-.7,2.166,2.166,0,0,1,.914-.211,2.024,2.024,0,0,1,1.477.633,2.228,2.228,0,0,1,.633,1.618,2.759,2.759,0,0,1-.281,1.266,1.818,1.818,0,0,1-.774.844,2.949,2.949,0,0,1-1.125.281,2.286,2.286,0,0,1-1.759-.774,4.261,4.261,0,0,1-.7-2.6,4.789,4.789,0,0,1,.774-2.954,2.076,2.076,0,0,1,1.759-.774,1.751,1.751,0,0,1,1.336.492A2.1,2.1,0,0,1,36.932,494.659Zm-3.587,3.1a1.873,1.873,0,0,0,.211.844,1.241,1.241,0,0,0,.563.633,1.357,1.357,0,0,0,.7.211,1.134,1.134,0,0,0,.914-.422,2.031,2.031,0,0,0,.422-1.2,1.485,1.485,0,0,0-.422-1.125,1.36,1.36,0,0,0-1.97,0A1.235,1.235,0,0,0,33.344,497.754Z" transform="translate(-9.639 -146.186)"/>
      <path id="Caminho_7819" data-name="Caminho 7819" d="M39.7,500.835l1.9-2.673L39.841,495.7H40.9l.774,1.2a6.492,6.492,0,0,1,.352.563,3.9,3.9,0,0,1,.422-.563l.844-1.2h1.055l-1.759,2.392,1.9,2.673H43.428l-1.055-1.618-.281-.422-1.336,2.04H39.7Z" transform="translate(-11.774 -147.016)"/>
      <path id="Caminho_7820" data-name="Caminho 7820" d="M50.7,500h-.844v-5.487a2.529,2.529,0,0,1-.844.563,9.783,9.783,0,0,1-.914.422v-.844a3.991,3.991,0,0,0,1.266-.844,4.1,4.1,0,0,0,.774-.914H50.7Z" transform="translate(-14.266 -146.186)"/>
      <path id="Caminho_7821" data-name="Caminho 7821" d="M59.432,494.659l-.844.07a1.978,1.978,0,0,0-.352-.774.947.947,0,0,0-.844-.352,1.188,1.188,0,0,0-.7.211,1.92,1.92,0,0,0-.633.844,4.722,4.722,0,0,0-.211,1.618,1.822,1.822,0,0,1,.774-.7,2.166,2.166,0,0,1,.914-.211,2.024,2.024,0,0,1,1.477.633,2.228,2.228,0,0,1,.633,1.618,2.759,2.759,0,0,1-.281,1.266,1.818,1.818,0,0,1-.774.844,2.949,2.949,0,0,1-1.125.281,2.286,2.286,0,0,1-1.759-.774,4.261,4.261,0,0,1-.7-2.6,4.789,4.789,0,0,1,.774-2.954,2.076,2.076,0,0,1,1.759-.774,1.751,1.751,0,0,1,1.336.492A2.1,2.1,0,0,1,59.432,494.659Zm-3.517,3.1a1.873,1.873,0,0,0,.211.844,1.241,1.241,0,0,0,.563.633,1.357,1.357,0,0,0,.7.211,1.134,1.134,0,0,0,.914-.422,2.031,2.031,0,0,0,.422-1.2,1.485,1.485,0,0,0-.422-1.125,1.36,1.36,0,0,0-1.97,0A1.235,1.235,0,0,0,55.914,497.754Z" transform="translate(-16.312 -146.186)"/>
      <path id="Caminho_7822" data-name="Caminho 7822" d="M131.627,434l-2.321,2.321L126.985,434l-.985.985,3.306,3.306,3.306-3.306Z" transform="translate(-37.369 -128.717)"/>
      <path id="Caminho_7823" data-name="Caminho 7823" d="M92,437.306l.985.985,2.321-2.321,2.321,2.321.985-.985L95.306,434Z" transform="translate(-27.286 -128.717)"/>
      <path id="Caminho_7824" data-name="Caminho 7824" d="M60,432.985l2.321,2.321L60,437.627l.985.985,3.306-3.306L60.985,432Z" transform="translate(-17.795 -128.124)"/>
      <path id="Caminho_7825" data-name="Caminho 7825" d="M29.306,432,26,435.306l3.306,3.306.985-.985-2.321-2.321,2.321-2.321Z" transform="translate(-7.711 -128.124)"/>
      <path id="Caminho_7826" data-name="Caminho 7826" d="M28.1,402h-.844v-5.487a2.529,2.529,0,0,1-.844.563,9.8,9.8,0,0,1-.914.422v-.844a3.992,3.992,0,0,0,1.266-.844,4.1,4.1,0,0,0,.774-.914H28.1V402Z" transform="translate(-7.563 -117.121)"/>
      <path id="Caminho_7827" data-name="Caminho 7827" d="M32.4,398.558a5.711,5.711,0,0,1,.281-2.04,2.37,2.37,0,0,1,.774-1.2,1.964,1.964,0,0,1,1.266-.422,2.247,2.247,0,0,1,.985.211,2,2,0,0,1,.7.633,2.382,2.382,0,0,1,.422,1.055,5.8,5.8,0,0,1,.141,1.688,5.078,5.078,0,0,1-.281,1.97,2.37,2.37,0,0,1-.774,1.2,2.168,2.168,0,0,1-2.884-.281A4.891,4.891,0,0,1,32.4,398.558Zm.844,0a4.5,4.5,0,0,0,.422,2.321,1.143,1.143,0,0,0,1.97,0,4.161,4.161,0,0,0,.422-2.321,4.5,4.5,0,0,0-.422-2.321,1.184,1.184,0,0,0-1.97-.07A4.63,4.63,0,0,0,33.244,398.558Z" transform="translate(-9.609 -117.121)"/>
      <path id="Caminho_7828" data-name="Caminho 7828" d="M39.7,402.835l1.9-2.673L39.841,397.7H40.9l.774,1.2a6.488,6.488,0,0,1,.352.563,3.9,3.9,0,0,1,.422-.563l.844-1.2h1.055l-1.759,2.392,1.9,2.673H43.428l-1.055-1.618-.281-.422-1.336,2.04H39.7Z" transform="translate(-11.774 -117.951)"/>
      <path id="Caminho_7829" data-name="Caminho 7829" d="M50.7,402h-.844v-5.487a2.529,2.529,0,0,1-.844.563,9.8,9.8,0,0,1-.914.422v-.844a3.992,3.992,0,0,0,1.266-.844,4.1,4.1,0,0,0,.774-.914H50.7Z" transform="translate(-14.266 -117.121)"/>
      <path id="Caminho_7830" data-name="Caminho 7830" d="M54.9,398.558a5.711,5.711,0,0,1,.281-2.04,2.37,2.37,0,0,1,.774-1.2,1.964,1.964,0,0,1,1.266-.422,2.247,2.247,0,0,1,.985.211,2,2,0,0,1,.7.633,2.382,2.382,0,0,1,.422,1.055,5.8,5.8,0,0,1,.141,1.688,5.078,5.078,0,0,1-.281,1.97,2.37,2.37,0,0,1-.774,1.2,2.168,2.168,0,0,1-2.884-.281A5.53,5.53,0,0,1,54.9,398.558Zm.914,0a4.5,4.5,0,0,0,.422,2.321,1.143,1.143,0,0,0,1.97,0,4.161,4.161,0,0,0,.422-2.321,4.5,4.5,0,0,0-.422-2.321,1.184,1.184,0,0,0-1.97-.07A4.63,4.63,0,0,0,55.814,398.558Z" transform="translate(-16.282 -117.121)"/>
      <path id="Caminho_7831" data-name="Caminho 7831" d="M28.1,98h-.844V92.518a2.529,2.529,0,0,1-.844.563,9.79,9.79,0,0,1-.914.422v-.844a3.992,3.992,0,0,0,1.266-.844,4.1,4.1,0,0,0,.774-.914H28.1V98Z" transform="translate(-7.563 -26.959)"/>
      <path id="Caminho_7832" data-name="Caminho 7832" d="M36.932,92.659l-.844.07a1.978,1.978,0,0,0-.352-.774.947.947,0,0,0-.844-.352,1.188,1.188,0,0,0-.7.211,1.92,1.92,0,0,0-.633.844,4.722,4.722,0,0,0-.211,1.618,1.822,1.822,0,0,1,.774-.7,2.166,2.166,0,0,1,.914-.211A2.024,2.024,0,0,1,36.509,94a2.228,2.228,0,0,1,.633,1.618,2.759,2.759,0,0,1-.281,1.266,1.818,1.818,0,0,1-.774.844A2.949,2.949,0,0,1,34.962,98a2.286,2.286,0,0,1-1.759-.774,4.261,4.261,0,0,1-.7-2.6,4.789,4.789,0,0,1,.774-2.954,2.076,2.076,0,0,1,1.759-.774,1.751,1.751,0,0,1,1.336.492A2.1,2.1,0,0,1,36.932,92.659Zm-3.587,3.1a1.873,1.873,0,0,0,.211.844,1.241,1.241,0,0,0,.563.633,1.357,1.357,0,0,0,.7.211,1.134,1.134,0,0,0,.914-.422,2.03,2.03,0,0,0,.422-1.2,1.485,1.485,0,0,0-.422-1.125,1.36,1.36,0,0,0-1.97,0A1.234,1.234,0,0,0,33.344,95.754Z" transform="translate(-9.639 -26.959)"/>
      <path id="Caminho_7833" data-name="Caminho 7833" d="M39.7,98.835l1.9-2.673L39.841,93.7H40.9l.774,1.2a6.488,6.488,0,0,1,.352.563,3.9,3.9,0,0,1,.422-.563l.844-1.2h1.055l-1.759,2.392,1.9,2.673H43.428l-1.055-1.618-.281-.422-1.336,2.04H39.7Z" transform="translate(-11.774 -27.79)"/>
      <path id="Caminho_7834" data-name="Caminho 7834" d="M50.7,98h-.844V92.518a2.529,2.529,0,0,1-.844.563,9.79,9.79,0,0,1-.914.422v-.844a3.992,3.992,0,0,0,1.266-.844,4.1,4.1,0,0,0,.774-.914H50.7Z" transform="translate(-14.266 -26.959)"/>
      <path id="Caminho_7835" data-name="Caminho 7835" d="M59.432,92.659l-.844.07a1.978,1.978,0,0,0-.352-.774.947.947,0,0,0-.844-.352,1.188,1.188,0,0,0-.7.211,1.92,1.92,0,0,0-.633.844,4.722,4.722,0,0,0-.211,1.618,1.823,1.823,0,0,1,.774-.7,2.166,2.166,0,0,1,.914-.211A2.025,2.025,0,0,1,59.009,94a2.228,2.228,0,0,1,.633,1.618,2.759,2.759,0,0,1-.281,1.266,1.818,1.818,0,0,1-.774.844A2.949,2.949,0,0,1,57.462,98a2.286,2.286,0,0,1-1.759-.774,4.261,4.261,0,0,1-.7-2.6,4.789,4.789,0,0,1,.774-2.954,2.076,2.076,0,0,1,1.759-.774,1.751,1.751,0,0,1,1.336.492A2.1,2.1,0,0,1,59.432,92.659Zm-3.517,3.1a1.873,1.873,0,0,0,.211.844,1.241,1.241,0,0,0,.563.633,1.357,1.357,0,0,0,.7.211,1.134,1.134,0,0,0,.914-.422,2.031,2.031,0,0,0,.422-1.2,1.485,1.485,0,0,0-.422-1.125,1.36,1.36,0,0,0-1.97,0A1.234,1.234,0,0,0,55.914,95.754Z" transform="translate(-16.312 -26.959)"/>
      <path id="Caminho_7836" data-name="Caminho 7836" d="M25.3,34.034V27h.914v7.034Z" transform="translate(-7.504 -8.008)"/>
      <path id="Caminho_7837" data-name="Caminho 7837" d="M31.987,32.906l.844.141a2.446,2.446,0,0,1-.7,1.407,1.916,1.916,0,0,1-1.407.492,2.085,2.085,0,0,1-1.688-.7,2.762,2.762,0,0,1-.633-1.97,3.263,3.263,0,0,1,.281-1.477,2.138,2.138,0,0,1,.844-.914,2.312,2.312,0,0,1,1.2-.281,2.028,2.028,0,0,1,1.336.422,2.272,2.272,0,0,1,.7,1.2l-.844.141a1.184,1.184,0,0,0-.422-.774,1.25,1.25,0,0,0-.7-.281,1.266,1.266,0,0,0-1.055.492,2.059,2.059,0,0,0-.422,1.477,2.059,2.059,0,0,0,.422,1.477,1.5,1.5,0,0,0,1.055.492,1.121,1.121,0,0,0,.844-.281A1.456,1.456,0,0,0,31.987,32.906Z" transform="translate(-8.423 -8.779)"/>
      <path id="Caminho_7838" data-name="Caminho 7838" d="M35.4,32.273a2.871,2.871,0,0,1,.774-2.11,2.508,2.508,0,0,1,1.618-.563,2.085,2.085,0,0,1,1.688.7,2.858,2.858,0,0,1,.7,1.9A3.2,3.2,0,0,1,39.9,33.75a1.955,1.955,0,0,1-.844.844,3.36,3.36,0,0,1-1.266.281,2.333,2.333,0,0,1-1.759-.7A2.409,2.409,0,0,1,35.4,32.273Zm.844,0a2.308,2.308,0,0,0,.422,1.477,1.377,1.377,0,0,0,2.11,0,2.308,2.308,0,0,0,.422-1.477,1.979,1.979,0,0,0-.422-1.407,1.377,1.377,0,0,0-2.11,0A1.979,1.979,0,0,0,36.244,32.273Z" transform="translate(-10.499 -8.779)"/>
      <path id="Caminho_7839" data-name="Caminho 7839" d="M43.6,34.776V29.641h.774v.7a1.8,1.8,0,0,1,1.618-.844,3.531,3.531,0,0,1,.844.141,1.942,1.942,0,0,1,.563.422,1.738,1.738,0,0,1,.281.633c0,.141.07.422.07.844v3.236h-.844v-3.1a2.188,2.188,0,0,0-.07-.774,1.865,1.865,0,0,0-.352-.422,1.4,1.4,0,0,0-.633-.141,1.379,1.379,0,0,0-1.407,1.688v2.814H43.6Z" transform="translate(-12.931 -8.749)"/>
      <path id="Caminho_7840" data-name="Caminho 7840" d="M50.9,33.228l.844-.141a1.184,1.184,0,0,0,.422.774,1.566,1.566,0,0,0,.914.281A1.6,1.6,0,0,0,54,33.932a.64.64,0,0,0,.281-.563A.531.531,0,0,0,54,32.876a7.778,7.778,0,0,0-.914-.281,6,6,0,0,1-1.336-.422,1.9,1.9,0,0,1-.563-.492,1.188,1.188,0,0,1-.211-.7,2.054,2.054,0,0,1,.141-.633.946.946,0,0,1,.422-.492,4.177,4.177,0,0,1,.563-.281,2.637,2.637,0,0,1,.774-.07,4.257,4.257,0,0,1,1.055.141,1.608,1.608,0,0,1,.7.492,2.52,2.52,0,0,1,.281.774l-.844.141a.947.947,0,0,0-.352-.633,1.264,1.264,0,0,0-.774-.211,1.222,1.222,0,0,0-.844.211.712.712,0,0,0-.281.492.365.365,0,0,0,.141.281,1.537,1.537,0,0,0,.352.211,7.72,7.72,0,0,0,.774.211,4.251,4.251,0,0,1,1.266.422,1.693,1.693,0,0,1,.563.422,1.131,1.131,0,0,1,.211.774,1.352,1.352,0,0,1-.281.844,1.4,1.4,0,0,1-.7.563,2.823,2.823,0,0,1-1.055.211,2.527,2.527,0,0,1-1.548-.422A1.67,1.67,0,0,1,50.9,33.228Z" transform="translate(-15.096 -8.749)"/>
      <g id="Grupo_14310" data-name="Grupo 14310" transform="translate(16.882 372.811)">
        <path id="Caminho_7841" data-name="Caminho 7841" d="M304.848,572.814h-1.407a2.814,2.814,0,0,0-5.627,0h-1.407a.748.748,0,0,0-.7.633l-.7,7.034a.8.8,0,0,0,.211.563.639.639,0,0,0,.492.211h9.848a.639.639,0,0,0,.492-.211.8.8,0,0,0,.211-.563l-.7-7.034A.748.748,0,0,0,304.848,572.814Zm-5.627,2.181a.694.694,0,0,1-.7.633h-.07a.694.694,0,0,1-.633-.7v-.07a.694.694,0,0,1,.7-.633h.07a.694.694,0,0,1,.633.7Zm1.407-3.587a1.411,1.411,0,0,1,1.407,1.407H299.22A1.411,1.411,0,0,1,300.627,571.407Zm2.814,3.587a.694.694,0,0,1-.7.633h-.07a.694.694,0,0,1-.633-.7v-.07a.694.694,0,0,1,.7-.633h.07a.694.694,0,0,1,.633.7Z" transform="translate(-104.374 -541.863)" fill-rule="evenodd"/>
        <path id="Caminho_7842" data-name="Caminho 7842" d="M305.984,533c-.07,0-.211,0-.211.07l-2.462,2.462v-1.759a.8.8,0,0,0-.211-.563.639.639,0,0,0-.492-.211h-7.034a.847.847,0,0,0-.774.774V539.4c0,.211.07.281.281.492a.639.639,0,0,0,.492.211h6.964a.8.8,0,0,0,.563-.211c.07-.211.211-.281.211-.492v-1.759l2.321,2.321c.07.07.07.07.211.07h.07a.225.225,0,0,0,.211-.211v-6.542C306.2,533.07,306.125,533.07,305.984,533Z" transform="translate(-104.315 -530.89)" fill-rule="evenodd"/>
        <path id="Caminho_7843" data-name="Caminho 7843" d="M267.944,572.211a.639.639,0,0,0-.492-.211h-9.777a.847.847,0,0,0-.774.774v6.964a.726.726,0,0,0,.774.774h9.777a.8.8,0,0,0,.563-.211.638.638,0,0,0,.211-.492v-7.034A.64.64,0,0,0,267.944,572.211Zm-9.285,1.477a1.2,1.2,0,1,1-.281.774A1.058,1.058,0,0,1,258.659,573.688Zm-.281,5.346,1.407-2.181,1.688,1.2L264,574.743l2.814,4.221h-8.441Z" transform="translate(-93.074 -542.456)" fill-rule="evenodd"/>
        <path id="Caminho_7844" data-name="Caminho 7844" d="M261.854,539.848h0a5.023,5.023,0,0,0,3.025-.985l2.181,2.181a.7.7,0,0,0,.985-.985l-2.181-2.181A4.924,4.924,0,0,0,261.994,530h-.07A4.924,4.924,0,0,0,257,534.854v.07A4.924,4.924,0,0,0,261.854,539.848Zm-3.447-4.924a3.513,3.513,0,0,1,3.447-3.517h.07a3.513,3.513,0,0,1,3.517,3.447v.07a3.513,3.513,0,0,1-3.447,3.517h-.07a3.527,3.527,0,0,1-3.517-3.517Z" transform="translate(-93.104 -530)" fill-rule="evenodd"/>
        <circle id="Elipse_281" data-name="Elipse 281" cx="1.055" cy="1.055" r="1.055" transform="translate(141.387 61.197)"/>
        <circle id="Elipse_282" data-name="Elipse 282" cx="1.055" cy="1.055" r="1.055" transform="translate(141.387 56.977)"/>
        <circle id="Elipse_283" data-name="Elipse 283" cx="1.055" cy="1.055" r="1.055" transform="translate(141.387 65.418)"/>
        <path id="Caminho_7845" data-name="Caminho 7845" d="M220.344,571.425a4.8,4.8,0,0,0,0,6.612l3.306,3.306,3.306-3.306a4.715,4.715,0,0,0,0-6.542A4.609,4.609,0,0,0,220.344,571.425Zm3.306,5.276a2.005,2.005,0,0,1,0-4.01,2.005,2.005,0,0,1,0,4.01Z" transform="translate(-81.841 -541.882)" fill-rule="evenodd"/>
        <path id="Caminho_7846" data-name="Caminho 7846" d="M225.753,540.059H220.2V531.2h5.557V530H219v11.255h6.753Z" transform="translate(-81.834 -530)" fill-rule="evenodd"/>
        <path id="Caminho_7847" data-name="Caminho 7847" d="M225.573,533.814l2.251,2.11H222.9v1.266h4.783l-2.11,2.11.914.844L230,536.417l-3.517-3.517Z" transform="translate(-82.99 -530.86)" fill-rule="evenodd"/>
        <path id="Caminho_7848" data-name="Caminho 7848" d="M183.759,612.221v1.829H182v1.97h1.759v5.135h2.04V616.02h1.759l.281-1.97h-1.97v-1.266c0-.563.211-.985.985-.985h1.055V609.97c-.281,0-.844-.07-1.548-.07A2.5,2.5,0,0,0,183.759,612.221Z" transform="translate(-70.86 -553.697)" fill-rule="evenodd"/>
        <path id="Caminho_7849" data-name="Caminho 7849" d="M188.989,572.181l-1.688.352a4.912,4.912,0,0,0-1.688-.914L185.049,570h-1.407l-.563,1.618a3.967,3.967,0,0,0-1.688.914l-1.688-.352-.7,1.266,1.125,1.266c0,.281-.07.633-.07.914a4.009,4.009,0,0,0,.07.914L179,577.808l.7,1.266,1.688-.352a4.911,4.911,0,0,0,1.688.914l.563,1.618h1.407l.563-1.618a3.967,3.967,0,0,0,1.688-.914l1.688.352.7-1.266-1.125-1.266c0-.281.07-.633.07-.914a4.011,4.011,0,0,0-.07-.914l1.125-1.266Zm-4.713,4.854a1.407,1.407,0,1,1,1.407-1.407A1.411,1.411,0,0,1,184.276,577.034Z" transform="translate(-69.97 -541.863)" fill-rule="evenodd"/>
        <path id="Caminho_7850" data-name="Caminho 7850" d="M182.924,532.743v8.511h1.407v-8.511l3.869,3.939,1.055-1.055L183.627,530,178,535.627l1.055,1.055Z" transform="translate(-69.674 -530)" fill-rule="evenodd"/>
        <path id="Caminho_7851" data-name="Caminho 7851" d="M151,611.211a4.912,4.912,0,0,1-1.407.563,2.247,2.247,0,0,0-1.688-.774,2.342,2.342,0,0,0-2.321,2.321,1.2,1.2,0,0,0,.07.492,6.55,6.55,0,0,1-4.783-2.462,2.312,2.312,0,0,0-.281,1.2,2.465,2.465,0,0,0,.985,1.97,2.608,2.608,0,0,1-1.055-.281,2.266,2.266,0,0,0,1.9,2.251,1.948,1.948,0,0,1-.633.07.893.893,0,0,1-.422-.07,2.347,2.347,0,0,0,2.181,1.618,4.764,4.764,0,0,1-2.884.985,1.549,1.549,0,0,1-.563-.07,5.883,5.883,0,0,0,3.587,1.125,6.515,6.515,0,0,0,6.542-6.471v-.422a4.557,4.557,0,0,0,1.125-1.2,4.163,4.163,0,0,1-1.336.352A2.748,2.748,0,0,0,151,611.211Z" transform="translate(-58.433 -554.023)" fill-rule="evenodd"/>
        <rect id="Retângulo_1531" data-name="Retângulo 1531" width="3.517" height="3.517" transform="translate(81.596 28.137)"/>
        <rect id="Retângulo_1532" data-name="Retângulo 1532" width="11.255" height="3.517" transform="translate(81.596 33.061)"/>
        <rect id="Retângulo_1533" data-name="Retângulo 1533" width="11.255" height="1.407" transform="translate(81.596 37.985)"/>
        <rect id="Retângulo_1534" data-name="Retângulo 1534" width="6.331" height="3.517" transform="translate(86.52 28.137)"/>
        <path id="Caminho_7852" data-name="Caminho 7852" d="M146.331,538.511V530h-1.407v8.511l-3.869-3.939L140,535.627l5.627,5.627,5.627-5.627-1.055-1.055Z" transform="translate(-58.404 -530)" fill-rule="evenodd"/>
        <path id="Caminho_7853" data-name="Caminho 7853" d="M107.784,613.9a2.837,2.837,0,0,0-2.884,2.814v.07a2.884,2.884,0,1,0,2.884-2.884Zm1.9,2.884a1.923,1.923,0,0,1-1.829,1.9h-.07a1.923,1.923,0,0,1-1.9-1.829v-.07a1.923,1.923,0,0,1,1.829-1.9h.07a1.987,1.987,0,0,1,1.9,1.9Z" transform="translate(-47.994 -554.883)" fill-rule="evenodd"/>
        <path id="Caminho_7854" data-name="Caminho 7854" d="M113,612.8a.7.7,0,1,0,.7.7A.754.754,0,0,0,113,612.8Z" transform="translate(-50.188 -554.557)" fill-rule="evenodd"/>
        <path id="Caminho_7855" data-name="Caminho 7855" d="M111.944,611.97a2.756,2.756,0,0,0-1.618-1.618,4.548,4.548,0,0,0-1.407-.281c-.774-.07-1.548-.07-2.321-.07s-1.548,0-2.321.07a3.353,3.353,0,0,0-1.407.281,2.756,2.756,0,0,0-1.618,1.618,3.149,3.149,0,0,0-.281,1.407c-.07.774-.07,1.548-.07,2.321s0,1.548.07,2.321a3.353,3.353,0,0,0,.281,1.407,2.756,2.756,0,0,0,1.618,1.618,4.548,4.548,0,0,0,1.407.281c.774.07,1.548.07,2.321.07s1.548,0,2.321-.07a3.353,3.353,0,0,0,1.407-.281,2.637,2.637,0,0,0,1.618-1.618,4.548,4.548,0,0,0,.281-1.407c0-.633.07-.844.07-2.321,0-.774,0-1.548-.07-2.321A7.094,7.094,0,0,0,111.944,611.97Zm-.774,5.909a2.822,2.822,0,0,1-.211,1.055,1.94,1.94,0,0,1-1.055,1.055,2.822,2.822,0,0,1-1.055.211c-.563,0-.774.07-2.251.07-.774,0-1.477,0-2.251-.07a2.822,2.822,0,0,1-1.055-.211,1.94,1.94,0,0,1-1.055-1.055,2.822,2.822,0,0,1-.211-1.055c0-.563-.07-.774-.07-2.251,0-.774,0-1.477.07-2.251a2.823,2.823,0,0,1,.211-1.055l.422-.633a1.024,1.024,0,0,1,.633-.422,2.822,2.822,0,0,1,1.055-.211c.774-.07,1.477-.07,2.251-.07s1.477,0,2.251.07a2.822,2.822,0,0,1,1.055.211,1.94,1.94,0,0,1,1.055,1.055,2.823,2.823,0,0,1,.211,1.055c0,.563.07.774.07,2.251C111.24,616.4,111.24,617.1,111.17,617.878Z" transform="translate(-46.807 -553.727)" fill-rule="evenodd"/>
        <path id="Caminho_7856" data-name="Caminho 7856" d="M102.407,580.441h8.441a1.411,1.411,0,0,0,1.407-1.407v-5.627A1.411,1.411,0,0,0,110.848,572h-8.441A1.411,1.411,0,0,0,101,573.407v5.627A1.411,1.411,0,0,0,102.407,580.441Zm8.441-7.034-4.22,3.517-4.221-3.517Z" transform="translate(-46.837 -542.456)" fill-rule="evenodd"/>
        <path id="Caminho_7857" data-name="Caminho 7857" d="M105.572,540.2l1.055,1.055,5.627-5.627L106.627,530l-1.055,1.055,3.939,3.869H101v1.407h8.511Z" transform="translate(-46.837 -530)" fill-rule="evenodd"/>
        <path id="Caminho_7858" data-name="Caminho 7858" d="M68.625,610A5.77,5.77,0,0,0,63,615.625a5.6,5.6,0,0,0,1.688,3.939,5.44,5.44,0,0,0,7.878,0A5.628,5.628,0,0,0,68.625,610Zm2.181,9.285a2.264,2.264,0,0,1-1.407.844c-.07,0-.07,0-.211-.07-.07-.07-.07-.07-.07-.211v-1.688a1.4,1.4,0,0,1-.844-.563.916.916,0,0,1-.352-.914v-.352a2.286,2.286,0,0,1-1.759-.774,2.473,2.473,0,0,1,.07-3.658,4.85,4.85,0,0,1,2.462-.774,1.6,1.6,0,0,1,.774.211.225.225,0,0,1,.211.211,3.021,3.021,0,0,1-.492,1.759,1.471,1.471,0,0,1,.492.914.527.527,0,0,1-.07.352c-.141.07-.211.141-.352.07a.643.643,0,0,1-.352-.211.712.712,0,0,0-.492-.281.845.845,0,0,0-.563.563.686.686,0,0,0,.281.633,3.712,3.712,0,0,0,.844.211h.914a1.5,1.5,0,0,1,1.2.563,1.66,1.66,0,0,1,.492,1.125A7.706,7.706,0,0,1,70.806,619.283Z" transform="translate(-35.565 -553.724)" fill-rule="evenodd"/>
        <path id="Caminho_7859" data-name="Caminho 7859" d="M68.546,570a4.233,4.233,0,0,0-4.22,4.221v2.11a2.832,2.832,0,0,1-1.125,2.251.794.794,0,0,0-.211.774.676.676,0,0,0,.633.492h3.517a1.407,1.407,0,0,0,2.814,0H73.47a.676.676,0,0,0,.633-.492.666.666,0,0,0-.211-.774,2.832,2.832,0,0,1-1.125-2.251v-2.11A4.188,4.188,0,0,0,68.546,570Z" transform="translate(-35.556 -541.863)" fill-rule="evenodd"/>
        <path id="Caminho_7860" data-name="Caminho 7860" d="M69.682,531.055,68.627,530,63,535.627l5.627,5.627,1.055-1.055-3.939-3.869h8.511v-1.407H65.743Z" transform="translate(-35.567 -530)" fill-rule="evenodd"/>
        <circle id="Elipse_284" data-name="Elipse 284" cx="2.814" cy="2.814" r="2.814" transform="translate(2.814 56.273)"/>
        <path id="Caminho_7861" data-name="Caminho 7861" d="M29.627,620c-3.1,0-5.627,1.266-5.627,2.814v1.407H35.255v-1.407C35.255,621.266,32.722,620,29.627,620Z" transform="translate(-24 -556.692)" fill-rule="evenodd"/>
        <path id="Caminho_7862" data-name="Caminho 7862" d="M31.738,570H27.447A3.513,3.513,0,0,0,24,573.517v4.291a3.513,3.513,0,0,0,3.517,3.447h7.1a.694.694,0,0,0,.633-.7v-7.1A3.513,3.513,0,0,0,31.738,570Zm-.7,6.331H28.15a.694.694,0,0,1-.633-.7.665.665,0,0,1,.7-.7H31.1a.694.694,0,0,1,.633.7A.665.665,0,0,1,31.034,576.331Z" transform="translate(-24 -541.863)" fill-rule="evenodd"/>
        <path id="Caminho_7863" data-name="Caminho 7863" d="M30.331,530H28.924v4.924H24v1.407h4.924v4.924h1.407v-4.924h4.924v-1.407H30.331Z" transform="translate(-24 -530)" fill-rule="evenodd"/>
        <path id="Caminho_7864" data-name="Caminho 7864" d="M344.348,571.922h0a3.015,3.015,0,0,0-4.291,0h0l-.422.422-.422-.422a3.034,3.034,0,1,0-4.291,4.291l4.713,4.713,4.713-4.713a3.015,3.015,0,0,0,0-4.291Z" transform="translate(-115.948 -542.167)" fill-rule="evenodd"/>
        <path id="Caminho_7865" data-name="Caminho 7865" d="M339.627,541.255A5.627,5.627,0,1,0,334,535.627,5.644,5.644,0,0,0,339.627,541.255ZM338.08,535.7a3.6,3.6,0,0,1,1.618-1.618l2.743-1.266-1.266,2.743a3.6,3.6,0,0,1-1.618,1.618l-2.743,1.266Z" transform="translate(-115.941 -530)" fill-rule="evenodd"/>
      </g>
      <g id="Grupo_14311" data-name="Grupo 14311" transform="translate(16.864 90.037)">
        <path id="Caminho_7866" data-name="Caminho 7866" d="M308.582,337.176H307.6a1.854,1.854,0,0,1-1.759-1.125l-1.2-2.321a3.281,3.281,0,0,0-2.954-1.829H300v1.336h1.688a1.854,1.854,0,0,1,1.759,1.125l1.2,2.321a3.281,3.281,0,0,0,2.954,1.829h.985v1.336l2.673-1.97-2.673-1.97Z" transform="translate(-105.839 -188.473)"/>
        <path id="Caminho_7867" data-name="Caminho 7867" d="M313.6,331.97,310.925,330v1.336h-.985a3,3,0,0,0-2.04.7,3.93,3.93,0,0,1,.352.563l.281.633a1.656,1.656,0,0,1,1.477-.563H311v1.336Z" transform="translate(-108.182 -187.91)"/>
        <path id="Caminho_7868" data-name="Caminho 7868" d="M303.1,338.6a1.656,1.656,0,0,1-1.477.563H300V340.5h1.688a3,3,0,0,0,2.04-.7,3.931,3.931,0,0,1-.352-.563Z" transform="translate(-105.839 -190.46)"/>
        <path id="Caminho_7869" data-name="Caminho 7869" d="M305.683,289.2a1.186,1.186,0,0,0-1.2-1.2l-3.587,4.15v5.909a1.233,1.233,0,0,0,1.2,1.2h6.12a1.27,1.27,0,0,0,1.2-.985l.774-4.713v-.141a1.233,1.233,0,0,0-1.2-1.2h-4.5l1.055-2.462A.946.946,0,0,0,305.683,289.2Z" transform="translate(-106.106 -175.453)"/>
        <path id="Caminho_7870" data-name="Caminho 7870" d="M300.7,257.074l1.688-.352a4.912,4.912,0,0,0,1.688.914l.563,1.618h1.407l.563-1.618a3.967,3.967,0,0,0,1.688-.914l1.688.352.7-1.266-1.125-1.266c0-.281.07-.633.07-.914a4.009,4.009,0,0,0-.07-.914l1.125-1.266-.7-1.266-1.688.352a4.912,4.912,0,0,0-1.688-.914L306.049,248h-1.407l-.563,1.618a3.967,3.967,0,0,0-1.688.914l-1.688-.352-.7,1.266,1.125,1.266c0,.281-.07.633-.07.914a4.011,4.011,0,0,0,.07.914L300,255.808Zm4.572-4.854a1.407,1.407,0,1,1-1.407,1.407A1.411,1.411,0,0,1,305.276,252.221Z" transform="translate(-105.839 -163.59)"/>
        <rect id="Retângulo_1535" data-name="Retângulo 1535" width="2.814" height="11.255" transform="translate(198.382 56.273)"/>
        <rect id="Retângulo_1536" data-name="Retângulo 1536" width="2.814" height="5.627" transform="translate(194.161 61.901)"/>
        <rect id="Retângulo_1537" data-name="Retângulo 1537" width="2.814" height="8.441" transform="translate(202.602 59.087)"/>
        <path id="Caminho_7871" data-name="Caminho 7871" d="M300.744,178h6.964a.8.8,0,0,0,.563-.211c.07-.211.211-.281.211-.492v-1.759l2.321,2.321c.07.07.07.07.211.07h.07a.225.225,0,0,0,.211-.211v-6.542c0-.211-.07-.211-.211-.281-.07,0-.211,0-.211.07l-2.462,2.462v-1.759a.8.8,0,0,0-.211-.563.639.639,0,0,0-.492-.211h-7.034a.847.847,0,0,0-.774.774V177.3c0,.211.07.281.281.492A.936.936,0,0,0,300.744,178Z" transform="translate(-105.809 -140.723)"/>
        <path id="Caminho_7872" data-name="Caminho 7872" d="M309.487,138.145,313,134.417l-3.517-3.517-.914.914,2.251,2.11H305.9v1.266h4.783l-2.11,2.11Z" transform="translate(-107.589 -128.86)"/>
        <path id="Caminho_7873" data-name="Caminho 7873" d="M308.753,138.059H303.2V129.2h5.557V128H302v11.255h6.753Z" transform="translate(-106.432 -128)"/>
        <path id="Caminho_7874" data-name="Caminho 7874" d="M271.784,331.9a2.837,2.837,0,0,0-2.884,2.814v.07a2.884,2.884,0,1,0,2.884-2.884Zm1.9,2.884a1.923,1.923,0,0,1-1.829,1.9h-.07a1.923,1.923,0,0,1-1.9-1.829v-.07a1.923,1.923,0,0,1,1.829-1.9h.07a1.987,1.987,0,0,1,1.9,1.9Z" transform="translate(-96.615 -188.473)"/>
        <path id="Caminho_7875" data-name="Caminho 7875" d="M275.944,329.97a2.755,2.755,0,0,0-1.618-1.618,4.547,4.547,0,0,0-1.407-.281c-.774-.07-1.548-.07-2.321-.07s-1.548,0-2.321.07a3.353,3.353,0,0,0-1.407.281,2.755,2.755,0,0,0-1.618,1.618,3.149,3.149,0,0,0-.281,1.407c-.07.774-.07,1.548-.07,2.321s0,1.548.07,2.321a3.353,3.353,0,0,0,.281,1.407,2.755,2.755,0,0,0,1.618,1.618,4.548,4.548,0,0,0,1.407.281c.774.07,1.548.07,2.321.07s1.548,0,2.321-.07a3.353,3.353,0,0,0,1.407-.281,2.637,2.637,0,0,0,1.618-1.618,4.548,4.548,0,0,0,.281-1.407c0-.633.07-.844.07-2.321,0-.774,0-1.548-.07-2.321A7.1,7.1,0,0,0,275.944,329.97Zm-.774,5.909a2.822,2.822,0,0,1-.211,1.055,1.94,1.94,0,0,1-1.055,1.055,2.822,2.822,0,0,1-1.055.211c-.563,0-.774.07-2.251.07-.774,0-1.477,0-2.251-.07a2.823,2.823,0,0,1-1.055-.211,1.94,1.94,0,0,1-1.055-1.055,2.822,2.822,0,0,1-.211-1.055c0-.563-.07-.774-.07-2.251,0-.774,0-1.477.07-2.251a2.823,2.823,0,0,1,.211-1.055l.422-.633a1.024,1.024,0,0,1,.633-.422,2.822,2.822,0,0,1,1.055-.211c.774-.07,1.477-.07,2.251-.07s1.477,0,2.251.07a2.822,2.822,0,0,1,1.055.211,1.94,1.94,0,0,1,1.055,1.055,2.823,2.823,0,0,1,.211,1.055c0,.563.07.774.07,2.251C275.24,334.4,275.24,335.1,275.17,335.878Z" transform="translate(-95.429 -187.317)"/>
        <path id="Caminho_7876" data-name="Caminho 7876" d="M277,330.8a.7.7,0,1,0,.7.7A.754.754,0,0,0,277,330.8Z" transform="translate(-98.81 -188.147)"/>
        <path id="Caminho_7877" data-name="Caminho 7877" d="M265.223,300.737a4.846,4.846,0,0,0,.563.211h1.477a.583.583,0,0,0,.563-.211,4.849,4.849,0,0,0,.211-.563V299.4h5.276v.774c0,.281,0,.492.211.563a4.841,4.841,0,0,0,.563.211h1.477c.281,0,.492,0,.563-.211a4.849,4.849,0,0,0,.211-.563v-4.291a.659.659,0,0,0-.352-.633c-.211-.07-.281-.211-.492-.281a12.774,12.774,0,0,0-4.854-.774,12.072,12.072,0,0,0-4.713.774l-.563.281a.764.764,0,0,0-.281.633v4.291C265.012,300.386,265.012,300.667,265.223,300.737Z" transform="translate(-95.47 -177.288)"/>
        <path id="Caminho_7878" data-name="Caminho 7878" d="M273.978,289.281A7.062,7.062,0,0,0,272.29,289h-1.336c-2.181,0-3.658.281-4.572.914a.64.64,0,0,0-.281.563v1.688a2.657,2.657,0,0,1,1.055-.844,3.674,3.674,0,0,1,1.477-.281,3.048,3.048,0,0,1,1.336.281,7.688,7.688,0,0,1,1.055.563,2.447,2.447,0,0,1,1.055-.492,2.855,2.855,0,0,1,1.336-.281,3.459,3.459,0,0,1,1.477.281,2.3,2.3,0,0,1,1.055.774v-1.688a.868.868,0,0,0-.281-.563A10.121,10.121,0,0,0,273.978,289.281Z" transform="translate(-95.785 -175.75)"/>
        <path id="Caminho_7879" data-name="Caminho 7879" d="M265.211,254.964l2.673.914a.85.85,0,0,1,.492.492l.914,2.673q.106.211.211.211a.258.258,0,0,0,.211-.07l.774-.774a.637.637,0,0,0,.211-.7l-.352-2.321c.07-.07.492-.422,1.336-1.055l2.462,3.8a.971.971,0,0,0,.281.211c.141,0,.211,0,.281-.07l.563-.563a.537.537,0,0,0,.141-.352v-.422l-1.266-4.643a12.239,12.239,0,0,0,.985-.844,2.676,2.676,0,0,0,.633-.914,3.463,3.463,0,0,0,.422-1.2.983.983,0,0,0-.211-1.055A1.475,1.475,0,0,0,275.2,248a1.947,1.947,0,0,0-.914.211,5.247,5.247,0,0,0-.844.492,3.864,3.864,0,0,0-.633.492,3.442,3.442,0,0,0-.844.914l-4.572-1.336c-.141,0-.211-.07-.422,0a.537.537,0,0,0-.352.141l-.492.563c-.141.07-.141.141-.141.281s.07.211.211.281l3.8,2.462c-.07.141-.492.563-1.125,1.337l-2.321-.352a.85.85,0,0,0-.7.211l-.774.844a.258.258,0,0,0-.07.211Q265,254.858,265.211,254.964Z" transform="translate(-95.458 -163.59)"/>
        <path id="Caminho_7880" data-name="Caminho 7880" d="M267,219.255l4.22-4.22,4.221,4.22V208H267Z" transform="translate(-96.051 -151.727)"/>
        <path id="Caminho_7881" data-name="Caminho 7881" d="M266.407,179.551h8.441a1.411,1.411,0,0,0,1.407-1.407v-6.331a1.411,1.411,0,0,0-1.407-1.407h-1.125l-1.055-1.055a1.13,1.13,0,0,0-.774-.352h-2.462a1.165,1.165,0,0,0-.844.352l-1.055,1.055h-1.125A1.411,1.411,0,0,0,265,171.814v6.331a1.442,1.442,0,0,0,1.407,1.407Zm4.22-7.738a2.814,2.814,0,1,1-2.814,2.814A2.822,2.822,0,0,1,270.627,171.814Z" transform="translate(-95.458 -140.16)"/>
        <path id="Caminho_7882" data-name="Caminho 7882" d="M272.407,177.814A1.407,1.407,0,1,0,271,176.407,1.411,1.411,0,0,0,272.407,177.814Z" transform="translate(-97.238 -141.939)"/>
        <path id="Caminho_7883" data-name="Caminho 7883" d="M275.833,130.985l-.985-.985-5.7,5.7-3.165-3.1-.985.985,4.15,4.15Z" transform="translate(-95.458 -128.593)"/>
        <path id="Caminho_7884" data-name="Caminho 7884" d="M236.759,330.221v1.829H235v1.97h1.759v5.135h2.04V334.02h1.759l.281-1.97h-1.97v-1.266c0-.563.211-.985.985-.985h1.055V327.97c-.281,0-.844-.07-1.548-.07A2.5,2.5,0,0,0,236.759,330.221Z" transform="translate(-86.561 -187.287)"/>
        <path id="Caminho_7885" data-name="Caminho 7885" d="M242.073,296.2l-2.814-1.336-.211-.07c-.141,0-.211,0-.281.07l-1.2,1.125c-.07.211-.281.211-.492.07a9.606,9.606,0,0,1-1.618-1.336,8.735,8.735,0,0,1-1.2-1.618.6.6,0,0,1,0-.492l1.336-1.2c.07-.07.141-.211.07-.281a.258.258,0,0,1-.07-.211l-1.477-2.814a.425.425,0,0,0-.422-.211,3,3,0,0,0-1.9.7,2.431,2.431,0,0,0-.7,1.477,5.842,5.842,0,0,0,.211,1.9,20.517,20.517,0,0,0,.985,2.181,11.87,11.87,0,0,0,1.477,2.181,13.714,13.714,0,0,0,2.814,2.04,6.4,6.4,0,0,0,2.814.7,3.248,3.248,0,0,0,2.11-.774,2.554,2.554,0,0,0,.774-1.829C242.284,296.411,242.284,296.341,242.073,296.2Z" transform="translate(-85.404 -175.424)"/>
        <circle id="Elipse_285" data-name="Elipse 285" cx="2.814" cy="2.814" r="2.814" transform="translate(148.439 84.41)"/>
        <path id="Caminho_7886" data-name="Caminho 7886" d="M242.255,260.814c0-1.548-2.532-2.814-5.627-2.814S231,259.266,231,260.814v1.407h11.255Z" transform="translate(-85.374 -166.556)"/>
        <path id="Caminho_7887" data-name="Caminho 7887" d="M236.627,219.255A5.627,5.627,0,1,0,231,213.627,5.644,5.644,0,0,0,236.627,219.255Zm-2.814-6.331h5.627v1.407h-5.627Z" transform="translate(-85.374 -151.727)"/>
        <path id="Caminho_7888" data-name="Caminho 7888" d="M236.758,180.6a.132.132,0,0,0,0,.211c.07.07.07.07.211.07h.914c.07,0,.141-.07.211-.07.07-.07.07-.07.07-.211v-1.97a4.429,4.429,0,0,0,2.673-1.477,4.838,4.838,0,0,0,1.055-2.884.531.531,0,0,0-.281-.492.608.608,0,0,0-.422-.211.63.63,0,0,0-.633.633,2.978,2.978,0,0,1-.844,2.11,2.552,2.552,0,0,1-2.11.914,3.05,3.05,0,0,1-2.11-.914,2.553,2.553,0,0,1-.914-2.11.712.712,0,0,0-.281-.492.639.639,0,0,0-.492-.211.76.76,0,0,0-.492.211.639.639,0,0,0-.211.492,4.425,4.425,0,0,0,1.055,2.884,4.633,4.633,0,0,0,2.673,1.477l-.07,2.04Z" transform="translate(-85.997 -141.495)"/>
        <path id="Caminho_7889" data-name="Caminho 7889" d="M239.813,174.115a1.708,1.708,0,0,0,.633-1.477v-2.6a2.091,2.091,0,0,0-.563-1.407,1.708,1.708,0,0,0-1.477-.633,1.861,1.861,0,0,0-1.477.563,1.708,1.708,0,0,0-.633,1.477v2.6a1.916,1.916,0,0,0,.633,1.477,1.957,1.957,0,0,0,1.477.563A1.715,1.715,0,0,0,239.813,174.115Z" transform="translate(-86.942 -139.859)"/>
        <path id="Caminho_7890" data-name="Caminho 7890" d="M231.985,138.973l4.5-4.5,4.432,4.5,1.055-1.055-4.5-4.432,4.5-4.5L240.918,128l-4.432,4.5-4.5-4.5-.985.985,4.5,4.5-4.5,4.432Z" transform="translate(-85.374 -128)"/>
        <path id="Caminho_7891" data-name="Caminho 7891" d="M207,330.211a4.911,4.911,0,0,1-1.407.563,2.247,2.247,0,0,0-1.688-.774,2.342,2.342,0,0,0-2.321,2.321,1.2,1.2,0,0,0,.07.492,6.55,6.55,0,0,1-4.783-2.462,2.312,2.312,0,0,0-.281,1.2,2.465,2.465,0,0,0,.985,1.97,2.608,2.608,0,0,1-1.055-.281,2.266,2.266,0,0,0,1.9,2.251,1.947,1.947,0,0,1-.633.07.892.892,0,0,1-.422-.07,2.347,2.347,0,0,0,2.181,1.618,4.764,4.764,0,0,1-2.884.985,1.549,1.549,0,0,1-.563-.07,5.883,5.883,0,0,0,3.587,1.125,6.515,6.515,0,0,0,6.542-6.471v-.422a4.557,4.557,0,0,0,1.125-1.2,4.163,4.163,0,0,1-1.336.352A2.748,2.748,0,0,0,207,330.211Z" transform="translate(-75.024 -187.91)"/>
        <rect id="Retângulo_1538" data-name="Retângulo 1538" width="3.517" height="3.517" transform="translate(121.006 112.547)"/>
        <rect id="Retângulo_1539" data-name="Retângulo 1539" width="6.331" height="3.517" transform="translate(125.93 112.547)"/>
        <rect id="Retângulo_1540" data-name="Retângulo 1540" width="11.255" height="1.407" transform="translate(121.006 122.395)"/>
        <rect id="Retângulo_1541" data-name="Retângulo 1541" width="11.255" height="3.517" transform="translate(121.006 117.471)"/>
        <path id="Caminho_7892" data-name="Caminho 7892" d="M201.627,248l-1.759,3.517L196,252.08l2.814,2.743-.633,3.869,3.447-1.829,3.447,1.829-.633-3.869,2.814-2.743-3.869-.563Z" transform="translate(-74.994 -163.59)"/>
        <path id="Caminho_7893" data-name="Caminho 7893" d="M201.627,208a5.627,5.627,0,1,0,5.627,5.627A5.644,5.644,0,0,0,201.627,208Zm1.548,5.557a3.6,3.6,0,0,1-1.618,1.618l-2.743,1.266,1.266-2.743a3.6,3.6,0,0,1,1.618-1.618l2.743-1.266Z" transform="translate(-74.994 -151.727)"/>
        <path id="Caminho_7894" data-name="Caminho 7894" d="M197.407,182.22h1.407a1.411,1.411,0,0,0,1.407-1.407v-1.407A1.411,1.411,0,0,0,198.814,178h-1.407A1.411,1.411,0,0,0,196,179.407v1.407A1.411,1.411,0,0,0,197.407,182.22Z" transform="translate(-74.994 -142.829)"/>
        <path id="Caminho_7895" data-name="Caminho 7895" d="M197.407,172.22h1.407a1.411,1.411,0,0,0,1.407-1.407v-1.407A1.411,1.411,0,0,0,198.814,168h-1.407A1.411,1.411,0,0,0,196,169.407v1.407A1.411,1.411,0,0,0,197.407,172.22Z" transform="translate(-74.994 -139.863)"/>
        <path id="Caminho_7896" data-name="Caminho 7896" d="M208.814,178h-1.407A1.411,1.411,0,0,0,206,179.407v1.407a1.411,1.411,0,0,0,1.407,1.407h1.407a1.411,1.411,0,0,0,1.407-1.407v-1.407A1.411,1.411,0,0,0,208.814,178Z" transform="translate(-77.96 -142.829)"/>
        <path id="Caminho_7897" data-name="Caminho 7897" d="M208.814,168h-1.407A1.411,1.411,0,0,0,206,169.407v1.407a1.411,1.411,0,0,0,1.407,1.407h1.407a1.411,1.411,0,0,0,1.407-1.407v-1.407A1.411,1.411,0,0,0,208.814,168Z" transform="translate(-77.96 -139.863)"/>
        <path id="Caminho_7898" data-name="Caminho 7898" d="M196,133.627l1.055,1.055,3.869-3.939v8.511h1.407v-8.511l3.869,3.939,1.055-1.055L201.627,128Z" transform="translate(-74.994 -128)"/>
        <path id="Caminho_7899" data-name="Caminho 7899" d="M175.61,333.9h-1.055v1.055H173.5v.985h1.055v1.125h1.055V336.01h1.055v-1.055H175.61Z" transform="translate(-68.321 -189.067)"/>
        <path id="Caminho_7900" data-name="Caminho 7900" d="M165.587,334.1v1.2h2.04a1.916,1.916,0,0,1-2.04,1.548h-.07a2.253,2.253,0,0,1-2.181-2.251,2.222,2.222,0,0,1,2.251-2.251,2.091,2.091,0,0,1,1.407.563l.985-.985a3.288,3.288,0,0,0-2.392-.914,3.587,3.587,0,1,0,0,7.175h.352a3.307,3.307,0,0,0,3.1-3.517c0-.211-.07-.352-.07-.563Z" transform="translate(-64.91 -188.206)"/>
        <path id="Caminho_7901" data-name="Caminho 7901" d="M162,296.814h11.255V294H162Zm.7-2.11h1.407v1.407H162.7Z" transform="translate(-64.91 -177.233)"/>
        <path id="Caminho_7902" data-name="Caminho 7902" d="M162,290.814h11.255V288H162Zm.7-2.11h1.407v1.407H162.7Z" transform="translate(-64.91 -175.453)"/>
        <path id="Caminho_7903" data-name="Caminho 7903" d="M162,302.814h11.255V300H162Zm.7-2.11h1.407v1.407H162.7Z" transform="translate(-64.91 -179.012)"/>
        <rect id="Retângulo_1542" data-name="Retângulo 1542" width="1.407" height="1.407" transform="translate(99.903 91.444)"/>
        <rect id="Retângulo_1543" data-name="Retângulo 1543" width="1.407" height="1.407" transform="translate(102.014 89.334)"/>
        <rect id="Retângulo_1544" data-name="Retângulo 1544" width="1.407" height="1.407" transform="translate(104.124 91.444)"/>
        <rect id="Retângulo_1545" data-name="Retângulo 1545" width="1.407" height="1.407" transform="translate(102.014 91.444)"/>
        <path id="Caminho_7904" data-name="Caminho 7904" d="M172.551,249.407h-1.407v-.7a.7.7,0,0,0-1.407,0v.7h-4.22v-.774a.694.694,0,0,0-.7-.633h-.07a.694.694,0,0,0-.633.7v.7h-1.477a.694.694,0,0,0-.633.7v8.511a.694.694,0,0,0,.7.633h9.918a.694.694,0,0,0,.633-.7V250.04A.694.694,0,0,0,172.551,249.407Zm-.7,8.441h-8.441v-6.331h8.441Z" transform="translate(-64.91 -163.59)"/>
        <rect id="Retângulo_1546" data-name="Retângulo 1546" width="1.407" height="1.407" transform="translate(104.124 89.334)"/>
        <path id="Caminho_7905" data-name="Caminho 7905" d="M162.922,214.213l4.713,4.713,4.713-4.713a3.015,3.015,0,0,0,0-4.291h0a3.015,3.015,0,0,0-4.291,0h0l-.422.422-.422-.422a3.034,3.034,0,1,0-4.291,4.291Z" transform="translate(-64.918 -152.031)"/>
        <path id="Caminho_7906" data-name="Caminho 7906" d="M167.365,176.26l3.025,2.954c.07.07.141.07.211.141a.187.187,0,0,0,.211-.211V168.452c0-.211,0-.211-.141-.352h-.211l-3.025,3.025h-2.11c-.07,0-.141.07-.211.141-.141.141-.141.141-.141.211v4.5c0,.141-.141.141,0,.211.141.141.141.141.211.141h2.181Z" transform="translate(-65.774 -139.893)"/>
        <path id="Caminho_7907" data-name="Caminho 7907" d="M132.625,328A5.77,5.77,0,0,0,127,333.625a5.6,5.6,0,0,0,1.688,3.939A5.571,5.571,0,1,0,132.625,328Zm2.181,9.285a2.264,2.264,0,0,1-1.407.844c-.07,0-.07,0-.211-.07-.07-.07-.07-.07-.07-.211v-1.688a1.4,1.4,0,0,1-.844-.563.916.916,0,0,1-.352-.914v-.352a2.286,2.286,0,0,1-1.759-.774,2.473,2.473,0,0,1,.07-3.658,4.85,4.85,0,0,1,2.462-.774,1.6,1.6,0,0,1,.774.211.225.225,0,0,1,.211.211,3.022,3.022,0,0,1-.492,1.759,1.471,1.471,0,0,1,.492.914.527.527,0,0,1-.07.352c-.141.07-.211.141-.352.07a.643.643,0,0,1-.352-.211.712.712,0,0,0-.492-.281.845.845,0,0,0-.563.563.686.686,0,0,0,.281.633,3.708,3.708,0,0,0,.844.211h.914a1.5,1.5,0,0,1,1.2.563,1.66,1.66,0,0,1,.492,1.125A7.707,7.707,0,0,1,134.806,337.283Z" transform="translate(-54.528 -187.314)"/>
        <path id="Caminho_7908" data-name="Caminho 7908" d="M127.622,297.848h3.517a1.407,1.407,0,0,0,2.814,0h3.517a.676.676,0,0,0,.633-.492.666.666,0,0,0-.211-.774,2.832,2.832,0,0,1-1.125-2.251v-2.11a4.22,4.22,0,0,0-8.441,0v2.11a2.832,2.832,0,0,1-1.125,2.251.794.794,0,0,0-.211.774A.751.751,0,0,0,127.622,297.848Z" transform="translate(-54.519 -175.453)"/>
        <path id="Caminho_7909" data-name="Caminho 7909" d="M137.944,248.211a.639.639,0,0,0-.492-.211H133.3a.069.069,0,0,0-.07.07l-6.12,6.12a.639.639,0,0,0-.211.492c0,.211.07.281.211.492l3.939,3.939a.639.639,0,0,0,.492.211c.141,0,.281-.07.492-.07l6.12-6.12c.07-.07.07-.07.07-.211v-4.15A.64.64,0,0,0,137.944,248.211Zm-1.2,2.251a1.058,1.058,0,0,1-.281.774,1.166,1.166,0,0,1-1.477,0,1.058,1.058,0,0,1-.281-.774,1.13,1.13,0,0,1,.352-.774,1.166,1.166,0,0,1,1.477,0A1.418,1.418,0,0,1,136.748,250.462Z" transform="translate(-54.5 -163.59)"/>
        <path id="Caminho_7910" data-name="Caminho 7910" d="M137.551,211.407h-4.924l-.352-.985a.971.971,0,0,0-.211-.281.533.533,0,0,0-.281-.141H127.7a.721.721,0,0,0-.7.7v6.964a.935.935,0,0,0,.211.563.76.76,0,0,0,.492.211h9.848a.639.639,0,0,0,.492-.211.76.76,0,0,0,.211-.492V212.11a.639.639,0,0,0-.211-.492A.76.76,0,0,0,137.551,211.407Z" transform="translate(-54.53 -152.32)"/>
        <path id="Caminho_7911" data-name="Caminho 7911" d="M133.078,179.187a.319.319,0,0,0,0,.352l1.055,1.055c.141.141.211.141.352,0l1.055-1.055a.527.527,0,0,0,.07-.352,1.7,1.7,0,0,0-1.266-.492A1.468,1.468,0,0,0,133.078,179.187Z" transform="translate(-56.317 -143.031)"/>
        <path id="Caminho_7912" data-name="Caminho 7912" d="M135.642,177.214h.07c0-.07,0-.07.07-.07l.985-.985a.537.537,0,0,0,.141-.352,4.755,4.755,0,0,0-6.753,0c-.141.141-.141.211,0,.352l.985.985c0,.07,0,.07.07.07h.07c.07,0,.07,0,.141-.07a2.887,2.887,0,0,1,4.08,0C135.5,177.214,135.572,177.214,135.642,177.214Z" transform="translate(-55.434 -141.761)"/>
        <path id="Caminho_7913" data-name="Caminho 7913" d="M136.926,173.724h0c.07-.07.07-.07.141-.07l.985-.985a.527.527,0,0,0,.07-.352l-.07-.07a7.707,7.707,0,0,0-10.973.07.319.319,0,0,0,0,.352l.985.985c0,.07,0,.07.07.07h.07c.07,0,.141,0,.141-.07a5.631,5.631,0,0,1,4.221-1.759,5.9,5.9,0,0,1,4.22,1.759C136.785,173.724,136.855,173.724,136.926,173.724Z" transform="translate(-54.537 -140.453)"/>
        <path id="Caminho_7914" data-name="Caminho 7914" d="M96.673,328H94.7a.665.665,0,0,0-.7.7v9.848a.665.665,0,0,0,.7.7h1.97a.665.665,0,0,0,.7-.7V328.7A.665.665,0,0,0,96.673,328Z" transform="translate(-44.743 -187.317)"/>
        <path id="Caminho_7915" data-name="Caminho 7915" d="M106.273,328H104.3a.665.665,0,0,0-.7.7v9.848a.665.665,0,0,0,.7.7h1.97a.665.665,0,0,0,.7-.7V328.7A.665.665,0,0,0,106.273,328Z" transform="translate(-47.59 -187.317)"/>
        <path id="Caminho_7916" data-name="Caminho 7916" d="M100.738,288H96.447A3.513,3.513,0,0,0,93,291.517v4.291a3.513,3.513,0,0,0,3.517,3.447h7.1a.694.694,0,0,0,.633-.7v-7.1A3.513,3.513,0,0,0,100.738,288Zm-.7,6.331H97.15a.694.694,0,0,1-.633-.7.665.665,0,0,1,.7-.7H100.1a.694.694,0,0,1,.633.7A.665.665,0,0,1,100.034,294.331Z" transform="translate(-44.446 -175.453)"/>
        <path id="Caminho_7917" data-name="Caminho 7917" d="M98.924,248a2.822,2.822,0,0,0-2.814,2.814h-.7A1.411,1.411,0,0,0,94,252.22v5.627a1.411,1.411,0,0,0,1.407,1.407h7.034a1.411,1.411,0,0,0,1.407-1.407V252.22a1.411,1.411,0,0,0-1.407-1.407h-.7A2.822,2.822,0,0,0,98.924,248Zm0,8.441a1.407,1.407,0,1,1,1.407-1.407A1.411,1.411,0,0,1,98.924,256.441Zm-1.407-5.627a1.407,1.407,0,0,1,2.814,0Z" transform="translate(-44.743 -163.59)"/>
        <path id="Caminho_7918" data-name="Caminho 7918" d="M97.994,218.556,102,214.547,98.768,211.1l-4.009,4.08L93,220.174Z" transform="translate(-44.446 -152.646)"/>
        <path id="Caminho_7919" data-name="Caminho 7919" d="M105.1,208.418a1.257,1.257,0,0,0-1.829-.07l-.07.07-1.2,1.2,3.236,3.376,1.266-1.266a1.389,1.389,0,0,0,.422-.985,1.226,1.226,0,0,0-.422-.844Z" transform="translate(-47.115 -151.723)"/>
        <path id="Caminho_7920" data-name="Caminho 7920" d="M95.774,176.722l2.321-1.759v4.291l4.713-3.517-2.884-2.181,2.884-2.11L98.1,168v4.291l-2.321-1.759L95,171.587l2.673,2.04L95,175.667Zm3.728-6.049,1.055.774-1.055.774Zm0,4.22,1.055.774-1.055.774Z" transform="translate(-45.039 -139.863)"/>
        <path id="Caminho_7921" data-name="Caminho 7921" d="M72.2,330H71a.665.665,0,0,0-.7.7v6.4a.665.665,0,0,0,.7.7h1.2a.665.665,0,0,0,.7-.7v-6.4A.665.665,0,0,0,72.2,330Z" transform="translate(-37.714 -187.91)"/>
        <path id="Caminho_7922" data-name="Caminho 7922" d="M64.442,333.1l-5.205-3.025a.527.527,0,0,0-.352-.07.986.986,0,0,0-.985.844v5.979h0a.918.918,0,0,0,.844.914,1,1,0,0,0,.422-.141l5.205-3.025a.848.848,0,0,0,.352-.352A.749.749,0,0,0,64.442,333.1Z" transform="translate(-34.036 -187.91)"/>
        <path id="Caminho_7923" data-name="Caminho 7923" d="M63.627,299.255A5.627,5.627,0,1,0,58,293.627,5.644,5.644,0,0,0,63.627,299.255Zm.844-2.673H62.854v-1.336h1.618v1.336Zm-1.688-5.909h1.759v.7h-.07l-.422,3.1h-.844l-.422-3.1v-.7Z" transform="translate(-34.066 -175.453)"/>
        <path id="Caminho_7924" data-name="Caminho 7924" d="M61.7,248a.721.721,0,0,0-.7.7v9.848a.721.721,0,0,0,.7.7h5.627a.756.756,0,0,0,.7-.7V248.7a.721.721,0,0,0-.7-.7Zm3.306,10.34a.68.68,0,0,1-.985,0h0a.68.68,0,0,1,0-.985.68.68,0,0,1,.985,0h0A.68.68,0,0,1,65.009,258.34Zm1.829-1.9H62.2V249.9h4.643Z" transform="translate(-34.955 -163.59)"/>
        <path id="Caminho_7925" data-name="Caminho 7925" d="M59.407,218.441h8.441a1.411,1.411,0,0,0,1.407-1.407v-5.627A1.411,1.411,0,0,0,67.848,210H59.407A1.411,1.411,0,0,0,58,211.407v5.627A1.411,1.411,0,0,0,59.407,218.441Zm8.441-7.034-4.22,3.517-4.221-3.517Z" transform="translate(-34.066 -152.32)"/>
        <path id="Caminho_7926" data-name="Caminho 7926" d="M67.889,168.911A3.178,3.178,0,0,0,65.427,168a3.65,3.65,0,0,0-1.9.492,1.262,1.262,0,0,0-.352.492c0,.281,0,.492.07.563a.529.529,0,0,0,.492.352,1.549,1.549,0,0,0,.563-.07,2.5,2.5,0,0,1,.633-.281h.844a5.608,5.608,0,0,1,1.125.563,2.47,2.47,0,0,1,.844,1.759,2.228,2.228,0,0,1-.633,1.618l-3.728,3.728a1.532,1.532,0,0,1-.563.352,4.326,4.326,0,0,0-.774.211,2.025,2.025,0,0,1-.914-.07,1.564,1.564,0,0,1-.914-.563,2.86,2.86,0,0,1-.774-1.759,2.208,2.208,0,0,1,.492-1.477l1.97-1.9a1.135,1.135,0,0,1,.633-.211.982.982,0,0,1,.633.211,1.165,1.165,0,0,1,.352.844.64.64,0,0,1-.281.563l-1.055,1.055a4.846,4.846,0,0,0-.211.563.726.726,0,0,0,.774.774.76.76,0,0,0,.492-.211l1.055-.914a2.125,2.125,0,0,0,.633-1.688,2.23,2.23,0,0,0-.774-1.9,2.519,2.519,0,0,0-1.759-.774,2.4,2.4,0,0,0-1.688.633l-1.9,1.9a3.567,3.567,0,0,0-.633,1.125,3.149,3.149,0,0,0-.281,1.407,4.228,4.228,0,0,0,3.939,3.939,3.344,3.344,0,0,0,2.532-1.055l3.728-3.728a4,4,0,0,0-.211-5.627Z" transform="translate(-34.036 -139.86)"/>
        <path id="Caminho_7927" data-name="Caminho 7927" d="M25.9,330H24.7a.665.665,0,0,0-.7.7v6.4a.665.665,0,0,0,.7.7h1.2a.665.665,0,0,0,.7-.7v-6.4A.7.7,0,0,0,25.9,330Z" transform="translate(-23.982 -187.91)"/>
        <path id="Caminho_7928" data-name="Caminho 7928" d="M35.816,330.138l-5.205,3.025a.848.848,0,0,0-.352.352.82.82,0,0,0,.352,1.125l5.205,3.025h0a.634.634,0,0,0,.352.07.872.872,0,0,0,.914-.844v-5.979a.67.67,0,0,0-.141-.492A.76.76,0,0,0,35.816,330.138Z" transform="translate(-25.809 -187.907)"/>
        <path id="Caminho_7929" data-name="Caminho 7929" d="M29.627,288a5.627,5.627,0,1,0,5.627,5.627A5.644,5.644,0,0,0,29.627,288Zm0,9.355h0a.8.8,0,0,1-.844-.774.774.774,0,0,1,1.548,0A.684.684,0,0,1,29.627,297.355Zm1.477-4.432-.633.7a.639.639,0,0,0-.211.492.7.7,0,0,1-.7.7.748.748,0,0,1-.7-.633v-.07a1.18,1.18,0,0,1,.422-.985l.492-.633a1.677,1.677,0,0,0,.422-.774.575.575,0,0,0-.563-.633h-.07a.7.7,0,0,0-.7.492.774.774,0,0,1-.7.422.575.575,0,0,1-.633-.563v-.07a.423.423,0,0,1,.07-.281,1.846,1.846,0,0,1,1.9-1.2,1.819,1.819,0,0,1,1.97,1.688v.141A1.248,1.248,0,0,1,31.1,292.924Z" transform="translate(-23.982 -175.453)"/>
        <path id="Caminho_7930" data-name="Caminho 7930" d="M29.627,248a5.627,5.627,0,1,0,5.627,5.627A5.644,5.644,0,0,0,29.627,248Zm0,9.566a3.918,3.918,0,0,1-3.939-3.869v-.07a3.722,3.722,0,0,1,.633-2.11L31.808,257A4.787,4.787,0,0,1,29.627,257.566Zm3.939-3.939a3.722,3.722,0,0,1-.633,2.11l-5.487-5.487a3.89,3.89,0,0,1,2.11-.633,4.053,4.053,0,0,1,4.009,4.009Z" transform="translate(-23.982 -163.59)"/>
        <path id="Caminho_7931" data-name="Caminho 7931" d="M29.625,208a4.977,4.977,0,0,0-3.939,1.688A4.977,4.977,0,0,0,24,213.625a5.6,5.6,0,0,0,1.688,3.939,4.977,4.977,0,0,0,3.939,1.688,4.977,4.977,0,0,0,3.939-1.688,5.44,5.44,0,0,0,0-7.878A4.977,4.977,0,0,0,29.625,208Zm2.532,8.16L29.133,214.4c-.07,0-.141-.07-.211-.07a.764.764,0,0,1-.281-.633v-4.221h.985l.844,3.728,2.321,2.321Z" transform="translate(-23.979 -151.724)"/>
        <path id="Caminho_7932" data-name="Caminho 7932" d="M34.684,175.994a.712.712,0,0,0-.844.563,4.2,4.2,0,0,1-7.175,2.392l1.055-1.055c.281-.281.141-.492-.211-.492H24.274c-.211,0-.352.141-.281.352v3.165c0,.352.211.492.492.211L25.61,180a5.726,5.726,0,0,0,9.637-3.165V176.7A.685.685,0,0,0,34.684,175.994Z" transform="translate(-23.974 -142.23)"/>
        <path id="Caminho_7933" data-name="Caminho 7933" d="M34.762,168.492l-1.125,1.125A5.726,5.726,0,0,0,24,172.783v.211a.694.694,0,0,0,.7.633.685.685,0,0,0,.7-.563,4.2,4.2,0,0,1,7.175-2.392l-1.055,1.055c-.281.281-.141.492.211.492h3.236c.211,0,.352-.141.281-.352V168.7C35.255,168.352,35.044,168.211,34.762,168.492Z" transform="translate(-23.982 -139.863)"/>
        <path id="Caminho_7934" data-name="Caminho 7934" d="M341.814,331H339v1.407h1.407v5.627H339v1.407h4.22v-1.407h-1.407Z" transform="translate(-117.405 -188.206)"/>
        <circle id="Elipse_286" data-name="Elipse 286" cx="1.055" cy="1.055" r="1.055" transform="translate(222.298 139.98)"/>
        <path id="Caminho_7935" data-name="Caminho 7935" d="M343.089,288h-6.12a1.27,1.27,0,0,0-1.2.985L335,293.7v.141a1.233,1.233,0,0,0,1.2,1.2h4.5l-1.055,2.462a1.043,1.043,0,0,0-.07.492,1.186,1.186,0,0,0,1.2,1.2l3.587-4.15v-5.909A1.353,1.353,0,0,0,343.089,288Z" transform="translate(-116.219 -175.453)"/>
        <path id="Caminho_7936" data-name="Caminho 7936" d="M348.1,250.548,347.187,249a5.493,5.493,0,0,0-2.884,2.6,9.127,9.127,0,0,0-.7,4.221v3.587h4.15v-4.5h-2.04a6.881,6.881,0,0,1,.633-2.884A3.989,3.989,0,0,1,348.1,250.548Z" transform="translate(-118.77 -163.887)"/>
        <path id="Caminho_7937" data-name="Caminho 7937" d="M338.145,259.411v-4.5h-1.97a5.251,5.251,0,0,1,.633-2.884,3.989,3.989,0,0,1,1.759-1.477L337.582,249a5.493,5.493,0,0,0-2.884,2.6,9.544,9.544,0,0,0-.7,4.221v3.587Z" transform="translate(-115.917 -163.887)"/>
        <path id="Caminho_7938" data-name="Caminho 7938" d="M344.944,210.211a.639.639,0,0,0-.492-.211h-9.777a.847.847,0,0,0-.774.774v6.964a.726.726,0,0,0,.774.774h9.777a.8.8,0,0,0,.563-.211.639.639,0,0,0,.211-.492v-7.034A.64.64,0,0,0,344.944,210.211Zm-9.285,1.477a1.2,1.2,0,1,1-.281.774A1.058,1.058,0,0,1,335.659,211.688Zm-.281,5.346,1.407-2.181,1.688,1.2L341,212.743l2.814,4.221h-8.441Z" transform="translate(-115.893 -152.32)"/>
        <path id="Caminho_7939" data-name="Caminho 7939" d="M336.344,169.344a4.8,4.8,0,0,0,0,6.612l3.306,3.306,3.306-3.306a4.67,4.67,0,0,0,0-6.612A4.8,4.8,0,0,0,336.344,169.344Zm5.205,3.376h0a2.013,2.013,0,0,1-1.97,1.97,2.076,2.076,0,0,1-1.97-2.04h0a1.97,1.97,0,1,1,3.939.07Z" transform="translate(-116.227 -139.871)"/>
        <path id="Caminho_7940" data-name="Caminho 7940" d="M338.854,137.848h0a5.023,5.023,0,0,0,3.025-.985l2.321,2.321.985-.985-2.321-2.321A4.924,4.924,0,0,0,338.994,128h-.07A4.924,4.924,0,0,0,334,132.854v.07A4.924,4.924,0,0,0,338.854,137.848Zm-3.447-4.924a3.513,3.513,0,0,1,3.447-3.517h.07a3.513,3.513,0,0,1,3.517,3.447v.07a3.513,3.513,0,0,1-3.447,3.517h-.07a3.527,3.527,0,0,1-3.517-3.517Z" transform="translate(-115.922 -128)"/>
        <rect id="Retângulo_1547" data-name="Retângulo 1547" width="7.034" height="1.407" transform="translate(23.934 9.144)"/>
        <rect id="Retângulo_1548" data-name="Retângulo 1548" width="11.255" height="1.407" transform="translate(23.934 4.924)"/>
        <rect id="Retângulo_1549" data-name="Retângulo 1549" width="11.255" height="1.407" transform="translate(23.934 0.703)"/>
        <path id="Caminho_7941" data-name="Caminho 7941" d="M99.682,129.055,98.627,128,93,133.627l5.627,5.627,1.055-1.055-3.939-3.869h8.511v-1.407H95.743Z" transform="translate(-44.446 -128)"/>
        <path id="Caminho_7942" data-name="Caminho 7942" d="M30.331,128H28.924v4.924H24v1.407h4.924v4.924h1.407v-4.924h4.924v-1.407H30.331Z" transform="translate(-23.982 -128)"/>
        <path id="Caminho_7943" data-name="Caminho 7943" d="M131.572,129.055l3.939,3.869H127v1.407h8.511l-3.939,3.869,1.055,1.055,5.627-5.627L132.627,128Z" transform="translate(-54.53 -128)"/>
        <path id="Caminho_7944" data-name="Caminho 7944" d="M168.331,136.511V128h-1.407v8.511l-3.869-3.939L162,133.627l5.627,5.627,5.627-5.627-1.055-1.055Z" transform="translate(-64.91 -128)"/>
      </g>
    </g>
  </g>
</svg>
