<?xml version="1.0" encoding="utf-8"?>
<!-- Generator: Adobe Illustrator 23.0.4, SVG Export Plug-In . SVG Version: 6.00 Build 0)  -->
<svg version="1.1" id="Camada_1" xmlns="http://www.w3.org/2000/svg" xmlns:xlink="http://www.w3.org/1999/xlink" x="0px" y="0px"
	 viewBox="0 0 375 667" style="enable-background:new 0 0 375 667;" xml:space="preserve">
<style type="text/css">
	.st0{fill:#FFFFFF;}
	.st1{fill-rule:evenodd;clip-rule:evenodd;}
</style>
<rect class="st0" width="375" height="667"/>
<path d="M29.2,503H28v-7.8c-0.3,0.3-0.7,0.6-1.2,0.8s-0.9,0.5-1.3,0.6v-1.2c0.7-0.3,1.3-0.7,1.8-1.2s0.9-0.9,1.1-1.3h0.8V503z"/>
<path d="M38.8,495.4l-1.2,0.1c-0.1-0.5-0.3-0.8-0.5-1.1c-0.3-0.4-0.7-0.5-1.2-0.5c-0.4,0-0.7,0.1-1,0.3c-0.4,0.3-0.7,0.7-0.9,1.2
	s-0.3,1.3-0.3,2.3c0.3-0.5,0.7-0.8,1.1-1s0.9-0.3,1.3-0.3c0.8,0,1.5,0.3,2.1,0.9c0.6,0.6,0.9,1.4,0.9,2.3c0,0.6-0.1,1.2-0.4,1.8
	c-0.3,0.5-0.6,1-1.1,1.2s-1,0.4-1.6,0.4c-1,0-1.9-0.4-2.5-1.1c-0.6-0.8-1-2-1-3.7c0-1.9,0.4-3.3,1.1-4.2c0.6-0.8,1.5-1.1,2.5-1.1
	c0.8,0,1.4,0.2,1.9,0.7S38.7,494.7,38.8,495.4z M33.7,499.8c0,0.4,0.1,0.8,0.3,1.2s0.4,0.7,0.8,0.9c0.3,0.2,0.7,0.3,1,0.3
	c0.5,0,1-0.2,1.3-0.6s0.6-1,0.6-1.7c0-0.7-0.2-1.2-0.6-1.6c-0.4-0.4-0.8-0.6-1.4-0.6c-0.6,0-1,0.2-1.4,0.6
	C33.9,498.6,33.7,499.1,33.7,499.8z"/>
<path d="M39.7,503l2.7-3.8l-2.5-3.5h1.5l1.1,1.7c0.2,0.3,0.4,0.6,0.5,0.8c0.2-0.3,0.4-0.6,0.6-0.8l1.2-1.7h1.5l-2.5,3.4l2.7,3.8H45
	l-1.5-2.3l-0.4-0.6l-1.9,2.9H39.7z"/>
<path d="M51.8,503h-1.2v-7.8c-0.3,0.3-0.7,0.6-1.2,0.8s-0.9,0.5-1.3,0.6v-1.2c0.7-0.3,1.3-0.7,1.8-1.2s0.9-0.9,1.1-1.3h0.8V503z"/>
<path d="M61.3,495.4l-1.2,0.1c-0.1-0.5-0.3-0.8-0.5-1.1c-0.3-0.4-0.7-0.5-1.2-0.5c-0.4,0-0.7,0.1-1,0.3c-0.4,0.3-0.7,0.7-0.9,1.2
	s-0.3,1.3-0.3,2.3c0.3-0.5,0.7-0.8,1.1-1s0.9-0.3,1.3-0.3c0.8,0,1.5,0.3,2.1,0.9c0.6,0.6,0.9,1.4,0.9,2.3c0,0.6-0.1,1.2-0.4,1.8
	c-0.3,0.5-0.6,1-1.1,1.2s-1,0.4-1.6,0.4c-1,0-1.9-0.4-2.5-1.1c-0.6-0.8-1-2-1-3.7c0-1.9,0.4-3.3,1.1-4.2c0.6-0.8,1.5-1.1,2.5-1.1
	c0.8,0,1.4,0.2,1.9,0.7S61.2,494.7,61.3,495.4z M56.3,499.8c0,0.4,0.1,0.8,0.3,1.2s0.4,0.7,0.8,0.9c0.3,0.2,0.7,0.3,1,0.3
	c0.5,0,1-0.2,1.3-0.6s0.6-1,0.6-1.7c0-0.7-0.2-1.2-0.6-1.6c-0.4-0.4-0.8-0.6-1.4-0.6c-0.6,0-1,0.2-1.4,0.6
	C56.5,498.6,56.3,499.1,56.3,499.8z"/>
<polygon points="134,434 130.7,437.3 127.4,434 126,435.4 130.7,440.1 135.4,435.4 "/>
<polygon points="92,438.7 93.4,440.1 96.7,436.8 100,440.1 101.4,438.7 96.7,434 "/>
<polygon points="60,433.4 63.3,436.7 60,440 61.4,441.4 66.1,436.7 61.4,432 "/>
<polygon points="30.7,432 26,436.7 30.7,441.4 32.1,440 28.8,436.7 32.1,433.4 "/>
<path d="M29.2,405H28v-7.8c-0.3,0.3-0.7,0.6-1.2,0.8s-0.9,0.5-1.3,0.6v-1.2c0.7-0.3,1.3-0.7,1.8-1.2s0.9-0.9,1.1-1.3h0.8V405z"/>
<path d="M32.4,400.1c0-1.2,0.1-2.1,0.4-2.9c0.2-0.7,0.6-1.3,1.1-1.7s1.1-0.6,1.8-0.6c0.5,0,1,0.1,1.4,0.3c0.4,0.2,0.7,0.5,1,0.9
	c0.3,0.4,0.5,0.9,0.6,1.5c0.2,0.6,0.2,1.4,0.2,2.4c0,1.2-0.1,2.1-0.4,2.8c-0.2,0.7-0.6,1.3-1.1,1.7c-0.5,0.4-1.1,0.6-1.8,0.6
	c-1,0-1.7-0.3-2.3-1C32.7,403.3,32.4,401.9,32.4,400.1z M33.6,400.1c0,1.6,0.2,2.7,0.6,3.3c0.4,0.5,0.9,0.8,1.4,0.8s1-0.3,1.4-0.8
	s0.6-1.6,0.6-3.3c0-1.6-0.2-2.7-0.6-3.3s-0.9-0.8-1.4-0.8c-0.6,0-1,0.2-1.4,0.7C33.8,397.3,33.6,398.4,33.6,400.1z"/>
<path d="M39.7,405l2.7-3.8l-2.5-3.5h1.5l1.1,1.7c0.2,0.3,0.4,0.6,0.5,0.8c0.2-0.3,0.4-0.6,0.6-0.8l1.2-1.7h1.5l-2.5,3.4l2.7,3.8H45
	l-1.5-2.3l-0.4-0.6l-1.9,2.9H39.7z"/>
<path d="M51.8,405h-1.2v-7.8c-0.3,0.3-0.7,0.6-1.2,0.8s-0.9,0.5-1.3,0.6v-1.2c0.7-0.3,1.3-0.7,1.8-1.2s0.9-0.9,1.1-1.3h0.8V405z"/>
<path d="M54.9,400.1c0-1.2,0.1-2.1,0.4-2.9c0.2-0.7,0.6-1.3,1.1-1.7s1.1-0.6,1.8-0.6c0.5,0,1,0.1,1.4,0.3c0.4,0.2,0.7,0.5,1,0.9
	c0.3,0.4,0.5,0.9,0.6,1.5c0.2,0.6,0.2,1.4,0.2,2.4c0,1.2-0.1,2.1-0.4,2.8c-0.2,0.7-0.6,1.3-1.1,1.7c-0.5,0.4-1.1,0.6-1.8,0.6
	c-1,0-1.7-0.3-2.3-1C55.3,403.3,54.9,401.9,54.9,400.1z M56.2,400.1c0,1.6,0.2,2.7,0.6,3.3c0.4,0.5,0.9,0.8,1.4,0.8s1-0.3,1.4-0.8
	s0.6-1.6,0.6-3.3c0-1.6-0.2-2.7-0.6-3.3s-0.9-0.8-1.4-0.8c-0.6,0-1,0.2-1.4,0.7C56.4,397.3,56.2,398.4,56.2,400.1z"/>
<path d="M29.2,101H28v-7.8c-0.3,0.3-0.7,0.6-1.2,0.8s-0.9,0.5-1.3,0.6v-1.2c0.7-0.3,1.3-0.7,1.8-1.2s0.9-0.9,1.1-1.3h0.8V101z"/>
<path d="M38.8,93.4l-1.2,0.1c-0.1-0.5-0.3-0.8-0.5-1.1c-0.3-0.4-0.7-0.5-1.2-0.5c-0.4,0-0.7,0.1-1,0.3c-0.4,0.3-0.7,0.7-0.9,1.2
	s-0.3,1.3-0.3,2.3c0.3-0.5,0.7-0.8,1.1-1s0.9-0.3,1.3-0.3c0.8,0,1.5,0.3,2.1,0.9c0.6,0.6,0.9,1.4,0.9,2.3c0,0.6-0.1,1.2-0.4,1.8
	c-0.3,0.5-0.6,1-1.1,1.2s-1,0.4-1.6,0.4c-1,0-1.9-0.4-2.5-1.1c-0.6-0.8-1-2-1-3.7c0-1.9,0.4-3.3,1.1-4.2c0.6-0.8,1.5-1.1,2.5-1.1
	c0.8,0,1.4,0.2,1.9,0.7S38.7,92.7,38.8,93.4z M33.7,97.8c0,0.4,0.1,0.8,0.3,1.2s0.4,0.7,0.8,0.9c0.3,0.2,0.7,0.3,1,0.3
	c0.5,0,1-0.2,1.3-0.6s0.6-1,0.6-1.7c0-0.7-0.2-1.2-0.6-1.6c-0.4-0.4-0.8-0.6-1.4-0.6c-0.6,0-1,0.2-1.4,0.6
	C33.9,96.6,33.7,97.1,33.7,97.8z"/>
<path d="M39.7,101l2.7-3.8l-2.5-3.5h1.5l1.1,1.7c0.2,0.3,0.4,0.6,0.5,0.8c0.2-0.3,0.4-0.6,0.6-0.8l1.2-1.7h1.5l-2.5,3.4l2.7,3.8H45
	l-1.5-2.3l-0.4-0.6l-1.9,2.9H39.7z"/>
<path d="M51.8,101h-1.2v-7.8c-0.3,0.3-0.7,0.6-1.2,0.8s-0.9,0.5-1.3,0.6v-1.2c0.7-0.3,1.3-0.7,1.8-1.2s0.9-0.9,1.1-1.3h0.8V101z"/>
<path d="M61.3,93.4l-1.2,0.1c-0.1-0.5-0.3-0.8-0.5-1.1c-0.3-0.4-0.7-0.5-1.2-0.5c-0.4,0-0.7,0.1-1,0.3c-0.4,0.3-0.7,0.7-0.9,1.2
	s-0.3,1.3-0.3,2.3c0.3-0.5,0.7-0.8,1.1-1s0.9-0.3,1.3-0.3c0.8,0,1.5,0.3,2.1,0.9c0.6,0.6,0.9,1.4,0.9,2.3c0,0.6-0.1,1.2-0.4,1.8
	c-0.3,0.5-0.6,1-1.1,1.2s-1,0.4-1.6,0.4c-1,0-1.9-0.4-2.5-1.1c-0.6-0.8-1-2-1-3.7c0-1.9,0.4-3.3,1.1-4.2c0.6-0.8,1.5-1.1,2.5-1.1
	c0.8,0,1.4,0.2,1.9,0.7S61.2,92.7,61.3,93.4z M56.3,97.8c0,0.4,0.1,0.8,0.3,1.2s0.4,0.7,0.8,0.9c0.3,0.2,0.7,0.3,1,0.3
	c0.5,0,1-0.2,1.3-0.6s0.6-1,0.6-1.7c0-0.7-0.2-1.2-0.6-1.6c-0.4-0.4-0.8-0.6-1.4-0.6c-0.6,0-1,0.2-1.4,0.6
	C56.5,96.6,56.3,97.1,56.3,97.8z"/>
<path d="M25.3,37V27h1.3v10H25.3z"/>
<path d="M33.5,34.3l1.2,0.2c-0.1,0.8-0.5,1.5-1,2c-0.5,0.5-1.2,0.7-2,0.7c-1,0-1.8-0.3-2.4-1c-0.6-0.6-0.9-1.6-0.9-2.8
	c0-0.8,0.1-1.5,0.4-2.1s0.7-1,1.2-1.3c0.5-0.3,1.1-0.4,1.7-0.4c0.8,0,1.4,0.2,1.9,0.6c0.5,0.4,0.8,1,1,1.7l-1.2,0.2
	c-0.1-0.5-0.3-0.9-0.6-1.1s-0.6-0.4-1-0.4c-0.6,0-1.1,0.2-1.5,0.7c-0.4,0.4-0.6,1.1-0.6,2.1c0,1,0.2,1.7,0.6,2.1s0.9,0.7,1.5,0.7
	c0.5,0,0.9-0.1,1.2-0.4S33.5,35,33.5,34.3z"/>
<path d="M35.4,33.4c0-1.3,0.4-2.3,1.1-3c0.6-0.5,1.4-0.8,2.3-0.8c1,0,1.8,0.3,2.4,1c0.6,0.7,1,1.6,1,2.7c0,0.9-0.1,1.7-0.4,2.2
	c-0.3,0.5-0.7,1-1.2,1.2s-1.1,0.4-1.8,0.4c-1,0-1.8-0.3-2.5-1S35.4,34.6,35.4,33.4z M36.6,33.4c0,0.9,0.2,1.6,0.6,2.1
	c0.4,0.5,0.9,0.7,1.5,0.7c0.6,0,1.1-0.2,1.5-0.7s0.6-1.2,0.6-2.1c0-0.9-0.2-1.6-0.6-2c-0.4-0.5-0.9-0.7-1.5-0.7
	c-0.6,0-1.1,0.2-1.5,0.7S36.6,32.4,36.6,33.4z"/>
<path d="M43.6,37v-7.3h1.1v1c0.5-0.8,1.3-1.2,2.3-1.2c0.4,0,0.8,0.1,1.2,0.2c0.4,0.2,0.6,0.4,0.8,0.6s0.3,0.6,0.4,0.9
	c0,0.2,0.1,0.6,0.1,1.2V37h-1.2v-4.4c0-0.5,0-0.9-0.1-1.1c-0.1-0.2-0.3-0.4-0.5-0.6c-0.2-0.1-0.5-0.2-0.9-0.2c-0.5,0-1,0.2-1.4,0.5
	s-0.6,1-0.6,1.9v4H43.6z"/>
<path d="M50.9,34.8l1.2-0.2c0.1,0.5,0.3,0.9,0.6,1.1s0.7,0.4,1.3,0.4c0.6,0,1-0.1,1.3-0.3c0.3-0.2,0.4-0.5,0.4-0.8
	c0-0.3-0.1-0.5-0.4-0.7c-0.2-0.1-0.6-0.2-1.3-0.4c-0.9-0.2-1.5-0.4-1.9-0.6c-0.3-0.2-0.6-0.4-0.8-0.7c-0.2-0.3-0.3-0.6-0.3-1
	c0-0.3,0.1-0.6,0.2-0.9c0.1-0.3,0.3-0.5,0.6-0.7c0.2-0.1,0.5-0.3,0.8-0.4c0.3-0.1,0.7-0.1,1.1-0.1c0.6,0,1.1,0.1,1.5,0.2
	s0.7,0.4,1,0.7c0.2,0.3,0.3,0.7,0.4,1.1l-1.2,0.2c-0.1-0.4-0.2-0.7-0.5-0.9s-0.6-0.3-1.1-0.3c-0.6,0-1,0.1-1.2,0.3s-0.4,0.4-0.4,0.7
	c0,0.2,0.1,0.3,0.2,0.4c0.1,0.1,0.3,0.2,0.5,0.3c0.1,0,0.5,0.2,1.1,0.3c0.9,0.2,1.5,0.4,1.8,0.6c0.3,0.1,0.6,0.4,0.8,0.6
	s0.3,0.6,0.3,1.1c0,0.4-0.1,0.8-0.4,1.2c-0.2,0.4-0.6,0.6-1,0.8c-0.5,0.2-1,0.3-1.5,0.3c-0.9,0-1.7-0.2-2.2-0.6S51,35.6,50.9,34.8z"
	/>
<g>
	<path class="st1" d="M309,574h-2c0-2.2-1.8-4-4-4s-4,1.8-4,4h-2c-0.5,0-0.9,0.4-1,0.9l-1,10c0,0.3,0.1,0.6,0.3,0.8
		c0.2,0.2,0.4,0.3,0.7,0.3h14c0.3,0,0.5-0.1,0.7-0.3c0.2-0.2,0.3-0.5,0.3-0.8l-1-10C309.9,574.4,309.5,574,309,574z M301,577.1
		c0,0.5-0.5,0.9-1,0.9c0,0-0.1,0-0.1,0c-0.5,0-0.9-0.5-0.9-1c0,0,0-0.1,0-0.1c0-0.5,0.5-0.9,1-0.9c0,0,0.1,0,0.1,0
		c0.5,0,0.9,0.5,0.9,1C301,577,301,577.1,301,577.1z M303,572c1.1,0,2,0.9,2,2h-4C301,572.9,301.9,572,303,572z M307,577.1
		c0,0.5-0.5,0.9-1,0.9c0,0-0.1,0-0.1,0c-0.5,0-0.9-0.5-0.9-1c0,0,0-0.1,0-0.1c0-0.5,0.5-0.9,1-0.9c0,0,0.1,0,0.1,0
		c0.5,0,0.9,0.5,0.9,1C307,577,307,577.1,307,577.1z"/>
	<path class="st1" d="M310.7,533c-0.1,0-0.3,0-0.3,0.1l-3.5,3.5v-2.5c0-0.3-0.1-0.6-0.3-0.8c-0.2-0.2-0.4-0.3-0.7-0.3h-10
		c-0.3,0-0.6,0.1-0.8,0.4c-0.2,0.2-0.3,0.4-0.3,0.7v8c0,0.3,0.1,0.4,0.4,0.7c0.2,0.2,0.4,0.3,0.7,0.3h9.9c0.3,0,0.6-0.1,0.8-0.3
		c0.1-0.3,0.3-0.4,0.3-0.7v-2.5l3.3,3.3c0.1,0.1,0.1,0.1,0.3,0.1h0.1c0.1,0,0.3-0.1,0.3-0.3v-9.3C311,533.1,310.9,533.1,310.7,533z"
		/>
	<path class="st1" d="M272.6,572.3c-0.2-0.2-0.4-0.3-0.7-0.3h-13.9c-0.3,0-0.6,0.1-0.8,0.4c-0.2,0.2-0.3,0.4-0.3,0.7v9.9
		c0,0.3,0.1,0.6,0.3,0.8c0.2,0.2,0.5,0.3,0.8,0.3h13.9c0.3,0,0.6-0.1,0.8-0.3c0.2-0.2,0.3-0.4,0.3-0.7v-10
		C273,572.8,272.9,572.5,272.6,572.3z M259.4,574.4c0.3-0.3,0.7-0.4,1.1-0.4c0.4,0,0.8,0.1,1.1,0.4c0.3,0.3,0.4,0.7,0.4,1.1
		c0,0.4-0.1,0.8-0.4,1.1c-0.3,0.3-0.7,0.4-1.1,0.4c-0.4,0-0.8-0.1-1.1-0.4c-0.3-0.3-0.4-0.7-0.4-1.1
		C259,575.1,259.1,574.7,259.4,574.4z M259,582l2-3.1l2.4,1.7l3.6-4.7l4,6H259z"/>
	<path class="st1" d="M263.9,544C263.9,544,264,544,263.9,544c1.6,0,3.1-0.5,4.3-1.4l3.1,3.1c0.4,0.4,1,0.4,1.4,0
		c0.4-0.4,0.4-1,0-1.4l-3.1-3.1c0.9-1.2,1.4-2.7,1.4-4.2c0-3.8-3.1-7-6.9-7c0,0-0.1,0-0.1,0c-3.8,0-7,3.1-7,6.9c0,0,0,0.1,0,0.1
		C257,540.8,260.1,544,263.9,544z M259,537c0-2.7,2.2-5,4.9-5c0,0,0.1,0,0.1,0c2.7,0,5,2.2,5,4.9c0,0,0,0.1,0,0.1c0,2.7-2.2,5-4.9,5
		c0,0-0.1,0-0.1,0C261.3,542,259,539.8,259,537C259,537.1,259,537,259,537z"/>
	<circle class="st1" cx="226.5" cy="618.5" r="1.5"/>
	<circle class="st1" cx="226.5" cy="612.5" r="1.5"/>
	<circle class="st1" cx="226.5" cy="624.5" r="1.5"/>
	<path class="st1" d="M220.9,572c-2.5,2.6-2.5,6.8,0,9.4l4.7,4.7l4.7-4.7c2.5-2.6,2.5-6.7,0-9.3C227.7,569.4,223.5,569.4,220.9,572z
		 M225.6,579.5c-1.6-0.1-2.8-1.3-2.8-2.9c0-1.5,1.3-2.8,2.8-2.8c1.6,0,2.8,1.3,2.8,2.9C228.4,578.3,227.1,579.5,225.6,579.5z"/>
	<polygon class="st1" points="228.6,544.3 220.7,544.3 220.7,531.7 228.6,531.7 228.6,530 219,530 219,546 228.6,546 	"/>
	<polygon class="st1" points="226.7,534.2 229.9,537.2 222.9,537.2 222.9,539 229.7,539 226.7,542 228,543.2 233,537.9 228,532.9 	
		"/>
	<path class="st1" d="M184.5,613.2c0,0.2,0,0.4,0,0.5v2.1H182v2.8h2.5v7.3h2.9v-7.3h2.5l0.4-2.8h-2.8v-1.8c0-0.8,0.3-1.4,1.4-1.4
		h1.5v-2.6c-0.4,0-1.2-0.1-2.2-0.1C186.2,609.9,184.6,611.3,184.5,613.2z"/>
	<path class="st1" d="M193.2,573.1l-2.4,0.5c-0.7-0.6-1.5-1-2.4-1.3l-0.8-2.3h-2l-0.8,2.3c-0.9,0.2-1.7,0.7-2.4,1.3l-2.4-0.5l-1,1.8
		l1.6,1.8c0,0.4-0.1,0.9-0.1,1.3c0,0.4,0,0.9,0.1,1.3l-1.6,1.8l1,1.8l2.4-0.5c0.7,0.6,1.5,1,2.4,1.3l0.8,2.3h2l0.8-2.3
		c0.9-0.2,1.7-0.7,2.4-1.3l2.4,0.5l1-1.8l-1.6-1.8c0-0.4,0.1-0.9,0.1-1.3c0-0.4,0-0.9-0.1-1.3l1.6-1.8L193.2,573.1z M186.5,580
		c-1.1,0-2-0.9-2-2c0-1.1,0.9-2,2-2c1.1,0,2,0.9,2,2S187.6,580,186.5,580z"/>
	<polygon class="st1" points="185,533.9 185,546 187,546 187,533.9 192.5,539.5 194,538 186,530 178,538 179.5,539.5 	"/>
	<path class="st1" d="M155.6,611.3c-0.6,0.4-1.3,0.6-2,0.8c-0.6-0.7-1.5-1.1-2.4-1.1c-1.8,0-3.3,1.5-3.3,3.3c0,0.2,0,0.5,0.1,0.7
		c-2.6-0.1-5.1-1.4-6.8-3.5c-0.3,0.5-0.4,1.1-0.4,1.7c0,1.1,0.5,2.1,1.4,2.8c-0.5,0-1.1-0.2-1.5-0.4c0,1.6,1.1,2.9,2.7,3.2
		c-0.3,0.1-0.6,0.1-0.9,0.1c-0.2,0-0.4,0-0.6-0.1c0.4,1.3,1.7,2.3,3.1,2.3c-1.2,0.9-2.6,1.4-4.1,1.4c-0.3,0-0.5,0-0.8-0.1
		c1.5,1.1,3.2,1.6,5.1,1.6c5.1,0,9.3-4.1,9.3-9.2c0-0.1,0-0.1,0-0.2v-0.4c0.6-0.5,1.2-1,1.6-1.7c-0.6,0.3-1.2,0.4-1.9,0.5
		C154.8,612.6,155.3,612,155.6,611.3z"/>
	<rect x="140" y="570" class="st1" width="5" height="5"/>
	<rect x="140" y="577" class="st1" width="16" height="5"/>
	<rect x="140" y="584" class="st1" width="16" height="2"/>
	<rect x="147" y="570" class="st1" width="9" height="5"/>
	<polygon class="st1" points="149,542.1 149,530 147,530 147,542.1 141.5,536.5 140,538 148,546 156,538 154.5,536.5 	"/>
	<path class="st1" d="M109,613.9c-2.2,0-4.1,1.7-4.1,4c0,0,0,0.1,0,0.1c0,2.3,1.8,4.1,4.1,4.1s4.1-1.8,4.1-4.1
		S111.3,613.9,109,613.9z M111.7,618c0,1.4-1.1,2.6-2.6,2.7c0,0-0.1,0-0.1,0c-1.4,0-2.6-1.1-2.7-2.6c0,0,0-0.1,0-0.1
		c0-1.4,1.1-2.6,2.6-2.7c0,0,0.1,0,0.1,0C110.4,615.3,111.6,616.5,111.7,618C111.7,617.9,111.7,618,111.7,618z"/>
	<path class="st1" d="M113.3,612.8c-0.5,0-1,0.4-1,1c0,0.5,0.4,1,1,1c0.5,0,1-0.4,1-1C114.2,613.2,113.8,612.8,113.3,612.8z"/>
	<path class="st1" d="M116.6,612.8c-0.2-0.5-0.5-1-0.9-1.4c-0.4-0.4-0.9-0.7-1.4-0.9c-0.6-0.2-1.3-0.4-2-0.4
		c-1.1-0.1-2.2-0.1-3.3-0.1c-1.1,0-2.2,0-3.3,0.1c-0.7,0-1.3,0.1-2,0.4c-0.5,0.2-1,0.5-1.4,0.9c-0.4,0.4-0.7,0.9-0.9,1.4
		c-0.3,0.6-0.4,1.3-0.4,2c-0.1,1.1-0.1,2.2-0.1,3.3c0,1.1,0,2.2,0.1,3.3c0,0.7,0.1,1.3,0.4,2c0.2,0.5,0.5,1,0.9,1.4
		c0.4,0.4,0.9,0.7,1.4,0.9c0.6,0.2,1.3,0.4,2,0.4c1.1,0.1,2.2,0.1,3.3,0.1c1.1,0,2.2,0,3.3-0.1c0.7,0,1.3-0.1,2-0.4
		c1.1-0.4,1.9-1.2,2.3-2.3c0.2-0.6,0.4-1.3,0.4-2c0-0.9,0.1-1.2,0.1-3.3c0-1.1,0-2.2-0.1-3.3C116.9,614,116.8,613.4,116.6,612.8z
		 M115.5,621.2c0,0.5-0.1,1-0.3,1.5c-0.3,0.7-0.8,1.2-1.5,1.5c-0.5,0.2-1,0.3-1.5,0.3c-0.8,0-1.1,0.1-3.2,0.1c-1.1,0-2.1,0-3.2-0.1
		c-0.5,0-1-0.1-1.5-0.3c-0.7-0.3-1.2-0.8-1.5-1.5c-0.2-0.5-0.3-1-0.3-1.5c0-0.8-0.1-1.1-0.1-3.2c0-1.1,0-2.1,0.1-3.2
		c0-0.5,0.1-1,0.3-1.5c0.2-0.3,0.4-0.6,0.6-0.9c0.2-0.3,0.5-0.5,0.9-0.6c0.5-0.2,1-0.3,1.5-0.3c1.1-0.1,2.1-0.1,3.2-0.1
		c1.1,0,2.1,0,3.2,0.1c0.5,0,1,0.1,1.5,0.3c0.7,0.3,1.2,0.8,1.5,1.5c0.2,0.5,0.3,1,0.3,1.5c0,0.8,0.1,1.1,0.1,3.2
		C115.6,619.1,115.6,620.1,115.5,621.2z"/>
	<path class="st1" d="M103,584h12c1.1,0,2-0.9,2-2v-8c0-1.1-0.9-2-2-2h-12c-1.1,0-2,0.9-2,2v8C101,583.1,101.9,584,103,584z
		 M115,574l-6,5l-6-5H115z"/>
	<polygon class="st1" points="107.5,544.5 109,546 117,538 109,530 107.5,531.5 113.1,537 101,537 101,539 113.1,539 	"/>
	<path class="st1" d="M71,610c-2.1-0.1-4.2,0.8-5.6,2.4c-1.6,1.4-2.5,3.5-2.4,5.6c0,2.1,0.9,4.1,2.4,5.6c1.4,1.6,3.5,2.5,5.6,2.4
		c2.1,0.1,4.2-0.8,5.6-2.4c1.6-1.4,2.5-3.5,2.4-5.6c0.1-2.1-0.8-4.2-2.4-5.6C75.2,610.8,73.1,609.9,71,610z M74.1,623.2
		c-0.5,0.6-1.2,1.1-2,1.2c-0.1,0-0.1,0-0.3-0.1c-0.1-0.1-0.1-0.1-0.1-0.3v-2.4c-0.5-0.1-0.9-0.4-1.2-0.8c-0.4-0.3-0.6-0.8-0.5-1.3
		v-0.5c-1,0-1.9-0.4-2.5-1.1c-0.7-0.7-1.1-1.6-1.1-2.5c0-1,0.4-2,1.2-2.7c1-0.7,2.2-1,3.5-1.1c0.4,0,0.7,0.1,1.1,0.3
		c0.1,0,0.3,0.1,0.3,0.3c0,0.9-0.2,1.8-0.7,2.5c0.4,0.3,0.6,0.8,0.7,1.3c0,0.2,0,0.4-0.1,0.5c-0.2,0.1-0.3,0.2-0.5,0.1
		c-0.1,0-0.3-0.1-0.5-0.3c-0.2-0.2-0.4-0.4-0.7-0.4c-0.2,0-0.4,0.1-0.5,0.3c-0.2,0.1-0.3,0.3-0.3,0.5c0,0.4,0.1,0.7,0.4,0.9
		c0.4,0.2,0.8,0.2,1.2,0.3h1.3c0.7,0,1.3,0.3,1.7,0.8c0.4,0.4,0.7,1,0.7,1.6C74.9,621.4,74.6,622.4,74.1,623.2z"/>
	<path class="st1" d="M70.9,570c-3.3,0-6,2.7-6,6v3c0,1.3-0.6,2.4-1.6,3.2c-0.3,0.3-0.4,0.7-0.3,1.1c0.1,0.4,0.5,0.7,0.9,0.7h5
		c0,1.1,0.9,2,2,2s2-0.9,2-2h5c0.4,0,0.8-0.3,0.9-0.7c0.2-0.4,0-0.8-0.3-1.1c-1-0.8-1.6-1.9-1.6-3.2v-3
		C76.9,572.7,74.3,570,70.9,570z"/>
	<polygon class="st1" points="72.5,531.5 71,530 63,538 71,546 72.5,544.5 66.9,539 79,539 79,537 66.9,537 	"/>
	<circle class="st1" cx="32" cy="614" r="4"/>
	<path class="st1" d="M32,620c-4.4,0-8,1.8-8,4v2h16v-2C40,621.8,36.4,620,32,620z"/>
	<path class="st1" d="M35,570h-6c0,0-0.1,0-0.1,0c-2.7,0-4.9,2.3-4.9,5v6c0,0,0,0.1,0,0.1c0,2.7,2.3,4.9,5,4.9h10c0,0,0.1,0,0.1,0
		c0.5,0,0.9-0.5,0.9-1v-10c0,0,0-0.1,0-0.1C40,572.2,37.7,570,35,570z M34,579h-4c0,0-0.1,0-0.1,0c-0.5,0-0.9-0.5-0.9-1
		c0-0.6,0.4-1,1-1h4c0,0,0.1,0,0.1,0c0.5,0,0.9,0.5,0.9,1C35,578.6,34.6,579,34,579z"/>
	<polygon class="st1" points="33,530 31,530 31,537 24,537 24,539 31,539 31,546 33,546 33,539 40,539 40,537 33,537 	"/>
	<path class="st1" d="M348.7,572.3L348.7,572.3c-1.7-1.7-4.4-1.7-6.1,0c0,0,0,0,0,0l-0.6,0.6l-0.6-0.6c-1.7-1.7-4.4-1.7-6.1,0
		c-1.7,1.7-1.7,4.4,0,6.1l6.7,6.7l6.7-6.7C350.4,576.7,350.4,574,348.7,572.3C348.7,572.3,348.7,572.3,348.7,572.3z"/>
	<path class="st1" d="M342,546c4.4,0,8-3.6,8-8c0-4.4-3.6-8-8-8s-8,3.6-8,8S337.6,546,342,546z M339.8,538.1c0.5-1,1.3-1.8,2.3-2.3
		l3.9-1.8l-1.8,3.9c-0.5,1-1.3,1.8-2.3,2.3L338,542L339.8,538.1z"/>
</g>
<g>
	<path d="M312.2,339.4h-1.4c-1.1,0-2.1-0.6-2.5-1.6l-1.7-3.3c-0.8-1.6-2.4-2.6-4.2-2.6H300v1.9h2.4c1.1,0,2.1,0.6,2.5,1.6l1.7,3.3
		c0.8,1.6,2.4,2.6,4.2,2.6h1.4l0,1.9l3.8-2.8l-3.8-2.8V339.4z"/>
	<path d="M316,332.8l-3.8-2.8v1.9h-1.4c-1.1,0-2.1,0.3-2.9,1c0.2,0.2,0.3,0.5,0.5,0.8l0.4,0.9c0.5-0.6,1.3-0.9,2.1-0.8h1.4l0,1.9
		L316,332.8z"/>
	<path d="M304.4,338.6c-0.5,0.6-1.3,0.9-2.1,0.8H300v1.9h2.4c1.1,0,2.1-0.3,2.9-1c-0.2-0.2-0.3-0.5-0.5-0.8L304.4,338.6z"/>
	<path d="M307.7,289.7c0-0.9-0.7-1.7-1.7-1.7l-5.1,5.9v8.4c0,0.9,0.8,1.7,1.7,1.7h8.7c0.8,0,1.5-0.6,1.7-1.4l1.1-6.7
		c0-0.1,0-0.2,0-0.2c0-0.9-0.8-1.7-1.7-1.7h-6.4l1.5-3.5C307.7,290.2,307.7,289.9,307.7,289.7z"/>
	<path d="M301,260.9l2.4-0.5c0.7,0.6,1.5,1,2.4,1.3l0.8,2.3h2l0.8-2.3c0.9-0.2,1.7-0.7,2.4-1.3l2.4,0.5l1-1.8l-1.6-1.8
		c0-0.4,0.1-0.9,0.1-1.3c0-0.4,0-0.9-0.1-1.3l1.6-1.8l-1-1.8l-2.4,0.5c-0.7-0.6-1.5-1-2.4-1.3l-0.8-2.3h-2l-0.8,2.3
		c-0.9,0.2-1.7,0.7-2.4,1.3l-2.4-0.5l-1,1.8l1.6,1.8c0,0.4-0.1,0.9-0.1,1.3c0,0.4,0,0.9,0.1,1.3l-1.6,1.8L301,260.9z M307.5,254
		c1.1,0,2,0.9,2,2s-0.9,2-2,2c-1.1,0-2-0.9-2-2C305.5,254.9,306.4,254,307.5,254z"/>
	<rect x="306" y="208" width="4" height="16"/>
	<rect x="300" y="216" width="4" height="8"/>
	<rect x="312" y="212" width="4" height="12"/>
	<path d="M301.1,181h9.9c0.3,0,0.6-0.1,0.8-0.3c0.1-0.3,0.3-0.4,0.3-0.7v-2.5l3.3,3.3c0.1,0.1,0.1,0.1,0.3,0.1h0.1
		c0.1,0,0.3-0.1,0.3-0.3v-9.3c0-0.3-0.1-0.3-0.3-0.4c-0.1,0-0.3,0-0.3,0.1l-3.5,3.5v-2.5c0-0.3-0.1-0.6-0.3-0.8
		c-0.2-0.2-0.4-0.3-0.7-0.3h-10c-0.3,0-0.6,0.1-0.8,0.4c-0.2,0.2-0.3,0.4-0.3,0.7v8c0,0.3,0.1,0.4,0.4,0.7
		C300.6,180.9,300.8,181,301.1,181z"/>
	<polygon points="311,141.2 316,135.9 311,130.9 309.7,132.2 312.9,135.2 305.9,135.2 305.9,137 312.7,137 309.7,140 	"/>
	<polygon points="311.6,142.3 303.7,142.3 303.7,129.7 311.6,129.7 311.6,128 302,128 302,144 311.6,144 	"/>
	<path d="M273,331.9c-2.2,0-4.1,1.7-4.1,4c0,0,0,0.1,0,0.1c0,2.3,1.8,4.1,4.1,4.1s4.1-1.8,4.1-4.1S275.3,331.9,273,331.9z
		 M275.7,336c0,1.4-1.1,2.6-2.6,2.7c0,0-0.1,0-0.1,0c-1.4,0-2.6-1.1-2.7-2.6c0,0,0-0.1,0-0.1c0-1.4,1.1-2.6,2.6-2.7c0,0,0.1,0,0.1,0
		C274.4,333.3,275.6,334.5,275.7,336C275.7,335.9,275.7,336,275.7,336z"/>
	<path d="M280.6,330.8c-0.2-0.5-0.5-1-0.9-1.4c-0.4-0.4-0.9-0.7-1.4-0.9c-0.6-0.2-1.3-0.4-2-0.4c-1.1-0.1-2.2-0.1-3.3-0.1
		c-1.1,0-2.2,0-3.3,0.1c-0.7,0-1.3,0.1-2,0.4c-0.5,0.2-1,0.5-1.4,0.9c-0.4,0.4-0.7,0.9-0.9,1.4c-0.3,0.6-0.4,1.3-0.4,2
		c-0.1,1.1-0.1,2.2-0.1,3.3c0,1.1,0,2.2,0.1,3.3c0,0.7,0.1,1.3,0.4,2c0.2,0.5,0.5,1,0.9,1.4c0.4,0.4,0.9,0.7,1.4,0.9
		c0.6,0.2,1.3,0.4,2,0.4c1.1,0.1,2.2,0.1,3.3,0.1c1.1,0,2.2,0,3.3-0.1c0.7,0,1.3-0.1,2-0.4c1.1-0.4,1.9-1.2,2.3-2.3
		c0.2-0.6,0.4-1.3,0.4-2c0-0.9,0.1-1.2,0.1-3.3c0-1.1,0-2.2-0.1-3.3C280.9,332,280.8,331.4,280.6,330.8z M279.5,339.2
		c0,0.5-0.1,1-0.3,1.5c-0.3,0.7-0.8,1.2-1.5,1.5c-0.5,0.2-1,0.3-1.5,0.3c-0.8,0-1.1,0.1-3.2,0.1c-1.1,0-2.1,0-3.2-0.1
		c-0.5,0-1-0.1-1.5-0.3c-0.7-0.3-1.2-0.8-1.5-1.5c-0.2-0.5-0.3-1-0.3-1.5c0-0.8-0.1-1.1-0.1-3.2c0-1.1,0-2.1,0.1-3.2
		c0-0.5,0.1-1,0.3-1.5c0.2-0.3,0.4-0.6,0.6-0.9c0.2-0.3,0.5-0.5,0.9-0.6c0.5-0.2,1-0.3,1.5-0.3c1.1-0.1,2.1-0.1,3.2-0.1
		c1.1,0,2.1,0,3.2,0.1c0.5,0,1,0.1,1.5,0.3c0.7,0.3,1.2,0.8,1.5,1.5c0.2,0.5,0.3,1,0.3,1.5c0,0.8,0.1,1.1,0.1,3.2
		C279.6,337.1,279.6,338.1,279.5,339.2z"/>
	<path d="M277.3,330.8c-0.5,0-1,0.4-1,1c0,0.5,0.4,1,1,1c0.5,0,1-0.4,1-1C278.2,331.2,277.8,330.8,277.3,330.8z"/>
	<path d="M265.3,303.5c0.2,0.1,0.5,0.2,0.8,0.3h2.1c0.4,0,0.5,0,0.8-0.3c0.1-0.2,0.2-0.5,0.3-0.8v-1.1h7.5v1.1c0,0.4,0,0.7,0.3,0.8
		c0.2,0.1,0.5,0.2,0.8,0.3h2.1c0.4,0,0.7,0,0.8-0.3c0.1-0.2,0.2-0.5,0.3-0.8v-6.1c0-0.4-0.2-0.8-0.5-0.9c-0.3-0.1-0.4-0.3-0.7-0.4
		c-2.2-0.8-4.6-1.2-6.9-1.1c-2.3-0.1-4.5,0.3-6.7,1.1l-0.8,0.4c-0.3,0.2-0.4,0.6-0.4,0.9v6.1C265,303,265,303.4,265.3,303.5z"/>
	<path d="M277.3,289.4c-0.8-0.2-1.6-0.4-2.4-0.4H273c-3.1,0-5.2,0.4-6.5,1.3c-0.3,0.2-0.4,0.5-0.4,0.8v2.4c0.3-0.5,0.8-0.8,1.5-1.2
		c0.7-0.3,1.4-0.4,2.1-0.4c0.6,0,1.3,0.1,1.9,0.4c0.5,0.2,1,0.5,1.5,0.8c0.4-0.3,0.9-0.6,1.5-0.7c0.6-0.3,1.2-0.4,1.9-0.4
		c0.7,0,1.5,0.1,2.1,0.4c0.6,0.2,1.1,0.6,1.5,1.1v-2.4c0-0.3-0.2-0.6-0.4-0.8C278.8,289.9,278.1,289.6,277.3,289.4z"/>
	<path d="M265.3,257.9l3.8,1.3c0.3,0.1,0.6,0.4,0.7,0.7l1.3,3.8c0.1,0.2,0.2,0.3,0.3,0.3c0.1,0,0.2,0,0.3-0.1l1.1-1.1
		c0.3-0.2,0.4-0.6,0.3-1l-0.5-3.3c0.1-0.1,0.7-0.6,1.9-1.5l3.5,5.4c0.1,0.1,0.2,0.2,0.4,0.3c0.2,0,0.3,0,0.4-0.1l0.8-0.8
		c0.1-0.1,0.2-0.3,0.2-0.5v-0.6l-1.8-6.6c0.5-0.4,1-0.8,1.4-1.2c0.4-0.4,0.7-0.8,0.9-1.3c0.3-0.5,0.5-1.1,0.6-1.7
		c0.2-0.5,0.1-1.1-0.3-1.5c-0.3-0.2-0.7-0.4-1.1-0.4c-0.5,0-0.9,0.1-1.3,0.3c-0.4,0.2-0.8,0.4-1.2,0.7c-0.3,0.2-0.6,0.4-0.9,0.7
		c-0.5,0.4-0.9,0.8-1.2,1.3l-6.5-1.9c-0.2,0-0.3-0.1-0.6,0c-0.2,0-0.4,0.1-0.5,0.2l-0.7,0.8c-0.2,0.1-0.2,0.2-0.2,0.4
		s0.1,0.3,0.3,0.4l5.4,3.5c-0.1,0.2-0.7,0.8-1.6,1.9l-3.3-0.5c-0.4-0.1-0.7,0.1-1,0.3l-1.1,1.2c-0.1,0.1-0.1,0.2-0.1,0.3
		C265,257.7,265.1,257.8,265.3,257.9z"/>
	<polygon points="267,224 273,218 279,224 279,208 267,208 	"/>
	<path d="M267,184h12c1.1,0,2-0.9,2-2v-9c0-1.1-0.9-2-2-2h-1.6l-1.5-1.5c-0.3-0.3-0.7-0.5-1.1-0.5h-3.5c-0.5,0-0.9,0.2-1.2,0.5
		l-1.5,1.5H267c-1.1,0-2,0.9-2,2v9c0,0.5,0.2,1,0.6,1.4C266,183.8,266.5,184,267,184z M273,173c2.2,0,4,1.8,4,4s-1.8,4-4,4
		s-4-1.8-4-4C269,174.8,270.8,173,273,173z"/>
	<path d="M273,179c1.1,0,2-0.9,2-2s-0.9-2-2-2s-2,0.9-2,2C271,178.1,271.9,179,273,179z"/>
	<polygon points="280.4,131.4 279,130 270.9,138.1 266.4,133.7 265,135.1 270.9,141 	"/>
	<path d="M237.5,331.2c0,0.2,0,0.4,0,0.5v2.1H235v2.8h2.5v7.3h2.9v-7.3h2.5l0.4-2.8h-2.8v-1.8c0-0.8,0.3-1.4,1.4-1.4h1.5v-2.6
		c-0.4,0-1.2-0.1-2.2-0.1C239.2,327.9,237.6,329.3,237.5,331.2z"/>
	<path d="M246.7,299.7l-4-1.9l-0.3-0.1c-0.2,0-0.3,0-0.4,0.1l-1.7,1.6c-0.1,0.3-0.4,0.3-0.7,0.1c-0.8-0.5-1.6-1.2-2.3-1.9
		c-0.7-0.7-1.2-1.5-1.7-2.3c-0.1-0.2-0.1-0.5,0-0.7l1.9-1.7c0.1-0.1,0.2-0.3,0.1-0.4c-0.1-0.1-0.1-0.2-0.1-0.3l-2.1-4
		c-0.1-0.2-0.3-0.3-0.6-0.3c-1,0-2,0.4-2.7,1c-0.6,0.6-0.9,1.3-1,2.1c0,0.9,0,1.8,0.3,2.7c0.4,1.1,0.9,2.1,1.4,3.1
		c0.6,1.1,1.3,2.2,2.1,3.1c1.2,1.1,2.5,2.1,4,2.9c1.2,0.6,2.6,1,4,1c1.1,0,2.2-0.4,3-1.1c0.7-0.7,1.1-1.6,1.1-2.6
		C247,300,247,299.9,246.7,299.7z"/>
	<circle cx="239" cy="252" r="4"/>
	<path d="M247,262c0-2.2-3.6-4-8-4s-8,1.8-8,4v2h16V262z"/>
	<path d="M239,224c4.4,0,8-3.6,8-8c0-4.4-3.6-8-8-8s-8,3.6-8,8S234.6,224,239,224z M235,215h8v2h-8V215z"/>
	<path d="M238.3,183.6c-0.1,0.1-0.1,0.2,0,0.3c0.1,0.1,0.1,0.1,0.3,0.1h1.3c0.1,0,0.2-0.1,0.3-0.1c0.1-0.1,0.1-0.1,0.1-0.3v-2.8
		c1.5-0.2,2.8-1,3.8-2.1c0.9-1.2,1.5-2.6,1.5-4.1c0-0.3-0.1-0.5-0.4-0.7c-0.2-0.2-0.4-0.3-0.6-0.3c-0.5,0-0.9,0.4-0.9,0.9
		c0,1.1-0.4,2.2-1.2,3c-0.8,0.9-1.9,1.4-3,1.3c-1.1,0-2.2-0.5-3-1.3c-0.9-0.8-1.4-1.9-1.3-3c0-0.3-0.2-0.5-0.4-0.7
		c-0.2-0.2-0.4-0.3-0.7-0.3c-0.2,0-0.5,0.1-0.7,0.3c-0.2,0.2-0.3,0.4-0.3,0.7c0,1.5,0.5,2.9,1.5,4.1c1,1.1,2.4,1.9,3.8,2.1
		L238.3,183.6C238.3,183.6,238.3,183.6,238.3,183.6z"/>
	<path d="M241.3,176.7c0.6-0.5,1-1.3,0.9-2.1v-3.7c0-0.7-0.3-1.5-0.8-2c-0.5-0.6-1.3-1-2.1-0.9c-0.8,0-1.6,0.2-2.1,0.8
		c-0.6,0.5-1,1.3-0.9,2.1v3.7c0,0.8,0.3,1.6,0.9,2.1c0.6,0.6,1.3,0.8,2.1,0.8C240.1,177.5,240.8,177.3,241.3,176.7z"/>
	<polygon points="232.4,143.6 238.8,137.2 245.1,143.6 246.6,142.1 240.2,135.8 246.6,129.4 245.1,128 238.8,134.4 232.4,128 
		231,129.4 237.4,135.8 231,142.1 	"/>
	<path d="M211.6,330.3c-0.6,0.4-1.3,0.6-2,0.8c-0.6-0.7-1.5-1.1-2.4-1.1c-1.8,0-3.3,1.5-3.3,3.3c0,0.2,0,0.5,0.1,0.7
		c-2.6-0.1-5.1-1.4-6.8-3.5c-0.3,0.5-0.4,1.1-0.4,1.7c0,1.1,0.5,2.1,1.4,2.8c-0.5,0-1.1-0.2-1.5-0.4c0,1.6,1.1,2.9,2.7,3.2
		c-0.3,0.1-0.6,0.1-0.9,0.1c-0.2,0-0.4,0-0.6-0.1c0.4,1.3,1.7,2.3,3.1,2.3c-1.2,0.9-2.6,1.4-4.1,1.4c-0.3,0-0.5,0-0.8-0.1
		c1.5,1.1,3.2,1.6,5.1,1.6c5.1,0,9.3-4.1,9.3-9.2c0-0.1,0-0.1,0-0.2v-0.4c0.6-0.5,1.2-1,1.6-1.7c-0.6,0.3-1.2,0.4-1.9,0.5
		C210.8,331.6,211.3,331,211.6,330.3z"/>
	<rect x="196" y="288" width="5" height="5"/>
	<rect x="203" y="288" width="9" height="5"/>
	<rect x="196" y="302" width="16" height="2"/>
	<rect x="196" y="295" width="16" height="5"/>
	<polygon points="204,248 201.5,253 196,253.8 200,257.7 199.1,263.2 204,260.6 208.9,263.2 208,257.7 212,253.8 206.5,253 	"/>
	<path d="M204,208c-4.4,0-8,3.6-8,8s3.6,8,8,8c4.4,0,8-3.6,8-8C212,211.6,208.4,208,204,208z M206.2,215.9c-0.5,1-1.3,1.8-2.3,2.3
		L200,220l1.8-3.9c0.5-1,1.3-1.8,2.3-2.3l3.9-1.8L206.2,215.9z"/>
	<path d="M198,184h2c1.1,0,2-0.9,2-2v-2c0-1.1-0.9-2-2-2h-2c-1.1,0-2,0.9-2,2v2C196,183.1,196.9,184,198,184z"/>
	<path d="M198,174h2c1.1,0,2-0.9,2-2v-2c0-1.1-0.9-2-2-2h-2c-1.1,0-2,0.9-2,2v2C196,173.1,196.9,174,198,174z"/>
	<path d="M210,178h-2c-1.1,0-2,0.9-2,2v2c0,1.1,0.9,2,2,2h2c1.1,0,2-0.9,2-2v-2C212,178.9,211.1,178,210,178z"/>
	<path d="M210,168h-2c-1.1,0-2,0.9-2,2v2c0,1.1,0.9,2,2,2h2c1.1,0,2-0.9,2-2v-2C212,168.9,211.1,168,210,168z"/>
	<polygon points="196,136 197.5,137.5 203,131.9 203,144 205,144 205,131.9 210.5,137.5 212,136 204,128 	"/>
	<polygon points="176.5,333.9 175,333.9 175,335.4 173.5,335.4 173.5,336.8 175,336.8 175,338.4 176.5,338.4 176.5,336.9 178,336.9 
		178,335.4 176.5,335.4 	"/>
	<path d="M167.1,335.4v1.7h2.9c-0.3,1.4-1.5,2.3-2.9,2.2c0,0-0.1,0-0.1,0c-1.7,0-3.1-1.5-3.1-3.2c0-1.8,1.4-3.2,3.2-3.2
		c0.7,0,1.5,0.3,2,0.8l1.4-1.4c-0.9-0.9-2.1-1.3-3.4-1.3c-2.8,0-5.1,2.3-5.1,5.1s2.3,5.1,5.1,5.1c0.2,0,0.3,0,0.5,0
		c2.6-0.2,4.6-2.4,4.4-5c0-0.3-0.1-0.5-0.1-0.8H167.1z"/>
	<path d="M162,298h16v-4h-16V298z M163,295h2v2h-2V295z"/>
	<path d="M162,292h16v-4h-16V292z M163,289h2v2h-2V289z"/>
	<path d="M162,304h16v-4h-16V304z M163,301h2v2h-2V301z"/>
	<rect x="166" y="258" width="2" height="2"/>
	<rect x="169" y="255" width="2" height="2"/>
	<rect x="172" y="258" width="2" height="2"/>
	<rect x="169" y="258" width="2" height="2"/>
	<path d="M177,250h-2v-1c0-0.6-0.4-1-1-1s-1,0.4-1,1v1h-6v-1c0,0,0-0.1,0-0.1c0-0.5-0.5-0.9-1-0.9c0,0-0.1,0-0.1,0
		c-0.5,0-0.9,0.5-0.9,1v1h-2c0,0-0.1,0-0.1,0c-0.5,0-0.9,0.5-0.9,1v12c0,0,0,0.1,0,0.1c0,0.5,0.5,0.9,1,0.9h14c0,0,0.1,0,0.1,0
		c0.5,0,0.9-0.5,0.9-1v-12c0,0,0-0.1,0-0.1C178,250.4,177.5,250,177,250z M176,262h-12v-9h12V262z"/>
	<rect x="172" y="255" width="2" height="2"/>
	<path d="M163.3,216.4l6.7,6.7l6.7-6.7c1.7-1.7,1.7-4.4,0-6.1c0,0,0,0,0,0l0,0c-1.7-1.7-4.4-1.7-6.1,0c0,0,0,0,0,0l-0.6,0.6
		l-0.6-0.6c-1.7-1.7-4.4-1.7-6.1,0C161.6,212,161.6,214.7,163.3,216.4z"/>
	<path d="M168.4,179.7l4.3,4.2c0.1,0.1,0.2,0.1,0.3,0.2c0.2,0,0.3-0.1,0.3-0.3v-15.2c0-0.3,0-0.3-0.2-0.5h-0.3l-4.3,4.3h-3
		c-0.1,0-0.2,0.1-0.3,0.2c-0.2,0.2-0.2,0.2-0.2,0.3v6.4c0,0.2-0.2,0.2,0,0.3c0.2,0.2,0.2,0.2,0.3,0.2H168.4z"/>
	<path d="M135,328c-2.1-0.1-4.2,0.8-5.6,2.4c-1.6,1.4-2.5,3.5-2.4,5.6c0,2.1,0.9,4.1,2.4,5.6c1.4,1.6,3.5,2.5,5.6,2.4
		c2.1,0.1,4.2-0.8,5.6-2.4c1.6-1.4,2.5-3.5,2.4-5.6c0.1-2.1-0.8-4.2-2.4-5.6C139.2,328.8,137.1,327.9,135,328z M138.1,341.2
		c-0.5,0.6-1.2,1.1-2,1.2c-0.1,0-0.1,0-0.3-0.1c-0.1-0.1-0.1-0.1-0.1-0.3v-2.4c-0.5-0.1-0.9-0.4-1.2-0.8c-0.4-0.3-0.6-0.8-0.5-1.3
		v-0.5c-1,0-1.9-0.4-2.5-1.1c-0.7-0.7-1.1-1.6-1.1-2.5c0-1,0.4-2,1.2-2.7c1-0.7,2.2-1,3.5-1.1c0.4,0,0.7,0.1,1.1,0.3
		c0.1,0,0.3,0.1,0.3,0.3c0,0.9-0.2,1.8-0.7,2.5c0.4,0.3,0.6,0.8,0.7,1.3c0,0.2,0,0.4-0.1,0.5c-0.2,0.1-0.3,0.2-0.5,0.1
		c-0.1,0-0.3-0.1-0.5-0.3c-0.2-0.2-0.4-0.4-0.7-0.4c-0.2,0-0.4,0.1-0.5,0.3c-0.2,0.1-0.3,0.3-0.3,0.5c0,0.4,0.1,0.7,0.4,0.9
		c0.4,0.2,0.8,0.2,1.2,0.3h1.3c0.7,0,1.3,0.3,1.7,0.8c0.4,0.4,0.7,1,0.7,1.6C138.9,339.4,138.6,340.4,138.1,341.2z"/>
	<path d="M127.9,302h5c0,1.1,0.9,2,2,2s2-0.9,2-2h5c0.4,0,0.8-0.3,0.9-0.7c0.2-0.4,0-0.8-0.3-1.1c-1-0.8-1.6-1.9-1.6-3.2v-3
		c0-3.3-2.7-6-6-6s-6,2.7-6,6v3c0,1.3-0.6,2.4-1.6,3.2c-0.3,0.3-0.4,0.7-0.3,1.1C127.2,301.7,127.5,302,127.9,302z"/>
	<path d="M142.6,248.3c-0.2-0.2-0.4-0.3-0.7-0.3h-5.9c0,0,0,0,0,0c-0.1,0-0.1,0.1-0.1,0.1l-8.7,8.7c-0.2,0.2-0.3,0.4-0.3,0.7
		c0,0.3,0.1,0.4,0.3,0.7l5.6,5.6c0.2,0.2,0.4,0.3,0.7,0.3c0.2,0,0.4-0.1,0.7-0.1l8.7-8.7c0.1-0.1,0.1-0.1,0.1-0.3v-5.9
		C143,248.8,142.9,248.5,142.6,248.3z M140.9,251.5c0,0.4-0.1,0.8-0.4,1.1c-0.6,0.5-1.5,0.5-2.1,0c-0.3-0.3-0.4-0.7-0.4-1.1
		c0-0.4,0.2-0.8,0.5-1.1c0.6-0.5,1.5-0.5,2.1,0C140.8,250.7,140.9,251.1,140.9,251.5z"/>
	<path d="M142,212h-7l-0.5-1.4c-0.1-0.2-0.2-0.3-0.3-0.4c-0.1-0.1-0.3-0.2-0.4-0.2H128c-0.2,0-0.5,0.1-0.7,0.3
		c-0.2,0.2-0.3,0.5-0.3,0.7v9.9c0,0.3,0.1,0.5,0.3,0.8c0.2,0.2,0.5,0.3,0.7,0.3h14c0.3,0,0.5-0.1,0.7-0.3c0.2-0.2,0.3-0.5,0.3-0.7
		v-8c0-0.3-0.1-0.5-0.3-0.7C142.5,212.1,142.2,212,142,212z"/>
	<path d="M133.1,179.4c-0.1,0.2-0.1,0.3,0,0.5l1.5,1.5c0.2,0.2,0.3,0.2,0.5,0l1.5-1.5c0.1-0.1,0.1-0.3,0.1-0.5
		c-0.5-0.5-1.1-0.7-1.8-0.7C134.2,178.6,133.6,178.9,133.1,179.4z"/>
	<path d="M138,178.4h0.1c0-0.1,0-0.1,0.1-0.1l1.4-1.4c0.1-0.1,0.2-0.3,0.2-0.5c-1.3-1.3-3-2-4.8-2c-1.8,0-3.5,0.7-4.8,2
		c-0.2,0.2-0.2,0.3,0,0.5l1.4,1.4c0,0.1,0,0.1,0.1,0.1h0.1c0.1,0,0.1,0,0.2-0.1c0.8-0.8,1.8-1.2,2.9-1.2c1.1,0,2.1,0.4,2.9,1.2
		C137.8,178.4,137.9,178.4,138,178.4z"/>
	<path d="M141.1,175.3L141.1,175.3c0.1-0.1,0.1-0.1,0.2-0.1l1.4-1.4c0.1-0.1,0.1-0.3,0.1-0.5c0,0-0.1-0.1-0.1-0.1
		c-4.3-4.3-11.3-4.3-15.6,0.1c-0.1,0.2-0.1,0.3,0,0.5l1.4,1.4c0,0.1,0,0.1,0.1,0.1h0.1c0.1,0,0.2,0,0.2-0.1c1.6-1.6,3.7-2.6,6-2.5
		c2.3,0,4.4,0.9,6,2.5C140.9,175.3,141,175.3,141.1,175.3z"/>
	<path d="M97.8,328H95c-0.6,0-1,0.4-1,1v14c0,0.6,0.4,1,1,1h2.8c0.6,0,1-0.4,1-1v-14C98.8,328.4,98.4,328,97.8,328z"/>
	<path d="M107.4,328h-2.8c-0.6,0-1,0.4-1,1v14c0,0.6,0.4,1,1,1h2.8c0.6,0,1-0.4,1-1v-14C108.4,328.4,108,328,107.4,328z"/>
	<path d="M104,288h-6c0,0-0.1,0-0.1,0c-2.7,0-4.9,2.3-4.9,5v6c0,0,0,0.1,0,0.1c0,2.7,2.3,4.9,5,4.9h10c0,0,0.1,0,0.1,0
		c0.5,0,0.9-0.5,0.9-1v-10c0,0,0-0.1,0-0.1C109,290.2,106.7,288,104,288z M103,297h-4c0,0-0.1,0-0.1,0c-0.5,0-0.9-0.5-0.9-1
		c0-0.6,0.4-1,1-1h4c0,0,0.1,0,0.1,0c0.5,0,0.9,0.5,0.9,1C104,296.6,103.6,297,103,297z"/>
	<path d="M101,248c-2.2,0-4,1.8-4,4h-1c-1.1,0-2,0.9-2,2v8c0,1.1,0.9,2,2,2h10c1.1,0,2-0.9,2-2v-8c0-1.1-0.9-2-2-2h-1
		C105,249.8,103.2,248,101,248z M101,260c-1.1,0-2-0.9-2-2c0-1.1,0.9-2,2-2c1.1,0,2,0.9,2,2S102.1,260,101,260z M99,252
		c0-1.1,0.9-2,2-2c1.1,0,2,0.9,2,2H99z"/>
	<polygon points="100.1,221.7 105.8,216 101.2,211.1 95.5,216.9 93,224 	"/>
	<path d="M106.4,208.6c-0.7-0.8-1.9-0.8-2.6-0.1c0,0-0.1,0.1-0.1,0.1l-1.7,1.7l4.6,4.8l1.8-1.8c0.4-0.4,0.6-0.9,0.6-1.4
		c0-0.5-0.3-0.9-0.6-1.2L106.4,208.6z"/>
	<path d="M96.1,180.4l3.3-2.5v6.1l6.7-5l-4.1-3.1l4.1-3l-6.7-4.9v6.1l-3.3-2.5l-1.1,1.5l3.8,2.9l-3.8,2.9L96.1,180.4z M101.4,171.8
		l1.5,1.1l-1.5,1.1V171.8z M101.4,177.8l1.5,1.1l-1.5,1.1V177.8z"/>
	<path d="M73,330h-1.7c-0.6,0-1,0.4-1,1v9.1c0,0.6,0.4,1,1,1H73c0.6,0,1-0.4,1-1V331C74,330.4,73.6,330,73,330z"/>
	<path d="M67.2,334.4l-7.4-4.3c-0.1-0.1-0.3-0.1-0.5-0.1c-0.7,0-1.3,0.5-1.4,1.2v8.5l0,0c0,0,0,0,0,0c0,0.7,0.5,1.2,1.2,1.3
		c0.2,0,0.4-0.1,0.6-0.2l7.4-4.3c0.2-0.1,0.4-0.3,0.5-0.5C68,335.4,67.8,334.7,67.2,334.4z"/>
	<path d="M66,304c4.4,0,8-3.6,8-8c0-4.4-3.6-8-8-8c-4.4,0-8,3.6-8,8S61.6,304,66,304z M67.2,300.2h-0.1h-2.2v-1.9h2.3V300.2z
		 M64.8,291.8h2.5v1h-0.1l-0.6,4.4h-1.2l-0.6-4.4V291.8z"/>
	<path d="M62,248c-0.3,0-0.5,0.1-0.7,0.3c-0.2,0.2-0.3,0.4-0.3,0.7v14c0,0.3,0.1,0.5,0.3,0.7c0.2,0.2,0.4,0.3,0.7,0.3h8
		c0.5,0,1-0.5,1-1v-14c0-0.3-0.1-0.5-0.3-0.7c-0.2-0.2-0.4-0.3-0.7-0.3H62z M66.7,262.7c-0.2,0.2-0.4,0.3-0.7,0.3
		c-0.3,0-0.5-0.1-0.7-0.3c0,0,0,0,0,0c-0.4-0.4-0.4-1,0-1.4c0.2-0.2,0.4-0.3,0.7-0.3c0.3,0,0.5,0.1,0.7,0.3c0,0,0,0,0,0
		C67.1,261.7,67.1,262.3,66.7,262.7z M69.3,260h-6.6v-9.3h6.6V260z"/>
	<path d="M60,222h12c1.1,0,2-0.9,2-2v-8c0-1.1-0.9-2-2-2H60c-1.1,0-2,0.9-2,2v8C58,221.1,58.9,222,60,222z M72,212l-6,5l-6-5H72z"/>
	<path d="M72.1,169.3c-0.9-0.9-2.2-1.4-3.5-1.3c-0.9,0-1.9,0.2-2.7,0.7c-0.2,0.2-0.4,0.4-0.5,0.7c0,0.4,0,0.7,0.1,0.8
		c0.1,0.3,0.4,0.5,0.7,0.5c0.3,0,0.5,0,0.8-0.1c0.3-0.2,0.6-0.3,0.9-0.4h1.2c0.6,0.2,1.1,0.5,1.6,0.8c0.7,0.6,1.2,1.6,1.2,2.5
		c0,0.9-0.3,1.7-0.9,2.3l-5.3,5.3c-0.2,0.2-0.5,0.4-0.8,0.5c-0.3,0.1-0.7,0.1-1.1,0.3c-0.4,0.1-0.9,0-1.3-0.1
		c-0.5-0.1-1-0.4-1.3-0.8c-0.7-0.7-1-1.6-1.1-2.5c0-0.8,0.2-1.5,0.7-2.1l2.8-2.7c0.3-0.2,0.6-0.3,0.9-0.3c0.3,0,0.7,0.1,0.9,0.3
		c0.3,0.3,0.5,0.7,0.5,1.2c0,0.3-0.1,0.6-0.4,0.8l-1.5,1.5c-0.1,0.2-0.2,0.5-0.3,0.8c0,0.3,0.1,0.6,0.3,0.8c0.2,0.2,0.5,0.3,0.8,0.3
		c0.2,0,0.5-0.1,0.7-0.3l1.5-1.3c0.6-0.6,1-1.5,0.9-2.4c0.1-1-0.3-2-1.1-2.7c-0.7-0.7-1.6-1.1-2.5-1.1c-0.9,0-1.8,0.3-2.4,0.9
		l-2.7,2.7c-0.4,0.5-0.7,1-0.9,1.6c-0.3,0.6-0.4,1.3-0.4,2c0,1.5,0.7,3,1.9,4c1,1,2.3,1.6,3.7,1.6c1.4,0,2.7-0.5,3.6-1.5l5.3-5.3
		c1-1,1.5-2.4,1.5-3.9C73.9,171.8,73.3,170.4,72.1,169.3z"/>
	<path d="M26.7,330H25c-0.6,0-1,0.4-1,1v9.1c0,0.6,0.4,1,1,1l1.7,0c0.6,0,1-0.4,1-1V331C27.7,330.4,27.2,330,26.7,330z"/>
	<path d="M38.2,330.2l-7.4,4.3c-0.2,0.1-0.4,0.3-0.5,0.5c-0.3,0.6-0.1,1.3,0.5,1.6l7.4,4.3h0c0.2,0.1,0.3,0.1,0.5,0.1
		c0.7,0,1.3-0.5,1.3-1.2v-8.5c0-0.2,0-0.5-0.2-0.7C39.5,330,38.7,329.8,38.2,330.2z"/>
	<path d="M32,288c-4.4,0-8,3.6-8,8s3.6,8,8,8s8-3.6,8-8C40,291.6,36.4,288,32,288z M32,301.3C32,301.3,31.9,301.3,32,301.3
		c-0.7,0-1.2-0.5-1.2-1.1c0-0.6,0.5-1.1,1.1-1.1c0.6,0,1.1,0.5,1.1,1.1C33.1,300.8,32.6,301.3,32,301.3z M34.1,295l-0.9,1
		c-0.2,0.2-0.3,0.4-0.3,0.7c0,0.5-0.4,1-1,1c-0.5,0-0.9-0.4-1-0.9c0,0,0,0,0-0.1c0-0.6,0.2-1.1,0.6-1.4l0.7-0.9
		c0.3-0.3,0.5-0.7,0.6-1.1c0-0.5-0.3-0.9-0.8-0.9c0,0-0.1,0-0.1,0c-0.5,0-0.9,0.3-1,0.7c-0.2,0.4-0.6,0.6-1,0.6
		c-0.5,0-0.9-0.3-0.9-0.8c0,0,0-0.1,0-0.1c0-0.1,0-0.3,0.1-0.4c0.4-1.1,1.5-1.8,2.7-1.7c1.4-0.1,2.7,0.9,2.8,2.4c0,0.1,0,0.1,0,0.2
		C34.8,293.9,34.5,294.6,34.1,295z"/>
	<path d="M32,248c-4.4,0-8,3.6-8,8s3.6,8,8,8s8-3.6,8-8C40,251.6,36.4,248,32,248z M32,261.6c-3.1,0-5.6-2.5-5.6-5.5c0,0,0,0,0-0.1
		c0-1.1,0.3-2.1,0.9-3l7.8,7.8C34.1,261.3,33.1,261.6,32,261.6z M37.6,256c0,1.1-0.3,2.1-0.9,3l-7.8-7.8c0.9-0.6,2-0.9,3-0.9
		C35.1,250.4,37.6,252.9,37.6,256C37.6,256,37.6,256,37.6,256z"/>
	<path d="M32,208c-2.1-0.1-4.2,0.8-5.6,2.4c-1.6,1.4-2.5,3.5-2.4,5.6c0,2.1,0.9,4.1,2.4,5.6c1.4,1.6,3.5,2.5,5.6,2.4
		c2.1,0.1,4.2-0.8,5.6-2.4c1.6-1.4,2.5-3.5,2.4-5.6c0.1-2.1-0.8-4.2-2.4-5.6C36.2,208.8,34.1,207.9,32,208z M35.6,219.6l-4.3-2.5
		c-0.1,0-0.2-0.1-0.3-0.1c-0.3-0.2-0.4-0.6-0.4-0.9v-6H32l1.2,5.3l3.3,3.3L35.6,219.6z"/>
	<path d="M39.2,176c-0.5-0.1-1.1,0.2-1.2,0.8c-0.4,3-3,5.2-6,5.2c-1.6,0-3.1-0.7-4.2-1.8l1.5-1.5c0.4-0.4,0.2-0.7-0.3-0.7h-4.5
		c0,0,0,0-0.1,0c-0.3,0-0.5,0.2-0.4,0.5v4.5c0,0.5,0.3,0.7,0.7,0.3l1.6-1.6c1.5,1.5,3.6,2.3,5.7,2.3c4,0,7.4-2.9,8-6.8V177
		C40,176.5,39.7,176.1,39.2,176z"/>
	<path d="M39.3,168.7l-1.6,1.6c-1.5-1.5-3.6-2.3-5.7-2.3c-4,0-7.4,2.9-8,6.8v0.2c0,0,0,0.1,0,0.1c0,0.5,0.5,0.9,1,0.9
		c0.5,0,0.9-0.3,1-0.8c0.4-3,3-5.2,6-5.2c1.6,0,3.1,0.7,4.2,1.8l-1.5,1.5c-0.4,0.4-0.2,0.7,0.3,0.7h4.5c0,0,0,0,0.1,0
		c0.3,0,0.5-0.2,0.4-0.5V169C40,168.5,39.7,168.3,39.3,168.7z"/>
	<polygon points="343,331 339,331 339,333 341,333 341,341 339,341 339,343 345,343 345,341 343,341 	"/>
	<circle cx="341.5" cy="328.5" r="1.5"/>
	<path d="M346.5,288h-8.7c-0.8,0-1.5,0.6-1.7,1.4l-1.1,6.7c0,0.1,0,0.2,0,0.2c0,0.9,0.8,1.7,1.7,1.7h6.4l-1.5,3.5
		c-0.1,0.2-0.1,0.4-0.1,0.7c0,0.9,0.7,1.7,1.7,1.7l5.1-5.9v-8.4C348.2,288.8,347.4,288,346.5,288z"/>
	<path d="M350,251.2l-1.3-2.2c-1.8,0.7-3.2,2-4.1,3.7c-0.7,1.3-1,3.2-1,6v5.1h5.9v-6.4h-2.9c0-1.4,0.3-2.8,0.9-4.1
		C348.1,252.4,349,251.6,350,251.2z"/>
	<path d="M339.9,263.8v-6.4h-2.8c-0.1-1.4,0.2-2.8,0.9-4.1c0.6-0.9,1.5-1.7,2.5-2.1l-1.4-2.2c-1.8,0.7-3.2,2-4.1,3.7
		c-0.8,1.9-1.1,3.9-1,6v5.1H339.9z"/>
	<path d="M349.6,210.3c-0.2-0.2-0.4-0.3-0.7-0.3h-13.9c-0.3,0-0.6,0.1-0.8,0.4c-0.2,0.2-0.3,0.4-0.3,0.7v9.9c0,0.3,0.1,0.6,0.3,0.8
		c0.2,0.2,0.5,0.3,0.8,0.3h13.9c0.3,0,0.6-0.1,0.8-0.3c0.2-0.2,0.3-0.4,0.3-0.7v-10C350,210.8,349.9,210.5,349.6,210.3z
		 M336.4,212.4c0.3-0.3,0.7-0.4,1.1-0.4c0.4,0,0.8,0.1,1.1,0.4c0.3,0.3,0.4,0.7,0.4,1.1c0,0.4-0.1,0.8-0.4,1.1
		c-0.3,0.3-0.7,0.4-1.1,0.4c-0.4,0-0.8-0.1-1.1-0.4c-0.3-0.3-0.4-0.7-0.4-1.1C336,213.1,336.1,212.7,336.4,212.4z M336,220l2-3.1
		l2.4,1.7l3.6-4.7l4,6H336z"/>
	<path d="M336.9,169.9c-2.5,2.6-2.5,6.7,0,9.4l4.7,4.7l4.7-4.7c2.6-2.6,2.6-6.8,0-9.4C343.7,167.4,339.5,167.4,336.9,169.9z
		 M344.3,174.7C344.3,174.7,344.3,174.7,344.3,174.7c0,1.5-1.3,2.8-2.8,2.8c-1.5-0.1-2.8-1.3-2.8-2.9c0,0,0,0,0,0
		c0-1.5,1.3-2.8,2.8-2.8C343.1,171.9,344.4,173.2,344.3,174.7z"/>
	<path d="M340.9,142C340.9,142,341,142,340.9,142c1.6,0,3.1-0.5,4.3-1.4l3.3,3.3l1.4-1.4l-3.3-3.3c0.9-1.2,1.4-2.7,1.4-4.2
		c0-3.8-3.1-7-6.9-7c0,0-0.1,0-0.1,0c-3.8,0-7,3.1-7,6.9c0,0,0,0.1,0,0.1C334,138.8,337.1,142,340.9,142z M336,135
		c0-2.7,2.2-5,4.9-5c0,0,0.1,0,0.1,0c2.7,0,5,2.2,5,4.9c0,0,0,0.1,0,0.1c0,2.7-2.2,5-4.9,5c0,0-0.1,0-0.1,0
		C338.3,140,336,137.8,336,135C336,135.1,336,135,336,135z"/>
	<rect x="58" y="141" width="10" height="2"/>
	<rect x="58" y="135" width="16" height="2"/>
	<rect x="58" y="129" width="16" height="2"/>
	<polygon points="102.5,129.5 101,128 93,136 101,144 102.5,142.5 96.9,137 109,137 109,135 96.9,135 	"/>
	<polygon points="33,128 31,128 31,135 24,135 24,137 31,137 31,144 33,144 33,137 40,137 40,135 33,135 	"/>
	<polygon points="133.5,129.5 139.1,135 127,135 127,137 139.1,137 133.5,142.5 135,144 143,136 135,128 	"/>
	<polygon points="171,140.1 171,128 169,128 169,140.1 163.5,134.5 162,136 170,144 178,136 176.5,134.5 	"/>
</g>
</svg>
