<svg xmlns="http://www.w3.org/2000/svg" width="169.344" height="62.528" viewBox="0 0 169.344 62.528">
  <g id="otl" transform="translate(0 0)">
    <path id="Caminho_207" data-name="Caminho 207" d="M523.638,786.752l-.066-.076-3.714,3.6,4.345-.909a22.127,22.127,0,0,1,3.806,9h-3.73a15.908,15.908,0,0,1,.495,4.06,15.265,15.265,0,0,1-.707,4.916h3.942a22.471,22.471,0,0,1-5.182,10.789l5.26,5.34a31.151,31.151,0,0,0,0-41.3Z" transform="translate(-473.396 -771.6)" fill="#fff"/>
    <path id="Caminho_208" data-name="Caminho 208" d="M508.142,787.635a14.559,14.559,0,0,0-10.976,4.987l-2.9-2.9a18.455,18.455,0,0,0,0,24.295l2.566-2.571a14.589,14.589,0,0,0,22.586.044L522,814.073a18.439,18.439,0,0,0,0-24.428l-2.927,2.934A14.548,14.548,0,0,0,508.142,787.635Zm8.48,4.97c.031.031.063.056.086.079a1.89,1.89,0,0,1-.055.2,9.82,9.82,0,0,0-1.452-.377,13.967,13.967,0,0,0-1.618-.016c-.016-.095-.023-.181-.039-.275.361-.095.746-.338,1.067-.267A15.318,15.318,0,0,1,516.622,792.605Zm2.7,8.614c.031.126.023.259.055.385a14.022,14.022,0,0,0,.456,1.523c.063.157.337.228.518.338.063-.119.164-.242.22-.366v-1.035c-.018-.237-.035-.474-.031-.711a4.162,4.162,0,0,1,.023-.825c.055.031.008.039.008.056v1.48c.021.3.044.594.039.891a.407.407,0,0,1-.039.144v.719a2.015,2.015,0,0,1-1,2.073c-.087.048-.079.15-.2.284a1.3,1.3,0,0,0,.855.322,12.813,12.813,0,0,1-10.137,8.4v-.008c-.44.031-.825.078-1.217.094a12.555,12.555,0,0,1-8.52-2.685,1.112,1.112,0,0,1-.29-.432c-.142-.329-.22-.683-.37-1s-.22-.55.157-.73a.557.557,0,0,0,.267-.872,1.354,1.354,0,0,1-.039-1.217c.329-.942.125-1.3-.777-1.744a6.168,6.168,0,0,1-1.343-.919c-.714-.628-1.374-1.32-2.081-1.97a1.334,1.334,0,0,1-.495-1.107,17,17,0,0,1,.722-4.295,2.383,2.383,0,0,1,1.9-1.822,5.325,5.325,0,0,0,2.607-1.477c1.234-1.193,1.351-1.562.763-3.156a.238.238,0,0,1,.016-.1c2.041-1.523,5.622-2.167,8.606-1.916a12.647,12.647,0,0,1,4.271,1.421c.094.087.181.173.259.259-.825.338-1.672.683-2.6,1.061.424-.549.329-.8-.331-1.02a3.961,3.961,0,0,0-4.106,1.492,1.157,1.157,0,0,0-.064.557c0,.291.134.652.017.864a.735.735,0,0,1-.951.44c.025-.094.079-.2.056-.267-.134-.424-.282-.848-.44-1.273-.023-.07-.134-.164-.2-.156a.384.384,0,0,0-.259.148,2.025,2.025,0,0,0-.15.4c-.51-.047-.777.15-.761.833.393-.22.7-.292,1.123-.527-.251.409-.416.794-.629,1.147h.668a4.915,4.915,0,0,0-.409.942c-.824,0-1.406.259-1.468.817-.078.738.534.761,1.146.95-.259.086-.393.117-.526.157a4.679,4.679,0,0,0-2.026,2.5,14.831,14.831,0,0,0-.11,2.042,2.07,2.07,0,0,0,2.56,2.065,3.946,3.946,0,0,1,2.788.212c-.463.652.079,1.083.44,1.452a1.824,1.824,0,0,1,.463,1.719,2.9,2.9,0,0,0,.079,1.987s1.138,3.345,2.811,3.1,2.622-5.959,2.827-6.4.181-.9.408-.039,1-.959.848-1.328-.958-.44-.6-.958a8.238,8.238,0,0,1,1.193-1.257c.666-.659.808-1.727-.888-1.178-1.232.4-1.508-.2-1.571-.557a1.043,1.043,0,0,0-.016-.228c-.086-.463-.22-.911-.337-1.366.078-.031.164-.063.243-.094a5.118,5.118,0,0,1,.534.974c.157.526.448.652.966.628.6-.025,1.193.055,1.877.094a2.673,2.673,0,0,0,.267-.542,4.7,4.7,0,0,0,.079-.755C518.986,799.924,519.041,800,519.324,801.219Zm-10.06-4.248c.276.409.543.385.817-.031.236.2.424.463.675.549.2.064.471-.094.761-.172.3.133.715.314,1.131.495-.2.581-.448.66-1,.495a2.5,2.5,0,0,0-1.186-.055,1.718,1.718,0,0,1-1.869-.629,1.49,1.49,0,0,0-1.586-.542c-.2.031-.393.078-.644.125.047-.275.094-.495.134-.738a3.065,3.065,0,0,1,2.52.353C509.1,796.893,509.217,796.909,509.264,796.971Zm-.094-3.51c.212-.385.432-.761.652-1.147.063.023.117.047.181.07.07.251.148.5.228.8-.284.125-.6.267-.9.4C509.28,793.547,509.225,793.508,509.17,793.461Z" transform="translate(-476.906 -770.965)" fill="#fff"/>
    <path id="Caminho_209" data-name="Caminho 209" d="M492.53,785.368l4.24,4.452-1.188-5.966a23.838,23.838,0,0,1,28.105,1.843l5.262-5.26a31.234,31.234,0,0,0-41.256.094l4.837,4.837Z" transform="translate(-477.14 -772.703)" fill="#fff"/>
    <path id="Caminho_210" data-name="Caminho 210" d="M490.7,818.718l3.533-3.644-4.315,1.232a21.836,21.836,0,0,1-3.78-8.983h3.941a15.213,15.213,0,0,1-.707-4.908,15.857,15.857,0,0,1,.5-4.06h-3.73a22.188,22.188,0,0,1,5.087-10.67l-5.26-5.34a31.179,31.179,0,0,0,0,41.091l4.636-4.783Z" transform="translate(-478.24 -771.581)" fill="#fff"/>
    <path id="Caminho_211" data-name="Caminho 211" d="M524.529,818.3l-4.429-4.617.941,5.709a23.85,23.85,0,0,1-28.1-2.019l-5.26,5.26a31.244,31.244,0,0,0,41.256.1l-4.425-4.425Z" transform="translate(-477.14 -767.933)" fill="#fff"/>
    <path id="Caminho_212" data-name="Caminho 212" d="M548.762,804.212c5.858,0,10.012-1.264,10.012-7.931v-6.117c0-6.666-4.154-7.939-10.012-7.939s-10.012,1.273-10.012,7.939v6.117C538.75,802.949,542.9,804.22,548.762,804.212Zm-4.067-13.435c.086-3.2,1.067-3.518,4.067-3.518s4.068.314,4.068,3.518v4.876c0,3.227-1.068,3.549-4.068,3.549s-3.981-.314-4.067-3.549Z" transform="translate(-471.197 -771.595)" fill="#fff"/>
    <path id="Caminho_213" data-name="Caminho 213" d="M558.539,787.431h4.828v16.528h5.8V787.431h5.63v-4.923H555.68A7.642,7.642,0,0,1,558.539,787.431Z" transform="translate(-469.227 -771.562)" fill="#fff"/>
    <path id="Caminho_214" data-name="Caminho 214" d="M589.213,799.011h-9.03V782.388h-5.771v21.641h14.8Z" transform="translate(-467.046 -771.576)" fill="#fff"/>
    <path id="Caminho_215" data-name="Caminho 215" d="M546.838,810.914l-1.8-.125c-1.154-.087-1.782-.134-1.782-1.437,0-.911.2-1.39,2.544-1.39,1.735,0,2.434,0,2.434,1.672h4.178v-.675c0-4.5-3.047-4.563-6.611-4.563-4.265,0-6.895.307-6.895,4.979s2.348,4.649,6.368,4.931l.959.063c2.041.134,2.284.11,2.284,1.524,0,1.365-.675,1.5-2.716,1.5-2.137,0-2.741-.173-2.741-1.869h-4.178c0,5.348,2.756,5.434,6.91,5.434,7.176,0,7.067-2.654,7.067-5.347C552.861,811.871,551.668,811.26,546.838,810.914Z" transform="translate(-471.181 -769.014)" fill="#fff"/>
    <path id="Caminho_216" data-name="Caminho 216" d="M558.462,808.771c-4.759,0-5.694,1.178-5.694,5.85,0,4.563,1.022,5.826,5.694,5.826,4.735,0,5.716-1.131,5.716-5.826C564.177,809.792,563.235,808.771,558.462,808.771Zm.063,8.8c-1.806,0-2.026-.471-2.026-2.953s.22-2.975,2.026-2.975c1.744,0,1.916.5,1.916,2.975S560.26,817.574,558.524,817.574Z" transform="translate(-469.565 -768.505)" fill="#fff"/>
    <rect id="Retângulo_12" data-name="Retângulo 12" width="3.738" height="16.301" transform="translate(96.631 35.508)" fill="#fff"/>
    <path id="Caminho_217" data-name="Caminho 217" d="M577.484,815.9c0,1.123-1.108,1.649-2.112,1.649-1.256,0-1.366-.825-1.366-1.869v-6.8h-3.738v7.8c0,2.78,1.61,3.738,3.872,3.738a3.157,3.157,0,0,0,3.415-2.324h.173l-.133,2.191h3.627v-11.41h-3.738Z" transform="translate(-467.529 -768.492)" fill="#fff"/>
    <path id="Caminho_218" data-name="Caminho 218" d="M576.831,819.112V819.1h0Z" transform="translate(-466.765 -767.302)" fill="#fff"/>
    <path id="Caminho_219" data-name="Caminho 219" d="M588.472,816.469c-.039.778,0,1.477-.973,1.477-.7,0-.825-.284-.848-.959v-5.1h4.319v-2.749h-4.327v-2.411H582.9v2.411h-1.39v2.741h1.39v5.63c0,2.866,1.979,3.172,4.374,3.172,3.039,0,4.193-.691,4.193-3.8v-1.02H588.5Z" transform="translate(-466.219 -768.743)" fill="#fff"/>
    <rect id="Retângulo_13" data-name="Retângulo 13" width="3.738" height="11.409" transform="translate(126.477 40.4)" fill="#fff"/>
    <rect id="Retângulo_14" data-name="Retângulo 14" width="3.738" height="2.866" transform="translate(126.477 35.508)" fill="#fff"/>
    <path id="Caminho_220" data-name="Caminho 220" d="M602.05,808.771c-4.759,0-5.694,1.178-5.694,5.85,0,4.563,1.022,5.826,5.694,5.826,4.735,0,5.716-1.131,5.716-5.826C607.766,809.792,606.831,808.771,602.05,808.771Zm.07,8.8c-1.806,0-2.026-.471-2.026-2.953s.22-2.975,2.026-2.975c1.743,0,1.916.5,1.916,2.975S603.863,817.574,602.12,817.574Z" transform="translate(-464.492 -768.505)" fill="#fff"/>
    <path id="Caminho_221" data-name="Caminho 221" d="M615.651,808.771a4.07,4.07,0,0,0-2.151.455,2.943,2.943,0,0,0-1.265,1.806h-.148V808.9h-3.73v11.41h3.738v-6.282c0-1.39.283-2.387,1.955-2.387,1.217,0,1.516.541,1.539,1.649v7.02h3.738v-7.892C619.326,809.964,618.171,808.771,615.651,808.771Z" transform="translate(-463.095 -768.505)" fill="#fff"/>
    <path id="Caminho_222" data-name="Caminho 222" d="M625.5,813.1c-1.908-.047-1.955-.44-1.955-1.006,0-.674,0-.91,1.955-.91a2.671,2.671,0,0,1,.934.109,1.016,1.016,0,0,1,.588.848h3.51V811.6c0-2.8-2.952-2.827-5.04-2.827-3.181,0-5.591.064-5.591,3.738,0,2.324.856,3.393,5.591,3.393,1.3,0,1.955,0,1.955,1.131,0,.886-.259,1-1.955,1-.911,0-1.845,0-1.845-1.281h-3.738c0,3.762,2.638,3.7,5.591,3.7,3.008,0,5.591-.5,5.591-3.847C631.094,813.4,629.374,813.184,625.5,813.1Z" transform="translate(-461.751 -768.505)" fill="#fff"/>
  </g>
</svg>
