<svg xmlns="http://www.w3.org/2000/svg" width="191.49" height="67.313" viewBox="0 0 191.49 67.313">
  <g id="sanar" transform="translate(0 0)">
    <g id="Grupo_75" data-name="Grupo 75">
      <path id="Caminho_235" data-name="Caminho 235" d="M1263.254,812.733a22.129,22.129,0,0,0,1.545-3.6c.147-.361.273-.73.421-1.089.241-.583.439-.686,1.033-.487a24.032,24.032,0,0,0,4.869,1.119,19.851,19.851,0,0,0,6.371-.181,4.108,4.108,0,0,0,1.7-.8,2.549,2.549,0,0,0,.452-3.7,6.333,6.333,0,0,0-2.419-1.737c-2.336-1.081-4.774-1.939-7.064-3.121a10.312,10.312,0,0,1-4.988-4.82c-1.849-4.079-1.13-9.983,5.387-12.341a18.656,18.656,0,0,1,7.067-.986,22.675,22.675,0,0,1,8.461,1.917c.751.332.784.42.474,1.167q-.852,2.054-1.7,4.109c-.259.625-.432.712-1.12.5a22.325,22.325,0,0,0-7.722-1.123,5.783,5.783,0,0,0-2.373.513,2.177,2.177,0,0,0-.478,3.814,11.926,11.926,0,0,0,3,1.667,63.956,63.956,0,0,1,7.011,3.364,10.808,10.808,0,0,1,4.569,4.947,9.088,9.088,0,0,1-4.311,11.667,17.824,17.824,0,0,1-7.638,1.963,28.812,28.812,0,0,1-8.091-.422,12.083,12.083,0,0,1-4.454-1.784Z" transform="translate(-1263.254 -748.309)" fill="#fff"/>
      <path id="Caminho_236" data-name="Caminho 236" d="M1407.415,751.765v-.11h.558l.017.1A.387.387,0,0,1,1407.415,751.765Z" transform="translate(-1246.801 -751.655)" fill="#fff"/>
      <path id="Caminho_237" data-name="Caminho 237" d="M1330.662,793.034c0,.7-.019,1.391,0,2.086.192,5.809.037,11.62.068,17.429,0,.575.028,1.15.021,1.725a.612.612,0,0,1-.705.667q-3.424-.012-6.851-.006a.531.531,0,0,1-.6-.57c-.011-.148,0-.3,0-.446V782.441c0-.993.032-1.025,1.04-1.025,2.468,0,4.937.024,7.4-.016a1.453,1.453,0,0,1,1.463.834q6,10.534,12.038,21.042c.116.2.183.448.409.577.187-.115.147-.3.138-.454-.445-7.1-.117-14.215-.22-21.321-.008-.486.214-.666.671-.665q3.4,0,6.791,0c.478,0,.674.224.662.683-.009.334,0,.668,0,1v30.811c0,.988-.035,1.023-1.042,1.023-2.544,0-5.087-.027-7.631.016a1.566,1.566,0,0,1-1.546-.919q-5.112-8.988-10.255-17.959-.881-1.539-1.768-3.076Z" transform="translate(-1256.482 -748.26)" fill="#fff"/>
      <path id="Caminho_238" data-name="Caminho 238" d="M1409.47,766.36c.128.073.243.129.349.2a135.793,135.793,0,0,1,14.327,10.742c2.275,1.967,4.416,4.075,6.569,6.172.5.49.5.594.029,1.081-1.057,1.094-2.13,2.174-3.161,3.292-.359.389-.573.372-.929.006a127.705,127.705,0,0,0-9.883-9.144c-3.592-3-7.309-5.829-11.1-8.562-.667-.48-.671-.508-.016-.993q1.7-1.258,3.4-2.512C1409.186,766.545,1409.327,766.457,1409.47,766.36Z" transform="translate(-1247.058 -749.977)" fill="#fff"/>
      <path id="Caminho_239" data-name="Caminho 239" d="M1414.037,763.451c.1.056.267.137.423.233a105.586,105.586,0,0,1,11.871,8.453,102.717,102.717,0,0,1,8.008,7.328c.5.506.495.569.009,1.073-.8.828-1.589,1.663-2.385,2.495-.509.53-.55.534-1.054.022q-2.816-2.856-5.826-5.508a121.079,121.079,0,0,0-12.114-9.343c-.876-.593-1.763-1.17-2.641-1.758-.488-.325-.487-.375.016-.705q1.585-1.036,3.173-2.066A.89.89,0,0,1,1414.037,763.451Z" transform="translate(-1246.51 -750.309)" fill="#fff"/>
      <path id="Caminho_240" data-name="Caminho 240" d="M1413.478,762.079c-1.894,1.172-3.673,2.312-5.406,3.523a95.282,95.282,0,0,0-11.611,9.513c-.908.876-1.826,1.74-2.666,2.682-.32.358-.577.383-.908,0-.56-.643-1.146-1.264-1.743-1.875-.31-.318-.253-.55.036-.843a95.573,95.573,0,0,1,9.915-8.852,93.982,93.982,0,0,1,8.292-5.708,1.033,1.033,0,0,1,1.183-.041C1411.5,761.019,1412.448,761.516,1413.478,762.079Z" transform="translate(-1248.682 -750.667)" fill="#fff"/>
      <path id="Caminho_241" data-name="Caminho 241" d="M1406.624,758.648a1.065,1.065,0,0,1,.544.163c.627.321,1.258.635,1.884.958.144.075.376.1.387.277s-.218.223-.356.307a89,89,0,0,0-17.961,14.358c-.515.53-.535.525-1.026-.029-.345-.389-.691-.778-1.047-1.155-.555-.585-.568-.615.023-1.2,1.113-1.093,2.219-2.194,3.363-3.253a85.244,85.244,0,0,1,13.287-10.085A1.494,1.494,0,0,1,1406.624,758.648Z" transform="translate(-1248.945 -750.857)" fill="#fff"/>
      <path id="Caminho_242" data-name="Caminho 242" d="M1420.549,765.27c1.558-.916,3.028-1.808,4.525-2.655,2.5-1.414,5.055-2.725,7.644-3.971a1.191,1.191,0,0,1,1.456.154c.716.586,1.487,1.105,2.235,1.654.512.378.516.448-.018.751-3.083,1.745-6.086,3.618-9.036,5.577-.664.441-1.327.885-1.982,1.339a.619.619,0,0,1-.848,0C1423.273,767.135,1421.956,766.237,1420.549,765.27Z" transform="translate(-1245.302 -750.878)" fill="#fff"/>
      <path id="Caminho_243" data-name="Caminho 243" d="M1433.283,758.1c-1.5.72-2.927,1.388-4.34,2.085q-4.145,2.042-8.089,4.449a1,1,0,0,1-1.221-.01c-1.111-.739-2.247-1.438-3.422-2.186a9.6,9.6,0,0,1,1.673-1,97.625,97.625,0,0,1,11.281-5.263,1.22,1.22,0,0,1,1.279.123C1431.344,756.916,1432.285,757.473,1433.283,758.1Z" transform="translate(-1245.797 -751.153)" fill="#fff"/>
      <path id="Caminho_244" data-name="Caminho 244" d="M1418.678,759.259l-3.388,1.837a.446.446,0,0,1-.468-.056,91.9,91.9,0,0,0-12.849-5.833c-.149-.056-.4-.057-.417-.231-.027-.228.245-.233.394-.318.578-.333,1.171-.641,1.745-.98a2.31,2.31,0,0,1,2.086-.08c2.911,1.053,5.788,2.191,8.6,3.5C1415.787,757.756,1417.182,758.441,1418.678,759.259Z" transform="translate(-1247.47 -751.457)" fill="#fff"/>
      <path id="Caminho_245" data-name="Caminho 245" d="M1407.7,751.755l.576-.014a87.368,87.368,0,0,1,13.858,5.89c-.973.46-1.861.907-2.77,1.3a1.407,1.407,0,0,1-1.227-.19,79.456,79.456,0,0,0-12.867-5.471,2.619,2.619,0,0,1-.333-.183Z" transform="translate(-1247.084 -751.645)" fill="#fff"/>
      <path id="Caminho_246" data-name="Caminho 246" d="M1418.805,809.013a12.661,12.661,0,0,1-5.47-2.961c-1.375-1.3-2.6-2.752-3.906-4.12-.43-.45-.41-.508.138-.867a9.778,9.778,0,0,0,4.748-7.995,10.738,10.738,0,0,0-1.635-6.856c-1.985-2.9-4.938-4.155-8.287-4.617a57.065,57.065,0,0,0-6.563-.165c-2.859-.063-5.72-.016-8.581-.016-.85,0-.924.073-.924.916q0,7.913,0,15.824,0,7.94,0,15.881c0,.8.1.895.895.895q3.175,0,6.351,0c.837,0,.974-.17.968-1.023-.02-3.287-.02-6.574-.04-9.861,0-.515.232-.693.716-.668a13.8,13.8,0,0,0,2.5-.014,1.654,1.654,0,0,1,1.605.657q1.561,1.85,3.162,3.669a30.075,30.075,0,0,0,5.215,5.071,15.854,15.854,0,0,0,7.982,2.8c.274.022.529.062.614-.353.325-1.6.864-3.14,1.338-4.7C1419.944,809.483,1419.844,809.3,1418.805,809.013Zm-12.946-15.02c-.6,2.2-2.259,3.152-4.347,3.526a26.388,26.388,0,0,1-4.5.216c-.445,0-.517-.237-.515-.6.009-1.448,0-2.9,0-4.346s.005-2.9,0-4.345c0-.4.124-.673.559-.652a48.514,48.514,0,0,1,5.17.164,8.885,8.885,0,0,1,1.349.32,3.16,3.16,0,0,1,2.184,2.257A6.362,6.362,0,0,1,1405.859,793.993Z" transform="translate(-1248.98 -748.261)" fill="#fff"/>
      <path id="Caminho_247" data-name="Caminho 247" d="M1322.131,813.938q-5.33-15.848-10.66-31.7c-.242-.718-.4-.827-1.179-.827q-4.206,0-8.413,0c-1.086,0-1.159.05-1.546,1.057q-5.379,13.995-10.758,27.988c-.563,1.466-1.111,2.938-1.69,4.471h7.128c.888,0,1.016-.095,1.332-.948.986-2.674,1.985-5.344,2.953-8.025a1.062,1.062,0,0,1,1.154-.8c3.194.02,6.388.009,9.583.01.788,0,.9.086,1.142.85q1.3,4.046,2.595,8.092c.241.748.347.823,1.156.823h6.516C1322.4,814.929,1322.443,814.867,1322.131,813.938Zm-13.714-14.686c-2-.009-4.009-.016-6.013,0-.519.005-.6-.173-.456-.63q1.462-4.718,2.9-9.444c.254-.83.508-1.661.8-2.627.633,2.4,1.228,4.655,1.819,6.91.455,1.737.891,3.478,1.364,5.21C1308.953,799.105,1308.857,799.252,1308.417,799.251Z" transform="translate(-1260.443 -748.259)" fill="#fff"/>
      <path id="Caminho_248" data-name="Caminho 248" d="M1387.98,814.377c-.041-.142-.092-.281-.14-.421q-1.581-4.685-3.163-9.369-3.751-11.165-7.495-22.334c-.247-.739-.388-.837-1.167-.838-1.431,0-2.861,0-4.292,0-1.467,0-2.935.019-4.4-.009a1.1,1.1,0,0,0-1.2.84c-.357,1.014-.755,2.012-1.14,3.015q-5.547,14.444-11.091,28.889c-.286.745-.263.779.533.78q3.148,0,6.3,0c.9,0,1.02-.089,1.335-.942.992-2.694,1.994-5.382,2.971-8.081a1.055,1.055,0,0,1,1.131-.772q4.653.023,9.3.023c1.1,0,1.176.041,1.516,1.112.843,2.646,1.7,5.289,2.538,7.937.146.459.37.733.9.728,1.6-.017,3.194-.007,4.792-.007.78,0,1.56-.007,2.339,0C1387.951,814.938,1388.089,814.76,1387.98,814.377Zm-14.05-15.13h-6.442c1.294-4.245,2.563-8.415,3.872-12.709.44,1.669.849,3.217,1.256,4.766q.941,3.6,1.88,7.194C1374.689,799.235,1374.682,799.248,1373.93,799.248Z" transform="translate(-1252.929 -748.26)" fill="#fff"/>
    </g>
  </g>
</svg>
