<svg xmlns="http://www.w3.org/2000/svg" width="205.289" height="163.971" viewBox="0 0 205.289 163.971">
  <g id="Grupo_4814" data-name="Grupo 4814" transform="translate(-434.468 -3553.138)">
    <path id="Caminho_2795" data-name="Caminho 2795" d="M150.168,689.509,132.25,817.438l33.418,13.582,143.855,13.641,8.516-13.641,8.3-114.059Z" transform="translate(308 2868.398)" fill="#fff"/>
    <g id="Grupo_4812" data-name="Grupo 4812" transform="translate(308 2868.398)">
      <g id="Grupo_3843" data-name="Grupo 3843">
        <g id="Grupo_3842" data-name="Grupo 3842">
          <g id="Grupo_3841" data-name="Grupo 3841">
            <path id="Caminho_2290" data-name="Caminho 2290" d="M143.077,697.576q-5.39,32.266-9.918,64.668-2.173,15.59-4.149,31.2-1.041,8.235-2.025,16.477c-.461,3.867-1.187,8.106.81,11.7,1.887,3.4,5.412,4.7,9.009,5.41,5.8,1.15,11.705,1.939,17.547,2.859q16.1,2.535,32.246,4.749,32.4,4.446,64.955,7.648,16.219,1.587,32.468,2.85,7.878.613,15.762,1.151c4.18.285,9.124,1.31,13.162-.268,8.278-3.234,6.977-16.885,7.765-24.018l3.683-33.318c2.383-21.558,4.874-43.107,7.149-64.677.4-3.76.589-7.6-2.61-10.25-3.584-2.971-9.495-3.557-13.872-4.685-10.18-2.624-20.439-4.942-30.744-7.017-23.222-4.676-46.676-8.1-70.179-11.011-12.043-1.49-24.1-2.835-36.17-4.13q-8.568-.92-17.139-1.814c-5.3-.55-9.929-.776-14.855,1.516-5.246,2.441-.681,10.2,4.543,7.771,3.6-1.677,8.427-.485,12.215-.087q7.619.8,15.236,1.614,13.812,1.482,27.61,3.094c18.931,2.242,37.826,4.8,56.613,8.044,18.523,3.2,36.94,7.057,55.1,11.913.848.227,5.019.7,5.579,1.64.645,1.085-.628,6.1-.763,7.322l-1.625,14.7-3.141,28.419-6.5,58.8c-.2,1.821.055,5.185-.823,6.71-.9,1.56-1.257,1.259-3.34,1.192-4.925-.158-9.866-.654-14.78-1.013q-14.284-1.042-28.548-2.333-58.914-5.331-117.335-14.912a65.791,65.791,0,0,1-7.586-1.277c-2.914-.845-3.1-1.906-2.86-4.712.47-5.4,1.281-10.8,1.952-16.18q2.042-16.359,4.314-32.687,4.515-32.4,9.919-64.669c.946-5.665-7.725-8.1-8.679-2.392Z"/>
          </g>
        </g>
      </g>
      <g id="Grupo_3847" data-name="Grupo 3847">
        <g id="Grupo_3846" data-name="Grupo 3846">
          <g id="Grupo_3845" data-name="Grupo 3845">
            <path id="Caminho_2292" data-name="Caminho 2292" d="M144.2,701.262q-5.39,32.266-9.918,64.669-2.145,15.388-4.095,30.8-1.041,8.235-2.025,16.477c-.425,3.555-1.225,7.617.6,10.946,1.688,3.072,4.9,4.084,8.113,4.72,5.8,1.15,11.7,1.939,17.547,2.859q16.1,2.535,32.246,4.749,32.2,4.419,64.555,7.595,16.22,1.587,32.469,2.85,7.878.613,15.761,1.151c3.969.27,8.936,1.382,12.764-.215,3.043-1.269,4.307-3.95,4.9-7.012.99-5.074,1.191-10.422,1.759-15.559l3.683-33.318c2.383-21.558,4.874-43.107,7.149-64.677.351-3.333.74-6.858-2.171-9.19-3.4-2.726-9.1-3.24-13.21-4.3-10.18-2.624-20.439-4.941-30.745-7.017-23.09-4.649-46.409-8.066-69.779-10.957-12.044-1.49-24.1-2.835-36.171-4.13q-8.568-.919-17.139-1.814c-5-.519-9.445-.854-14.1,1.311-3.5,1.627-.454,6.8,3.028,5.18,3.953-1.839,8.81-.728,12.973-.291q7.619.8,15.235,1.614,13.813,1.482,27.611,3.094c19.063,2.258,38.093,4.831,57.012,8.1,18.522,3.2,36.94,7.058,55.1,11.914,1.77.473,5.883.944,6.681,3.086.585,1.571-.583,5.687-.763,7.322l-1.625,14.7-3.141,28.419-6.5,58.8c-.238,2.152-.1,4.9-.849,6.909-.938,2.524-2.267,2.569-4.813,2.493-4.924-.147-9.868-.654-14.781-1.013q-14.283-1.043-28.547-2.333-59.113-5.351-117.734-14.965c-2.455-.4-5.233-.481-7.586-1.278-3.454-1.17-4.256-2.775-3.962-6.159.471-5.4,1.281-10.8,1.953-16.179q2.065-16.559,4.367-33.086,4.517-32.4,9.919-64.669c.631-3.777-5.15-5.4-5.786-1.595Z"/>
          </g>
        </g>
      </g>
      <g id="Grupo_3848" data-name="Grupo 3848">
        <path id="Caminho_2293" data-name="Caminho 2293" d="M147.013,688.094q-3.519,16.254-5.488,32.793a3.529,3.529,0,0,0,3.749,4.81l171.41,21.6c2.419.3,5.274.454,6.864-1.4a7.476,7.476,0,0,0,1.349-3.921l3.4-23.617a5.881,5.881,0,0,0-.348-3.94,5.145,5.145,0,0,0-3.365-2.069c-60-13.013-114.493-15.966-177.618-23.931"/>
      </g>
      <g id="Grupo_3849" data-name="Grupo 3849">
        <path id="Caminho_2294" data-name="Caminho 2294" d="M295.262,721.184a4.2,4.2,0,1,0,2.525-1.96" fill="#f5f5f5"/>
      </g>
      <g id="Grupo_3850" data-name="Grupo 3850">
        <path id="Caminho_2295" data-name="Caminho 2295" d="M310.057,722.662a4.2,4.2,0,1,0,2.525-1.96" fill="#f5f5f5"/>
      </g>
      <g id="Grupo_3851" data-name="Grupo 3851">
        <path id="Caminho_2296" data-name="Caminho 2296" d="M280.467,719.706a4.2,4.2,0,1,0,2.525-1.96" fill="#f5f5f5"/>
      </g>
      <g id="Grupo_3852" data-name="Grupo 3852">
        <path id="Caminho_2297" data-name="Caminho 2297" d="M309.464,723.751c.329-3.288,4.6-4.521,7.792-1.314,2.117,2.129-1.186,6.322-4.179,6.568a3.1,3.1,0,0,1-2.972-1.292,1.806,1.806,0,0,1,1.117-2.656" fill="#f5f5f5"/>
      </g>
      <g id="Grupo_3854" data-name="Grupo 3854">
        <g id="Grupo_3853" data-name="Grupo 3853">
          <path id="Caminho_2298" data-name="Caminho 2298" d="M162.455,744.181l-2.694,26.979c-.192,1.919,2.809,1.906,3,0l2.694-26.979c.192-1.92-2.809-1.906-3,0Z"/>
        </g>
      </g>
      <g id="Grupo_3856" data-name="Grupo 3856">
        <g id="Grupo_3855" data-name="Grupo 3855">
          <path id="Caminho_2299" data-name="Caminho 2299" d="M165.58,747.188c8.561.9,17.085,2.084,25.559,3.605,3.676.66,8.546.872,11.942,2.365,3.411,1.5,1.87,7.2,1.5,10.495-.348,3.135-.378,9.462-2.173,12.079-2.353,3.43-10.586,1.515-14.129,1.2a206.462,206.462,0,0,1-26.109-4.087c-1.882-.414-2.685,2.477-.8,2.893a210.642,210.642,0,0,0,33.6,4.675c3.137.174,7.217,1.149,9.375-1.681,2.436-3.2,2.524-9.4,3.017-13.28.446-3.511,2.1-9.71.37-12.993-1.411-2.687-5.868-2.633-8.445-3.154-11.15-2.255-22.4-3.927-33.715-5.117-1.918-.2-1.9,2.8,0,3Z"/>
        </g>
      </g>
      <g id="Grupo_3858" data-name="Grupo 3858">
        <g id="Grupo_3857" data-name="Grupo 3857">
          <path id="Caminho_2300" data-name="Caminho 2300" d="M161.22,786.064a331.16,331.16,0,0,0,37.755,4.478c1.929.117,1.922-2.883,0-3a324.056,324.056,0,0,1-36.958-4.371c-1.888-.335-2.7,2.556-.8,2.893Z"/>
        </g>
      </g>
      <g id="Grupo_3860" data-name="Grupo 3860">
        <g id="Grupo_3859" data-name="Grupo 3859">
          <path id="Caminho_2301" data-name="Caminho 2301" d="M160.936,800.974c3.833,2.5,8.717,2.5,13.137,3.05l18.922,2.347c1.911.237,1.894-2.765,0-3l-15.138-1.877c-4.9-.609-11.167-.341-15.407-3.111-1.621-1.059-3.126,1.538-1.514,2.591Z"/>
        </g>
      </g>
      <g id="Grupo_3862" data-name="Grupo 3862">
        <g id="Grupo_3861" data-name="Grupo 3861">
          <path id="Caminho_2302" data-name="Caminho 2302" d="M223.851,754.077c-.776,7.525-1.653,15.047-2.329,22.581-.349,3.894.718,6.141,4.7,7.037,6.09,1.369,12.791,1.415,19,2.079,3.814.408,7.817,1.222,11.646,1.247,1.5.01,2.716.049,3.929-.949,3.1-2.546,2.639-9.581,2.926-13.14.286-3.531.464-7.084.451-10.628-.006-1.8.246-4.089-1.021-5.6-2.551-3.036-9.821-2.213-13.321-2.564l-22.68-2.273c-1.919-.192-1.906,2.81,0,3l14.175,1.421c4.61.462,9.659.408,14.175,1.42a4.377,4.377,0,0,1,3.777,1.424q2.694.636,1.9,3.169c.52,2.247-.107,5.437-.244,7.733-.24,4.029.673,12.767-4.062,13.984-1.781.457-4.935-.529-6.793-.727l-6.794-.728c-4.528-.484-9.06-.946-13.587-1.454-4.133-.463-4.9-1.09-5.071-5.436a43.343,43.343,0,0,1,.608-5.891l1.62-15.708c.2-1.919-2.8-1.905-3,0Z"/>
        </g>
      </g>
      <g id="Grupo_3864" data-name="Grupo 3864">
        <g id="Grupo_3863" data-name="Grupo 3863">
          <path id="Caminho_2303" data-name="Caminho 2303" d="M224.644,797.6l32.2,3.216c1.92.192,1.906-2.809,0-3l-32.2-3.216c-1.919-.192-1.906,2.809,0,3Z"/>
        </g>
      </g>
      <g id="Grupo_3866" data-name="Grupo 3866">
        <g id="Grupo_3865" data-name="Grupo 3865">
          <path id="Caminho_2304" data-name="Caminho 2304" d="M223.427,809.78l33.071,3.3c1.92.192,1.907-2.809,0-3l-33.071-3.3c-1.919-.192-1.906,2.81,0,3Z"/>
        </g>
      </g>
      <g id="Grupo_3868" data-name="Grupo 3868">
        <g id="Grupo_3867" data-name="Grupo 3867">
          <path id="Caminho_2305" data-name="Caminho 2305" d="M277.814,766.9a99.782,99.782,0,0,1,23.8,4.087c1.854.554,2.646-2.341.8-2.893a103.127,103.127,0,0,0-24.6-4.194c-1.93-.094-1.925,2.906,0,3Z"/>
        </g>
      </g>
      <g id="Grupo_3870" data-name="Grupo 3870">
        <g id="Grupo_3869" data-name="Grupo 3869">
          <path id="Caminho_2306" data-name="Caminho 2306" d="M278.248,780.169a162.93,162.93,0,0,1,23.929,2.973c1.885.377,2.692-2.514.8-2.893a168.41,168.41,0,0,0-24.726-3.08c-1.929-.1-1.924,2.9,0,3Z"/>
        </g>
      </g>
      <g id="Grupo_3872" data-name="Grupo 3872">
        <g id="Grupo_3871" data-name="Grupo 3871">
          <path id="Caminho_2307" data-name="Caminho 2307" d="M276.685,795.795a139.694,139.694,0,0,1,22.132,3.1c1.881.419,2.684-2.473.8-2.892a144.559,144.559,0,0,0-22.929-3.205c-1.928-.113-1.922,2.887,0,3Z"/>
        </g>
      </g>
      <g id="Grupo_3874" data-name="Grupo 3874">
        <g id="Grupo_3873" data-name="Grupo 3873">
          <path id="Caminho_2308" data-name="Caminho 2308" d="M277.033,810.472a42.648,42.648,0,0,1,19.86,5.34c1.693.93,3.209-1.66,1.514-2.59a46.112,46.112,0,0,0-21.374-5.75c-1.931-.045-1.93,2.956,0,3Z"/>
        </g>
      </g>
      <g id="Grupo_3876" data-name="Grupo 3876">
        <g id="Grupo_3875" data-name="Grupo 3875">
          <path id="Caminho_2309" data-name="Caminho 2309" d="M226.1,780.891c2.031-2.277,3.973-5.012,6.258-7.02,2.007-1.762,3.011-2.687,5.571-1.6a13.5,13.5,0,0,1,3.375,2.707c2.483,2.329,4.561,4.3,7.545,1.17,1.547-1.626,2.355-4.132,3.325-6.108a25.413,25.413,0,0,0,1.94-3.949l.776-1.58q-1.262-.663-.612.585c.911,4.975,3.511,9.74,6.467,13.766,1.131,1.54,3.735.045,2.59-1.514a35.677,35.677,0,0,1-5.322-10.022c-.473-1.437-.49-4.383-1.883-5.382-3.4-2.44-5.119,3.677-6.158,5.792-.594,1.209-1.419,3.753-2.329,4.739-2.944,3.194-3.479.965-5.368-.692-1.621-1.422-3.871-3.266-5.973-3.715-1.781-.381-2.1-.275-3.562.872-3.221,2.528-6.031,6.766-8.761,9.828-1.281,1.437.833,3.566,2.121,2.121Z"/>
        </g>
      </g>
      <g id="Grupo_3878" data-name="Grupo 3878">
        <g id="Grupo_3877" data-name="Grupo 3877">
          <path id="Caminho_2310" data-name="Caminho 2310" d="M235.582,761c.478,3.388,4.745,5.151,7.185,2.491a3.615,3.615,0,0,0-3.616-5.92c-1.846.55-1.06,3.446.8,2.893.845-.252,1.044.808.344,1.209-1.019.585-1.7-.629-1.817-1.471a1.51,1.51,0,0,0-1.845-1.047A1.538,1.538,0,0,0,235.582,761Z"/>
        </g>
      </g>
      <g id="Grupo_3880" data-name="Grupo 3880">
        <g id="Grupo_3879" data-name="Grupo 3879">
          <path id="Caminho_2311" data-name="Caminho 2311" d="M182.67,751.35c-4.281-1.16-6.6,3.389-5.787,7.06a8.351,8.351,0,0,0,8.9,6.484c2-.193,3.4-.914,4.152-2.8a9.684,9.684,0,0,0,.468-6.7c-1.376-3.694-5.706-4.493-9.151-4.87-1.916-.21-1.9,2.792,0,3a11.346,11.346,0,0,1,5.016,1.377c1.907,1.264,1.908,4.152.9,6.056-1.145,2.16-4.843.635-6.072-.69a5.249,5.249,0,0,1-1.365-3.07c-.11-1.284.379-3.423,2.139-2.946a1.5,1.5,0,0,0,.8-2.893Z"/>
        </g>
      </g>
      <g id="Grupo_3882" data-name="Grupo 3882">
        <g id="Grupo_3881" data-name="Grupo 3881">
          <path id="Caminho_2312" data-name="Caminho 2312" d="M181.61,761.857c-4.589-.961-6.047,3.561-7.228,7.043-.475,1.4-1.682,3.458-.7,4.889,1.072,1.568,4.5,1.984,6.165,2.408,2.749.7,8.893,3.065,10.386-.582,1.535-3.752,1.4-9.279-.939-12.615-1.1-1.568-3.7-.071-2.59,1.514,1.671,2.38,1.6,5.088,1.161,7.856-.1.66-.092,1.787-.782,2.154s-3.665-.585-4.5-.765q-1.944-.418-3.853-.981c-.325-.1-2.545-.586-2.374-.356-.221-.3,1.084-3.2,1.233-3.632.45-1.317,1.086-4.489,3.23-4.04,1.883.4,2.689-2.5.8-2.893Z"/>
        </g>
      </g>
    </g>
  </g>
</svg>
