<svg xmlns="http://www.w3.org/2000/svg" width="546.112" height="326.779" viewBox="0 0 546.112 326.779">
  <g id="Grupo_14255" data-name="Grupo 14255" transform="translate(-503.099 -271)">
    <path id="Caminho_7667" data-name="Caminho 7667" d="M238.375,0C379.741,0,482.928,1.565,482.928,5.8s-103.188,9.544-244.553,9.544S3.854,11.911,3.854,7.673,97.01,0,238.375,0Z" transform="translate(536.762 582.433)" fill="#e0e0e0"/>
    <g id="Grupo_14254" data-name="Grupo 14254" transform="translate(503.099 271)">
      <path id="Caminho_7666" data-name="Caminho 7666" d="M586.794,597.48V497.625c0-11.227-.2-22.807,3.748-33.5,5.278-14.3,18.922-25.648,33.822-26.62,11.34-.739,23.24,1.672,31.457,10.376,8.012,8.487,10.037,24.119,11.271,35.254,2.1,18.92,1.756,38.089,2.057,57.095.249,15.743.516,31.5,1.324,47.23.191,3.716-.576,6.333,0,10.021l2.745-4.587-7.255,4.587L595.8,592.893H584.775c-2.829,0-2.858,9.174,0,9.174H662.2l1.461,1.562c2.109,0,11.059-3.975,10.879-5.124-.478-3.067.118-8.287,0-10.531-.74-14.095-1.012-28.217-1.26-42.328-.355-20.173-.073-40.445-1.855-60.562-1.14-12.874-3.031-26.951-10.3-37.989-6.281-9.544-16.653-13.825-27.728-14.773-14.732-1.26-30.5,2.015-39.817,14.386-8.186,10.869-10.189,25.248-10.709,38.469-.472,12.025-.113,24.126-.113,36.158V597.48c0,1.18.25,4.587,2.018,4.587C586.528,602.067,586.794,598.551,586.794,597.48Z" transform="translate(-357.974 -282.399)"/>
      <path id="Caminho_7664" data-name="Caminho 7664" d="M380.964,336.152l6.418,3.8,5.791-1.57,4.059,6.319-5.181,7.509-4.669,2.557-19.692-2.557-4.311-3-1.488,13.7-6.268,1.26v-6.986l-2.189-10.249,5-6.044,11.361-.942,5.7,2.005Z" transform="translate(-294.088 -273.557)" fill="#fff"/>
      <path id="Caminho_7554" data-name="Caminho 7554" d="M844.71,517.835l3.023,6.524-11.554,4.577-2.751-6.2Z" transform="translate(-391.536 -283.062)" fill="#fff"/>
      <g id="Grupo_14159" data-name="Grupo 14159" transform="translate(440.849 232.503)">
        <path id="Caminho_7555" data-name="Caminho 7555" d="M843.9,519.252l3.024,6.525.445-3.833-11.555,4.577.983.59-2.751-6.2-.446,3.833,11.282-4.906c1.248-.542.9-5.046-.537-4.423l-11.282,4.906c-1.106.481-.806,3.02-.445,3.833l2.751,6.2c.193.433.488.785.982.59l11.555-4.578c1.105-.438.806-3.053.445-3.833l-3.024-6.524C844.3,513.788,843.358,518.079,843.9,519.252Z" transform="translate(-832.291 -515.36)"/>
      </g>
      <path id="Caminho_7556" data-name="Caminho 7556" d="M848.33,525.331l4.141,9.27-25.637,11.413-1-2.692a5.317,5.317,0,0,1,2.04-6.27l6.479-4.314,1.167-3.183Z" transform="translate(-390.881 -283.681)"/>
      <g id="Grupo_14160" data-name="Grupo 14160" transform="translate(433.652 239.397)">
        <path id="Caminho_7557" data-name="Caminho 7557" d="M847.529,526.75l4.141,9.269.445-3.833L826.479,543.6l.982.59c-.8-2.152-1.523-2.95.708-5.2a22.37,22.37,0,0,1,3.5-2.333,14.73,14.73,0,0,0,2.866-1.908c.74-.852.706-2.032,1.31-2.948s-.239-.062.13-.326a4.551,4.551,0,0,1,1.279-.422c1.493-.371,2.972-.981,4.433-1.462l6.821-2.25c1.241-.409,1.011-4.933-.537-4.423l-9.969,3.289c-.731.241-2.228.413-2.837.936-.474.408-.47.89-.748,1.416-.147.276-1.13,2.555-.528,1.84-2.187,2.6-6.319,3.186-8.24,6.192-2.237,3.5-.919,7.327.381,10.845.159.427.515.8.983.59l25.635-11.414c1.1-.491.811-3.013.445-3.833l-4.14-9.27C847.961,521.278,847,525.573,847.529,526.75Z" transform="translate(-824.445 -522.875)"/>
      </g>
      <path id="Caminho_7558" data-name="Caminho 7558" d="M854.959,419.958,820.2,454.224a14.543,14.543,0,0,0-3.89,13.921l11.33,44.827L850.89,506l-10.337-38.84L877.632,440.3l1.9-17.75Z" transform="translate(-390.085 -274.976)" fill="#fff"/>
      <g id="Grupo_14161" data-name="Grupo 14161" transform="translate(424.876 142.685)">
        <path id="Caminho_7559" data-name="Caminho 7559" d="M854.369,417.771,821.89,449.786c-5.556,5.477-8.27,11.73-6.446,19.67,1.7,7.385,3.717,14.709,5.574,22.055l5.665,22.414c.067.263.4,1.279.872,1.136l23.254-6.976c1.215-.364,1.126-2.494.872-3.451l-10.337-38.84-.6,3.369,30.28-21.928c2.527-1.83,6.827-3.664,7.542-6.887,1.238-5.58,1.255-11.7,1.865-17.389.073-.68.105-2.789-.972-2.9l-24.577-2.6c-1.316-.139-1.5,4.429,0,4.587l24.577,2.6-.974-2.9-1.9,17.751.705-1.6L840.2,464.739c-.9.653-.849,2.448-.6,3.369l10.337,38.841.872-3.451-23.254,6.976.871,1.137-10.449-41.342c-.976-3.861-1.835-7.192.3-11.123a24.756,24.756,0,0,1,4.8-5.567l17.847-17.591,14.461-14.255C856.309,420.823,855.741,416.418,854.369,417.771Z" transform="translate(-814.879 -417.455)"/>
      </g>
      <path id="Caminho_7560" data-name="Caminho 7560" d="M459.067,488.85s36.449,24.692,38.8,34.686-22.339,59.377-22.339,59.377l-16.461-5.88,6.467-48.795-30.575-38.45Z" transform="translate(-355.866 -286.172)" fill="#fff"/>
      <g id="Grupo_14162" data-name="Grupo 14162" transform="translate(78.068 200.376)">
        <path id="Caminho_7561" data-name="Caminho 7561" d="M458.706,490.855c12.35,8.379,26.212,17.511,35.571,29.265,1.848,2.32,2.882,3.98,2.435,6.919a62.658,62.658,0,0,1-3.2,11.229c-3.22,9.111-7.127,17.985-11.149,26.766-2.467,5.386-4.994,10.75-7.642,16.051l.982-.59-16.461-5.879.7,2.821,5.81-43.836c.539-4.059,1.136-6.365-1.482-9.657l-15.588-19.6-13.31-16.74-.509,4.274,24.108-.938c1.442-.056,1.4-4.641,0-4.587l-24.108.938c-1.481.058-1.08,3.556-.509,4.274l30.575,38.449-.464-2.59L458,576.217c-.084.633-.112,2.529.7,2.821l16.461,5.879c.515.185.763-.151.983-.59,7.265-14.545,14.273-29.471,19.506-44.879,1.9-5.593,4.946-13.212,2.367-19.064-3.426-7.772-12.293-13.977-18.693-19.11q-9.734-7.806-20.087-14.842C458.11,485.662,457.506,490.04,458.706,490.855Z" transform="translate(-433.842 -486.341)"/>
      </g>
      <path id="Caminho_7562" data-name="Caminho 7562" d="M463.332,586.366l-1.831,5.647,9.923,2.606,1.641-5.35Z" transform="translate(-358.059 -294.227)" fill="#f5f5f5"/>
      <g id="Grupo_14163" data-name="Grupo 14163" transform="translate(102.4 289.829)">
        <path id="Caminho_7563" data-name="Caminho 7563" d="M462.367,585l-1.832,5.646c-.294.906-.319,3.138.872,3.451l9.922,2.606c.493.129.788-.861.871-1.136l1.641-5.35c.289-.943.32-3.1-.872-3.451l-9.733-2.9c-1.083-.323-1.527,4.131,0,4.587l9.733,2.9-.872-3.45-1.64,5.349.871-1.136-9.922-2.606.872,3.451,1.831-5.646C464.585,585.849,463.283,582.174,462.367,585Z" transform="translate(-460.365 -583.848)"/>
      </g>
      <path id="Caminho_7564" data-name="Caminho 7564" d="M460.231,592.971l-2.027,6.562a1.511,1.511,0,0,0,1,1.891l18.163,5.59a2.482,2.482,0,0,0,3.145-1.8l.2-.848a2.689,2.689,0,0,0-1.616-3.118l-6.68-2.676-1.272-3.41Z" transform="translate(-357.781 -294.773)"/>
      <g id="Grupo_14164" data-name="Grupo 14164" transform="translate(99.444 295.895)">
        <path id="Caminho_7565" data-name="Caminho 7565" d="M459.279,591.606c-.808,2.615-2.233,5.554-2.13,8.33.117,3.142,1.973,3.575,4.542,4.366l11.112,3.42c2.073.638,5.116,2.252,7.083.753,2.1-1.6,2.369-6.052,1.027-8.153-1.788-2.8-6-2.05-8.179-4.114.468.442-.518-2.334-.958-2.873-.629-.772-1.02-.671-1.961-.922-3.153-.841-6.466-1.3-9.667-1.943-1.206-.242-1.525,4.281,0,4.587l5.026,1.01,4.017.808c.416.083,2.056.585,1.5.125-.511-.426.372,1.8.671,2.313.288.5.331.894.763,1.293,1.493,1.377,4.413,1.321,6.121,2.451.949.629,2.3.847-.014,1.421-.806.2-1.124-.087-1.879-.249-2.083-.45-4.16-1.281-6.2-1.907-3.527-1.085-8.779-1.664-11.666-4.054l.7,1.6c.075.8-.3.2.107-.411a10.965,10.965,0,0,0,.7-2.256l1.014-3.281C461.475,592.454,460.156,588.768,459.279,591.606Z" transform="translate(-457.143 -590.461)"/>
      </g>
      <path id="Caminho_7566" data-name="Caminho 7566" d="M748.934,428.364,714.171,462.63a14.545,14.545,0,0,0-3.891,13.921l11.331,44.828,23.254-6.976-10.337-38.84,37.079-26.852,1.9-17.751Z" transform="translate(-381.326 -275.67)"/>
      <g id="Grupo_14165" data-name="Grupo 14165" transform="translate(327.609 150.397)">
        <path id="Caminho_7567" data-name="Caminho 7567" d="M748.343,426.177l-32.479,32.015c-5.556,5.476-8.269,11.729-6.446,19.67,1.7,7.384,3.718,14.709,5.575,22.054l5.665,22.415c.066.263.4,1.278.872,1.136l23.254-6.976c1.215-.365,1.126-2.494.871-3.451L735.318,474.2l-.6,3.37,30.28-21.929c2.527-1.83,6.828-3.664,7.543-6.887,1.237-5.58,1.255-11.7,1.865-17.388.072-.68.1-2.79-.973-2.9l-24.576-2.6c-1.316-.138-1.5,4.429,0,4.587l24.576,2.6-.972-2.9-1.9,17.75.7-1.6-37.079,26.852c-.9.654-.848,2.448-.6,3.37l10.337,38.84.872-3.45L721.53,518.88l.871,1.136-10.45-41.342c-.975-3.861-1.834-7.192.3-11.122a24.733,24.733,0,0,1,4.8-5.567L734.9,444.392l14.462-14.254C750.283,429.23,749.715,424.825,748.343,426.177Z" transform="translate(-708.854 -425.861)"/>
      </g>
      <path id="Caminho_7568" data-name="Caminho 7568" d="M738.684,526.241l3.023,6.524-11.554,4.577-2.751-6.2Z" transform="translate(-382.777 -283.756)" fill="#fff"/>
      <g id="Grupo_14166" data-name="Grupo 14166" transform="translate(343.583 240.214)">
        <path id="Caminho_7569" data-name="Caminho 7569" d="M737.877,527.658l3.024,6.525.445-3.834-11.554,4.578.982.59-2.751-6.2-.445,3.834,11.282-4.906c1.247-.542.9-5.047-.537-4.424l-11.282,4.907c-1.106.481-.806,3.019-.446,3.833l2.751,6.2c.193.434.488.785.982.59l11.554-4.577c1.105-.438.807-3.054.446-3.834l-3.024-6.524C738.275,522.193,737.333,526.485,737.877,527.658Z" transform="translate(-726.266 -523.766)"/>
      </g>
      <path id="Caminho_7570" data-name="Caminho 7570" d="M742.3,533.737l2.885,6.461a3.072,3.072,0,0,1-1.556,4.06l-22.825,10.163-1.054-2.851a5.1,5.1,0,0,1,1.958-6.018l6.619-4.407,1.167-3.183Z" transform="translate(-382.119 -284.375)" fill="#fff"/>
      <g id="Grupo_14167" data-name="Grupo 14167" transform="translate(336.336 247.109)">
        <path id="Caminho_7571" data-name="Caminho 7571" d="M741.5,535.156l1.8,4.031a9.453,9.453,0,0,1,.872,1.951c-.214.931.8-.612-.938.724-1.706,1.315-4.566,2.033-6.508,2.9l-16.277,7.246.982.59c-.776-2.1-1.58-2.973.555-5.1a21.073,21.073,0,0,1,3.213-2.139c2.543-1.693,3.25-2.1,4.479-4.769.594-1.287-.37-.385,1.288-1.044,1.385-.55,2.866-.945,4.282-1.412l7.233-2.387c1.242-.41,1.011-4.934-.537-4.423l-9.968,3.289c-.9.3-2.379.473-3.078,1.167a6.63,6.63,0,0,0-1.158,3.105c-2.249,2.521-6.286,3.159-8.192,6.135-2.238,3.494-.837,7.321.456,10.821.158.428.515.8.982.59l20.283-9.03c2.768-1.232,5.019-2.414,5.089-5.908.067-3.309-2.124-6.653-3.43-9.579C741.931,529.685,740.973,533.98,741.5,535.156Z" transform="translate(-718.367 -531.282)"/>
      </g>
      <path id="Caminho_7572" data-name="Caminho 7572" d="M590.124,601.658" transform="translate(-367.767 -294.573)" fill="#f5f5f5"/>
      <g id="Grupo_14168" data-name="Grupo 14168" transform="translate(219.323 302.535)">
        <path id="Caminho_7573" data-name="Caminho 7573" d="M589.963,605.8c4.015,0,3.846-9.1-.224-9.1-4.015,0-3.846,9.1.224,9.1Z" transform="translate(-586.817 -596.699)"/>
      </g>
      <path id="Caminho_7668" data-name="Caminho 7668" d="M8.964,0H536.841c2.436,0,6.453,2.741,6.453,2.741s2.512,3.708,2.512,6.223v.923a8.964,8.964,0,0,1-8.964,8.964H8.964A8.964,8.964,0,0,1,0,9.887V8.964A8.964,8.964,0,0,1,8.964,0Z" transform="translate(4.957 232.83) rotate(-9.718)" fill="#fff"/>
      <g id="Grupo_14169" data-name="Grupo 14169" transform="translate(13.619 110.991) rotate(3)">
        <path id="Caminho_7574" data-name="Caminho 7574" d="M522.633.071,507.965,3.449l-39.779,9.159-58.55,13.481L338.655,42.433,261.58,60.18,184.751,77.87,114.506,94.044l-57.32,13.2-38.057,8.763c-5.1,1.173-15.058,1.174-17.939,8.076-3.278,7.855.512,19.1,7.757,17.982.346-.054.689-.164,1.032-.239,2.523-.543,5.038-1.16,7.555-1.739l34.3-7.9,54.6-12.572,68.562-15.786,76.184-17.541L328.646,68.45,401.06,51.777l61.02-14.051,43.287-9.967c6.4-1.473,12.844-2.75,19.215-4.425,10.064-2.644,8.748-24.742-1.949-23.264-1.1.152-.992,4.725,0,4.587,2.677-.37,4.343,1.088,5.47,4.81,1.365,4.506-.075,8.219-3.1,9.185-.092.028-.186.037-.278.063-.633.188-1.287.3-1.926.444l-8.911,2.051-35.972,8.283L423.162,42.1l-67.7,15.588-75.046,17.28L204.645,92.415l-70.882,16.32L73.711,122.564l-43.43,10c-6.819,1.571-13.63,3.267-20.465,4.713A10.609,10.609,0,0,1,8,137.607c-2.463.08-3.9-2.024-4.12-5.874-.248-4.234-.029-7.385,2.707-8.252.1-.033.208-.041.31-.072,1.859-.549,3.773-.869,5.649-1.3l30.474-7.017,50.72-11.678,65.107-14.991,73.89-17.013L308.8,53.894,381.41,37.175l63.221-14.556,48.061-11.066L519.21,5.446l3.423-.788C523.753,4.4,523.568-.144,522.633.071Z" transform="translate(0 0)"/>
      </g>
      <path id="Caminho_7575" data-name="Caminho 7575" d="M584.969,597.894V491.8c0-24.021,4.459-55.381,43.85-54.714s41.619,30.026,42.363,90.746,2.229,70.06,2.229,70.06Z" transform="translate(-367.341 -280.977)" fill="#fff"/>
      <g id="Grupo_14170" data-name="Grupo 14170" transform="translate(215.479 151.508)">
        <path id="Caminho_7576" data-name="Caminho 7576" d="M586.794,597.48V497.625c0-11.227.009-24.907,3.955-35.6,5.278-14.3,17.68-24.357,32.58-25.329,11.34-.739,24.363,3.071,32.58,11.776,8.012,8.487,9.949,23.527,11.183,34.663,2.1,18.92,1.756,38.089,2.057,57.095.249,15.743.516,31.5,1.324,47.23.191,3.716-.576,6.333,0,10.021l2.8-1.219h-88.5c-2.829,0-2.858,5.806,0,5.806h88.442c2.109,0,2.126-4.658,1.946-5.806a77.209,77.209,0,0,1-.627-8.286c-.74-14.095-1.012-28.217-1.26-42.328-.355-20.173-.073-40.445-1.855-60.562-1.14-12.874-3.031-26.951-10.3-37.989-6.281-9.544-16.653-13.825-27.728-14.773-14.732-1.26-30.5,2.015-39.817,14.386-8.186,10.869-10.189,25.248-10.709,38.469-.472,12.025-.113,24.126-.113,36.158V597.48c0,1.18.25,4.587,2.018,4.587C586.528,602.067,586.794,598.551,586.794,597.48Z" transform="translate(-582.627 -432.072)"/>
      </g>
      <path id="Caminho_7577" data-name="Caminho 7577" d="M623.361,456.843s-17.51,1.877-14.384,24.391,28.219,16.244,34.4,9.38c5.628-6.254,7.256-10.75,3.752-21.263-5-15.008-21.889-12.508-21.889-12.508" transform="translate(-369.293 -282.597)"/>
      <g id="Grupo_14171" data-name="Grupo 14171" transform="translate(237.962 171.732)">
        <path id="Caminho_7578" data-name="Caminho 7578" d="M623.24,454.337c-17.914,2.088-20.925,30.613-8.827,40.824,6.867,5.8,17.73,4.54,25.127.437,10.395-5.767,11.869-17.5,8.257-27.848-3.326-9.533-14.615-14.8-24.558-13.412-1.5.209.583,4.768,1.876,4.587,5.428-.758,11.6.552,15.9,4,4.636,3.715,7.849,11.661,6.579,17.548-.872,4.046-4.237,8.056-7.735,10.213-5.792,3.57-13.987,5.1-20.476,2.66-9.675-3.641-12.41-17.158-8.124-25.819a16.047,16.047,0,0,1,11.979-8.6c1.486-.172,1.319-4.74,0-4.587Z" transform="translate(-607.134 -454.117)"/>
      </g>
      <path id="Caminho_7579" data-name="Caminho 7579" d="M627.073,467.454s-8.862.949-7.28,12.344,14.282,8.221,17.407,4.748c2.848-3.165,3.673-5.441,1.9-10.762-2.532-7.6-11.077-6.33-11.077-6.33" transform="translate(-370.202 -283.48)" fill="#fff"/>
      <g id="Grupo_14172" data-name="Grupo 14172" transform="translate(248.195 181.566)">
        <path id="Caminho_7580" data-name="Caminho 7580" d="M626.964,464.951c-12.885,1.579-10.986,26.26,2.841,24.821,6.883-.716,11.874-6.279,11.012-13.326-.842-6.879-5.512-12.487-12.9-11.495-1.494.2-1.3,4.762,0,4.587,3.612-.484,7.812.762,9.652,4.1,3.471,6.288-1.853,10.932-7.76,11.551-6.026.632-10.676-3.932-9.061-10.254a7.561,7.561,0,0,1,6.22-5.393c1.489-.183,1.313-4.748,0-4.587Z" transform="translate(-618.289 -464.836)"/>
      </g>
      <g id="Grupo_14173" data-name="Grupo 14173" transform="translate(57.98 60.328)">
        <path id="Caminho_7581" data-name="Caminho 7581" d="M451.49,353.982a11.478,11.478,0,0,0,5.7-9.5c.079-2.624-1.133-8.881-4.628-9.136-1.789-.131-2.463,1.641-4.235,1.847-2.733.316-3.452-2.863-6.243-3.4-4.369-.84-5.98,3.089-6.63,6.528l1-1.615c-3.844,1.745-8.8-1.173-12.857-1.112a12.1,12.1,0,0,0-8.75,3.76,11.465,11.465,0,0,0-2.9,7.136c-.234,4.958,3.432,8.548,2.051,13.747-.326,1.228-.2,3.164,1.374,3.392,2.741.4,6.875,1.421,8.253-1.63,2-4.431.236-10.173,1.711-14.834.628-1.983-1.738-5.071-2.637-2.233a29.292,29.292,0,0,0-1.247,8.217c-.057,1.942.668,4.449-1.02,5.678-1.5,1.094-3.406.509-5.172.253l1.373,3.391a18.633,18.633,0,0,0,.688-7.212c-.364-3.037-3.034-6.82-2.124-9.825,1.256-4.147,6.245-5.529,10.066-5.206,3.114.262,6.11,1.53,9.266,1.46,2-.045,2.4-.646,3.689-1.681l.138-.548q.2-3.729,5.78-1.427c.858.387,1.419,1.636,2.356,2.122,1.557.809,2.3.634,3.832.054,2.131-.807-.276-1.228,2.32-.754,4.515.823-.258,7.007-2.065,8.156-1.611,1.025-.857,5.487.9,4.368Z" transform="translate(-411.945 -333.681)"/>
      </g>
      <g id="Grupo_14175" data-name="Grupo 14175" transform="translate(0 53.904)">
        <path id="Caminho_7582" data-name="Caminho 7582" d="M366.922,351.908a.174.174,0,0,0,.177-.172c.065-1.936.6-19.585-1.594-19.667-1.58-.059-2.157,3.118-2.365,5.158a.183.183,0,0,1-.362.008c-.506-3.086-1.755-9.405-3.511-9.471-2.324-.086-3.035,3.378-1.982,6.325s.755-4.625-2.15-4.734-.35,7.346-.35,7.346-4.186-7.349-4.588-2.426a10.041,10.041,0,0,0,4.364,9.572.148.148,0,0,1,.044.078c.1.392.79,3.232,1.828,7.411C356.582,351.933,365.565,351.914,366.922,351.908Z" transform="translate(-348.86 -326.768)" fill="#fff"/>
        <g id="Grupo_14174" data-name="Grupo 14174">
          <path id="Caminho_7583" data-name="Caminho 7583" d="M367.535,352.549c1.186-1.159.569-4.5.579-5.989a77.772,77.772,0,0,0-.459-11.4c-.192-1.358-.347-3.738-1.992-4.178-3.357-.9-2.494,4.61-3.547,5.587h1.46c-.474-.4-.59-3.223-.756-3.893a16.21,16.21,0,0,0-1.269-3.847c-.639-1.174-1.233-2.163-2.676-2.15-3.908.033-3.843,6.575-2.071,8.722a1.054,1.054,0,0,0,1.25.161c2.493-1.075-.584-7.211-2.9-7.311-4.163-.181-2.177,6.548-1.483,8.634l1.886-.8c-.859-1.479-3.007-5.5-5.3-4.463-3.231,1.46-.51,8.512.917,10.41.778,1.034,1.928,1.732,2.5,2.809,1.013,1.923.37,5.678,1.985,7.186,2.063,1.925,8.562.828,11.147.819a1.033,1.033,0,0,0,0-2.064c-2.463.008-5.641.507-8-.157-1.683-.473-1.047.389-1.861-1.161a12.34,12.34,0,0,1-.638-2.575,14.093,14.093,0,0,0-.871-3.457c-.92-1.549-2.583-2.285-3.447-4.075a7.762,7.762,0,0,1-.914-3.818c.148-1.7-.056-1.8,1.1-.8a9.679,9.679,0,0,1,1.611,2.384c.573.988,2.264.339,1.886-.8a20.7,20.7,0,0,1-.777-2.926c-.071-.4-.917-3.481,1.121-2.123-.067-.045.982,2.677.683,2.663,1.5.071.9-7.629,3.522-2.928a12.939,12.939,0,0,1,.878,3.342c.235,1.072.125,2.913,1.027,3.665a1.06,1.06,0,0,0,1.46,0c1.2-1.113.587-6.628,1.833-3.886.788,1.736.514,4.631.577,6.509.076,2.24.081,4.482.056,6.724-.01.911-.013,1.825-.049,2.736-.021.559-.315,1.364.082.977C365.124,352.018,366.584,353.477,367.535,352.549Z" transform="translate(-348.744 -326.679)"/>
        </g>
      </g>
      <g id="Grupo_14177" data-name="Grupo 14177" transform="translate(123.968 53.904)">
        <path id="Caminho_7584" data-name="Caminho 7584" d="M485.434,351.908a.174.174,0,0,1-.177-.172c-.065-1.936-.6-19.585,1.594-19.667,1.581-.059,2.158,3.118,2.365,5.158a.183.183,0,0,0,.363.008c.506-3.086,1.755-9.405,3.511-9.471,2.324-.086,3.035,3.378,1.981,6.325s-.754-4.625,2.15-4.734.35,7.346.35,7.346,4.186-7.349,4.588-2.426a10.041,10.041,0,0,1-4.364,9.572.148.148,0,0,0-.044.078c-.1.392-.791,3.232-1.829,7.411C495.773,351.933,486.79,351.914,485.434,351.908Z" transform="translate(-483.981 -326.768)" fill="#fff"/>
        <g id="Grupo_14176" data-name="Grupo 14176">
          <path id="Caminho_7585" data-name="Caminho 7585" d="M486.057,351.089c.409.4.067-.416.082-.977.025-.908-.039-1.827-.049-2.736-.024-2.241-.019-4.483.057-6.724.063-1.878-.211-4.773.577-6.509,1.245-2.742.634,2.773,1.832,3.886a1.061,1.061,0,0,0,1.46,0c.9-.747.8-2.609,1.027-3.665a13.953,13.953,0,0,1,.877-3.342q.314-2.822,1.561-.577a5.752,5.752,0,0,1,1.96,3.505,15.231,15.231,0,0,1,.683-2.663c1.678-1.116,1.228,1.522,1.122,2.123a20.825,20.825,0,0,1-.777,2.926,1.037,1.037,0,0,0,1.886.8,18.947,18.947,0,0,1,1.238-1.918c2.379-3.15,1.471,1.862.905,3.423-.823,2.268-2.672,3-3.8,4.8a11.286,11.286,0,0,0-.742,2.933,15.645,15.645,0,0,1-.766,3.1c-.594,1.122-.057.682-1.465,1.132-2.4.767-5.869.194-8.4.185a1.033,1.033,0,0,0,0,2.064c2.6.009,8.945,1.064,11.075-.763,1.592-1.365,1.1-5.065,1.974-6.9.616-1.293,1.662-1.931,2.578-3.148,1.47-1.955,4.079-8.7,1.022-10.329-2.318-1.239-4.514,2.85-5.4,4.382l1.886.8c.693-2.078,2.684-8.825-1.482-8.634-2.312.106-5.4,6.234-2.9,7.311a1.065,1.065,0,0,0,1.251-.161c1.76-2.133,1.842-8.69-2.071-8.722-1.242-.011-1.86.718-2.484,1.73a14.009,14.009,0,0,0-1.315,3.7c-.206.768-.372,4.016-.9,4.458h1.46c-1.115-1.036-.142-6.414-3.546-5.587-1.647.4-1.8,2.848-1.993,4.178a76.747,76.747,0,0,0-.459,11.4c.01,1.431-.586,4.85.579,5.989C485.549,353.477,487.011,352.018,486.057,351.089Z" transform="translate(-483.875 -326.679)"/>
        </g>
      </g>
      <g id="Grupo_14179" data-name="Grupo 14179" transform="translate(83.529 72.22)">
        <path id="Caminho_7586" data-name="Caminho 7586" d="M440.935,398.015s23.916-9.477,28.62-13.592S481.9,349.149,481.9,349.149l11.17,1.763s-4.115,38.8-9.994,45.268-29.982,21.752-29.982,21.752Z" transform="translate(-439.889 -346.851)"/>
        <g id="Grupo_14178" data-name="Grupo 14178">
          <path id="Caminho_7587" data-name="Caminho 7587" d="M441.11,400.02q7.962-3.161,15.776-6.694c4.883-2.217,11.7-4.39,14.632-9.225,3.5-5.771,5.274-12.9,7.169-19.311,1.437-4.865,2.779-9.763,3.991-14.689l-.872,1.136L492.976,353,492,350.1c-.584,5.477-1.331,10.941-2.175,16.383-1.279,8.235-2.243,17.741-5.979,25.312-1.488,3.015-4.358,5.038-6.955,7.064-3.824,2.983-7.8,5.769-11.807,8.5q-5.072,3.465-10.236,6.8a8.33,8.33,0,0,1-2.04,1.31c-.121.027,1.032.454.55.039a4.967,4.967,0,0,1-.756-1.238c-3.266-6.348-7.532-12.338-11.255-18.435-.887-1.455-1.7,2.844-1.018,3.96l12.158,19.917a.585.585,0,0,0,.778.231q8.936-5.674,17.586-11.8c5.724-4.07,12.543-8.085,15.175-14.9,5.04-13.052,6.443-28.089,7.92-41.923.078-.731.1-2.733-.973-2.9l-11.17-1.763c-.5-.079-.793.816-.872,1.136-1.059,4.305-2.223,8.588-3.453,12.847-1.873,6.491-3.491,14.291-7.275,20-3.014,4.548-10.5,6.772-15.244,8.9s-9.552,4.149-14.389,6.07C439.324,396.092,439.634,400.606,441.11,400.02Z" transform="translate(-439.795 -346.644)"/>
        </g>
      </g>
      <g id="Grupo_14181" data-name="Grupo 14181" transform="translate(6.369 72.22)">
        <path id="Caminho_7588" data-name="Caminho 7588" d="M408.917,396.18S385,388.538,380.3,384.423s-12.346-35.274-12.346-35.274l-11.17,1.763s4.115,38.8,9.995,45.268,29.982,21.752,29.982,21.752Z" transform="translate(-355.777 -346.851)"/>
        <g id="Grupo_14180" data-name="Grupo 14180">
          <path id="Caminho_7589" data-name="Caminho 7589" d="M409.1,393.762q-7.278-2.332-14.434-5.042c-4.781-1.812-12.489-3.674-15.345-8.323-3.581-5.83-5.252-13.26-7.13-19.766-1.229-4.259-2.394-8.542-3.453-12.847-.079-.32-.372-1.215-.871-1.136l-11.17,1.763c-1.077.171-1.05,2.172-.972,2.9,1.477,13.834,2.879,28.871,7.919,41.923,2.632,6.815,9.454,10.835,15.175,14.9,5.751,4.089,11.63,8.013,17.586,11.8.476.3.8-.256.983-.59l12.158-21.752c.635-1.136-.216-5.41-1.427-3.243L395.955,416.1l.982-.59q-8.034-5.1-15.839-10.563c-5.689-3.984-13.432-8.166-16.032-14.956-4.753-12.41-6-26.753-7.4-39.9l-.973,2.9,11.17-1.763-.872-1.136c2.728,11.088,5.21,23.805,11.013,33.743,2.839,4.861,9.28,6.643,14.23,8.574,5.375,2.1,10.832,4.007,16.326,5.768C410.1,398.679,410.352,394.165,409.1,393.762Z" transform="translate(-355.686 -346.644)"/>
        </g>
      </g>
      <g id="Grupo_14183" data-name="Grupo 14183" transform="translate(38.664 116.66)">
        <path id="Caminho_7590" data-name="Caminho 7590" d="M432.807,398.414s15.657,4.115,19.185,37.037,7.055,44.092-2.352,47.032-57.025-7.643-57.613,2.351c0,0-1.176-52.911,13.521-78.777C405.547,406.057,411.272,394.3,432.807,398.414Z" transform="translate(-390.981 -395.289)"/>
        <g id="Grupo_14182" data-name="Grupo 14182">
          <path id="Caminho_7591" data-name="Caminho 7591" d="M432.715,400.505c4.785,1.313,9.509,7.488,11.93,12.131,3.886,7.457,5.454,15.814,6.376,24.094.952,8.556,2.111,17.091,2.991,25.654.766,7.451,2.43,17.321-7.471,18.068-10.563.8-21.516-1.443-32.043-2.15-5.715-.383-22.472-3.126-23.536,5.72l1.982.61a232.935,232.935,0,0,1,4.327-50.938c1.782-8.769,4.266-19.9,9.334-26.873,5.807-7.99,17.429-7.848,26.11-6.315,1.237.218,1.52-4.319,0-4.587-8.2-1.447-17.807-1.545-24.524,4.175-3.9,3.319-5.842,8.491-7.591,13.142-6.693,17.793-8.6,37.412-9.416,56.276-.219,5.032-.365,10.083-.259,15.12.041,1.949,1.656,3.327,1.982.609.33-2.751,9.068-2.66,10.755-2.7a168.693,168.693,0,0,1,18.735.98c5.992.533,11.985,1.2,18,1.484,3.485.165,7.584.554,10.823-1.06,7.6-3.79,5.424-16.13,4.739-22.782-.938-9.122-2.1-18.23-3.178-27.337-.917-7.762-2.549-15.6-5.866-22.719-2.72-5.841-7.48-13.347-14.2-15.19C431.6,395.613,431.186,400.086,432.715,400.505Z" transform="translate(-390.889 -395.086)"/>
        </g>
      </g>
      <g id="Grupo_14185" data-name="Grupo 14185" transform="translate(38.702 200.577)">
        <path id="Caminho_7592" data-name="Caminho 7592" d="M392.028,494.159s2.84,33.518,51.522,36.89a1.843,1.843,0,0,1,1.571,2.543l-18.469,44.543a1.219,1.219,0,0,0,.8,1.641l18.863,5.32a3.181,3.181,0,0,0,3.812-1.869l21.411-52.975a14.242,14.242,0,0,0-5.17-17.1L442,494.677l-6.368-4.514S392.616,485.929,392.028,494.159Z" transform="translate(-391.022 -486.767)" fill="#fff"/>
        <g id="Grupo_14184" data-name="Grupo 14184">
          <path id="Caminho_7593" data-name="Caminho 7593" d="M390.964,494.561c.586,6.534,3.862,13.139,7.761,18.279a45.849,45.849,0,0,0,15.224,12.688,61.9,61.9,0,0,0,12.3,4.78c2.427.674,4.888,1.215,7.368,1.65,2.4.421,9.711.187,10.986,2.25l-.463-2.59c-.147,1.986-1.69,4.639-2.516,6.634l-6.018,14.514c-3.177,7.662-7.251,15.415-9.682,23.351-.949,3.1-.27,5.008,2.6,6.074,4.576,1.7,9.551,2.693,14.251,4.019,3.237.914,6.106,1.971,8.034-1.727,1.175-2.257,1.953-4.834,2.905-7.189l12.064-29.849c2.474-6.121,6.214-12.742,7.4-19.311a17.629,17.629,0,0,0-6.633-17.4c-2.5-1.973-5.085-3.857-7.625-5.783-6.377-4.837-12.668-9.811-19.2-14.441-3.206-2.273-4.163-2.881-7.88-3.169-5.348-.413-10.711-.691-16.075-.758-5.775-.071-11.759-.094-17.437,1.106-3.379.714-6.8,1.822-7.361,5.649-.3,2.035,1.5,4.3,1.947,1.219.472-3.249,14.259-3.283,16.562-3.349a208.709,208.709,0,0,1,20.937.613c1.477.105,3.552-.088,4.974.406,1.526.531,4.3,3.026,6,4.266,3.959,2.887,7.819,5.918,11.722,8.879,4.283,3.249,8.683,6.388,12.87,9.762,4.423,3.564,6.515,8.093,4.577,13.718-.542,1.573-1.256,3.107-1.879,4.65l-15.751,38.968c-1.447,3.58-2.53,10.569-7.306,9.95-3.353-.434-6.857-1.934-10.112-2.852-2.648-.747-6.536-1.091-8.646-2.858l.74,2.211c.03,1.028-.019-.071.34-.981.567-1.436,1.184-2.854,1.775-4.281l5.57-13.435c3.325-8.019,6.9-15.979,9.989-24.092.808-2.124,1.7-5.4-.476-7.068-1.234-.944-3.6-.7-5.009-.844-2.065-.219-4.124-.5-6.169-.855a72.35,72.35,0,0,1-11.5-2.949c-9.637-3.384-18.474-9.3-24.083-17.97-2.481-3.831-4.744-8.8-5.13-13.109C392.633,490.244,390.782,492.53,390.964,494.561Z" transform="translate(-390.931 -486.559)"/>
        </g>
      </g>
      <g id="Grupo_14187" data-name="Grupo 14187" transform="translate(76.902 293.259)">
        <path id="Caminho_7594" data-name="Caminho 7594" d="M435.446,590.1l-1.764,7.055,12.346,2.352.638-6.676Z" transform="translate(-432.663 -587.795)" fill="#f5f5f5"/>
        <g id="Grupo_14186" data-name="Grupo 14186" transform="translate(0 0)">
          <path id="Caminho_7595" data-name="Caminho 7595" d="M434.483,588.736l-1.764,7.055c-.215.86-.374,3.214.872,3.451l12.345,2.351c.648.124.939-1.323.973-1.683l.638-6.676c.078-.817.1-2.642-.973-2.9l-11.221-2.73c-1.154-.281-1.528,4.214,0,4.587l11.221,2.73-.972-2.9-.639,6.677.972-1.684-12.345-2.351.871,3.451,1.763-7.055c.19-.76.379-2.583-.361-3.138S434.692,587.9,434.483,588.736Z" transform="translate(-432.571 -587.587)"/>
        </g>
      </g>
      <g id="Grupo_14189" data-name="Grupo 14189" transform="translate(74.167 299.989)">
        <path id="Caminho_7596" data-name="Caminho 7596" d="M432.252,597.432l-1.562,7.251a3.811,3.811,0,0,0,2.857,4.514l21.436,5.017a2.454,2.454,0,0,0,2.98-1.986l.222-1.328a4.034,4.034,0,0,0-2.414-4.38l-8.233-3.467-.847-2.939Z" transform="translate(-429.673 -595.13)"/>
        <g id="Grupo_14188" data-name="Grupo 14188">
          <path id="Caminho_7597" data-name="Caminho 7597" d="M431.3,596.067c-1.043,4.84-4.2,12.828,2.166,15.216,5.536,2.078,11.983,2.8,17.74,4.152,1.833.428,4.279,1.508,6.005.32,2.08-1.432,2.249-5.687,1.67-7.833-.884-3.262-3.41-4.027-6.225-5.213-1.494-.63-3.082-1.172-4.531-1.908-.905-.46.575,1.415-.016.124a15.8,15.8,0,0,1-.628-2.178c-.136-.472-.327-1.034-.872-1.136l-14.439-2.681c-1.226-.228-1.522,4.3,0,4.587l14.439,2.681-.871-1.136c.352,1.225.527,3.125,1.5,4.015,1.339,1.226,4.379,1.844,6.046,2.546,1.874.789,6.369,4.005,1.494,4.06-1.456.016-3.253-.761-4.66-1.091l-14.8-3.465c-1.7-.4-3.5-.607-3.626-2.476s.949-4.4,1.351-6.27C433.354,596.924,431.919,593.178,431.3,596.067Z" transform="translate(-429.59 -594.923)"/>
        </g>
      </g>
      <g id="Grupo_14191" data-name="Grupo 14191" transform="translate(59.23 73.445)">
        <path id="Caminho_7598" data-name="Caminho 7598" d="M450.907,355.134s4.073,13.241,2.16,23.211a13.606,13.606,0,0,1-8.354,10.032,25.312,25.312,0,0,1-9.459,2.078.731.731,0,0,0-.765.761l.545,10.362s-13.312,6.6-19.734-6.246c0,0,7.977-10.215,7.389-11.979s-.588-7.055-.588-7.055-7.643,1.176-7.643-4.7,4.115-7.054,8.231-6.467l1.175-14.7S432.094,358.661,450.907,355.134Z" transform="translate(-413.403 -348.182)" fill="#fff"/>
        <g id="Grupo_14190" data-name="Grupo 14190">
          <path id="Caminho_7599" data-name="Caminho 7599" d="M449.94,356.089a60.391,60.391,0,0,1,2.426,13.116c.3,4.27.292,9-2.412,12.555-2.263,2.978-5.657,4.471-9.18,5.417-3.717,1-7.128-.355-7.369,4.232a97.243,97.243,0,0,0,.525,9.966l.741-2.212c-7.043,3.4-14.95,1.349-18.752-5.656l-.2,3.6a66.287,66.287,0,0,0,6.68-9.716c1.948-3.731.639-7.24.621-11.3,0-.473-.153-2.411-1.009-2.293a8.113,8.113,0,0,1-4.389-.349,3.3,3.3,0,0,1-.007-5.714,8.7,8.7,0,0,1,4.984-.521c.656.07.94-1.275.972-1.683l1.176-14.7-1.482,1.371c6.912,6.728,18.855,6.514,27.553,5.016,1.505-.259,1.256-4.8,0-4.587-8.277,1.426-20.516,1.469-26.534-4.39-.9-.88-1.423.619-1.483,1.371l-1.176,14.7.973-1.684c-6.494-.686-10.127,4.022-9.118,10.392.684,4.321,4.494,5.918,8.53,5.365L421,376.1c.007,1.681.049,3.377.21,5.052.267,2.773.477,1.9-1.084,4.4a91.256,91.256,0,0,1-5.427,7.6,3.984,3.984,0,0,0-.2,3.6c4.259,7.843,12.547,10.777,20.717,6.835.62-.3.771-1.643.74-2.212l-.249-4.725c-.037-.7-.8-5.083-.291-5.535-.847.758,2.354,1.24,2.56,1.242a11.705,11.705,0,0,0,2.805-.594,29.635,29.635,0,0,0,4.112-1.379,14.931,14.931,0,0,0,6.888-5.851c5.276-8.49,2.626-21.769-.091-30.761C450.823,350.928,449.5,354.621,449.94,356.089Z" transform="translate(-413.308 -347.979)"/>
        </g>
      </g>
      <g id="Grupo_14192" data-name="Grupo 14192" transform="translate(81.86 92.88)">
        <path id="Caminho_7600" data-name="Caminho 7600" d="M438.09,369.734a2.043,2.043,0,0,0,.484,2.172c.385.338.9,0,1.012-.433a1.693,1.693,0,0,0-.689-2.087c-.971-.449-1.218,1.8-.343,2.2l-.011.011-.278-.4-.024-.067.054-.878-.027.1,1.011-.434.183.463-.088.576.033-.111a1.494,1.494,0,0,0-.305-1.549c-.4-.333-.881-.005-1.012.433Z" transform="translate(-437.975 -369.164)" fill="#050505"/>
      </g>
      <g id="Grupo_14193" data-name="Grupo 14193" transform="translate(92.861 93.384)">
        <path id="Caminho_7601" data-name="Caminho 7601" d="M449.967,370.87v.524c0,.429.246,1.132.775,1.119.545-.014.718-.736.718-1.156v-.524c0-.429-.245-1.132-.774-1.119-.546.014-.719.736-.719,1.156Z" transform="translate(-449.967 -369.714)" fill="#050505"/>
      </g>
      <g id="Grupo_14194" data-name="Grupo 14194" transform="translate(87.275 89.223)">
        <path id="Caminho_7602" data-name="Caminho 7602" d="M444,366.866c.818,1.561,1.812,4.181.63,5.791-.57.776.277,2.7,1.1,1.583,1.746-2.378.781-6.176-.464-8.553-.689-1.317-1.757.232-1.261,1.18Z" transform="translate(-443.878 -365.178)" fill="#050505"/>
      </g>
      <g id="Grupo_14195" data-name="Grupo 14195" transform="translate(82.005 99.833)">
        <path id="Caminho_7603" data-name="Caminho 7603" d="M438.4,377.877a13.026,13.026,0,0,0,5.137,1.2c1.386.076,3.038.374,4.173-.572l-.564-.629c-.272,2.117-2.054,4.393-4.282,4.43-2.381.039-2.959-2.217-3.705-4.046-.281-.69-.828.1-.63.59.973,2.385,1.821,4.949,4.9,4.549,2.392-.311,4.153-2.968,4.445-5.239.038-.29-.175-.952-.564-.628-1.005.839-3.239.464-4.42.367a11.679,11.679,0,0,1-4.317-1.127c-.476-.234-.6.889-.172,1.1Z" transform="translate(-438.134 -376.743)" fill="#050505"/>
      </g>
      <g id="Grupo_14199" data-name="Grupo 14199" transform="translate(63.613 140.119)">
        <path id="Caminho_7604" data-name="Caminho 7604" d="M447.848,435.957c-2.205.037-4.414.138-6.561.3h0a.293.293,0,0,0-.166.065.158.158,0,0,0-.061.132l.049.628a.163.163,0,0,0,.088.126.3.3,0,0,0,.167.034l.02,0,6.493-.926c.125-.017.214-.1.206-.2a.212.212,0,0,0-.235-.161" transform="translate(-419.983 -421.921)" fill="#fff"/>
        <path id="Caminho_7605" data-name="Caminho 7605" d="M435.3,436.722a96.4,96.4,0,0,0-16.365,3.126c-.118.034-.187.128-.158.217a.233.233,0,0,0,.249.128l.02,0,16.373-2.335c.124-.017.214-.1.206-.2l-.061-.782a.161.161,0,0,0-.083-.123.286.286,0,0,0-.18-.036" transform="translate(-418.141 -421.984)" fill="#fff"/>
        <path id="Caminho_7606" data-name="Caminho 7606" d="M427.347,433.356h0a.547.547,0,0,0-.451.006l-.02.009c-.511.273-.984.554-1.408.836a5.04,5.04,0,0,1-1.383.625,2.853,2.853,0,0,1-1.784,0,3.157,3.157,0,0,1-1.333-.938,4.786,4.786,0,0,1-.861-1.562,6.1,6.1,0,0,1-.324-1.858,5.228,5.228,0,0,1,.283-1.8,3.169,3.169,0,0,1,.885-1.363,2.224,2.224,0,0,1,.746-.413,3.479,3.479,0,0,1,1.805-.132,1.851,1.851,0,0,1,.677.283l.041.024a.656.656,0,0,0,.506.054.411.411,0,0,0,.228-.224.574.574,0,0,0-.119-.631l-.012-.014a2.83,2.83,0,0,0-1.1-.63,4.691,4.691,0,0,0-2.858-.009,2.958,2.958,0,0,0-1.2.7,4.852,4.852,0,0,0-1.033,1.545,6.748,6.748,0,0,0-.493,1.852,7.115,7.115,0,0,0,.038,1.948,6.792,6.792,0,0,0,.568,1.858,5.339,5.339,0,0,0,1.1,1.55,4.477,4.477,0,0,0,1.662,1.019,4.136,4.136,0,0,0,1.556.179l.066-.005a6.657,6.657,0,0,0,1.558-.339,8.36,8.36,0,0,0,1.457-.672,11.236,11.236,0,0,0,1.257-.847.565.565,0,0,0,.266-.376.655.655,0,0,0-.034-.383.546.546,0,0,0-.283-.285" transform="translate(-418.085 -421.049)" fill="#fff"/>
        <g id="Grupo_14196" data-name="Grupo 14196" transform="translate(8.615 8.196)">
          <path id="Caminho_7607" data-name="Caminho 7607" d="M431.5,430.184l0,0a2.572,2.572,0,0,0-1.908-.567A2.4,2.4,0,0,0,428,430.682a3.056,3.056,0,0,0-.52,1.641,3.422,3.422,0,0,0,.333,1.641,2.433,2.433,0,0,0,1.156,1.134,2.07,2.07,0,0,0,1.073.179,3.68,3.68,0,0,0,.9-.2,2.863,2.863,0,0,0,1.187-.831,2.741,2.741,0,0,0,.623-1.274,2.618,2.618,0,0,0-.146-1.445,3.11,3.11,0,0,0-1.1-1.347m-.1,2.313a1.132,1.132,0,0,1-.2.669,1.687,1.687,0,0,1-.761.575c-.442.224-.641.1-.707.061a1.343,1.343,0,0,1-.532-.627,2.493,2.493,0,0,1-.21-.989,1.6,1.6,0,0,1,.145-.788.876.876,0,0,1,.7-.544l.052,0a1.116,1.116,0,0,1,.836.286,1.911,1.911,0,0,1,.484.623,1.793,1.793,0,0,1,.186.737" transform="translate(-427.476 -429.592)" fill="#fff"/>
        </g>
        <g id="Grupo_14197" data-name="Grupo 14197" transform="translate(13.788)">
          <path id="Caminho_7608" data-name="Caminho 7608" d="M438.561,432.613c-.236-1.249-.43-2.526-.579-3.793.047-.635.081-1.35.1-2.127s.017-1.561-.008-2.317a19.151,19.151,0,0,0-.175-2.07,5.115,5.115,0,0,0-.361-1.41l-.022-.046-.039-.033a.709.709,0,0,0-.607-.145.777.777,0,0,0-.539.362l-.015.028a3.507,3.507,0,0,0-.252,1.277,14.906,14.906,0,0,0,.048,1.724c.051.651.125,1.378.219,2.161.083.693.165,1.443.243,2.235a2.047,2.047,0,0,0-.545.051,5.291,5.291,0,0,0-.907.29,7.264,7.264,0,0,0-.8.4,2.741,2.741,0,0,0-.536.38,2.481,2.481,0,0,0-.593,1.109,3,3,0,0,0-.04,1.194,2.9,2.9,0,0,0,.422,1.094,2.452,2.452,0,0,0,.765.776,1.2,1.2,0,0,0,1.139.1,2.437,2.437,0,0,0,.863-.682,4.8,4.8,0,0,0,.635-1.009c.026-.055.05-.108.074-.162q.05.289.106.583c.093.488.2.976.306,1.451s.22.919.333,1.337.222.794.329,1.12l.007.018c.145.344.335.509.564.492a1.16,1.16,0,0,0,.544-.209.612.612,0,0,0,.327-.57l0-.036-.013-.033a20.074,20.074,0,0,1-1-3.536m-2.008-2.927a4.673,4.673,0,0,1-.167.77,7.936,7.936,0,0,1-.345.936,3.408,3.408,0,0,1-.4.7c-.156.2-.26.245-.3.252a.476.476,0,0,1-.37-.06.944.944,0,0,1-.272-.315,1.38,1.38,0,0,1-.148-.417c-.028-.16-.046-.288-.053-.379a.9.9,0,0,1,.245-.727,2.384,2.384,0,0,1,.729-.527,3.244,3.244,0,0,1,.782-.257c.116-.02.19-.029.236-.033a.445.445,0,0,0,.065.056" transform="translate(-433.115 -420.658)" fill="#fff"/>
        </g>
        <g id="Grupo_14198" data-name="Grupo 14198" transform="translate(19.345 6.846)">
          <path id="Caminho_7609" data-name="Caminho 7609" d="M446.685,430.984a.537.537,0,0,0-.395.193l-.016.016-.022.018a3.361,3.361,0,0,1-1.053.63,8.912,8.912,0,0,1-1.474.464,7.5,7.5,0,0,1-1.416.183,1.179,1.179,0,0,1-.8-.159c-.142-.108-.278-.282-.131-.675a3.766,3.766,0,0,0,1.464-.2,3.133,3.133,0,0,0,1.26-.757,1.554,1.554,0,0,0,.47-1.155,1.6,1.6,0,0,0-.852-1.218,1.227,1.227,0,0,0-1-.167,2.854,2.854,0,0,0-.986.48,5.073,5.073,0,0,0-.9.86,8.113,8.113,0,0,0-.621.854,1.463,1.463,0,0,0-.475-.113.572.572,0,0,0-.492.183.441.441,0,0,0,.056.549,1.328,1.328,0,0,0,.375.329,2.344,2.344,0,0,0-.191,1.037,1.294,1.294,0,0,0,.592,1.118,2.762,2.762,0,0,0,1.256.377,5.786,5.786,0,0,0,1.585-.111,12.314,12.314,0,0,0,1.636-.442,10.759,10.759,0,0,0,1.451-.618c.272-.141.694-.374.711-.389C447.761,431.4,447.1,430.988,446.685,430.984Zm-4.742-.481q.16-.239.34-.481a1.437,1.437,0,0,1,.677-.521l.019-.007c.194-.087.255-.034.275-.017.048.04.006.154-.027.227a1.47,1.47,0,0,1-.3.328,2.412,2.412,0,0,1-.447.292,1.991,1.991,0,0,1-.492.171l-.043.008" transform="translate(-439.172 -428.12)" fill="#fff"/>
        </g>
      </g>
      <g id="Grupo_14201" data-name="Grupo 14201" transform="translate(402.88 259.399)">
        <path id="Caminho_7610" data-name="Caminho 7610" d="M803.321,547.153l3.023,6.524-11.554,4.577-2.751-6.2Z" transform="translate(-790.997 -544.882)" fill="#fff"/>
        <g id="Grupo_14200" data-name="Grupo 14200" transform="translate(0 0)">
          <path id="Caminho_7611" data-name="Caminho 7611" d="M802.514,548.57l3.023,6.524.446-3.834-11.555,4.578.982.59-2.751-6.2-.445,3.833L803.5,549.16c1.247-.542.9-5.047-.537-4.424l-11.282,4.907c-1.106.481-.807,3.019-.445,3.833l2.751,6.2c.192.434.488.785.982.59l11.555-4.577c1.105-.439.806-3.054.445-3.834l-3.024-6.524C802.912,543.106,801.97,547.4,802.514,548.57Z" transform="translate(-790.903 -544.678)"/>
        </g>
      </g>
      <g id="Grupo_14203" data-name="Grupo 14203" transform="translate(395.671 266.294)">
        <path id="Caminho_7612" data-name="Caminho 7612" d="M806.941,554.649l4.14,9.27-25.636,11.414-1.009-2.731a5.266,5.266,0,0,1,2.02-6.209l6.512-4.336,1.168-3.182Z" transform="translate(-783.132 -552.397)" fill="#fff"/>
        <g id="Grupo_14202" data-name="Grupo 14202">
          <path id="Caminho_7613" data-name="Caminho 7613" d="M806.139,556.068l4.14,9.27.446-3.833L785.09,572.919l.981.59c-.793-2.146-1.531-2.949.675-5.18a22.305,22.305,0,0,1,3.521-2.345,14.755,14.755,0,0,0,2.882-1.919c.74-.851.706-2.031,1.31-2.947s-.239-.063.13-.326a4.548,4.548,0,0,1,1.279-.422c1.493-.371,2.972-.981,4.433-1.462l6.82-2.25c1.242-.41,1.011-4.934-.536-4.423l-9.969,3.289c-.731.241-2.229.413-2.837.936-.474.408-.47.889-.748,1.414-.147.277-1.129,2.555-.529,1.841-2.187,2.6-6.335,3.19-8.258,6.2-2.237,3.5-.9,7.325.4,10.839.159.428.515.8.982.59l25.636-11.413c1.1-.491.811-3.014.445-3.833l-4.14-9.27C806.571,550.6,805.614,554.892,806.139,556.068Z" transform="translate(-783.044 -552.194)"/>
        </g>
      </g>
      <g id="Grupo_14205" data-name="Grupo 14205" transform="translate(307.765 68.657)">
        <path id="Caminho_7614" data-name="Caminho 7614" d="M763.823,339.02s-21.344,14.438-29.155,27.582a20.222,20.222,0,0,0-2.615,6.383l-23.993-21.327s-4.846-14.563-7.862-13.721c-1.578.439-1.642,1.685-1.345,2.773a.35.35,0,0,1-.584.345c-1.753-1.758-4.568-4.243-5.132-2.718-.539,1.462.605,3.356,1.472,4.5a.2.2,0,0,1-.27.293l-2.233-1.438a1.833,1.833,0,0,0-2.437.35c-.518.675-.807,1.925.979,3.04,2.843,1.776,4.212,3.016,3.215,2.689-1.25-.411-3.921-2.222-5.138-1.144-1.305,1.156,1.388,3.555,2.544,3.681s7.121,5.066,7.121,5.066l5.2,5.153s19.643,29.04,24.908,29.028,16.674-8.124,16.674-8.124" transform="translate(-687.318 -336.852)" fill="#fff"/>
        <g id="Grupo_14204" data-name="Grupo 14204">
          <path id="Caminho_7615" data-name="Caminho 7615" d="M763.208,338.038a152.652,152.652,0,0,0-14.546,11.314c-7.066,6.172-15.426,13.781-17.7,23.268l1.725-.455L719,360l-8.064-7.168c-1.967-1.75-1.943-1.367-2.566-3.216-.876-2.605-5.077-15.942-9.7-12.192-.107.087-1.582,2.793-1.038,2.643,1.261-.349-2.29-3.142-3.353-3.248a1.877,1.877,0,0,0-2.122.91c-1.355,2.156,1.395,3.6,1.319,5.283l1.032-1.032c-1.889.239-3.442-3.5-5.739-.649-2.881,3.575,3.626,4.581,4.315,6.667l1-1.306c-1.791-.222-5.96-3.382-6.784.24-.616,2.708,3.111,3.945,4.8,4.917a41.987,41.987,0,0,1,11.1,9.98c3.739,4.916,7.119,10.1,10.918,14.985,3.2,4.117,7.737,11.517,12.963,13.375,5.554,1.974,14.308-4.978,18.52-7.954,1.077-.76.047-2.55-1.041-1.782-4.511,3.186-13.593,10.689-18.786,6.411-6.131-5.051-10.9-12.253-15.522-18.623-2.7-3.719-5.037-7.552-8.3-10.787a61.139,61.139,0,0,0-5.882-5.255c-1.01-.777-3.566-1.905-4.267-2.862-1.483-2.024,1.179-.717,2.278-.581a1.037,1.037,0,0,0,.994-1.306c-.56-1.7-2.549-1.827-3.023-3.654-.645-2.481,1.045.427,2.457.249a1.065,1.065,0,0,0,1.032-1.032c.05-1.137-1.8-3.122.663-2.493.976.249,1.235,1.386,2.4,1.537.48.062.841-.372,1-.758.383-.959.378-2.312,1.676-1.707.9.421,1.81,2.837,2.248,3.715,1.233,2.469,1.991,5.121,3.134,7.615.962,2.1,2.7,3.262,4.465,4.829l20.112,17.878a1.044,1.044,0,0,0,1.725-.456c2.265-9.458,10.968-17.042,18.071-23.138a148.794,148.794,0,0,1,13.224-10.211c1.093-.742.061-2.531-1.041-1.782Z" transform="translate(-687.223 -336.76)"/>
        </g>
      </g>
      <g id="Grupo_14207" data-name="Grupo 14207" transform="translate(355.624 63.198)">
        <path id="Caminho_7616" data-name="Caminho 7616" d="M740.414,365.865l11.046,11.627s-4.069,36.043,0,43.019,54.646-1.162,57.553,1.163-7.558-39.532-7.558-39.532h9.882s4.651-45.345-21.509-48.833c0,0-4.314,6.2-10.189,8.872a8.5,8.5,0,0,1-11.885-6.425c-.006-.04-.013-.081-.018-.122C767.738,335.635,756.111,333.31,740.414,365.865Z" transform="translate(-739.476 -331.017)" fill="#fff"/>
        <g id="Grupo_14206" data-name="Grupo 14206" transform="translate(0 0)">
          <path id="Caminho_7617" data-name="Caminho 7617" d="M739.82,367.639l11.045,11.627-.463-2.59a228.138,228.138,0,0,0-1.787,33.082c.13,3.772-.162,10.168,2.739,13.117,2.681,2.721,8.428,2.48,11.89,2.58,13.2.382,26.321-1.542,39.485-2.06,1.455-.057,6.051.9,7.076.041,1.927-1.608.109-8.044-.217-9.884-1.956-11.013-4.636-21.924-7.346-32.774l-.871,3.451h9.882c.676,0,.927-1.215.973-1.683,1.771-17.653-.332-48.328-22.482-51.736a.663.663,0,0,0-.51.313,28.192,28.192,0,0,1-7.533,7.309c-4.141,2.67-12.115,2.9-13.076-3.613-.087-.592-.26-1.553-.973-1.684-2.815-.515-6.187,1.635-8.29,3.171-9.149,6.68-14.9,17.818-19.747,27.732-.565,1.157.347,5.454,1.428,3.243,4.662-9.538,10.331-20.65,19.343-26.9,1.906-1.323,4.774-3.114,7.267-2.658l-.973-1.683c.6,4.062,3.094,7.66,7.233,8.7,5.262,1.317,10.051-2.68,13.449-6.217.646-.672,1.2-1.548,1.9-2.143,1.1-.929.436-.666,1.383-.839,1.751-.32,4.608,1.325,6.073,2.149a21.912,21.912,0,0,1,8.188,8.551c5.681,10.142,6.519,23.688,5.376,35.091l.973-1.684h-9.882c-1.25,0-1.041,2.772-.872,3.451,2.4,9.591,4.7,19.224,6.618,28.923.449,2.268.59,4.716,1.18,6.942.07.26-.036,1.142.135,1.337l0,.1q-.077,1.243.768-1.141c-.2-.307-.983-.284-1.274-.392-1.412-.52-3.745-.114-5.192-.057-3.04.119-6.077.357-9.111.582-6.892.513-13.783,1.082-20.69,1.361-5.735.232-12.154.761-17.774-.717-5.041-1.327-4.436-6.729-4.548-11.177a205.946,205.946,0,0,1,.9-22.185c.245-2.953,1.934-8.63.328-11.412-1.27-2.2-4.054-4.268-5.785-6.09l-5.216-5.491C739.537,362.308,738.912,366.683,739.82,367.639Z" transform="translate(-739.391 -330.81)"/>
        </g>
      </g>
      <g id="Grupo_14209" data-name="Grupo 14209" transform="translate(362.402 16.686)">
        <path id="Caminho_7618" data-name="Caminho 7618" d="M749.2,293.078s-5.086,33.724,8.72,34.3c13.953.582,11.627,2.907,11.627,2.907s-.842,7.623,7.136,8.463,12.63-9.625,12.63-9.625l-2.326-1.163-5.232-8.72-1.162-6.4s10.464-2.326,7.557-9.3-11.627-5.232-11.627-2.326v-18.6L749.785,286.1Z" transform="translate(-746.905 -280.316)" fill="#fff"/>
        <g id="Grupo_14208" data-name="Grupo 14208" transform="translate(0 0)">
          <path id="Caminho_7619" data-name="Caminho 7619" d="M748.106,292.262c-1.478,9.956-3.022,24.693,3.162,33.372a8.693,8.693,0,0,0,6.194,3.8c2.671.35,5.376.238,8.04.728.559.1,3.117,1.239,3.415,1.128.49-.182.053-5.569-.466-1.793a11.6,11.6,0,0,0,.029,2.762,9.706,9.706,0,0,0,3.515,6.937c7.221,5.329,15.015-2.323,17.911-8.662.39-.853.639-3.291-.445-3.833-3.153-1.576-4.194-4.448-6.024-7.5-.36-.6-.684-1.253-1.093-1.822-.212-.294.216,1.871.051-.131-.142-1.738-.638-3.509-.95-5.227l-.972,2.9c6.305-1.477,11.017-6.537,8.271-13.217-2.252-5.477-13.35-8.666-13.35-.438,0,2.715,2.018,2.746,2.018,0V282.407c0-.478-.153-2.405-1.009-2.293L749.661,283.6c-.679.088-.928,1.138-.973,1.683l-.582,6.977c-.168,2.013,1.687,4.333,1.947,1.219l.58-6.976-.972,1.683L776.4,284.7l-1.009-2.293v18.869c0,2.715,2.018,2.746,2.018,0,0,.493,2.555-.5,3.316-.517,2.817-.07,5.7,1.373,5.912,4.372.185,2.548-1.32,3.31-3.514,4.293a14.692,14.692,0,0,1-2.653.919c-1.034.242-1.117,2.112-.973,2.9,1.161,6.39,3.125,14.73,9.425,17.879l-.446-3.833c-1.468,3.214-4.046,6.563-7.275,8.112a8.662,8.662,0,0,1-8.329-.374c-1.944-1.327-1.476-2.875-2.464-4.439-.3-.47-.258,2.985.022.378a5.305,5.305,0,0,0-.16-3.006c-.945-1.9-3.336-2.147-5.237-2.46-4.422-.726-9.544.45-12.563-3.559-2.38-3.161-2.878-7.664-3.155-11.474a78.064,78.064,0,0,1,.735-16.989C750.354,291.445,748.563,289.182,748.106,292.262Z" transform="translate(-746.78 -280.109)"/>
        </g>
      </g>
      <g id="Grupo_14211" data-name="Grupo 14211" transform="translate(369.18 37.099)">
        <path id="Caminho_7620" data-name="Caminho 7620" d="M757.315,304.159l-2.326,10.7,5.232.509" transform="translate(-754.236 -302.509)" fill="#f5f5f5"/>
        <g id="Grupo_14210" data-name="Grupo 14210">
          <path id="Caminho_7621" data-name="Caminho 7621" d="M756.594,303.143l-2.326,10.7c-.127.582-.3,2.5.653,2.589l5.233.509c.994.1,1.118-3.331,0-3.44l-5.233-.509.654,2.588,2.324-10.7c.125-.571.3-1.941-.271-2.354-.549-.4-.895-.031-1.035.617Z" transform="translate(-754.168 -302.36)"/>
        </g>
      </g>
      <g id="Grupo_14213" data-name="Grupo 14213" transform="translate(408.456 91.93)">
        <path id="Caminho_7622" data-name="Caminho 7622" d="M798.081,364.361v18.6h16.278" transform="translate(-797.072 -362.313)" fill="#f5f5f5"/>
        <g id="Grupo_14212" data-name="Grupo 14212">
          <path id="Caminho_7623" data-name="Caminho 7623" d="M796.981,364.177v18.6c0,.569.131,2.293,1.009,2.293h16.277c1.415,0,1.429-4.587,0-4.587H797.99L799,382.779v-18.6c0-2.715-2.018-2.746-2.018,0Z" transform="translate(-796.981 -362.129)"/>
        </g>
      </g>
      <g id="Grupo_14215" data-name="Grupo 14215" transform="translate(365.624 88.957)">
        <path id="Caminho_7624" data-name="Caminho 7624" d="M753.529,361.192s-2.824,16.823-1.993,27.305" transform="translate(-750.382 -359.079)" fill="#f5f5f5"/>
        <g id="Grupo_14214" data-name="Grupo 14214">
          <path id="Caminho_7625" data-name="Caminho 7625" d="M752.465,360.393c-1.553,9.361-2.615,19.037-1.993,28.524.2,3.105,2.079.8,1.946-1.219-.568-8.652.577-17.552,1.994-26.086.338-2.038-1.438-4.286-1.947-1.219Z" transform="translate(-750.292 -358.888)"/>
        </g>
      </g>
      <g id="Grupo_14217" data-name="Grupo 14217" transform="translate(353.704 111.541)">
        <path id="Caminho_7626" data-name="Caminho 7626" d="M794.322,384.639v5.813l-31.974,15.115s-19.766,0-19.766,2.326,6.913,2.223,6.913,2.223-10.982,1.847-10.982,4.172,3.488,2.906,6.4,1.744-4.651-.582-4.651,2.326,9.551,0,9.551,0-13.039,3.488-6.063,4.07a13.831,13.831,0,0,0,11.046-4.07s51.158-14.534,52.321-16.278,2.325-15.7,2.325-15.7Z" transform="translate(-737.399 -383.599)" fill="#fff"/>
        <g id="Grupo_14216" data-name="Grupo 14216" transform="translate(0 0)">
          <path id="Caminho_7627" data-name="Caminho 7627" d="M793.19,384.545a48.4,48.4,0,0,1,0,5.209c-.144,1.3.892-.664.263-.17a4.115,4.115,0,0,1-1.037.491c-3.084,1.031-6.092,2.88-9.026,4.267-6.893,3.259-13.747,7.084-20.85,9.857-1.238.483-.063.144-.753.245a41.794,41.794,0,0,1-4.664.084,68.938,68.938,0,0,0-11.994.962c-1.641.343-4.262.872-3.507,3.116.854,2.537,5.7,2.459,7.772,2.448l-.274-2.027c-2.882.5-10.109,1.128-11.511,4.283-2.017,4.541,6.347,4.96,8.585,2.968a1.053,1.053,0,0,0,.161-1.25c-1.178-2.472-7.668.788-7.195,3.511.7,3.988,8.532,1.4,10.821.72a1.033,1.033,0,0,0-.55-1.99c-1.661.449-13.324,4.123-6.862,5.968,4.479,1.279,8.855-1.266,12.3-3.7,1.032-.728-.43.021.79-.476a30.716,30.716,0,0,1,3.1-.887c15.531-4.455,31.9-8.128,46.841-14.339,2.392-.994,2.711-1.915,3.221-4.57a124.615,124.615,0,0,0,1.544-12.975c.051-.6-.517-.972-1.032-1.032l-15.115-1.744c-1.318-.152-1.306,1.914,0,2.064l15.115,1.744-1.032-1.032c-.243,2.887-.532,5.775-.9,8.648-.316,2.447-.1,5.521-2.173,6.837-1.839,1.167-4.591,1.659-6.648,2.33-3.346,1.093-6.709,2.132-10.075,3.159-7.425,2.268-14.875,4.457-22.33,6.622-3.643,1.057-8.379,1.606-11.748,3.38A16.119,16.119,0,0,0,752.5,418.8c-3.025,2.249-6.342,2.537-9.973,2.325.42.025-.231.818.443.586.415-.142.772-.433,1.2-.562.829-.251,1.638-.621,2.465-.893q1.656-.545,3.342-1l-.55-1.99a32.7,32.7,0,0,1-4.354,1.022c-.566.087-4.242,1.02-2.971-1.072a6.849,6.849,0,0,1,1.738-.649q1.708.038.155-.694c-.551-2.282-6.213-1.4-1.94-2.994a31.294,31.294,0,0,1,3.407-.985c1.387-.345,2.791-.638,4.2-.88,1.164-.2.865-2.033-.274-2.027a19.491,19.491,0,0,1-4.039-.361c-2.651-.549-1.544-.767.322-1.149a64.269,64.269,0,0,1,10.63-.862c3.584-.122,5.828.047,8.985-1.446l29.45-13.921a1.02,1.02,0,0,0,.511-.892v-5.814A1.033,1.033,0,0,0,793.19,384.545Z" transform="translate(-737.299 -383.505)"/>
        </g>
      </g>
      <g id="Grupo_14219" data-name="Grupo 14219" transform="translate(385.258 150.398)">
        <path id="Caminho_7628" data-name="Caminho 7628" d="M812.27,428.364S805.294,470.8,798.9,483.011l10.465,54.647-22.672,4.069-9.883-54.646-4-35.472,5.745-20.338Z" transform="translate(-771.786 -426.068)"/>
        <g id="Grupo_14218" data-name="Grupo 14218" transform="translate(0 0)">
          <path id="Caminho_7629" data-name="Caminho 7629" d="M811.206,427.548c-1.084,6.576-2.326,13.13-3.661,19.659-2.135,10.451-4.143,21.4-8.23,31.305-.946,2.293-1.639,3.784-1.225,6.251.425,2.532.967,5.05,1.45,7.571l5.161,26.951,3.7,19.323.871-3.45L786.6,539.227l.972,1.684-8.77-48.495c-2.417-13.365-2.576-27.076-4.978-40.42-.472-2.623-.785,1.644.026-.367a65.9,65.9,0,0,0,1.879-6.651l3.6-12.755-.871,1.136,33.718-2.907c1.472-.127,1.351-4.7,0-4.587l-33.718,2.907c-.539.046-.751.709-.871,1.136l-3.118,11.039c-.928,3.287-2.614,7.006-2.765,10.456-.11,2.522.56,5.253.841,7.747l1.8,15.933c1.645,14.58,4.378,28.872,6.991,43.317l4.292,23.73c.066.365.3,1.8.973,1.683l22.672-4.069c1.279-.23,1.036-2.593.872-3.451l-10.465-54.647-.158,2.78c5-9.87,6.991-21.634,9.241-32.365,1.621-7.732,3.1-15.5,4.39-23.294C813.487,426.729,811.711,424.48,811.206,427.548Z" transform="translate(-771.694 -425.862)"/>
        </g>
      </g>
      <g id="Grupo_14220" data-name="Grupo 14220" transform="translate(378.069 36.906)">
        <path id="Caminho_7630" data-name="Caminho 7630" d="M764.1,303.611l.133-.671,1.114.652-.027-.1.015.6-.01.072-.258.415-.005,0c.869-.4.538-2.64-.451-2.183a1.585,1.585,0,0,0-.689,1.839c.126.483.575,1.126,1.114.653a1.913,1.913,0,0,0,.491-1.915c-.119-.4-.418-1-.939-.772a1.281,1.281,0,0,0-.487,1.412Z" transform="translate(-763.858 -302.15)" fill="#050505"/>
      </g>
      <g id="Grupo_14221" data-name="Grupo 14221" transform="translate(367.298 37.423)">
        <path id="Caminho_7631" data-name="Caminho 7631" d="M752.117,303.87v.524c0,.429.245,1.132.774,1.119.546-.014.719-.736.719-1.156v-.524c0-.429-.246-1.132-.775-1.119-.545.014-.718.736-.718,1.156Z" transform="translate(-752.117 -302.714)" fill="#050505"/>
      </g>
      <g id="Grupo_14222" data-name="Grupo 14222" transform="translate(376.064 51.974)">
        <path id="Caminho_7632" data-name="Caminho 7632" d="M761.672,321.406c-.062,4.38,7.816,4.523,7.694.151-.1-3.691-7.2-4.088-7.675-.454-.158,1.2,1.258,2.068,1.455.57.163-1.235,4.492-.913,4.747.025-.06-.22.031-.122-.1.011a2.14,2.14,0,0,1-.558.42,3.574,3.574,0,0,1-1.614.351c-.691.012-2.471-.185-2.458-1.111C763.186,319.966,761.692,320.012,761.672,321.406Z" transform="translate(-761.672 -318.574)" fill="#050505"/>
      </g>
      <g id="Grupo_14224" data-name="Grupo 14224" transform="translate(355.88 10.382)">
        <path id="Caminho_7633" data-name="Caminho 7633" d="M751.41,290.237c-3.414-.565-6.812-2.151-8.779-5s-2.1-7.081.286-9.586a2.437,2.437,0,0,1,1.29-.8c1.034-.176,1.9.717,2.622,1.481s1.788,1.528,2.729,1.066c.837-.411,1.114-1.627,2.012-1.877,1.076-.3,1.888,1.03,2,2.141s.036,2.413.894,3.127c.943.785,2.35.317,3.5-.118,7.061-2.682,14.8-2.766,22.356-2.816a2.523,2.523,0,0,1,1.294.223,2.083,2.083,0,0,1,.76.938c1.153,2.386.614,5.233-.249,7.737s-2.04,4.975-2.116,7.624a1.146,1.146,0,0,1-.151.67,1.086,1.086,0,0,1-.847.3l-3.148.167-.2-6.875a3,3,0,0,0-.729-2.292,2.7,2.7,0,0,0-1.238-.5c-7.425-1.5-14.832,2.617-22.406,2.788" transform="translate(-739.792 -273.369)"/>
        <g id="Grupo_14223" data-name="Grupo 14223">
          <path id="Caminho_7634" data-name="Caminho 7634" d="M751.546,288.453c-2.578-.526-14.955-5.793-8.705-10.73,3.346-2.643,3.532,2.161,6.639,1.251,1.537-.45,1.664-2.05,3,.184.9,1.516.476,3.115,2.684,3.57,2.318.476,5.308-1.361,7.506-1.874a58.687,58.687,0,0,1,11.076-1.311c1.638-.064,4.11-.55,5.69-.1,3.633,1.022,1.88,5.379,1.041,7.848-.389,1.144-.847,2.255-1.147,3.427a12.523,12.523,0,0,0-.529,3.105,7.82,7.82,0,0,0-3.1-.14l1.161,1.679c-.147-5.014,1.3-10.743-4.815-11.569-6.979-.943-14.011,2.632-20.921,3.016-1.519.083-1.424,3.5.084,3.412,4.89-.272,9.44-1.806,14.236-2.637,1.993-.345,4.714-.961,6.684-.379,3.481,1.027,2.405,5.261,2.492,8.212.018.619.355,1.722,1.162,1.679,1.41-.075,3.711.275,4.774-.988a4.384,4.384,0,0,0,.42-1.43c.566-1.843.85-3.833,1.47-5.712,1.12-3.394,2.577-7.5.752-10.96-2-3.8-9.317-1.954-12.789-1.7a53.652,53.652,0,0,0-8.133,1.173,36.278,36.278,0,0,1-4.011,1.159q-1.931.981-3.7-1.131a2.926,2.926,0,0,0-.217-1.011c-.63-.838-.452-2.037-1.677-2.581-1.583-.7-1.565.4-2.785.8-3.56,1.169-5.26-3.943-8.308.131-5.622,7.517,2.229,15.445,9.446,16.917,1.644.335,1.894-3.025.515-3.305Z" transform="translate(-739.671 -273.237)"/>
        </g>
      </g>
      <g id="Grupo_14225" data-name="Grupo 14225" transform="translate(373.738 17.142)">
        <path id="Caminho_7635" data-name="Caminho 7635" d="M759.923,282.88c1,0,.961-2.274-.056-2.274s-.961,2.274.056,2.274Z" transform="translate(-759.136 -280.606)" fill="#050505"/>
      </g>
      <g id="Grupo_14226" data-name="Grupo 14226" transform="translate(375.103 31.193)">
        <path id="Caminho_7636" data-name="Caminho 7636" d="M761.764,300.72a15.531,15.531,0,0,1,5.1-2.583c.9-.268.622-2.5-.451-2.183a16.62,16.62,0,0,0-5.454,2.821c-.737.57-.179,2.7.8,1.946Z" transform="translate(-760.624 -295.922)" fill="#050505"/>
      </g>
      <g id="Grupo_14227" data-name="Grupo 14227" transform="translate(366.794 31.389)">
        <path id="Caminho_7637" data-name="Caminho 7637" d="M751.965,298.249l1.772,1.146c1.04.673,1.492-1.474.706-1.982l-1.772-1.147c-1.041-.672-1.492,1.474-.706,1.983Z" transform="translate(-751.567 -296.136)" fill="#050505"/>
      </g>
      <g id="Grupo_14228" data-name="Grupo 14228" transform="translate(78.724 86.617)">
        <path id="Caminho_7638" data-name="Caminho 7638" d="M435.708,366.25a5.925,5.925,0,0,1,2.955-1.706c.9-.223.639-2.453-.451-2.183a6.787,6.787,0,0,0-3.305,1.944,1.5,1.5,0,0,0-.229,1.562c.161.385.651.786,1.031.383Z" transform="translate(-434.557 -362.337)" fill="#050505"/>
      </g>
      <g id="Grupo_14229" data-name="Grupo 14229" transform="translate(92.218 86.557)">
        <path id="Caminho_7639" data-name="Caminho 7639" d="M450.044,364.55a3.009,3.009,0,0,1,2.027,1.028c.883,1.062,1.635-.892,1.016-1.635a4.457,4.457,0,0,0-3.1-1.669c-.976-.089-.968,2.182.056,2.275Z" transform="translate(-449.266 -362.272)" fill="#050505"/>
      </g>
      <g id="Grupo_14231" data-name="Grupo 14231" transform="translate(454.094 92.686)">
        <path id="Caminho_7640" data-name="Caminho 7640" d="M845.063,365.668a196.33,196.33,0,0,0,.491,23.868c.674,6.6,2.017,13.133,2.392,19.76.2,3.527.124,7.064.048,10.6" transform="translate(-843.828 -364.094)" fill="#f5f5f5"/>
        <g id="Grupo_14230" data-name="Grupo 14230" transform="translate(0 0)">
          <path id="Caminho_7641" data-name="Caminho 7641" d="M843.844,365.554c-.172,8.67-.294,17.341.723,25.97,1.12,9.506,2.407,18.647,2.207,28.254-.043,2.106,2.2,2.032,2.24-.055a165.58,165.58,0,0,0-1.885-25.868c-1.267-9.433-1.233-18.859-1.045-28.356.041-2.107-2.2-2.033-2.24.055Z" transform="translate(-843.728 -363.953)"/>
        </g>
      </g>
      <g id="Grupo_14233" data-name="Grupo 14233" transform="translate(500.147 251.687)">
        <path id="Caminho_7642" data-name="Caminho 7642" d="M909.347,538.747l3.023,6.524-11.554,4.577-2.751-6.2Z" transform="translate(-897.022 -536.476)" fill="#fff"/>
        <g id="Grupo_14232" data-name="Grupo 14232" transform="translate(0 0)">
          <path id="Caminho_7643" data-name="Caminho 7643" d="M908.539,540.164l3.024,6.524.445-3.833-11.554,4.577.982.59-2.751-6.2-.446,3.833,11.282-4.906c1.248-.542.9-5.046-.537-4.423L897.7,541.237c-1.106.481-.807,3.02-.446,3.833l2.751,6.2c.193.433.488.785.982.59l11.555-4.578c1.105-.438.806-3.053.445-3.833l-3.023-6.524C908.938,534.7,908,538.991,908.539,540.164Z" transform="translate(-896.929 -536.272)"/>
        </g>
      </g>
      <g id="Grupo_14235" data-name="Grupo 14235" transform="translate(492.549 258.581)">
        <path id="Caminho_7644" data-name="Caminho 7644" d="M912.933,546.243l4.141,9.27-25.636,11.413-1.481-4a3.547,3.547,0,0,1,1.361-4.182l7.643-5.09,1.167-3.183Z" transform="translate(-888.736 -543.99)"/>
        <g id="Grupo_14234" data-name="Grupo 14234">
          <path id="Caminho_7645" data-name="Caminho 7645" d="M912.13,547.662l4.14,9.27.445-3.834L891.08,564.512l.982.59-.74-2c-.568-1.537-.709-1.2.175-2.351a10.458,10.458,0,0,1,2.418-1.611c2.011-1.339,4.68-2.484,5.865-4.6.364-.651.37-1.889.886-2.416-.367.375-.206.439.238.157,1.126-.714,2.9-.957,4.156-1.371l8.053-2.657c1.242-.41,1.011-4.934-.537-4.424l-9.969,3.289c-.9.3-2.379.475-3.077,1.167a5.414,5.414,0,0,0-.788,1.95c-.414,1.3-.267.978-.655,1.346-2.41,2.281-6.375,3.209-8.338,5.977-2.38,3.352-.346,7.455.887,10.789.158.428.514.8.982.59l25.636-11.414c1.1-.491.812-3.013.446-3.833l-4.141-9.27C912.562,542.19,911.6,546.485,912.13,547.662Z" transform="translate(-888.646 -543.787)"/>
        </g>
      </g>
      <g id="Grupo_14237" data-name="Grupo 14237" transform="translate(452.89 55.486)">
        <path id="Caminho_7646" data-name="Caminho 7646" d="M846.44,357.458l11.045,11.627s-4.069,36.043,0,43.02,54.647-1.163,57.554,1.162-7.557-39.531-7.557-39.531h9.883s4.65-45.346-21.51-48.834c0,0-4.315,6.2-10.188,8.872a8.5,8.5,0,0,1-11.886-6.424c-.006-.041-.012-.082-.018-.122C873.763,327.229,862.137,324.9,846.44,357.458Z" transform="translate(-845.501 -322.61)"/>
        <g id="Grupo_14236" data-name="Grupo 14236">
          <path id="Caminho_7647" data-name="Caminho 7647" d="M845.845,359.233l11.046,11.627-.464-2.591a228.117,228.117,0,0,0-1.786,33.083c.129,3.772-.163,10.168,2.739,13.116,2.68,2.722,8.428,2.481,11.89,2.581,13.2.381,26.32-1.542,39.484-2.06,1.456-.058,6.051.9,7.077.04,1.926-1.607.109-8.043-.218-9.883-1.956-11.014-4.637-21.924-7.346-32.774l-.872,3.451h9.883c.676,0,.926-1.215.973-1.684,1.77-17.653-.332-48.327-22.483-51.736a.661.661,0,0,0-.509.313,28.183,28.183,0,0,1-7.534,7.309c-4.14,2.671-12.115,2.9-13.076-3.613-.087-.592-.26-1.553-.973-1.683-2.816-.516-6.187,1.634-8.291,3.17-9.148,6.68-14.9,17.818-19.746,27.732-.565,1.157.347,5.454,1.426,3.244,4.662-9.539,10.331-20.65,19.343-26.9,1.906-1.322,4.774-3.113,7.267-2.657l-.972-1.684c.6,4.062,3.093,7.661,7.234,8.7,5.261,1.317,10.05-2.681,13.449-6.217.645-.672,1.2-1.548,1.9-2.143,1.094-.929.435-.667,1.383-.84,1.751-.32,4.609,1.325,6.073,2.15a21.893,21.893,0,0,1,8.188,8.551c5.68,10.141,6.52,23.687,5.376,35.09l.973-1.683H907.4c-1.251,0-1.041,2.772-.872,3.45,2.4,9.592,4.7,19.225,6.619,28.924.448,2.267.589,4.715,1.18,6.942.069.26-.037,1.142.134,1.338l0,.1q-.077,1.243.768-1.142c-.2-.307-.984-.283-1.273-.391-1.413-.52-3.745-.115-5.193-.057-3.04.119-6.077.356-9.11.582-6.892.512-13.784,1.081-20.69,1.36-5.736.232-12.154.761-17.775-.718-5.04-1.327-4.435-6.729-4.548-11.176a205.922,205.922,0,0,1,.9-22.186c.245-2.953,1.933-8.63.328-11.411-1.27-2.2-4.055-4.269-5.785-6.09l-5.216-5.492C845.562,353.9,844.937,358.276,845.845,359.233Z" transform="translate(-845.416 -322.403)"/>
        </g>
      </g>
      <g id="Grupo_14239" data-name="Grupo 14239" transform="translate(459.669 8.973)">
        <path id="Caminho_7648" data-name="Caminho 7648" d="M855.229,284.672s-5.086,33.724,8.721,34.3c13.952.582,11.627,2.906,11.627,2.906s-.843,7.624,7.136,8.463,12.63-9.625,12.63-9.625l-2.326-1.162-5.232-8.721-1.163-6.4s10.465-2.325,7.557-9.3-11.627-5.232-11.627-2.325v-18.6l-26.742,3.488Z" transform="translate(-852.93 -271.909)" fill="#fff"/>
        <g id="Grupo_14238" data-name="Grupo 14238">
          <path id="Caminho_7649" data-name="Caminho 7649" d="M854.132,283.855c-1.479,9.956-3.022,24.693,3.161,33.372a8.691,8.691,0,0,0,6.194,3.8c2.67.35,5.377.238,8.04.728a35.885,35.885,0,0,0,3.415,1.128c.489-.182.052-5.569-.467-1.793a11.646,11.646,0,0,0,.029,2.763,9.7,9.7,0,0,0,3.516,6.936c7.22,5.329,15.014-2.322,17.91-8.661.391-.854.639-3.292-.445-3.834-3.152-1.576-4.194-4.447-6.023-7.5-.361-.6-.684-1.253-1.094-1.822-.212-.294.216,1.871.051-.13-.143-1.738-.638-3.509-.95-5.227l-.973,2.9c6.306-1.476,11.018-6.537,8.271-13.216-2.252-5.478-13.35-8.666-13.35-.438,0,2.715,2.018,2.745,2.018,0V274c0-.478-.153-2.405-1.009-2.293l-26.742,3.488c-.678.089-.927,1.138-.973,1.684l-.581,6.976c-.168,2.013,1.686,4.333,1.946,1.219l.582-6.976-.973,1.683,26.742-3.488L881.418,274v18.87c0,2.715,2.018,2.745,2.018,0,0,.492,2.555-.5,3.316-.517,2.817-.071,5.694,1.372,5.912,4.371.185,2.549-1.321,3.311-3.514,4.294a14.74,14.74,0,0,1-2.654.918c-1.034.242-1.116,2.112-.973,2.9,1.162,6.39,3.125,14.73,9.425,17.88l-.445-3.834c-1.469,3.214-4.047,6.564-7.276,8.112a8.662,8.662,0,0,1-8.329-.373c-1.943-1.328-1.476-2.876-2.463-4.44-.3-.469-.258,2.986.021.378a5.3,5.3,0,0,0-.16-3.005c-.945-1.9-3.336-2.148-5.237-2.46-4.422-.727-9.544.449-12.563-3.56-2.381-3.161-2.878-7.663-3.154-11.473a78.148,78.148,0,0,1,.734-16.99C856.38,283.039,854.589,280.775,854.132,283.855Z" transform="translate(-852.806 -271.702)"/>
        </g>
      </g>
      <g id="Grupo_14241" data-name="Grupo 14241" transform="translate(462.89 81.245)">
        <path id="Caminho_7650" data-name="Caminho 7650" d="M859.554,352.786s-2.823,16.823-1.993,27.305" transform="translate(-856.407 -350.672)" fill="#f5f5f5"/>
        <g id="Grupo_14240" data-name="Grupo 14240" transform="translate(0 0)">
          <path id="Caminho_7651" data-name="Caminho 7651" d="M858.491,351.986c-1.554,9.361-2.616,19.038-1.993,28.524.2,3.105,2.079.8,1.947-1.219-.569-8.652.576-17.552,1.993-26.086.339-2.038-1.438-4.286-1.946-1.219Z" transform="translate(-856.317 -350.482)"/>
        </g>
      </g>
      <g id="Grupo_14243" data-name="Grupo 14243" transform="translate(450.971 103.829)">
        <path id="Caminho_7652" data-name="Caminho 7652" d="M900.349,376.233v5.814l-31.975,15.115s-19.766,0-19.766,2.326,6.913,2.223,6.913,2.223-10.982,1.846-10.982,4.171,3.488,2.907,6.394,1.744-4.65-.581-4.65,2.326,9.551,0,9.551,0-13.04,3.488-6.063,4.07a13.826,13.826,0,0,0,11.045-4.07s51.159-14.533,52.322-16.277,2.325-15.7,2.325-15.7Z" transform="translate(-843.424 -375.193)" fill="#fff"/>
        <g id="Grupo_14242" data-name="Grupo 14242">
          <path id="Caminho_7653" data-name="Caminho 7653" d="M899.216,376.139a48.35,48.35,0,0,1,0,5.209c-.144,1.3.892-.664.263-.17a4.067,4.067,0,0,1-1.037.49c-3.083,1.031-6.092,2.881-9.026,4.267-6.892,3.259-13.747,7.085-20.85,9.856-1.238.483-.062.145-.753.246a41.808,41.808,0,0,1-4.664.084,69.019,69.019,0,0,0-11.994.961c-1.641.343-4.261.872-3.506,3.116.854,2.536,5.7,2.459,7.772,2.449l-.274-2.027c-2.883.5-10.11,1.127-11.511,4.283-2.017,4.541,6.347,4.959,8.586,2.968a1.055,1.055,0,0,0,.16-1.25c-1.177-2.473-7.668.788-7.194,3.51.694,3.989,8.532,1.4,10.821.721a1.033,1.033,0,0,0-.549-1.991c-1.661.449-13.325,4.123-6.862,5.969,4.478,1.279,8.854-1.267,12.3-3.7,1.032-.729-.43.021.791-.476a30.654,30.654,0,0,1,3.1-.888c15.531-4.455,31.9-8.128,46.84-14.339,2.392-.995,2.712-1.914,3.221-4.57a124.637,124.637,0,0,0,1.545-12.975c.05-.6-.517-.973-1.032-1.032l-15.115-1.744c-1.317-.152-1.306,1.913,0,2.064l15.115,1.744-1.032-1.032c-.244,2.887-.533,5.774-.9,8.648-.317,2.446-.1,5.52-2.173,6.837-1.84,1.166-4.591,1.658-6.648,2.329-3.346,1.093-6.709,2.132-10.075,3.16-7.425,2.267-14.875,4.457-22.33,6.621-3.643,1.058-8.378,1.606-11.748,3.38a16.283,16.283,0,0,0-1.921,1.534c-3.025,2.249-6.342,2.536-9.974,2.325.421.024-.231.817.444.586.414-.143.771-.434,1.2-.563.829-.251,1.639-.62,2.465-.892,1.1-.363,2.22-.694,3.342-1l-.549-1.991a32.718,32.718,0,0,1-4.355,1.023c-.565.086-4.241,1.019-2.971-1.071a6.847,6.847,0,0,1,1.738-.65q1.708.04.154-.694c-.55-2.282-6.213-1.4-1.94-2.994a31.323,31.323,0,0,1,3.407-.984c1.388-.345,2.792-.638,4.2-.881,1.163-.2.864-2.033-.274-2.026a19.5,19.5,0,0,1-4.038-.362c-2.651-.549-1.545-.767.321-1.149a64.183,64.183,0,0,1,10.63-.862c3.584-.122,5.829.046,8.985-1.446l29.45-13.922a1.016,1.016,0,0,0,.512-.891v-5.814A1.033,1.033,0,0,0,899.216,376.139Z" transform="translate(-843.324 -375.099)"/>
        </g>
      </g>
      <g id="Grupo_14245" data-name="Grupo 14245" transform="translate(482.525 142.686)">
        <path id="Caminho_7654" data-name="Caminho 7654" d="M918.3,419.958S911.32,462.4,904.925,474.6l10.464,54.647-22.672,4.07-9.883-54.647-4-35.471,5.745-20.339Z" transform="translate(-877.811 -417.662)" fill="#fff"/>
        <g id="Grupo_14244" data-name="Grupo 14244" transform="translate(0 0)">
          <path id="Caminho_7655" data-name="Caminho 7655" d="M917.231,419.141c-1.084,6.577-2.326,13.13-3.66,19.66-2.136,10.451-4.144,21.4-8.23,31.3-.947,2.293-1.64,3.785-1.226,6.251.426,2.532.967,5.05,1.451,7.572l5.16,26.951,3.7,19.323.872-3.451-22.673,4.069.973,1.683-8.77-48.494c-2.417-13.366-2.576-27.076-4.979-40.421-.472-2.622-.784,1.645.026-.367a65.518,65.518,0,0,0,1.879-6.65l3.6-12.756-.872,1.136,33.719-2.906c1.471-.128,1.35-4.7,0-4.587l-33.719,2.906c-.538.047-.75.709-.871,1.136L880.5,432.54c-.928,3.286-2.613,7.006-2.764,10.456-.111,2.521.56,5.253.841,7.747l1.8,15.932c1.644,14.58,4.378,28.873,6.99,43.318l4.292,23.73c.066.364.3,1.8.973,1.683l22.673-4.069c1.279-.229,1.036-2.592.871-3.451L905.7,473.241l-.158,2.779c5-9.87,6.991-21.634,9.242-32.365,1.62-7.731,3.1-15.5,4.389-23.294C919.514,418.323,917.736,416.073,917.231,419.141Z" transform="translate(-877.72 -417.456)"/>
        </g>
      </g>
      <g id="Grupo_14247" data-name="Grupo 14247" transform="translate(505.302 85.084)">
        <path id="Caminho_7656" data-name="Caminho 7656" d="M905.4,355.822l-2.217,15.844a2.6,2.6,0,0,0,2.218,2.94l13.542,1.9" transform="translate(-902.597 -354.762)"/>
        <g id="Grupo_14246" data-name="Grupo 14246">
          <path id="Caminho_7657" data-name="Caminho 7657" d="M904.859,355.422l-1.274,9.105c-.35,2.5-1.438,5.822-.882,8.381.637,2.923,3.508,2.871,5.915,3.208l10.269,1.438c.639.089.754-2.188,0-2.293l-7.984-1.118c-2.042-.285-6.768-.069-7.245-2.59-.448-2.377.84-6,1.175-8.39l1-7.131c.142-1.017-.758-2.153-.973-.61Z" transform="translate(-902.547 -354.666)" fill="#fff"/>
        </g>
      </g>
      <g id="Grupo_14248" data-name="Grupo 14248" transform="translate(476.23 30.484)">
        <path id="Caminho_7658" data-name="Caminho 7658" d="M871.1,296.61l.133-.671,1.114.652-.026-.1.015.6-.01.072-.258.415-.005,0c.869-.4.538-2.64-.451-2.183a1.585,1.585,0,0,0-.689,1.839c.126.483.575,1.126,1.114.653a1.913,1.913,0,0,0,.491-1.915c-.119-.4-.418-1-.938-.772a1.281,1.281,0,0,0-.487,1.412Z" transform="translate(-870.858 -295.15)" fill="#050505"/>
      </g>
      <g id="Grupo_14249" data-name="Grupo 14249" transform="translate(465.459 31.001)">
        <path id="Caminho_7659" data-name="Caminho 7659" d="M859.117,296.87v.524c0,.429.245,1.132.774,1.119.546-.014.719-.736.719-1.156v-.524c0-.429-.246-1.132-.775-1.119-.545.014-.718.736-.718,1.156Z" transform="translate(-859.117 -295.714)" fill="#050505"/>
      </g>
      <g id="Grupo_14250" data-name="Grupo 14250" transform="translate(469.742 27.683)">
        <path id="Caminho_7660" data-name="Caminho 7660" d="M865.277,292.478c-1.3,2.477-2.332,6.3-.507,8.78.815,1.11,1.584-.861,1.016-1.634-1.1-1.5-.175-4.108.586-5.563.434-.829-.465-2.786-1.1-1.583Z" transform="translate(-863.785 -292.097)" fill="#050505"/>
      </g>
      <g id="Grupo_14251" data-name="Grupo 14251" transform="translate(472.453 38.041)">
        <path id="Caminho_7661" data-name="Caminho 7661" d="M879.768,303.973c-2.478-.992-5.821-.422-8.452-.429-2.127-.007-3.6-.221-4.491,1.923-.405.98.749,2.493,1.318,1.116.582-1.408,4.348-.761,5.446-.758,1.816.005,4.125-.334,5.836.351,1.007.4,1.237-1.846.343-2.2Z" transform="translate(-866.741 -303.388)" fill="#050505"/>
      </g>
      <g id="Grupo_14253" data-name="Grupo 14253" transform="translate(455.376)">
        <path id="Caminho_7662" data-name="Caminho 7662" d="M856.087,268.708a13.369,13.369,0,0,0-2.379,2.241c-2.684,3.232-3.7,7.546-3.985,11.738a13.5,13.5,0,0,1,9.585-2.919.724.724,0,0,1,.376.106.635.635,0,0,1,.209.4,14.869,14.869,0,0,1-.008,1.971c.045.658.48,1.4,1.138,1.375a1.7,1.7,0,0,0,.757-.284,71.063,71.063,0,0,1,9.912-4.726c1.762-.674,3.83-1.249,5.452-.286,1,.593,1.771,1.74,2.933,1.772.224.006.5-.009.617.18a.579.579,0,0,1,.061.3,44.863,44.863,0,0,0,.914,8.088c.105.512.46,1.167.951.99a.94.94,0,0,0,.465-.616c2.082-5.5,4.188-11.1,4.542-16.967a4.81,4.81,0,0,0-.172-1.954,4.15,4.15,0,0,0-1.558-1.833,17.559,17.559,0,0,0-7.129-2.594,67.252,67.252,0,0,0-11.077-1.267,25.335,25.335,0,0,0-10.13,1.476,5.732,5.732,0,0,0-3.533,3.088" transform="translate(-848.257 -262.126)" fill="#fff"/>
        <g id="Grupo_14252" data-name="Grupo 14252">
          <path id="Caminho_7663" data-name="Caminho 7663" d="M855.153,266.557c-4.744,3.951-6.491,9.355-7.017,15.355-.109,1.251.622,3.693,2.258,2.516,1.878-1.352,4.932-3.06,7.373-2.638q.844-1.541.493.285l.068.6c.628,1.468.883,2.935,2.817,2.964,1.17.018,2.73-1.325,3.712-1.834q2.441-1.266,4.972-2.338c2.78-1.178,4.411-1.926,7.424-.656a24.437,24.437,0,0,0,2.965,1.457l-1.081-1.563c.61,3-.639,9.549,3.007,10.942.625.238,1.087-.156,1.439-.621,3.169-4.186,4.649-11.843,5.228-17,.493-4.384-.4-7.31-4.69-9.263-5.265-2.4-12.381-2.925-18.094-2.835-4.657.073-10.785.729-13.228,5.267-.889,1.652.9,5.562,2.192,3.166,3.475-6.457,17.642-3.8,23.3-2.676a24.115,24.115,0,0,1,4.449,1.173c3.556,1.454,3.315,3.941,2.652,7.18-.73,3.57-1.775,8.88-4,11.824l1.439-.621c-.961-.366-.589-6.564-.844-7.815-.115-.562-.46-1.382-1.082-1.563-3.5-1.019-4.461-3.216-8.428-2.111-1.429.4-10.927,5.46-11.193,5.258-.212-.162-.164-2.045-.47-2.523a2.267,2.267,0,0,0-1.493-1.166c-3.258-1.242-8.057,1.433-10.531,3.213l2.257,2.515c.44-5.018,1.717-9.277,5.711-12.6,1.432-1.193.291-5.47-1.6-3.892Z" transform="translate(-848.125 -261.921)"/>
        </g>
      </g>
    </g>
  </g>
</svg>
