<svg xmlns="http://www.w3.org/2000/svg" width="75.901" height="76.445" viewBox="0 0 75.901 76.445">
  <g id="Grupo_106" data-name="Grupo 106" transform="translate(-1433.404 -2190.061)">
    <path id="Caminho_332" data-name="Caminho 332" d="M32.618,14.256c27.938-26.011,43.928,3.357,43.928,24.422a38.14,38.14,0,0,1-38.14,38.14c-21.064,0-35.164-14.7-35-29.012S4.68,40.267,32.618,14.256Z" transform="translate(1430 2189.689)" fill="#04bfcb"/>
    <g id="Grupo_103" data-name="Grupo 103" transform="translate(1436.383 2190.061)">
      <path id="Caminho_331" data-name="Caminho 331" d="M1573.912,2185.422l-5.143,3.472-1.959,4.8,4.579,8.279h-7.263l-5.559,1.89-1.89,3.784,1.89,4.532,15.345,3.645-5.143,2.687-4.643,4.246-1.925,4.85,1.925,4.549,4.643,1.907h2.62v4.33l2.523,5.848h5.556l6.569-8.713,1.693,7.365,2.351,4.436,4.481,1.447,4.07-4.535,1.609-16.634,4.325,9.3,6.462,5.988,6.04-2.285v-6.545l-3.628-11.305h7.256l5.061-4.246v-6.332l-5.061-3.058h-7.256l7.256-5.258,3.809-6.337-3.809-5.654h-7.256l-5.127,1.822,2.715-8.275-6.462-3.815h-4.325l-5.679,7.287-4.481-7.287h-5.476l-2.969,3.815-2.168,6.453Z" transform="translate(-1555.717 -2179.26)" fill="#fff"/>
      <circle id="Elipse_3" data-name="Elipse 3" cx="7.374" cy="7.374" r="7.374" transform="translate(28.909 26.674)" fill="#04bfcb"/>
      <path id="Caminho_301" data-name="Caminho 301" d="M183.043,318.174a3.594,3.594,0,0,0-1.472-2.2,7.763,7.763,0,0,0-2.631-1.13,12.814,12.814,0,0,0-5.6-.4c-.414.078-.842.085-1.266.124-.028-.3.279-.24.3-.427l.5-.33.3-.234a22.857,22.857,0,0,0,2.737-1.924c.5-.419,1.093-.732,1.554-1.183.633-.618,1.225-1.281,1.807-1.954a7.265,7.265,0,0,0,1.849-4.5,7.7,7.7,0,0,0-2.048-5.607,5.249,5.249,0,0,0-2.378-1.557,12.558,12.558,0,0,0-6.527.076h0a3.258,3.258,0,0,0-1.342.338h0a.906.906,0,0,0-.6.122c-.694.335-1.39.666-2.165,1.036.085-.313.132-.531.2-.741a11.5,11.5,0,0,0,.594-4.006,9.7,9.7,0,0,0-1.836-5.031,5.417,5.417,0,0,0-1.406-1.614,7.117,7.117,0,0,0-4.218-1.061,9.472,9.472,0,0,0-2.841.393,8.61,8.61,0,0,0-4.029,3.14,19.427,19.427,0,0,0-1.736,3.281,30.346,30.346,0,0,0-1.1-3.247,6.668,6.668,0,0,0-2.756-3.089,15.126,15.126,0,0,0-3.6-1.238c-.082-.14-.221-.132-.35-.122q-1.541.122-3.081.251a1.356,1.356,0,0,0-.505-.024c-.223.08-.874-.122-.423.53.156.225-.193.228-.22.385a8.5,8.5,0,0,0-1.169.757,13.188,13.188,0,0,0-1.791,1.743,6.114,6.114,0,0,0-1.134,2.948c-.154.1-.085.27-.115.409a16.169,16.169,0,0,1-.24,1.756.607.607,0,0,1-.408-.282,8.316,8.316,0,0,0-2.48-2.167,4.323,4.323,0,0,0-3.728-.739c-.284.079-.572.2-.874.252a4.778,4.778,0,0,0-2.753,1.579c-.368.4-.627,1.042-1.073,1.212-.771.294-.961,1.031-1.315,1.535a7.653,7.653,0,0,0-1.009,5.5c.056.483.47.644.617,1.047a4.36,4.36,0,0,0,.976,2.1c.029.024.065.05.076.083a2.613,2.613,0,0,0,.994,1.482.442.442,0,0,1,.206.259c.032.236.022.5.33.573h0l.042-.008.143.146c.042.21.021.391-.246.4-.3.012-.627-.475-.913.048-.018.032-.092-.087-.1-.157-.014-.1-.027-.214-.14-.215-.549,0-1-.379-1.58-.341-.69.045-1.388-.039-2.082-.037a6.749,6.749,0,0,0-2.216.362,8.306,8.306,0,0,0-1.822.815,1.187,1.187,0,0,0-.656.4c-.821.756-1.649,1.506-2.4,2.331-.187.2-.42.307-.49.654a7.866,7.866,0,0,1-.6,1.6c-.072.16-.222.256-.218.485a5.064,5.064,0,0,0,.5,2.115c.325.685.167,1.547.792,2.116.033.03.028.109.028.165a1.92,1.92,0,0,0,.737,1.425,11.152,11.152,0,0,0,1.618,1.039,16.433,16.433,0,0,0,7.6,2.526,6.284,6.284,0,0,1,2.054.323,10.928,10.928,0,0,1-1.184.842,14.356,14.356,0,0,0-3.718,3.16,19.38,19.38,0,0,0-2.1,3.258,17.038,17.038,0,0,0-.789,3.2h0a4.448,4.448,0,0,0,.367,3c.123.284.652.337.486.891a5.442,5.442,0,0,0,.452.927,8.928,8.928,0,0,0,1.292,1.9,2.623,2.623,0,0,0,1.954,1.153,3.766,3.766,0,0,0,2.95.215,7.733,7.733,0,0,0,1.315-.308c.143-.076.225.08.288.2a1.148,1.148,0,0,0-.21.69h0a7.369,7.369,0,0,0,.353,4.876c.141.17.031.427.2.587a.618.618,0,0,0,.046.212c.547.84,1.087,1.683,1.579,2.559a4.546,4.546,0,0,0,2.135,1.895,5.541,5.541,0,0,0,2.717.268,17.184,17.184,0,0,0,2.061-.724c.274.05.59.047.7-.214.208-.478.662-.564,1.039-.772a1.008,1.008,0,0,0,.536-.614h0c.323-.56.862-.981,1.16-1.523.586-1.068,1.417-1.973,1.948-3.072a10.055,10.055,0,0,1,.711-1.088,22.816,22.816,0,0,1,.265,2.738c.052.4.332.7.358,1.12.03.5.027,1.007.094,1.5a8.973,8.973,0,0,0,1.314,3.159,9.143,9.143,0,0,0,2.761,2.863,4.048,4.048,0,0,0,1.134.525,6.564,6.564,0,0,0,2.1.231,9.685,9.685,0,0,0,2.25-.436,4.285,4.285,0,0,0,1.686-1.143,9.249,9.249,0,0,0,3.1-5.178,37.918,37.918,0,0,0,.533-3.864,33.826,33.826,0,0,0,.208-5.823c-.016-.175-.117-.458.093-.51.264-.066.255.263.343.427.431.8.805,1.642,1.278,2.42a35.639,35.639,0,0,0,2.26,3.446,8.8,8.8,0,0,0,3.33,3.044c.446.189.886.395,1.328.593.089.169.28.168.417.255.356.228.805.143,1.16.366a1.022,1.022,0,0,0,1.492-.275,1.454,1.454,0,0,0,1.7-.249,3.651,3.651,0,0,1,.469-.3,11.139,11.139,0,0,0,3.695-3.058,3.213,3.213,0,0,0,.627-1.356c.2-.79.151-1.611.352-2.391a5.852,5.852,0,0,0,.174-2.019A16.728,16.728,0,0,0,173.7,335.5a14.034,14.034,0,0,0-2.711-4.056,1.329,1.329,0,0,0-.081-.145c-.095-.13-.3-.231-.19-.425s.273,0,.413-.015c.337-.029.667.06,1.011.024a17.186,17.186,0,0,0,4.884-1.309,10.507,10.507,0,0,0,3.858-2.614,13.4,13.4,0,0,0,1.631-2.694,7.18,7.18,0,0,0,.838-1.783A9.357,9.357,0,0,0,183.043,318.174ZM170.635,300.1a.944.944,0,0,0,.2-.141l.776-.128a.282.282,0,0,0,.19.052.762.762,0,0,0,.159-.019c.014,0,.028-.006.042-.009a1.058,1.058,0,0,0,.663.071,10.175,10.175,0,0,1,1.761.022,3.34,3.34,0,0,1,3.159,2.125,4.8,4.8,0,0,1-.784,4.816,18.9,18.9,0,0,1-1.394,1.48.44.44,0,0,0,.018.123c-.272.36-.746.478-1.02.836h0a3.721,3.721,0,0,0-1.729,1.372s0,.006.006.01a1.516,1.516,0,0,0-.785.529.138.138,0,0,0-.111.122c-.265-.1-.449.075-.646.2a44.724,44.724,0,0,1-5.713,3.23c-1.615.742-3.3,1.324-4.889,2.116-.162.081-.378.1-.46.285a2.465,2.465,0,0,0-1,.379c-.78.477-1.645.774-2.45,1.2-.433.228-.461.173-.553-.3-.109-.563-.024-1.142-.158-1.693a2.092,2.092,0,0,1,.564-2.278,1.876,1.876,0,0,0,.324-.466,42.772,42.772,0,0,1,4.08-5.386,6.458,6.458,0,0,0,1.331-1.814,1.5,1.5,0,0,0,.848-1,.2.2,0,0,0-.014-.035.182.182,0,0,0,.091-.182.124.124,0,0,0,.018.009c.462-.137.6-.6.874-.913a5.455,5.455,0,0,0,.993-1.338c-.006-.022-.012-.045-.017-.066l.181-.213c.021.006.04.012.065.022a31.507,31.507,0,0,1,2.983-2.159.254.254,0,0,0,.155-.244l.024,0,1.2-.465.055.05A2.018,2.018,0,0,0,170.635,300.1Zm-21.446,23.635a7.311,7.311,0,0,1-5.423.023,5.347,5.347,0,0,1-2.3-2.111c-1.214-1.747-1.047-3.637-.476-5.537a2.27,2.27,0,0,1,1.419-1.484c.026.318-.46.5-.208.722s.576-.029.833-.178a14.6,14.6,0,0,0,1.387-.87,6.821,6.821,0,0,1,3.605-1.216,3.64,3.64,0,0,1,2.639.963c1.948,1.544,2.371,5.119,1.753,6.707A5.171,5.171,0,0,1,149.189,323.738Zm-11.761-32.5a4.126,4.126,0,0,1,2.386-2.795,6.024,6.024,0,0,1,3.456-.415,4.614,4.614,0,0,1,3.851,2.8,14.544,14.544,0,0,1,1.156,5.7c.032,1.552.2,3.1.138,4.653a.61.61,0,0,0,.1.485c0,.03-.006.06-.008.091a5.083,5.083,0,0,0-.094.732c.052,2.369-.336,4.724-.227,7.1.026.554-.164.635-.724.674a8.388,8.388,0,0,0-3.175.42c-.775.364-1.3.108-1.628-.7a9.1,9.1,0,0,0-1.038-1.824,9.138,9.138,0,0,1-.95-1.678c-.647-1.516-1.286-3.036-2.058-4.494a14.475,14.475,0,0,1-1.427-4.415,5.478,5.478,0,0,0-.182-1.287.74.74,0,0,0-.072-.027.7.7,0,0,0,.152-.684A12.538,12.538,0,0,1,137.428,291.239ZM124.2,295.878a8.7,8.7,0,0,1,1.754-1.919,2.963,2.963,0,0,1,3.589-.226A8.547,8.547,0,0,1,132.8,297.5c.613,1.365,1.07,2.794,1.7,4.152.449.962.771,1.976,1.165,2.959a6.235,6.235,0,0,0,.944,1.922.6.6,0,0,1,.095.032,2.043,2.043,0,0,0,.274.549c0,.049.006.1.011.145.116.352.146.76.541.929-.006.017-.008.033-.014.05a9.6,9.6,0,0,0,.849,1.534,14.723,14.723,0,0,1,1.518,2.66c.3.836.3.922-.463,1.612a1.481,1.481,0,0,0-.576-.82,27.7,27.7,0,0,0-5.414-2.876l-.012,0a.347.347,0,0,0-.17-.179,7.923,7.923,0,0,0-1.494-.776c-.045,0-.089,0-.132,0-.2-.145-.356-.383-.64-.373a.463.463,0,0,0-.167-.149l-.07-.01a.983.983,0,0,0-.469-.357c0-.028-.009-.056-.015-.083a2.465,2.465,0,0,0-1.049-.929l-.021,0a1.6,1.6,0,0,0-.559-.611.14.14,0,0,0,.029-.094,7.533,7.533,0,0,0-1.051-1.331,17.55,17.55,0,0,1-3.626-5.045A4.263,4.263,0,0,1,124.2,295.878ZM112.48,313.65a.109.109,0,0,1,.03-.006.644.644,0,0,0-.116.1A.164.164,0,0,1,112.48,313.65Zm6.5,4.376a19.5,19.5,0,0,1-3.618-1.764,2.423,2.423,0,0,1-1.3-1.362.5.5,0,0,0-.285-.337c-.02.012-.038.02-.057.03a2.4,2.4,0,0,0-.2-.956,2.135,2.135,0,0,1,.234-1.912,5.626,5.626,0,0,1,3.776-2.518,9.185,9.185,0,0,1,3.281.02,18.165,18.165,0,0,1,4.939,1.683c.923.485,1.841.982,2.773,1.45.193.1.382.256.621.188l.01.033a1.431,1.431,0,0,0,.685.489c.867.382,1.728.776,2.616,1.113a18.445,18.445,0,0,1,3.453,1.724,4.5,4.5,0,0,0,1.919,1.06c.29.031.316.34.066.55a1.555,1.555,0,0,1-.743.263c-1.73.341-3.451.719-5.157,1.164a1.624,1.624,0,0,1-.256.094c-1.77-.02-3.536.185-5.307.137a1.155,1.155,0,0,1-.151-.066,27.988,27.988,0,0,0-2.992-.185A15.918,15.918,0,0,1,118.978,318.026Zm4.3,19.917a3.232,3.232,0,0,1-2.1-.247,6.649,6.649,0,0,1-1.25-.961c-.03-.005-.057-.009-.081-.011a.246.246,0,0,0-.174-.122.15.15,0,0,0,.007-.035,4.918,4.918,0,0,0-.572-1.059.431.431,0,0,1-.047-.012.61.61,0,0,0-.134-.349.449.449,0,0,0,.006-.079.74.74,0,0,0-.161-.357.475.475,0,0,1-.092-.119c-.022-.134-.02-.274-.045-.408a1.377,1.377,0,0,0,.025-.356c0-.39.067-.781.074-1.167.009-.485.263-.923.227-1.407h.024c.242-.076.253-.31.331-.495a10.29,10.29,0,0,1,1.426-2.567,14.809,14.809,0,0,1,3.1-2.631,4.534,4.534,0,0,0,1.263-1.008l.012.008a1.057,1.057,0,0,0,.484-.148,40.626,40.626,0,0,1,5.5-2c1.077-.293,2.2-.382,3.279-.689a20.878,20.878,0,0,1,2.55-.568c.63-.1.688-.054.933.521a3.39,3.39,0,0,0,.787,1.366c.341.293.264.5-.058.77-.974.815-1.9,1.693-2.79,2.589-.922.925-1.818,1.876-2.762,2.78a20.254,20.254,0,0,0-2.684,3.007,49.112,49.112,0,0,1-3.088,4.072c0,.006-.007.01-.011.016a.5.5,0,0,0-.35.164A7.708,7.708,0,0,1,123.28,337.943Zm20.052-10.323c-.707,2.3-1.1,4.685-1.763,7a23.832,23.832,0,0,1-1.054,3.6,42.923,42.923,0,0,1-2.717,5.119,20.687,20.687,0,0,1-2.247,3.532,6.26,6.26,0,0,1-3.186,1.947,2.814,2.814,0,0,1-2.79-.814c-.146-.14-.263-.315-.484-.345-.01-.2-.13-.283-.327-.3a1.758,1.758,0,0,0-.126-.307,6.864,6.864,0,0,1-1.151-3.424.1.1,0,0,1-.006-.011.476.476,0,0,0,.121-.109,5.445,5.445,0,0,0,.015-1.666.3.3,0,0,0-.083-.168.347.347,0,0,0,.1-.285l-.008-.014a.214.214,0,0,0,.1-.016,1.564,1.564,0,0,0,.251-1.092c.248-.085.281-.331.372-.525a5.069,5.069,0,0,1,1.423-1.96c.974-.758,1.834-1.643,2.748-2.469a40.947,40.947,0,0,0,5.152-5.754c.915-1.209,1.93-2.339,2.872-3.528.148-.187.313-.384.561-.173a6.757,6.757,0,0,0,1.9,1C143.4,327.023,143.444,327.255,143.332,327.62Zm9.628,15.727a23.986,23.986,0,0,1-.658,5.325,6.716,6.716,0,0,1-2.329,3.844,1.447,1.447,0,0,1-.866.377,5.138,5.138,0,0,1-2.021.008,4.2,4.2,0,0,1-2.056-1.864,9.843,9.843,0,0,1-1.354-4.848,14.169,14.169,0,0,1-.139-1.795,30.62,30.62,0,0,1,1.328-9.048c.485-1.705.878-3.432,1.217-5.173a22.091,22.091,0,0,1,.757-2.608.871.871,0,0,1,.878-.638,8.1,8.1,0,0,0,3.409-.865c.222-.128.422-.11.391.224-.107,1.158.417,2.219.5,3.353.088,1.242.335,2.474.4,3.716.088,1.72.415,3.41.53,5.127C153.05,340.108,152.954,341.726,152.96,343.347Zm.464-31.041a5.454,5.454,0,0,0-1.474-1.052.62.62,0,0,1-.415-.711,9.556,9.556,0,0,0,.011-1.817,37.136,37.136,0,0,1,.311-7.583,2.642,2.642,0,0,0,0-.9s0-.008-.005-.013c.144-.057.139-.223.163-.352.166-.9.378-1.78.6-2.66a18.919,18.919,0,0,1,1.722-4.911,5.467,5.467,0,0,1,5.383-3.08,3.74,3.74,0,0,1,3.693,3.039,5.391,5.391,0,0,1,.265,2.45,1.531,1.531,0,0,0,.075.951.353.353,0,0,0,.05.052l0,.168c0,.005,0,.009,0,.014a.245.245,0,0,0-.028-.011.3.3,0,0,0-.207.249,16.335,16.335,0,0,1-1.679,3.844.5.5,0,0,0-.069.434l.075.034a.132.132,0,0,1-.034.015,10.867,10.867,0,0,0-.792,1.312c-.009,0-.019.006-.027.007a1.343,1.343,0,0,0-.735,1.147l-.08.022a.563.563,0,0,0-.207.191c-1.056,1.843-2.355,3.528-3.452,5.344-.764,1.264-1.572,2.5-2.372,3.744C153.911,312.682,153.816,312.678,153.424,312.307Zm17.664,31.324a3.8,3.8,0,0,1-2.614,2.458,4.605,4.605,0,0,1-3.74-.231,4.9,4.9,0,0,1-2.135-2.136c-1.225-2.034-2.563-4-3.62-6.137-.909-1.837-1.669-3.737-2.411-5.642a27.666,27.666,0,0,1-1.52-4.31c-.041-.195-.281-.327-.174-.594a11.892,11.892,0,0,0,2.676,1.574c.751.288,1.516.537,2.275.8l1.042.211h0a2.463,2.463,0,0,1,.6.082,5.47,5.47,0,0,0,2.362.472.778.778,0,0,0,.679.461l.006-.007c.292.426.782.577,1.176.859.662.474,1.278,1.012,1.914,1.523.4.318.64.826,1.16,1.009a.112.112,0,0,1,.066.064c.2.965,1.062,1.514,1.487,2.345a6.944,6.944,0,0,1,.616,1.633A11.774,11.774,0,0,1,171.088,343.631Zm9.177-22.272a6.932,6.932,0,0,1-3.472,4.95,10.752,10.752,0,0,1-2.766,1.027,13.649,13.649,0,0,1-4.149.512,12.879,12.879,0,0,1-1.531-.039,1.124,1.124,0,0,0-.807.047c-.006-.012-.014-.022-.021-.034-.405-.287-.922-.146-1.352-.365-.928-.472-1.935-.776-2.875-1.205-2.308-1.054-4.763-1.764-7-2.99-.031-.017-.063-.03-.1-.043V323.2l.015,0c.428-.273.835-.574,1.242-.875l.013-.009a.681.681,0,0,0,.516-.063c1.789-.774,3.583-1.528,5.417-2.2,1.265-.463,2.549-.831,3.833-1.216a36.919,36.919,0,0,1,4.462-.86,13.275,13.275,0,0,1,6.876.615A2.239,2.239,0,0,1,180.265,321.359Z" transform="translate(-110.579 -285.079)" fill="#121312"/>
    </g>
  </g>
</svg>
