<svg id="Camada_1" data-name="Camada 1" xmlns="http://www.w3.org/2000/svg" width="179.546" height="228.231" viewBox="0 0 179.55 228.23"><defs><style>.cls-1{fill:#fff;}</style></defs><title>Prancheta 1</title><path d="M154.64,151.67c-3.37-4.93-8.3-8.42-13.17-11.88l-18.51-13a30.73,30.73,0,0,1-9-8.28c-2.17-3.48-2.74-8.3-.28-11.56,1.83-2.43,4.86-3.52,7.32-5.29a18.52,18.52,0,0,0,7-16.21A27,27,0,0,0,120.3,69.1c-2.19-2.32-4.82-4.47-5.79-7.5-1.33-4.11.67-8.42,1.68-12.59s.44-9.72-3.6-11.2c-4.82-1.77-8.91,3.67-11.79,7.88-5,7.09-13.6,13.08-21.88,10.49-7.39-2.38-12.86-10.94-20.57-9.73A47.7,47.7,0,0,0,60,74.64l2.83-4.29C56.33,81,51.36,94.22,55.94,105.87c1.1,2.76,2.68,5.32,3.61,8.13a37.52,37.52,0,0,1,1.07,13q-.61,18.36-1.28,36.73c-.18,5.72.1,11.78-.52,17.41s-2.44,3.16-6.82,6.73c-2,1.68-1.86,4.63-1.58,7.19a1.89,1.89,0,0,0,.37,1.07,1.68,1.68,0,0,0,1.13.39,16.52,16.52,0,0,0,2,0,2,2,0,0,0-.74,1.16,3,3,0,0,0,1.9,3.23,5.3,5.3,0,0,0,4-.21,3.08,3.08,0,0,0,1.18-.9h.56l6.06.54c.69,3.27,2.69,5.41,6.11,2.86a4.83,4.83,0,0,0,8.67,0c2.45,1,5.87,1.8,7.54-.42a2.6,2.6,0,0,0,.28-.45,170.19,170.19,0,0,0,21.89.72,39.06,39.06,0,0,1-6.23,3.05c-8.2,3.06-17.2,2.79-25.94,2.51l-23.57-.81c-6.73-.24-13.88-.67-18.93-5.05s-5.56-14.11.59-16.7c3.56-1.5,7.82,0,11.46-1.38,5.05-1.85,6.73-9,3.82-13.58s-9.09-6.23-14.34-4.94c-7.19,1.69-12.51,8.27-14.7,15.34s-1.68,14.69-.74,22a8.75,8.75,0,0,0,1.52,4.5c1.06,1.29,6.85,6.73,8.41,7.2,40,12.69,80.16,6.33,119.15-9.1a27.85,27.85,0,0,0,9.76-5.64c3.72-3.74,5.2-9.18,5.52-14.43A41.48,41.48,0,0,0,157,156.67,24.28,24.28,0,0,0,154.64,151.67Z"/><path d="M54.6,134c2.45-1.32.27-5-2.19-3.74a52.71,52.71,0,0,1-25.25,6.28c-2.48,0-11.68.33-12.37-2.75-1-4.31,5.05-8.41,8.41-9.24a2.17,2.17,0,0,0,0-4.16c-4.1-.85-16.83-1.46-16.64-7.13.25-6.38,8.19-10.47,13.65-11,1.68-.18,3.18-2.4,1.53-3.7-1.31-1-2.68-1.82-4.07-2.73a13.61,13.61,0,0,1-2.92-2.08c-.13-3.23.93-4.72,3.15-4.41,3.5-.95,9.51,2,12.52,3.36a91.39,91.39,0,0,1,9.87,5.84c3.47,2.29,8,4.92,8.53,9.46.34,2.73,4.67,2.77,4.33,0-.71-5.82-4.8-9.22-9.41-12.35-6.14-4.16-12.74-8.42-20.08-10-4.35-1-11.52-1.82-13.82,3.23C7.7,93.51,11.37,96.51,15,98.9c-6,2-11.6,6.48-12.61,13-1.26,8.1,6.53,10.24,13.46,11.47a14.81,14.81,0,0,0-4.46,6.19c-1.87,5-.74,8.79,4.62,10A56.31,56.31,0,0,0,54.6,134Z"/><path d="M179.41,104.2c-1-6.5-6.54-10.94-12.59-13,3.54-2.37,7.09-5.23,5.25-9.89-2.1-5.31-9.52-4.45-13.92-3.47-7.12,1.56-13.46,5.57-19.44,9.56-4.85,3.21-9.31,6.73-10.1,12.78-.34,2.76,4,2.72,4.33,0,.55-4.57,5.05-7.18,8.53-9.46a86,86,0,0,1,9.87-5.86c3-1.48,9-4.38,12.52-3.37,2.22-.3,3.37,1.16,3.15,4.41A12.94,12.94,0,0,1,164.1,88,44.14,44.14,0,0,0,160,90.74c-1.68,1.29-.08,3.51,1.53,3.68C167,95,175,99.1,175.21,105.48c.21,5.64-12.58,6.26-16.65,7.12a2.19,2.19,0,0,0,0,4.18c3.36.85,9.31,4.91,8.41,9.24-.69,3.06-9.89,2.71-12.37,2.72a52.36,52.36,0,0,1-25.25-6.27c-2.46-1.33-4.64,2.37-2.19,3.72a56.24,56.24,0,0,0,38.58,5.58c5.36-1.21,6.57-4.88,4.62-10a14.76,14.76,0,0,0-4.45-6.13C172.9,114.4,180.66,112.32,179.41,104.2Z"/><path d="M58.35,32.76c-1.23,13,21.48,8,28.35,6.84,5.42-.93,11.58-2.26,15.15-6.74a11.54,11.54,0,0,0,1.81-11.78c-2.33-4.91-7.89-5.3-12.7-5-3.19.2-6.54.47-9.83.94C72,17.61,59.29,22.85,58.35,32.76ZM99.84,23c2.55,4.65-2.86,9.16-6.59,10.56a56.16,56.16,0,0,1-13,2.64,82.82,82.82,0,0,1-9.69,1,2.09,2.09,0,0,0-1.1-.21,4.91,4.91,0,0,1-5-6.14,7.34,7.34,0,0,1,.69-2A24.64,24.64,0,0,1,71,24.14l.77-.37a43.64,43.64,0,0,1,10.76-2.45h1.68a2,2,0,0,0,1.38-.42C89.66,20.39,97.47,18.72,99.84,23Z"/><path d="M79.29,25.69a.9.9,0,0,0-.82-.15c-2.61.66-10.1,1.45-7.65,6.21.79,1.69,2.29,1.69,3.88,1.5,3.21-.24,6.49-1,9.69-1.56,2.24-.38,9.83-1,7.36-5.41-1-1.68-3-1.68-4.67-1.56A58.38,58.38,0,0,0,79.29,25.69Zm8.57,2.14c1.18,1,1,1.4-.39,1.31a10.86,10.86,0,0,1-3.62.59c-2,.34-5.23,1.52-7.25,1.18-1.35.46-2.06-.39-2.11-2.52l.9-.22a4.77,4.77,0,0,1,1.93-.47,1.06,1.06,0,0,0,.83.21,34.36,34.36,0,0,1,7.62-1,1.32,1.32,0,0,1,1.84.28A1.37,1.37,0,0,1,87.86,27.83Z"/><path d="M57.07,9a21.75,21.75,0,0,1,6,5.44c1,1.36,3.37,0,2.33-1.37a25.45,25.45,0,0,0-7-6.36C57,5.71,55.59,8,57.07,9Z"/><path d="M84.29,7.14c-.12-1.53-.25-3-.37-4.58s-2.84-1.68-2.71,0,.25,3.05.39,4.58S84.44,8.88,84.29,7.14Z"/><path d="M104.19,11.32A7.76,7.76,0,0,1,107,6.91c1.36-1,0-3.37-1.37-2.33a10.53,10.53,0,0,0-4,6C101.17,12.29,103.8,13,104.19,11.32Z"/><path class="cls-1" d="M92.24,77.84a7,7,0,0,0,4.83,6.52,1.69,1.69,0,0,0,1.36,0,2,2,0,0,0,.79-1.3,8.87,8.87,0,0,0,0-5.44,4.53,4.53,0,0,0-4.17-3,3.09,3.09,0,0,0-2.89,3.27,2.82,2.82,0,0,0,.09.57"/><path class="cls-1" d="M110,71.33a14.71,14.71,0,0,0,.8,5.77,5,5,0,0,0,4.42,3.37,1.85,1.85,0,0,0,1.28-.44,2.41,2.41,0,0,0,.52-1.28,9.94,9.94,0,0,0-.11-5.54,4,4,0,0,0-4.4-2.64"/><path class="cls-1" d="M111.09,83.24l.3-.42a1.35,1.35,0,1,0-2.34-1.36h0a3.19,3.19,0,0,1-3.37,1.5c-1.68-.37-2.42,2.24-.72,2.61a6,6,0,0,0,3.89-.49V89.3a1.36,1.36,0,0,0,2.71,0v-5A1.25,1.25,0,0,0,111.09,83.24Z"/></svg>
