<?xml version="1.0" encoding="utf-8"?>
<!-- Generator: Adobe Illustrator 23.0.4, SVG Export Plug-In . SVG Version: 6.00 Build 0)  -->
<svg version="1.1" id="Camada_1" xmlns="http://www.w3.org/2000/svg" xmlns:xlink="http://www.w3.org/1999/xlink" x="0px" y="0px"
	 viewBox="0 0 375 667" style="enable-background:new 0 0 375 667;" xml:space="preserve">
<style type="text/css">
	.st0{fill:#FFFFFF;}
	.st1{fill:#F5F5F5;}
	.st2{fill:#E0E0E0;}
</style>
<rect class="st0" width="375" height="667"/>
<rect y="204" class="st1" width="375" height="106"/>
<rect y="68" class="st2" width="375" height="136"/>
<rect width="375" height="68"/>
<path d="M153.7,170.3v-8.6c0-9.4,15.4-17.2,34.3-17.2s34.3,7.7,34.3,17.2v8.6H153.7z M170.8,118.9c0-9.5,7.7-17.2,17.1-17.2
	c9.5,0,17.2,7.7,17.2,17.1c0,9.5-7.7,17.1-17.1,17.2C178.5,136,170.8,128.3,170.8,118.9L170.8,118.9z"/>
<path d="M251,237h88c2.2,0,4,1.8,4,4v32c0,2.2-1.8,4-4,4h-88c-2.2,0-4-1.8-4-4v-32C247,238.8,248.8,237,251,237z"/>
<path class="st0" d="M284.3,261v-7.2h5.3v1.2h-3.9v1.6h3.6v1.2h-3.6v1.9h4v1.2H284.3z"/>
<path class="st0" d="M291,253.8h2.6c0.6,0,1,0,1.4,0.1c0.4,0.1,0.8,0.3,1.1,0.7c0.3,0.3,0.5,0.7,0.7,1.2c0.2,0.5,0.2,1,0.2,1.7
	c0,0.6-0.1,1.1-0.2,1.5c-0.2,0.5-0.4,0.9-0.8,1.3c-0.3,0.2-0.6,0.4-1,0.6c-0.3,0.1-0.7,0.2-1.3,0.2H291V253.8z M292.4,255.1v4.7h1.1
	c0.4,0,0.7,0,0.9-0.1c0.2-0.1,0.4-0.2,0.6-0.3c0.2-0.1,0.3-0.4,0.4-0.7c0.1-0.3,0.1-0.8,0.1-1.3s0-1-0.1-1.3s-0.2-0.5-0.4-0.7
	s-0.4-0.3-0.7-0.3c-0.2,0-0.6-0.1-1.2-0.1H292.4z"/>
<path class="st0" d="M298.2,261v-7.2h1.4v7.2H298.2z"/>
<path class="st0" d="M302.6,261v-5.9h-2.1v-1.2h5.7v1.2h-2.1v5.9H302.6z"/>
<path d="M38.6,239.7h2.9v9.1c0,1.2-0.1,2.1-0.3,2.7c-0.3,0.8-0.8,1.5-1.5,2s-1.7,0.8-2.9,0.8c-1.4,0-2.5-0.4-3.3-1.2s-1.1-2-1.2-3.5
	l2.7-0.3c0,0.8,0.2,1.4,0.4,1.7c0.3,0.5,0.8,0.8,1.4,0.8c0.6,0,1.1-0.2,1.4-0.6s0.4-1.1,0.4-2.3V239.7z"/>
<path d="M43.9,248.7c0-0.9,0.2-1.8,0.7-2.6s1.1-1.5,1.9-2s1.7-0.7,2.8-0.7c1.6,0,2.9,0.5,3.9,1.5s1.5,2.3,1.5,3.9
	c0,1.6-0.5,2.9-1.5,3.9s-2.3,1.5-3.8,1.5c-1,0-1.9-0.2-2.7-0.6s-1.5-1.1-2-1.9S43.9,249.9,43.9,248.7z M46.7,248.8
	c0,1,0.2,1.8,0.7,2.4s1.1,0.8,1.8,0.8s1.3-0.3,1.8-0.8s0.7-1.3,0.7-2.4c0-1-0.2-1.8-0.7-2.3s-1.1-0.8-1.8-0.8s-1.3,0.3-1.8,0.8
	S46.7,247.8,46.7,248.8z"/>
<path d="M59.5,239.7v5.3c0.9-1,1.9-1.6,3.2-1.6c0.6,0,1.2,0.1,1.7,0.4s0.9,0.5,1.1,0.9s0.4,0.8,0.5,1.2s0.1,1.1,0.1,2.1v6.1h-2.7
	v-5.5c0-1.1-0.1-1.8-0.2-2.1s-0.3-0.5-0.6-0.7s-0.6-0.3-1-0.3c-0.5,0-0.9,0.1-1.2,0.3s-0.6,0.6-0.8,1s-0.2,1.1-0.2,2v5.2h-2.7v-14.3
	H59.5z"/>
<path d="M78.4,254h-2.7v-5.3c0-1.1-0.1-1.8-0.2-2.2s-0.3-0.6-0.6-0.8s-0.6-0.3-1-0.3c-0.5,0-0.9,0.1-1.3,0.4s-0.6,0.6-0.8,1
	s-0.2,1.2-0.2,2.4v4.7H69v-10.4h2.5v1.5c0.9-1.2,2-1.8,3.4-1.8c0.6,0,1.2,0.1,1.7,0.3s0.9,0.5,1.1,0.8s0.4,0.7,0.5,1.2
	s0.2,1,0.2,1.8V254z"/>
<path d="M86.8,239.7h5.3c1.2,0,2.1,0.1,2.7,0.3c0.8,0.2,1.6,0.7,2.2,1.3s1.1,1.4,1.4,2.3s0.5,2,0.5,3.4c0,1.2-0.1,2.2-0.4,3
	c-0.4,1-0.9,1.9-1.5,2.5c-0.5,0.5-1.2,0.9-2,1.1c-0.6,0.2-1.5,0.3-2.6,0.3h-5.4V239.7z M89.7,242.1v9.5h2.2c0.8,0,1.4,0,1.7-0.1
	c0.5-0.1,0.9-0.3,1.2-0.6s0.6-0.7,0.8-1.4s0.3-1.5,0.3-2.6s-0.1-2-0.3-2.5s-0.5-1.1-0.8-1.4s-0.8-0.6-1.3-0.7
	c-0.4-0.1-1.2-0.1-2.4-0.1H89.7z"/>
<path d="M100.6,248.7c0-0.9,0.2-1.8,0.7-2.6s1.1-1.5,1.9-2s1.7-0.7,2.8-0.7c1.6,0,2.9,0.5,3.9,1.5s1.5,2.3,1.5,3.9
	c0,1.6-0.5,2.9-1.5,3.9s-2.3,1.5-3.8,1.5c-1,0-1.9-0.2-2.7-0.6s-1.5-1.1-2-1.9S100.6,249.9,100.6,248.7z M103.4,248.8
	c0,1,0.2,1.8,0.7,2.4s1.1,0.8,1.8,0.8s1.3-0.3,1.8-0.8s0.7-1.3,0.7-2.4c0-1-0.2-1.8-0.7-2.3s-1.1-0.8-1.8-0.8s-1.3,0.3-1.8,0.8
	S103.4,247.8,103.4,248.8z"/>
<path d="M119.4,250.7l2.7,0.5c-0.4,1-0.9,1.8-1.7,2.3s-1.7,0.8-2.8,0.8c-1.8,0-3.1-0.6-4-1.8c-0.7-0.9-1-2.1-1-3.6
	c0-1.7,0.4-3.1,1.3-4s2-1.5,3.4-1.5c1.5,0,2.8,0.5,3.7,1.5s1.3,2.6,1.3,4.7h-6.9c0,0.8,0.2,1.4,0.7,1.9s1,0.7,1.6,0.7
	c0.4,0,0.8-0.1,1.1-0.4S119.3,251.2,119.4,250.7z M119.6,247.9c0-0.8-0.2-1.4-0.6-1.8s-0.9-0.6-1.4-0.6c-0.6,0-1.1,0.2-1.5,0.7
	s-0.6,1-0.6,1.8H119.6z"/>
<path d="M32.6,271.8l1.3-0.1c0.1,0.5,0.2,0.9,0.4,1.2c0.2,0.3,0.6,0.6,1,0.8c0.5,0.2,1,0.3,1.5,0.3c0.5,0,1-0.1,1.3-0.2
	s0.7-0.4,0.9-0.6c0.2-0.3,0.3-0.5,0.3-0.9c0-0.3-0.1-0.6-0.3-0.8c-0.2-0.2-0.5-0.4-0.9-0.6c-0.3-0.1-0.9-0.3-1.8-0.5
	c-0.9-0.2-1.6-0.4-1.9-0.6c-0.5-0.3-0.8-0.6-1.1-0.9c-0.2-0.4-0.4-0.8-0.4-1.2c0-0.5,0.1-1,0.4-1.4c0.3-0.4,0.7-0.8,1.3-1
	s1.2-0.3,1.8-0.3c0.7,0,1.4,0.1,2,0.4c0.6,0.2,1,0.6,1.3,1.1s0.5,1,0.5,1.6l-1.3,0.1c-0.1-0.6-0.3-1.1-0.7-1.4s-1-0.5-1.7-0.5
	c-0.8,0-1.4,0.1-1.8,0.4c-0.4,0.3-0.6,0.6-0.6,1.1c0,0.4,0.1,0.7,0.4,0.9c0.3,0.2,0.9,0.5,2,0.7c1.1,0.2,1.8,0.5,2.2,0.6
	c0.6,0.3,1,0.6,1.3,1c0.3,0.4,0.4,0.9,0.4,1.4c0,0.5-0.2,1-0.5,1.5c-0.3,0.5-0.7,0.8-1.3,1.1c-0.6,0.3-1.2,0.4-1.9,0.4
	c-0.9,0-1.7-0.1-2.3-0.4s-1.1-0.7-1.4-1.2C32.8,273.1,32.6,272.5,32.6,271.8z"/>
<path d="M47,274.1c-0.5,0.4-0.9,0.7-1.3,0.8s-0.9,0.2-1.4,0.2c-0.8,0-1.4-0.2-1.8-0.6c-0.4-0.4-0.6-0.9-0.6-1.5c0-0.4,0.1-0.7,0.2-1
	c0.2-0.3,0.4-0.5,0.6-0.7s0.6-0.3,0.9-0.4c0.2-0.1,0.6-0.1,1.1-0.2c1-0.1,1.7-0.3,2.2-0.4c0-0.2,0-0.3,0-0.3c0-0.5-0.1-0.9-0.3-1.1
	c-0.3-0.3-0.8-0.4-1.4-0.4c-0.6,0-1,0.1-1.3,0.3c-0.3,0.2-0.5,0.6-0.6,1.1l-1.2-0.2c0.1-0.5,0.3-0.9,0.5-1.2
	c0.3-0.3,0.6-0.6,1.1-0.7c0.5-0.2,1-0.3,1.6-0.3c0.6,0,1.1,0.1,1.5,0.2s0.7,0.3,0.9,0.6c0.2,0.2,0.3,0.5,0.4,0.8
	c0,0.2,0.1,0.6,0.1,1.1v1.6c0,1.1,0,1.9,0.1,2.2c0.1,0.3,0.2,0.6,0.3,0.9h-1.3C47.1,274.7,47,274.4,47,274.1z M46.9,271.4
	c-0.4,0.2-1.1,0.3-2,0.5c-0.5,0.1-0.9,0.2-1.1,0.2s-0.4,0.2-0.5,0.4c-0.1,0.2-0.2,0.4-0.2,0.6c0,0.3,0.1,0.6,0.4,0.8
	s0.6,0.3,1.1,0.3c0.5,0,0.9-0.1,1.3-0.3c0.4-0.2,0.6-0.5,0.8-0.9c0.1-0.3,0.2-0.7,0.2-1.2V271.4z"/>
<path d="M50,275v-7.3h1.1v1c0.5-0.8,1.3-1.2,2.3-1.2c0.4,0,0.8,0.1,1.2,0.2c0.4,0.2,0.6,0.4,0.8,0.6s0.3,0.6,0.4,0.9
	c0,0.2,0.1,0.6,0.1,1.2v4.5h-1.2v-4.4c0-0.5,0-0.9-0.1-1.1c-0.1-0.2-0.3-0.4-0.5-0.6c-0.2-0.1-0.5-0.2-0.9-0.2c-0.5,0-1,0.2-1.4,0.5
	s-0.6,1-0.6,1.9v4H50z"/>
<path d="M61.9,275v-10h6.8v1.2h-5.4v3.1H68v1.2h-4.7v4.6H61.9z"/>
<path d="M70.3,275v-7.3h1.1v1.1c0.3-0.5,0.5-0.9,0.8-1s0.5-0.2,0.8-0.2c0.4,0,0.8,0.1,1.3,0.4l-0.4,1.1c-0.3-0.2-0.6-0.3-0.9-0.3
	c-0.3,0-0.5,0.1-0.7,0.2c-0.2,0.2-0.4,0.4-0.5,0.7c-0.1,0.4-0.2,0.9-0.2,1.4v3.8H70.3z"/>
<path d="M79.7,274.1c-0.5,0.4-0.9,0.7-1.3,0.8s-0.9,0.2-1.4,0.2c-0.8,0-1.4-0.2-1.8-0.6c-0.4-0.4-0.6-0.9-0.6-1.5
	c0-0.4,0.1-0.7,0.2-1c0.2-0.3,0.4-0.5,0.6-0.7s0.6-0.3,0.9-0.4c0.2-0.1,0.6-0.1,1.1-0.2c1-0.1,1.7-0.3,2.2-0.4c0-0.2,0-0.3,0-0.3
	c0-0.5-0.1-0.9-0.3-1.1c-0.3-0.3-0.8-0.4-1.4-0.4c-0.6,0-1,0.1-1.3,0.3c-0.3,0.2-0.5,0.6-0.6,1.1l-1.2-0.2c0.1-0.5,0.3-0.9,0.5-1.2
	c0.3-0.3,0.6-0.6,1.1-0.7c0.5-0.2,1-0.3,1.6-0.3c0.6,0,1.1,0.1,1.5,0.2s0.7,0.3,0.9,0.6c0.2,0.2,0.3,0.5,0.4,0.8
	c0,0.2,0.1,0.6,0.1,1.1v1.6c0,1.1,0,1.9,0.1,2.2c0.1,0.3,0.2,0.6,0.3,0.9h-1.3C79.8,274.7,79.7,274.4,79.7,274.1z M79.6,271.4
	c-0.4,0.2-1.1,0.3-2,0.5c-0.5,0.1-0.9,0.2-1.1,0.2s-0.4,0.2-0.5,0.4c-0.1,0.2-0.2,0.4-0.2,0.6c0,0.3,0.1,0.6,0.4,0.8
	s0.6,0.3,1.1,0.3c0.5,0,0.9-0.1,1.3-0.3c0.4-0.2,0.6-0.5,0.8-0.9c0.1-0.3,0.2-0.7,0.2-1.2V271.4z"/>
<path d="M82.7,275v-7.3h1.1v1c0.5-0.8,1.3-1.2,2.3-1.2c0.4,0,0.8,0.1,1.2,0.2c0.4,0.2,0.6,0.4,0.8,0.6s0.3,0.6,0.4,0.9
	c0,0.2,0.1,0.6,0.1,1.2v4.5h-1.2v-4.4c0-0.5,0-0.9-0.1-1.1c-0.1-0.2-0.3-0.4-0.5-0.6c-0.2-0.1-0.5-0.2-0.9-0.2c-0.5,0-1,0.2-1.4,0.5
	s-0.6,1-0.6,1.9v4H82.7z"/>
<path d="M95.2,272.3l1.2,0.2c-0.1,0.8-0.5,1.5-1,2c-0.5,0.5-1.2,0.7-2,0.7c-1,0-1.8-0.3-2.4-1c-0.6-0.6-0.9-1.6-0.9-2.8
	c0-0.8,0.1-1.5,0.4-2.1s0.7-1,1.2-1.3c0.5-0.3,1.1-0.4,1.7-0.4c0.8,0,1.4,0.2,1.9,0.6c0.5,0.4,0.8,1,1,1.7l-1.2,0.2
	c-0.1-0.5-0.3-0.9-0.6-1.1s-0.6-0.4-1-0.4c-0.6,0-1.1,0.2-1.5,0.7c-0.4,0.4-0.6,1.1-0.6,2.1c0,1,0.2,1.7,0.6,2.1s0.9,0.7,1.5,0.7
	c0.5,0,0.9-0.1,1.2-0.4S95.2,273,95.2,272.3z"/>
<path d="M97.5,266.4V265h1.2v1.4H97.5z M97.5,275v-7.3h1.2v7.3H97.5z"/>
<path d="M100.1,272.8l1.2-0.2c0.1,0.5,0.3,0.9,0.6,1.1s0.7,0.4,1.3,0.4c0.6,0,1-0.1,1.3-0.3c0.3-0.2,0.4-0.5,0.4-0.8
	c0-0.3-0.1-0.5-0.4-0.7c-0.2-0.1-0.6-0.2-1.3-0.4c-0.9-0.2-1.5-0.4-1.9-0.6c-0.3-0.2-0.6-0.4-0.8-0.7c-0.2-0.3-0.3-0.6-0.3-1
	c0-0.3,0.1-0.6,0.2-0.9c0.1-0.3,0.3-0.5,0.6-0.7c0.2-0.1,0.5-0.3,0.8-0.4c0.3-0.1,0.7-0.1,1.1-0.1c0.6,0,1.1,0.1,1.5,0.2
	s0.7,0.4,1,0.7c0.2,0.3,0.3,0.7,0.4,1.1l-1.2,0.2c-0.1-0.4-0.2-0.7-0.5-0.9s-0.6-0.3-1.1-0.3c-0.6,0-1,0.1-1.2,0.3s-0.4,0.4-0.4,0.7
	c0,0.2,0.1,0.3,0.2,0.4c0.1,0.1,0.3,0.2,0.5,0.3c0.1,0,0.5,0.2,1.1,0.3c0.9,0.2,1.5,0.4,1.8,0.6c0.3,0.1,0.6,0.4,0.8,0.6
	s0.3,0.6,0.3,1.1c0,0.4-0.1,0.8-0.4,1.2c-0.2,0.4-0.6,0.6-1,0.8c-0.5,0.2-1,0.3-1.5,0.3c-0.9,0-1.7-0.2-2.2-0.6
	S100.3,273.6,100.1,272.8z"/>
<path d="M112.4,272.3l1.2,0.2c-0.1,0.8-0.5,1.5-1,2c-0.5,0.5-1.2,0.7-2,0.7c-1,0-1.8-0.3-2.4-1c-0.6-0.6-0.9-1.6-0.9-2.8
	c0-0.8,0.1-1.5,0.4-2.1s0.7-1,1.2-1.3c0.5-0.3,1.1-0.4,1.7-0.4c0.8,0,1.4,0.2,1.9,0.6c0.5,0.4,0.8,1,1,1.7l-1.2,0.2
	c-0.1-0.5-0.3-0.9-0.6-1.1s-0.6-0.4-1-0.4c-0.6,0-1.1,0.2-1.5,0.7c-0.4,0.4-0.6,1.1-0.6,2.1c0,1,0.2,1.7,0.6,2.1s0.9,0.7,1.5,0.7
	c0.5,0,0.9-0.1,1.2-0.4S112.3,273,112.4,272.3z"/>
<path d="M114.2,271.4c0-1.3,0.4-2.3,1.1-3c0.6-0.5,1.4-0.8,2.3-0.8c1,0,1.8,0.3,2.4,1c0.6,0.7,1,1.6,1,2.7c0,0.9-0.1,1.7-0.4,2.2
	c-0.3,0.5-0.7,1-1.2,1.2s-1.1,0.4-1.8,0.4c-1,0-1.8-0.3-2.5-1S114.2,272.6,114.2,271.4z M115.4,271.4c0,0.9,0.2,1.6,0.6,2.1
	c0.4,0.5,0.9,0.7,1.5,0.7c0.6,0,1.1-0.2,1.5-0.7s0.6-1.2,0.6-2.1c0-0.9-0.2-1.6-0.6-2c-0.4-0.5-0.9-0.7-1.5-0.7
	c-0.6,0-1.1,0.2-1.5,0.7S115.4,270.4,115.4,271.4z"/>
<path d="M122.7,275v-1.4h1.4v1.4c0,0.5-0.1,0.9-0.3,1.2c-0.2,0.3-0.5,0.6-0.9,0.7l-0.3-0.5c0.3-0.1,0.5-0.3,0.6-0.5
	c0.1-0.2,0.2-0.5,0.2-1H122.7z"/>
<path d="M137.5,271.5l1.3,0.3c-0.3,1.1-0.8,1.9-1.5,2.5c-0.7,0.6-1.6,0.9-2.6,0.9c-1.1,0-2-0.2-2.6-0.7c-0.7-0.4-1.2-1.1-1.5-1.9
	s-0.5-1.7-0.5-2.7c0-1,0.2-2,0.6-2.7c0.4-0.8,1-1.4,1.7-1.8c0.7-0.4,1.5-0.6,2.4-0.6c1,0,1.8,0.3,2.5,0.8s1.2,1.2,1.4,2.2l-1.3,0.3
	c-0.2-0.7-0.6-1.3-1-1.6s-1-0.5-1.7-0.5c-0.8,0-1.4,0.2-1.9,0.6s-0.9,0.9-1.1,1.5c-0.2,0.6-0.3,1.3-0.3,1.9c0,0.9,0.1,1.6,0.4,2.2
	c0.2,0.6,0.6,1.1,1.2,1.4s1.1,0.5,1.7,0.5c0.7,0,1.4-0.2,1.9-0.6S137.3,272.3,137.5,271.5z"/>
<path d="M139.4,275l3.8-10h1.4l4.1,10h-1.5l-1.2-3h-4.2l-1.1,3H139.4z M142.2,270.9h3.4l-1-2.8c-0.3-0.8-0.6-1.5-0.7-2.1
	c-0.1,0.6-0.3,1.3-0.5,1.9L142.2,270.9z"/>
<g>
	<path d="M41,534c-4.4,0-8,3.6-8,8s3.6,8,8,8s8-3.6,8-8C49,537.6,45.4,534,41,534z M41,547.6c-3.1,0-5.6-2.5-5.6-5.5c0,0,0,0,0-0.1
		c0-1.1,0.3-2.1,0.9-3l7.8,7.8C43.1,547.3,42.1,547.6,41,547.6z M46.6,542c0,1.1-0.3,2.1-0.9,3l-7.8-7.8c0.9-0.6,2-0.9,3-0.9
		C44.1,536.4,46.6,538.9,46.6,542C46.6,542,46.6,542,46.6,542z"/>
	<circle cx="40" cy="446" r="4"/>
	<path d="M48,456c0-2.2-3.6-4-8-4s-8,1.8-8,4v2h16V456z"/>
	<path d="M33.9,364h5c0,1.1,0.9,2,2,2s2-0.9,2-2h5c0.4,0,0.8-0.3,0.9-0.7c0.2-0.4,0-0.8-0.3-1.1c-1-0.8-1.6-1.9-1.6-3.2v-3
		c0-3.3-2.7-6-6-6s-6,2.7-6,6v3c0,1.3-0.6,2.4-1.6,3.2c-0.3,0.3-0.4,0.7-0.3,1.1C33.2,363.7,33.5,364,33.9,364z"/>
	<polygon points="83.5,356.4 87,362 88.7,362 88.7,353.4 87.1,353.4 87.1,359.1 83.6,353.4 81.9,353.4 81.9,362 83.5,362 	"/>
	<path d="M91.7,361.8c0.5,0.3,1.1,0.4,1.6,0.4c0.9,0,1.7-0.3,2.3-0.9s0.9-1.4,0.9-2.3c0-0.9-0.3-1.7-0.9-2.3s-1.4-0.9-2.3-0.9
		c-0.6,0-1.2,0.1-1.7,0.4s-0.9,0.7-1.1,1.2s-0.4,1-0.4,1.6c0,0.7,0.1,1.3,0.4,1.8S91.2,361.5,91.7,361.8z M92.3,357.5
		c0.3-0.3,0.7-0.5,1.1-0.5s0.8,0.2,1.1,0.5s0.4,0.8,0.4,1.4c0,0.6-0.1,1.1-0.4,1.4s-0.7,0.5-1.1,0.5s-0.8-0.2-1.1-0.5
		s-0.4-0.8-0.4-1.4S92,357.8,92.3,357.5z"/>
	<path d="M97.9,359.8c0,0.6,0,1,0.1,1.2c0,0.3,0.1,0.5,0.2,0.6s0.3,0.3,0.5,0.4s0.5,0.1,0.8,0.1c0.5,0,0.9-0.1,1.3-0.2l-0.1-1.3
		c-0.3,0.1-0.5,0.2-0.7,0.2c-0.1,0-0.2,0-0.3-0.1s-0.1-0.1-0.1-0.2s0-0.4,0-0.9v-2.5h1.1v-1.3h-1.1v-2.2l-1.7,1v1.2h-0.8v1.3h0.8
		V359.8z"/>
	<rect x="101.9" y="355.8" width="1.6" height="6.2"/>
	<rect x="101.9" y="353.4" width="1.6" height="1.5"/>
	<path d="M105.4,362h1.6v-4.9h1.2v-1.3H107v-0.4c0-0.3,0.1-0.5,0.2-0.6s0.3-0.2,0.5-0.2c0.2,0,0.5,0,0.8,0.1l0.2-1.1
		c-0.4-0.1-0.9-0.2-1.4-0.2c-0.5,0-0.8,0.1-1.1,0.2s-0.5,0.4-0.6,0.6s-0.2,0.6-0.2,1.2v0.5h-0.9v1.3h0.9V362z"/>
	<rect x="109.2" y="355.8" width="1.6" height="6.2"/>
	<rect x="109.2" y="353.4" width="1.6" height="1.5"/>
	<path d="M115.1,362.1c0.8,0,1.4-0.2,1.9-0.6s0.8-0.9,1-1.7l-1.6-0.3c-0.1,0.4-0.2,0.7-0.4,0.9s-0.5,0.3-0.8,0.3
		c-0.4,0-0.8-0.2-1-0.5s-0.4-0.8-0.4-1.6c0-0.7,0.1-1.1,0.4-1.4s0.6-0.4,1-0.4c0.3,0,0.6,0.1,0.8,0.2s0.3,0.4,0.4,0.7l1.6-0.3
		c-0.2-0.7-0.5-1.2-1-1.5s-1-0.5-1.8-0.5c-0.9,0-1.7,0.3-2.2,0.9s-0.8,1.4-0.8,2.4c0,1,0.3,1.8,0.8,2.4S114.2,362.1,115.1,362.1z"/>
	<path d="M121,358.3c-0.6,0.1-1,0.2-1.3,0.4s-0.5,0.4-0.7,0.6s-0.3,0.6-0.3,0.9c0,0.5,0.2,1,0.6,1.3s0.9,0.5,1.5,0.5
		c0.4,0,0.7-0.1,1-0.2s0.6-0.3,0.9-0.6c0,0,0,0.1,0.1,0.2c0.1,0.2,0.1,0.4,0.2,0.5h1.6c-0.1-0.3-0.2-0.6-0.3-0.8s-0.1-0.7-0.1-1.2
		l0-1.9c0-0.7-0.1-1.2-0.2-1.5s-0.4-0.5-0.8-0.7s-0.9-0.3-1.6-0.3c-0.8,0-1.4,0.1-1.8,0.4s-0.7,0.7-0.9,1.3l1.5,0.3
		c0.1-0.3,0.2-0.5,0.4-0.6s0.4-0.2,0.7-0.2c0.4,0,0.7,0.1,0.9,0.2s0.2,0.4,0.2,0.7v0.2C122.3,358.1,121.8,358.2,121,358.3z
		 M122.6,359.3c0,0.4,0,0.7-0.1,0.8c-0.1,0.2-0.2,0.4-0.4,0.5c-0.3,0.2-0.6,0.3-0.8,0.3c-0.3,0-0.5-0.1-0.7-0.3s-0.3-0.4-0.3-0.6
		c0-0.2,0.1-0.4,0.3-0.6c0.1-0.1,0.4-0.2,0.9-0.3s0.8-0.2,1-0.3V359.3z"/>
	<path d="M128.1,360.8c-0.1,0-0.2,0-0.3-0.1s-0.1-0.1-0.1-0.2s0-0.4,0-0.9v-2.5h1.1v-1.3h-1.1v-2.2l-1.7,1v1.2h-0.8v1.3h0.8v2.7
		c0,0.6,0,1,0.1,1.2c0,0.3,0.1,0.5,0.2,0.6s0.3,0.3,0.5,0.4s0.5,0.1,0.8,0.1c0.5,0,0.9-0.1,1.3-0.2l-0.1-1.3
		C128.4,360.7,128.2,360.8,128.1,360.8z"/>
	<rect x="129.9" y="355.8" width="1.6" height="6.2"/>
	<rect x="129.9" y="353.4" width="1.6" height="1.5"/>
	<path d="M136,355.6c-0.6,0-1.2,0.1-1.7,0.4s-0.9,0.7-1.1,1.2s-0.4,1-0.4,1.6c0,0.7,0.1,1.3,0.4,1.8s0.7,0.9,1.2,1.1
		s1.1,0.4,1.6,0.4c0.9,0,1.7-0.3,2.3-0.9s0.9-1.4,0.9-2.3c0-0.9-0.3-1.7-0.9-2.3S137,355.6,136,355.6z M137.1,360.3
		c-0.3,0.3-0.7,0.5-1.1,0.5s-0.8-0.2-1.1-0.5s-0.4-0.8-0.4-1.4s0.1-1.1,0.4-1.4s0.7-0.5,1.1-0.5s0.8,0.2,1.1,0.5s0.4,0.8,0.4,1.4
		C137.5,359.5,137.4,360,137.1,360.3z"/>
	<path d="M145.8,356.3c-0.2-0.2-0.4-0.4-0.7-0.5s-0.6-0.2-1-0.2c-0.8,0-1.5,0.4-2.1,1.1v-0.9h-1.5v6.2h1.6v-2.8c0-0.7,0-1.2,0.1-1.4
		s0.2-0.5,0.5-0.6s0.5-0.2,0.8-0.2c0.2,0,0.4,0.1,0.6,0.2s0.3,0.3,0.3,0.5s0.1,0.6,0.1,1.3v3.2h1.6v-3.9c0-0.5,0-0.8-0.1-1.1
		S145.9,356.5,145.8,356.3z"/>
	<path d="M152.6,358.8c-0.3-0.3-1-0.5-1.8-0.7s-1.4-0.4-1.5-0.5c-0.1-0.1-0.2-0.2-0.2-0.3c0-0.1,0.1-0.2,0.2-0.3
		c0.2-0.1,0.5-0.2,0.9-0.2c0.3,0,0.6,0.1,0.8,0.2s0.3,0.3,0.4,0.6l1.6-0.3c-0.2-0.5-0.4-1-0.9-1.2s-1-0.4-1.9-0.4
		c-0.9,0-1.6,0.2-2,0.6s-0.6,0.8-0.6,1.4c0,0.6,0.2,1.1,0.7,1.4c0.4,0.2,1.2,0.5,2.5,0.8c0.3,0.1,0.5,0.1,0.6,0.2
		c0.1,0.1,0.1,0.2,0.1,0.3c0,0.2-0.1,0.3-0.2,0.4c-0.2,0.2-0.5,0.2-1,0.2c-0.4,0-0.7-0.1-0.9-0.2s-0.4-0.4-0.4-0.7l-1.7,0.3
		c0.2,0.6,0.5,1.1,1,1.4s1.2,0.5,2,0.5c0.9,0,1.6-0.2,2.1-0.6s0.7-0.9,0.7-1.5C153.1,359.5,152.9,359.1,152.6,358.8z"/>
	<path d="M83.6,407.6c0.7,0.4,1.5,0.6,2.3,0.6c0.7,0,1.4-0.1,2.1-0.4s1.2-0.6,1.6-0.9v-3.4h-3.7v1.4h2v1.1c-0.3,0.2-0.6,0.4-0.9,0.5
		s-0.7,0.2-1.1,0.2c-0.7,0-1.3-0.3-1.8-0.8s-0.7-1.3-0.7-2.3c0-0.9,0.2-1.7,0.7-2.1s1-0.7,1.8-0.7c0.5,0,0.9,0.1,1.3,0.4
		s0.6,0.6,0.7,1l1.7-0.3c-0.2-0.8-0.6-1.4-1.2-1.9s-1.4-0.7-2.5-0.7c-0.8,0-1.5,0.1-2.1,0.4c-0.7,0.4-1.3,0.9-1.6,1.6
		s-0.6,1.5-0.6,2.4c0,0.8,0.2,1.6,0.5,2.3S82.9,407.2,83.6,407.6z"/>
	<path d="M95.8,402.6c-0.5-0.6-1.3-0.9-2.2-0.9c-0.8,0-1.5,0.3-2,0.9s-0.8,1.4-0.8,2.4c0,0.9,0.2,1.6,0.6,2.1
		c0.5,0.7,1.3,1.1,2.4,1.1c0.7,0,1.3-0.2,1.7-0.5s0.8-0.8,1-1.4l-1.6-0.3c-0.1,0.3-0.2,0.5-0.4,0.7s-0.4,0.2-0.7,0.2
		c-0.4,0-0.7-0.1-0.9-0.4s-0.4-0.7-0.4-1.1h4.1C96.6,404.1,96.3,403.2,95.8,402.6z M92.4,404.4c0-0.4,0.1-0.8,0.3-1.1
		s0.5-0.4,0.9-0.4c0.3,0,0.6,0.1,0.9,0.4s0.4,0.6,0.4,1.1H92.4z"/>
	<path d="M99.4,402.7v-0.9h-1.5v6.2h1.6v-2.8c0-0.7,0-1.2,0.1-1.4s0.2-0.5,0.5-0.6s0.5-0.2,0.8-0.2c0.2,0,0.4,0.1,0.6,0.2
		s0.3,0.3,0.3,0.5s0.1,0.6,0.1,1.3v3.2h1.6v-3.9c0-0.5,0-0.8-0.1-1.1s-0.2-0.5-0.3-0.7s-0.4-0.4-0.7-0.5s-0.6-0.2-1-0.2
		C100.6,401.6,99.9,402,99.4,402.7z"/>
	<path d="M109.8,402.6c-0.5-0.6-1.3-0.9-2.2-0.9c-0.8,0-1.5,0.3-2,0.9s-0.8,1.4-0.8,2.4c0,0.9,0.2,1.6,0.6,2.1
		c0.5,0.7,1.3,1.1,2.4,1.1c0.7,0,1.3-0.2,1.7-0.5s0.8-0.8,1-1.4l-1.6-0.3c-0.1,0.3-0.2,0.5-0.4,0.7s-0.4,0.2-0.7,0.2
		c-0.4,0-0.7-0.1-0.9-0.4s-0.4-0.7-0.4-1.1h4.1C110.6,404.1,110.3,403.2,109.8,402.6z M106.4,404.4c0-0.4,0.1-0.8,0.3-1.1
		s0.5-0.4,0.9-0.4c0.3,0,0.6,0.1,0.9,0.4s0.4,0.6,0.4,1.1H106.4z"/>
	<path d="M113.4,406.1c0-1.1,0-1.8,0.1-2.1s0.2-0.6,0.4-0.7s0.4-0.2,0.6-0.2c0.2,0,0.5,0.1,0.8,0.3l0.5-1.4
		c-0.3-0.2-0.7-0.3-1.1-0.3c-0.3,0-0.5,0.1-0.7,0.2s-0.4,0.4-0.7,0.8v-0.9h-1.5v6.2h1.6V406.1z"/>
	<path d="M118.4,404.3c-0.6,0.1-1,0.2-1.3,0.4s-0.5,0.4-0.7,0.6s-0.3,0.6-0.3,0.9c0,0.5,0.2,1,0.6,1.3s0.9,0.5,1.5,0.5
		c0.4,0,0.7-0.1,1-0.2s0.6-0.3,0.9-0.6c0,0,0,0.1,0.1,0.2c0.1,0.2,0.1,0.4,0.2,0.5h1.6c-0.1-0.3-0.2-0.6-0.3-0.8s-0.1-0.7-0.1-1.2
		l0-1.9c0-0.7-0.1-1.2-0.2-1.5s-0.4-0.5-0.8-0.7s-0.9-0.3-1.6-0.3c-0.8,0-1.4,0.1-1.8,0.4s-0.7,0.7-0.9,1.3l1.5,0.3
		c0.1-0.3,0.2-0.5,0.4-0.6s0.4-0.2,0.7-0.2c0.4,0,0.7,0.1,0.9,0.2s0.2,0.4,0.2,0.7v0.2C119.7,404.1,119.1,404.2,118.4,404.3z
		 M120,405.3c0,0.4,0,0.7-0.1,0.8c-0.1,0.2-0.2,0.4-0.4,0.5c-0.3,0.2-0.6,0.3-0.8,0.3c-0.3,0-0.5-0.1-0.7-0.3s-0.3-0.4-0.3-0.6
		c0-0.2,0.1-0.4,0.3-0.6c0.1-0.1,0.4-0.2,0.9-0.3s0.8-0.2,1-0.3V405.3z"/>
	<rect x="123.2" y="399.4" width="1.6" height="8.6"/>
	<path d="M84.3,445.4L81,454h1.8l0.7-2H87l0.8,2h1.9l-3.4-8.6H84.3z M84.1,450.6l1.2-3.2l1.2,3.2H84.1z"/>
	<path d="M93.2,448.9c0.3,0,0.6,0.1,0.8,0.2s0.3,0.4,0.4,0.7l1.6-0.3c-0.2-0.7-0.5-1.2-1-1.5s-1-0.5-1.8-0.5c-0.9,0-1.7,0.3-2.2,0.9
		s-0.8,1.4-0.8,2.4c0,1,0.3,1.8,0.8,2.4s1.3,0.9,2.2,0.9c0.8,0,1.4-0.2,1.9-0.6s0.8-0.9,1-1.7l-1.6-0.3c-0.1,0.4-0.2,0.7-0.4,0.9
		s-0.5,0.3-0.8,0.3c-0.4,0-0.8-0.2-1-0.5s-0.4-0.8-0.4-1.6c0-0.7,0.1-1.1,0.4-1.4S92.8,448.9,93.2,448.9z"/>
	<path d="M99.8,454.1c0.8,0,1.4-0.2,1.9-0.6s0.8-0.9,1-1.7l-1.6-0.3c-0.1,0.4-0.2,0.7-0.4,0.9s-0.5,0.3-0.8,0.3
		c-0.4,0-0.8-0.2-1-0.5s-0.4-0.8-0.4-1.6c0-0.7,0.1-1.1,0.4-1.4s0.6-0.4,1-0.4c0.3,0,0.6,0.1,0.8,0.2s0.3,0.4,0.4,0.7l1.6-0.3
		c-0.2-0.7-0.5-1.2-1-1.5s-1-0.5-1.8-0.5c-0.9,0-1.7,0.3-2.2,0.9s-0.8,1.4-0.8,2.4c0,1,0.3,1.8,0.8,2.4S98.9,454.1,99.8,454.1z"/>
	<path d="M103.9,452.6c0.3,0.5,0.7,0.9,1.2,1.1s1.1,0.4,1.6,0.4c0.9,0,1.7-0.3,2.3-0.9s0.9-1.4,0.9-2.3c0-0.9-0.3-1.7-0.9-2.3
		s-1.4-0.9-2.3-0.9c-0.6,0-1.2,0.1-1.7,0.4s-0.9,0.7-1.1,1.2s-0.4,1-0.4,1.6C103.5,451.5,103.6,452.1,103.9,452.6z M105.6,449.5
		c0.3-0.3,0.7-0.5,1.1-0.5s0.8,0.2,1.1,0.5s0.4,0.8,0.4,1.4c0,0.6-0.1,1.1-0.4,1.4s-0.7,0.5-1.1,0.5s-0.8-0.2-1.1-0.5
		s-0.4-0.8-0.4-1.4S105.3,449.8,105.6,449.5z"/>
	<path d="M115.2,450.4c0,0.9,0,1.5-0.1,1.7s-0.2,0.4-0.5,0.6s-0.5,0.2-0.8,0.2c-0.2,0-0.4-0.1-0.6-0.2s-0.3-0.3-0.3-0.5
		s-0.1-0.7-0.1-1.6v-2.9h-1.6v3.9c0,0.6,0.1,1,0.2,1.4s0.4,0.6,0.7,0.8s0.7,0.3,1.1,0.3c0.4,0,0.8-0.1,1.2-0.3s0.7-0.5,0.9-0.8v0.9
		h1.5v-6.2h-1.6V450.4z"/>
	<path d="M123.8,448.3c-0.2-0.2-0.4-0.4-0.7-0.5s-0.6-0.2-1-0.2c-0.8,0-1.5,0.4-2.1,1.1v-0.9h-1.5v6.2h1.6v-2.8c0-0.7,0-1.2,0.1-1.4
		s0.2-0.5,0.5-0.6s0.5-0.2,0.8-0.2c0.2,0,0.4,0.1,0.6,0.2s0.3,0.3,0.3,0.5s0.1,0.6,0.1,1.3v3.2h1.6v-3.9c0-0.5,0-0.8-0.1-1.1
		S123.9,448.5,123.8,448.3z"/>
	<path d="M128.1,452.8c-0.1,0-0.2,0-0.3-0.1s-0.1-0.1-0.1-0.2s0-0.4,0-0.9v-2.5h1.1v-1.3h-1.1v-2.2l-1.7,1v1.2h-0.8v1.3h0.8v2.7
		c0,0.6,0,1,0.1,1.2c0,0.3,0.1,0.5,0.2,0.6s0.3,0.3,0.5,0.4s0.5,0.1,0.8,0.1c0.5,0,0.9-0.1,1.3-0.2l-0.1-1.3
		C128.4,452.7,128.2,452.8,128.1,452.8z"/>
	<path d="M83.6,496.8h1.1c0.8,0,1.4,0,1.8-0.1c0.3-0.1,0.6-0.2,0.9-0.4s0.5-0.5,0.7-0.8s0.3-0.8,0.3-1.3c0-0.7-0.2-1.2-0.5-1.7
		s-0.7-0.7-1.2-0.8c-0.3-0.1-1-0.1-2.1-0.1h-2.8v8.6h1.7V496.8z M83.6,492.9h0.8c0.6,0,1,0,1.2,0.1c0.3,0.1,0.5,0.2,0.7,0.4
		s0.3,0.5,0.3,0.8c0,0.3-0.1,0.5-0.2,0.7s-0.3,0.3-0.5,0.4s-0.7,0.1-1.4,0.1h-0.9V492.9z"/>
	<path d="M91.4,498.1c0-1.1,0-1.8,0.1-2.1s0.2-0.6,0.4-0.7s0.4-0.2,0.6-0.2c0.2,0,0.5,0.1,0.8,0.3l0.5-1.4c-0.3-0.2-0.7-0.3-1.1-0.3
		c-0.3,0-0.5,0.1-0.7,0.2s-0.4,0.4-0.7,0.8v-0.9h-1.5v6.2h1.6V498.1z"/>
	<rect x="94.5" y="493.8" width="1.6" height="6.2"/>
	<rect x="94.5" y="491.4" width="1.6" height="1.5"/>
	<path d="M100.7,497c-0.1,0.2-0.1,0.4-0.2,0.5c0,0.1-0.1,0.3-0.2,0.5L100,497l-1.2-3.2h-1.7l2.5,6.2h1.5l2.5-6.2h-1.7L100.7,497z"/>
	<path d="M108.2,499.5c0.1,0.2,0.1,0.4,0.2,0.5h1.6c-0.1-0.3-0.2-0.6-0.3-0.8s-0.1-0.7-0.1-1.2l0-1.9c0-0.7-0.1-1.2-0.2-1.5
		s-0.4-0.5-0.8-0.7s-0.9-0.3-1.6-0.3c-0.8,0-1.4,0.1-1.8,0.4s-0.7,0.7-0.9,1.3l1.5,0.3c0.1-0.3,0.2-0.5,0.4-0.6s0.4-0.2,0.7-0.2
		c0.4,0,0.7,0.1,0.9,0.2s0.2,0.4,0.2,0.7v0.2c-0.3,0.1-0.8,0.3-1.6,0.4c-0.6,0.1-1,0.2-1.3,0.4s-0.5,0.4-0.7,0.6s-0.3,0.6-0.3,0.9
		c0,0.5,0.2,1,0.6,1.3s0.9,0.5,1.5,0.5c0.4,0,0.7-0.1,1-0.2s0.6-0.3,0.9-0.6C108.1,499.4,108.1,499.4,108.2,499.5z M108,497.3
		c0,0.4,0,0.7-0.1,0.8c-0.1,0.2-0.2,0.4-0.4,0.5c-0.3,0.2-0.6,0.3-0.8,0.3c-0.3,0-0.5-0.1-0.7-0.3s-0.3-0.4-0.3-0.6
		c0-0.2,0.1-0.4,0.3-0.6c0.1-0.1,0.4-0.2,0.9-0.3s0.8-0.2,1-0.3V497.3z"/>
	<path d="M114.7,498.5c-0.2,0.2-0.5,0.3-0.8,0.3c-0.4,0-0.8-0.2-1-0.5s-0.4-0.8-0.4-1.6c0-0.7,0.1-1.1,0.4-1.4s0.6-0.4,1-0.4
		c0.3,0,0.6,0.1,0.8,0.2s0.3,0.4,0.4,0.7l1.6-0.3c-0.2-0.7-0.5-1.2-1-1.5s-1-0.5-1.8-0.5c-0.9,0-1.7,0.3-2.2,0.9s-0.8,1.4-0.8,2.4
		c0,1,0.3,1.8,0.8,2.4s1.3,0.9,2.2,0.9c0.8,0,1.4-0.2,1.9-0.6s0.8-0.9,1-1.7l-1.6-0.3C115,498,114.9,498.4,114.7,498.5z"/>
	<path d="M120.4,498.2l-1.5-4.4h-1.8l2.4,6.2c-0.1,0.3-0.2,0.6-0.4,0.9s-0.5,0.3-0.8,0.3c-0.2,0-0.4,0-0.7-0.1l0.1,1.3
		c0.3,0.1,0.6,0.1,0.9,0.1c0.3,0,0.6,0,0.8-0.1s0.5-0.2,0.6-0.3s0.3-0.3,0.5-0.5s0.3-0.5,0.4-0.8l0.4-1.1l2.2-6h-1.7L120.4,498.2z"
		/>
	<path d="M87.4,541.4c0.4-0.2,0.7-0.4,0.9-0.8s0.3-0.7,0.3-1.1c0-0.4-0.1-0.7-0.3-1s-0.4-0.5-0.7-0.7s-0.6-0.3-0.9-0.4
		s-0.8-0.1-1.5-0.1h-3.4v8.6h2.9c1.1,0,1.8,0,2.1-0.1c0.5-0.1,0.8-0.2,1.2-0.4s0.6-0.5,0.7-0.9s0.3-0.7,0.3-1.1
		c0-0.5-0.1-0.9-0.4-1.3S88,541.6,87.4,541.4z M83.6,538.8h1c0.8,0,1.3,0,1.5,0c0.3,0,0.5,0.1,0.7,0.3s0.2,0.4,0.2,0.6
		c0,0.3-0.1,0.5-0.3,0.7s-0.4,0.3-0.7,0.3c-0.2,0-0.6,0-1.3,0h-1.1V538.8z M87,544.2c-0.2,0.2-0.4,0.3-0.6,0.3
		c-0.2,0-0.6,0.1-1.2,0.1h-1.6v-2.3H85c0.8,0,1.3,0,1.5,0.1s0.4,0.2,0.5,0.4s0.2,0.4,0.2,0.7C87.3,543.7,87.2,544,87,544.2z"/>
	<rect x="90.5" y="537.4" width="1.6" height="8.6"/>
	<path d="M96.7,539.6c-0.6,0-1.2,0.1-1.7,0.4s-0.9,0.7-1.1,1.2s-0.4,1-0.4,1.6c0,0.7,0.1,1.3,0.4,1.8s0.7,0.9,1.2,1.1
		s1.1,0.4,1.6,0.4c0.9,0,1.7-0.3,2.3-0.9s0.9-1.4,0.9-2.3c0-0.9-0.3-1.7-0.9-2.3S97.6,539.6,96.7,539.6z M97.8,544.3
		c-0.3,0.3-0.7,0.5-1.1,0.5s-0.8-0.2-1.1-0.5s-0.4-0.8-0.4-1.4s0.1-1.1,0.4-1.4s0.7-0.5,1.1-0.5s0.8,0.2,1.1,0.5s0.4,0.8,0.4,1.4
		C98.2,543.5,98.1,544,97.8,544.3z"/>
	<path d="M104.7,544.5c-0.2,0.2-0.5,0.3-0.8,0.3c-0.4,0-0.8-0.2-1-0.5s-0.4-0.8-0.4-1.6c0-0.7,0.1-1.1,0.4-1.4s0.6-0.4,1-0.4
		c0.3,0,0.6,0.1,0.8,0.2s0.3,0.4,0.4,0.7l1.6-0.3c-0.2-0.7-0.5-1.2-1-1.5s-1-0.5-1.8-0.5c-0.9,0-1.7,0.3-2.2,0.9s-0.8,1.4-0.8,2.4
		c0,1,0.3,1.8,0.8,2.4s1.3,0.9,2.2,0.9c0.8,0,1.4-0.2,1.9-0.6s0.8-0.9,1-1.7l-1.6-0.3C105,544,104.9,544.4,104.7,544.5z"/>
	<polygon points="113.4,539.8 111.4,539.8 109.5,542 109.5,537.4 107.8,537.4 107.8,546 109.5,546 109.5,544 110.2,543.2 111.8,546 
		113.6,546 111.3,542.1 	"/>
	<polygon points="87,586.8 83.6,586.8 83.6,583.4 81.9,583.4 81.9,592 83.6,592 83.6,588.2 87,588.2 87,592 88.7,592 88.7,583.4 
		87,583.4 	"/>
	<path d="M95.1,586.6c-0.5-0.6-1.3-0.9-2.2-0.9c-0.8,0-1.5,0.3-2,0.9s-0.8,1.4-0.8,2.4c0,0.9,0.2,1.6,0.6,2.1
		c0.5,0.7,1.3,1.1,2.4,1.1c0.7,0,1.3-0.2,1.7-0.5s0.8-0.8,1-1.4l-1.6-0.3c-0.1,0.3-0.2,0.5-0.4,0.7s-0.4,0.2-0.7,0.2
		c-0.4,0-0.7-0.1-0.9-0.4s-0.4-0.7-0.4-1.1h4.1C95.9,588.1,95.6,587.2,95.1,586.6z M91.8,588.4c0-0.4,0.1-0.8,0.3-1.1
		s0.5-0.4,0.9-0.4c0.3,0,0.6,0.1,0.9,0.4s0.4,0.6,0.4,1.1H91.8z"/>
	<rect x="97.2" y="583.4" width="1.6" height="8.6"/>
	<path d="M104,585.6c-0.4,0-0.8,0.1-1.1,0.3s-0.6,0.4-0.8,0.8v-0.9h-1.5v8.6h1.6v-3.1c0.3,0.3,0.6,0.6,0.9,0.7s0.6,0.2,0.9,0.2
		c0.7,0,1.3-0.3,1.8-0.9s0.8-1.4,0.8-2.4c0-1-0.3-1.8-0.8-2.4S104.7,585.6,104,585.6z M104.5,590.4c-0.3,0.3-0.6,0.5-1,0.5
		c-0.4,0-0.7-0.2-1-0.5s-0.4-0.9-0.4-1.5c0-0.6,0.1-1.1,0.4-1.4s0.6-0.5,1-0.5c0.4,0,0.7,0.2,1,0.5s0.4,0.8,0.4,1.5
		C104.9,589.6,104.8,590.1,104.5,590.4z"/>
	<path d="M47.2,399.1l-2.4,0.5c-0.7-0.6-1.5-1-2.4-1.3l-0.8-2.3h-2l-0.8,2.3c-0.9,0.2-1.7,0.7-2.4,1.3l-2.4-0.5l-1,1.8l1.6,1.8
		c0,0.4-0.1,0.9-0.1,1.3c0,0.4,0,0.9,0.1,1.3l-1.6,1.8l1,1.8l2.4-0.5c0.7,0.6,1.5,1,2.4,1.3l0.8,2.3h2l0.8-2.3
		c0.9-0.2,1.7-0.7,2.4-1.3l2.4,0.5l1-1.8l-1.6-1.8c0-0.4,0.1-0.9,0.1-1.3c0-0.4,0-0.9-0.1-1.3l1.6-1.8L47.2,399.1z M40.5,406
		c-1.1,0-2-0.9-2-2c0-1.1,0.9-2,2-2c1.1,0,2,0.9,2,2S41.6,406,40.5,406z"/>
	<path d="M45,492c0-2.2-1.8-4-4-4s-4,1.8-4,4h-1c-1.1,0-2,0.9-2,2v8c0,1.1,0.9,2,2,2h10c1.1,0,2-0.9,2-2v-8c0-1.1-0.9-2-2-2H45z
		 M41,500c-1.1,0-2-0.9-2-2c0-1.1,0.9-2,2-2c1.1,0,2,0.9,2,2S42.1,500,41,500z M39,492c0-1.1,0.9-2,2-2c1.1,0,2,0.9,2,2H39z"/>
	<path d="M41,580c-4.4,0-8,3.6-8,8s3.6,8,8,8s8-3.6,8-8C49,583.6,45.4,580,41,580z M41,593.3C41,593.3,40.9,593.3,41,593.3
		c-0.7,0-1.2-0.5-1.2-1.1c0-0.6,0.5-1.1,1.1-1.1c0.6,0,1.1,0.5,1.1,1.1C42.1,592.8,41.6,593.3,41,593.3z M43.1,587l-0.9,1
		c-0.2,0.2-0.3,0.4-0.3,0.7c0,0.5-0.4,1-1,1c-0.5,0-0.9-0.4-1-0.9c0,0,0,0,0-0.1c0-0.6,0.2-1.1,0.6-1.4l0.7-0.9
		c0.3-0.3,0.5-0.7,0.6-1.1c0-0.5-0.3-0.9-0.8-0.9c0,0-0.1,0-0.1,0c-0.5,0-0.9,0.3-1,0.7c-0.2,0.4-0.6,0.6-1,0.6
		c-0.5,0-0.9-0.3-0.9-0.8c0,0,0-0.1,0-0.1c0-0.1,0-0.3,0.1-0.4c0.4-1.1,1.5-1.8,2.7-1.7c1.4-0.1,2.7,0.9,2.8,2.4c0,0.1,0,0.1,0,0.2
		C43.8,585.9,43.5,586.6,43.1,587z"/>
</g>
<g>
	<path class="st0" d="M160.1,42.5c-0.5-0.2-1.2-0.5-2.2-0.7s-1.6-0.5-1.9-0.7c-0.2-0.2-0.3-0.4-0.3-0.6c0-0.3,0.1-0.5,0.3-0.6
		c0.3-0.2,0.8-0.4,1.4-0.4c0.6,0,1,0.1,1.3,0.3c0.3,0.2,0.5,0.6,0.6,1.1l2-0.1c0-0.9-0.4-1.7-1-2.2s-1.6-0.8-2.8-0.8
		c-0.8,0-1.4,0.1-2,0.3s-1,0.6-1.3,1c-0.3,0.4-0.4,0.9-0.4,1.4c0,0.8,0.3,1.5,0.9,2c0.4,0.4,1.2,0.7,2.3,1c0.8,0.2,1.4,0.4,1.6,0.4
		c0.3,0.1,0.6,0.3,0.7,0.4c0.1,0.2,0.2,0.4,0.2,0.6c0,0.4-0.2,0.7-0.5,1c-0.3,0.3-0.8,0.4-1.5,0.4c-0.6,0-1.1-0.2-1.5-0.5
		s-0.6-0.8-0.7-1.5l-2,0.2c0.1,1.1,0.5,2,1.2,2.6c0.7,0.6,1.7,0.9,2.9,0.9c0.9,0,1.6-0.1,2.2-0.4c0.6-0.2,1-0.6,1.4-1.1
		s0.5-1,0.5-1.6c0-0.6-0.1-1.2-0.4-1.6C161,43.1,160.6,42.7,160.1,42.5z"/>
	<polygon class="st0" points="165.4,43.6 170.4,43.6 170.4,41.9 165.4,41.9 165.4,39.7 170.8,39.7 170.8,38 163.4,38 163.4,48 
		171,48 171,46.3 165.4,46.3 	"/>
	<polygon class="st0" points="172,39.7 174.9,39.7 174.9,48 177,48 177,39.7 179.9,39.7 179.9,38 172,38 	"/>
	<polygon class="st0" points="180.5,39.7 183.5,39.7 183.5,48 185.5,48 185.5,39.7 188.5,39.7 188.5,38 180.5,38 	"/>
	<rect x="189.7" y="38" class="st0" width="2" height="10"/>
	<polygon class="st0" points="199.8,44.7 195.7,38 193.7,38 193.7,48 195.6,48 195.6,41.5 199.6,48 201.7,48 201.7,38 199.8,38 	"/>
	<path class="st0" d="M208.5,44.3h2.3v1.3c-0.3,0.2-0.7,0.4-1.1,0.6c-0.4,0.2-0.9,0.2-1.3,0.2c-0.9,0-1.5-0.3-2.1-0.9
		c-0.5-0.6-0.8-1.5-0.8-2.7c0-1.1,0.3-1.9,0.8-2.5c0.5-0.6,1.2-0.8,2.1-0.8c0.6,0,1.1,0.1,1.5,0.4c0.4,0.3,0.7,0.7,0.8,1.2l2-0.4
		c-0.2-0.9-0.7-1.6-1.4-2.2c-0.7-0.5-1.7-0.8-2.9-0.8c-1,0-1.8,0.2-2.4,0.5c-0.8,0.4-1.5,1.1-1.9,1.9s-0.7,1.7-0.7,2.8
		c0,1,0.2,1.9,0.6,2.7c0.4,0.8,1,1.4,1.8,1.9c0.8,0.4,1.7,0.7,2.7,0.7c0.8,0,1.6-0.2,2.4-0.5c0.8-0.3,1.4-0.7,1.8-1.1v-4h-4.4V44.3z
		"/>
	<path class="st0" d="M220.8,42.5c-0.5-0.2-1.2-0.5-2.2-0.7s-1.6-0.5-1.9-0.7c-0.2-0.2-0.3-0.4-0.3-0.6c0-0.3,0.1-0.5,0.3-0.6
		c0.3-0.2,0.8-0.4,1.4-0.4c0.6,0,1,0.1,1.3,0.3c0.3,0.2,0.5,0.6,0.6,1.1l2-0.1c0-0.9-0.4-1.7-1-2.2s-1.6-0.8-2.8-0.8
		c-0.8,0-1.4,0.1-2,0.3c-0.5,0.2-1,0.6-1.3,1c-0.3,0.4-0.4,0.9-0.4,1.4c0,0.8,0.3,1.5,0.9,2c0.4,0.4,1.2,0.7,2.3,1
		c0.8,0.2,1.4,0.4,1.6,0.4c0.3,0.1,0.6,0.3,0.7,0.4c0.1,0.2,0.2,0.4,0.2,0.6c0,0.4-0.2,0.7-0.5,1c-0.3,0.3-0.8,0.4-1.5,0.4
		c-0.6,0-1.1-0.2-1.5-0.5s-0.6-0.8-0.7-1.5l-2,0.2c0.1,1.1,0.5,2,1.2,2.6c0.7,0.6,1.7,0.9,2.9,0.9c0.9,0,1.6-0.1,2.2-0.4
		c0.6-0.2,1-0.6,1.4-1.1c0.3-0.5,0.5-1,0.5-1.6c0-0.6-0.1-1.2-0.4-1.6C221.7,43.1,221.3,42.7,220.8,42.5z"/>
	<rect x="16" y="43" class="st0" width="16" height="2"/>
	<rect x="16" y="49" class="st0" width="8" height="2"/>
	<rect x="16" y="37" class="st0" width="16" height="2"/>
	<path class="st0" d="M355.6,47.2c0.9-1.2,1.4-2.7,1.4-4.2c0-3.8-3.1-7-6.9-7c0,0-0.1,0-0.1,0c-3.8,0-7,3.1-7,6.9c0,0,0,0.1,0,0.1
		c0,3.8,3.1,7,6.9,7c0,0,0.1,0,0.1,0c1.5,0,3-0.5,4.2-1.4l3.3,3.3l1.4-1.4L355.6,47.2z M355,43c0,2.7-2.2,5-4.9,5c0,0-0.1,0-0.1,0
		c-2.7,0-5-2.2-5-4.9c0,0,0-0.1,0-0.1c0-2.7,2.2-5,4.9-5c0,0,0.1,0,0.1,0C352.7,38,355,40.2,355,43C355,42.9,355,43,355,43z"/>
</g>
</svg>
