<svg xmlns="http://www.w3.org/2000/svg" width="154.536" height="203.702" viewBox="0 0 154.536 203.702">
  <g id="Grupo_4813" data-name="Grupo 4813" transform="translate(-1022.261 -656.969)">
    <g id="Grupo_1128" data-name="Grupo 1128" transform="translate(1142.624 673.492)">
      <g id="Grupo_1127" data-name="Grupo 1127">
        <path id="Caminho_912" data-name="Caminho 912" d="M1143.746,678.536c5.116,4.517,10.441,8.88,15.349,13.622,2.255,2.178,4.643,4.67,5.491,7.775.726,2.656-.384,5.408.49,8.029.564,1.692,1.786,2.759,2.866,4.1a13.78,13.78,0,0,1,3.174,10.026c-.279,2.842-1.688,5.318-2.622,7.962-.392,1.11-2.157,10.462-3.026,9.967-3.357-1.911-6.38,3.265-3.025,5.174,5.967,3.395,9.929-2.646,10.637-7.916,1.123-8.374,6.074-14.9,2.722-23.553-1.468-3.79-4.761-6.118-4.95-10.235-.168-3.637-.607-6.646-2.633-9.8-4.924-7.671-13.487-13.43-20.237-19.388-2.881-2.544-7.135,1.679-4.237,4.237Z" transform="translate(-1142.777 -673.513)"/>
      </g>
    </g>
    <g id="Grupo_1130" data-name="Grupo 1130" transform="translate(1071.621 667.528)">
      <g id="Grupo_1129" data-name="Grupo 1129">
        <path id="Caminho_913" data-name="Caminho 913" d="M1137.519,670.469c-9.133-5.016-21.022-3.572-28.241,4.2-3.955,4.258-5.958,9.814-7.6,15.28-2.159,7.179-4.238,14.3-7.791,20.952-3.136,5.874-7.426,11.573-14.406,12.572-3.857.552-8.453,1.371-7.717,6.552.67,4.708,6.295,7.775,10.34,9.105a22.041,22.041,0,0,0,16.446-1.3c3.491-1.633.451-6.8-3.025-5.174a15.616,15.616,0,0,1-14.433-.508c-.487-.281-3.362-1.864-2.918-2.628a15.651,15.651,0,0,1,2.664-.182,17.021,17.021,0,0,0,4.971-1.4c7.241-3.266,11.814-10.637,15.01-17.584,4-8.706,5.347-18.6,9.726-27.057,4.556-8.8,15.124-12.507,23.953-7.659,3.382,1.857,6.409-3.316,3.024-5.174Z" transform="translate(-1071.684 -667.541)"/>
      </g>
    </g>
    <g id="Grupo_1132" data-name="Grupo 1132" transform="translate(1049.061 656.969)">
      <g id="Grupo_1131" data-name="Grupo 1131">
        <path id="Caminho_914" data-name="Caminho 914" d="M1132.706,668.381c-9.953-9.952-25.321-11.506-38.754-11.408-13.843.1-25.021,10.878-32.276,21.79-13.925,20.943-21.079,60.8,4.5,76.224,3.312,2,6.327-3.184,3.025-5.174-22.135-13.344-14.533-48.737-3.171-66.758,6.568-10.416,16.682-20.37,29.691-20.05,11.382.281,24.253,1.118,32.749,9.612,2.731,2.73,6.968-1.505,4.237-4.237Z" transform="translate(-1049.095 -656.969)"/>
      </g>
    </g>
    <g id="Grupo_1134" data-name="Grupo 1134" transform="translate(1022.261 663.34)">
      <g id="Grupo_1133" data-name="Grupo 1133">
        <path id="Caminho_915" data-name="Caminho 915" d="M1072.272,663.911c-6.7-.707-13.843-1.205-20.216,1.441-6.827,2.834-9.067,8.931-13.77,14.032-4.1,4.442-9.875,7.609-11.526,13.851-1.056,3.992,1.031,8.343-.652,12.165-1.205,2.736-3.468,4.318-3.794,7.521-.55,5.4,3.352,13.1,6.963,16.94,1.917,2.036,5.958,3.047,6.586,5.6.741,3.014-.2,5.72,1.271,8.8,5.708,11.955,21.311,9.872,25.814-1.739,1.4-3.6-4.4-5.156-5.779-1.593-2.426,6.254-10.726,7.648-14.241,1.514-2.209-3.856.333-8.629-2.341-12.177-1.149-1.523-2.479-1.71-4.066-2.5-2.723-1.349-4.246-3.515-5.567-6.17-1.352-2.717-3.313-6.63-2.047-9.7.933-2.256,2.825-3.8,3.472-6.276,1.484-5.673-1.573-10.368,2.917-15.264,2.975-3.246,6.605-5.682,9.287-9.226,3.52-4.65,5.751-9.268,11.786-10.944,5.133-1.425,10.682-.836,15.9-.285,3.831.4,3.8-5.591,0-5.992Z" transform="translate(-1022.261 -663.348)"/>
      </g>
    </g>
    <g id="Grupo_1138" data-name="Grupo 1138" transform="translate(1076.159 672.125)">
      <g id="Grupo_1135" data-name="Grupo 1135" transform="translate(2.996 2.814)">
        <path id="Caminho_916" data-name="Caminho 916" d="M1142.315,676.121c11.809,9.83,15.594,26.561,18.647,42,.881,4.452,1.706,9.342-.369,13.339-.771,1.484-1.955,2.926-1.8,4.607.12,1.3,1.019,2.347,1.724,3.427,3.073,4.705,2.735,10.988,1.354,16.5s-3.678,10.814-4.181,16.485c-.587,6.634.941,14.5-3.742,19.023-2.652,2.564-6.51,3.1-10.1,3.512-11.083,1.275-22.739,2.47-33-2.078-4.583-2.03-8.656-5.121-12.588-8.311-4.061-3.294-8.072-6.779-11.045-11.16-6.113-9.009-7.131-20.617-7.95-31.623a3.113,3.113,0,0,1,.271-1.928,2.514,2.514,0,0,1,1.888-.917c4.958-.62,10.453,2.178,14.73-.509a12.053,12.053,0,0,0,3.516-3.908c9.829-15.484,9.4-36.557,20.406-51.155,2.823-3.745,6.511-7.027,10.953-8.123s9.683.481,12.027,4.57" transform="translate(-1079.228 -674.961)" fill="#f5f5f5"/>
      </g>
      <path id="Caminho_2794" data-name="Caminho 2794" d="M1140.192,678.236c7.72,6.714,11.749,15.922,14.45,25.607,1.246,4.473,2.221,9.021,3.13,13.573.593,2.974,1.405,6.181,1.083,9.237-.3,2.86-2.184,4.722-2.847,7.393-1.023,4.124,2.452,6.7,3.418,10.394,1.517,5.8-.711,11.806-2.37,17.3a52.142,52.142,0,0,0-2.512,13.637c-.172,5.548.928,12.974-5.354,15.556-4.649,1.913-10.991,1.8-15.957,2.082-6.149.35-12.406.195-18.313-1.725-5.463-1.775-10.135-5.219-14.552-8.792-4.721-3.82-9.338-7.918-12.262-13.331a46.628,46.628,0,0,1-4.57-14.838c-.488-3.041-.772-6.111-1.028-9.178a20.876,20.876,0,0,1-.257-3.317c.3-.279,3.5.252,3.722.276,3.989.421,8.043,1.184,11.683-1.044,3.6-2.2,5.78-6.662,7.517-10.334,4.554-9.629,6.456-20.155,9.786-30.21,1.9-5.723,4.316-11.527,8.2-16.216,4.038-4.876,12.521-9.924,17.3-2.93,2.163,3.165,7.358.171,5.174-3.024-6.558-9.6-18.634-7-25.677.536-8.141,8.712-11.153,20.836-14.254,31.988a105.267,105.267,0,0,1-5.7,16.831c-1.2,2.548-2.837,6.7-5.366,8.185-2.991,1.759-7,.235-10.193.068-4.545-.238-7.977.918-8.181,5.874-.249,6.078,1.058,13.089,2.454,18.97,3.108,13.091,11.424,21.709,22.017,29.521,10.813,7.972,22.937,9.552,36.054,8.419,5.639-.486,12.559-.484,17.467-3.682,4.2-2.74,5.687-7.531,6.1-12.289.53-6.164.238-11.775,1.988-17.808,1.89-6.508,4.256-12.942,3.286-19.831-.385-2.734-1.633-4.652-2.523-7.158-1.329-3.748.959-5.894,1.544-9.666,1.009-6.507-1.246-13.754-2.7-20.043-2.935-12.667-7.425-25.5-17.51-34.272-2.9-2.521-7.153,1.7-4.238,4.238Z" transform="translate(-1076.227 -672.144)"/>
    </g>
    <g id="Grupo_1143" data-name="Grupo 1143" transform="translate(1127.947 723.135)">
      <path id="Caminho_920" data-name="Caminho 920" d="M1128.555,723.219a10.425,10.425,0,0,0-.224,5.181c.508,1.668,2.233,3.067,3.823,2.51a3.088,3.088,0,0,0,1.784-3.225,5.024,5.024,0,0,0-1.992-3.314,2.723,2.723,0,0,0-2.251-.715,1.376,1.376,0,0,0-.9,1.937" transform="translate(-1128.081 -723.219)"/>
    </g>
    <g id="Grupo_1147" data-name="Grupo 1147" transform="translate(1145.249 728.248)">
      <g id="Grupo_1144" data-name="Grupo 1144" transform="translate(2.952 3.037)">
        <path id="Caminho_921" data-name="Caminho 921" d="M1148.36,748.294a33.78,33.78,0,0,0,12.142.546,2.349,2.349,0,0,0,1.518-.616,2.17,2.17,0,0,0,.413-1.43c.013-2.974-2.147-5.439-4.168-7.567l-7.45-7.846" transform="translate(-1148.36 -731.38)" fill="#f5f5f5"/>
      </g>
      <g id="Grupo_1146" data-name="Grupo 1146">
        <g id="Grupo_1145" data-name="Grupo 1145">
          <path id="Caminho_922" data-name="Caminho 922" d="M1147.559,751.179c4.666.983,16.777,3.386,17.781-3.623.444-3.105-1.231-6.026-3.1-8.349-2.833-3.514-6.2-6.677-9.308-9.949-2.66-2.8-6.893,1.439-4.236,4.237,3.209,3.381,7.358,6.733,9.828,10.706l.657,1.247q.415,2.214.182.939c.526-.223-2.131-.258-2.508-.248a32.924,32.924,0,0,1-7.7-.739c-3.762-.792-5.37,4.984-1.593,5.779Z" transform="translate(-1145.405 -728.339)"/>
        </g>
      </g>
    </g>
    <g id="Grupo_1148" data-name="Grupo 1148" transform="translate(1155.881 721.418)">
      <path id="Caminho_923" data-name="Caminho 923" d="M1156.521,722.265c-.586,1.612-.877,3.972.674,4.565,1.242.477,2.564-1.006,2.408-2.377a3.979,3.979,0,0,0-2.519-2.953" transform="translate(-1156.051 -721.5)"/>
    </g>
    <g id="Grupo_1152" data-name="Grupo 1152" transform="translate(1121.429 708.616)">
      <g id="Grupo_1149" data-name="Grupo 1149" transform="translate(2.831 2.954)">
        <path id="Caminho_924" data-name="Caminho 924" d="M1136.634,713.38a10.688,10.688,0,0,0-12.245.385" transform="translate(-1124.389 -711.639)" fill="#f5f5f5"/>
      </g>
      <g id="Grupo_1151" data-name="Grupo 1151">
        <g id="Grupo_1150" data-name="Grupo 1150">
          <path id="Caminho_925" data-name="Caminho 925" d="M1138.142,710.789a13.837,13.837,0,0,0-15.269.386c-3.12,2.213-.13,7.412,3.024,5.173a7.959,7.959,0,0,1,9.22-.385c3.285,2.04,6.3-3.141,3.024-5.174Z" transform="translate(-1121.555 -708.681)"/>
        </g>
      </g>
    </g>
    <g id="Grupo_1156" data-name="Grupo 1156" transform="translate(1150.085 712.077)">
      <g id="Grupo_1153" data-name="Grupo 1153" transform="translate(2.971 3.011)">
        <path id="Caminho_926" data-name="Caminho 926" d="M1153.222,715.291a8.285,8.285,0,0,0,4.985-.129" transform="translate(-1153.222 -715.162)" fill="#f5f5f5"/>
      </g>
      <g id="Grupo_1155" data-name="Grupo 1155">
        <g id="Grupo_1154" data-name="Grupo 1154">
          <path id="Caminho_927" data-name="Caminho 927" d="M1152.422,718.177a11.678,11.678,0,0,0,6.577-.129,3.06,3.06,0,0,0,2.093-3.685,3.029,3.029,0,0,0-3.686-2.092,5.49,5.49,0,0,1-3.391.128,3,3,0,0,0-1.593,5.779Z" transform="translate(-1150.247 -712.147)"/>
        </g>
      </g>
    </g>
    <g id="Grupo_1160" data-name="Grupo 1160" transform="translate(1133.606 758.055)">
      <g id="Grupo_1157" data-name="Grupo 1157" transform="translate(2.866 2.929)">
        <path id="Caminho_928" data-name="Caminho 928" d="M1136.616,765.543c2.338.259,4.821.492,6.934-.585,1.974-1.007,3.741-3.147,5.889-2.662.582.132,1.116.458,1.7.561,1.3.229,2.507-.643,3.692-1.242s2.854-.83,3.614.294" transform="translate(-1136.616 -761.116)" fill="#f5f5f5"/>
      </g>
      <g id="Grupo_1159" data-name="Grupo 1159">
        <g id="Grupo_1158" data-name="Grupo 1158">
          <path id="Caminho_929" data-name="Caminho 929" d="M1136.612,768.536c4.265.427,6.726-.345,10.373-2.239,1.686-.876,2.412-.462,4.153-.446.371,0,5.584-1.5,5.188-1.827,2.934,2.466,7.2-1.752,4.238-4.238a5.588,5.588,0,0,0-4.775-1.536,12.108,12.108,0,0,0-2.112.623,9.4,9.4,0,0,1-3.843.477,8.519,8.519,0,0,0-4.92,1.127c-3.073,1.77-4.669,2.43-8.3,2.066-3.834-.384-3.807,5.612,0,5.992Z" transform="translate(-1133.747 -758.183)"/>
        </g>
      </g>
    </g>
    <g id="Grupo_1164" data-name="Grupo 1164" transform="translate(1142.286 766.326)">
      <g id="Grupo_1161" data-name="Grupo 1161" transform="translate(2.907 3.02)">
        <path id="Caminho_930" data-name="Caminho 930" d="M1145.349,769.488a24.133,24.133,0,0,0,9.125.935" transform="translate(-1145.349 -769.488)" fill="#f5f5f5"/>
      </g>
      <g id="Grupo_1163" data-name="Grupo 1163">
        <g id="Grupo_1162" data-name="Grupo 1162">
          <path id="Caminho_931" data-name="Caminho 931" d="M1144.548,772.374a28.18,28.18,0,0,0,9.922,1.042c3.82-.291,3.852-6.285,0-5.992a23.218,23.218,0,0,1-8.329-.828c-3.713-1.066-5.3,4.715-1.593,5.779Z" transform="translate(-1142.438 -766.464)"/>
        </g>
      </g>
    </g>
    <g id="Grupo_1168" data-name="Grupo 1168" transform="translate(1132.293 670.916)">
      <g id="Grupo_1165" data-name="Grupo 1165" transform="translate(2.894 2.996)">
        <path id="Caminho_932" data-name="Caminho 932" d="M1135.33,673.934" transform="translate(-1135.33 -673.934)" fill="#f5f5f5"/>
      </g>
      <g id="Grupo_1167" data-name="Grupo 1167">
        <g id="Grupo_1166" data-name="Grupo 1166">
          <path id="Caminho_933" data-name="Caminho 933" d="M1135.326,676.927c3.856,0,3.862-5.992,0-5.992s-3.862,5.992,0,5.992Z" transform="translate(-1132.432 -670.934)"/>
        </g>
      </g>
    </g>
    <g id="Grupo_1180" data-name="Grupo 1180" transform="translate(1061.127 754.05)">
      <g id="Grupo_1177" data-name="Grupo 1177" transform="translate(3.079 2.846)">
        <path id="Caminho_938" data-name="Caminho 938" d="M1070.408,757.022a120.486,120.486,0,0,1-6.149,57.747" transform="translate(-1064.259 -757.022)" fill="#f5f5f5"/>
      </g>
      <g id="Grupo_1179" data-name="Grupo 1179">
        <g id="Grupo_1178" data-name="Grupo 1178">
          <path id="Caminho_939" data-name="Caminho 939" d="M1067.408,757.018a121.149,121.149,0,0,1-6.042,56.95c-1.3,3.637,4.485,5.2,5.779,1.593a125.134,125.134,0,0,0,6.256-58.543c-.5-3.769-6.494-3.819-5.992,0Z" transform="translate(-1061.176 -754.173)"/>
        </g>
      </g>
    </g>
    <g id="Grupo_1184" data-name="Grupo 1184" transform="translate(1130.944 795.113)">
      <g id="Grupo_1181" data-name="Grupo 1181" transform="translate(2.889 2.943)">
        <path id="Caminho_940" data-name="Caminho 940" d="M1134.41,798.234c-1,3.036-.083,6.359.852,9.418,1.537,5.031,3.115,10.053,5.022,14.944" transform="translate(-1133.974 -798.234)" fill="#f5f5f5"/>
      </g>
      <g id="Grupo_1183" data-name="Grupo 1183">
        <g id="Grupo_1182" data-name="Grupo 1182">
          <path id="Caminho_941" data-name="Caminho 941" d="M1131.516,797.434c-1.911,8.393,2.924,18.222,5.874,25.954,1.36,3.567,7.156,2.02,5.779-1.593-1.354-3.548-2.58-7.135-3.724-10.756-1.193-3.773-3.059-8.016-2.149-12.012.855-3.754-4.921-5.357-5.779-1.593Z" transform="translate(-1131.082 -795.288)"/>
        </g>
      </g>
    </g>
    <g id="Grupo_1188" data-name="Grupo 1188" transform="translate(1024.078 805.914)">
      <g id="Grupo_1185" data-name="Grupo 1185" transform="translate(3.04 3.052)">
        <path id="Caminho_942" data-name="Caminho 942" d="M1066.294,804.153a178.494,178.494,0,0,1-22.847,12.075c-6.187,2.716-13.013,5.5-16.323,11.6" transform="translate(-1027.124 -804.153)" fill="#f5f5f5"/>
      </g>
      <g id="Grupo_1187" data-name="Grupo 1187">
        <g id="Grupo_1186" data-name="Grupo 1186">
          <path id="Caminho_943" data-name="Caminho 943" d="M1064.779,801.561a201.634,201.634,0,0,1-24.181,12.66c-6.371,2.833-12.336,5.937-16.063,12.088-2,3.307,3.176,6.322,5.173,3.024,3.721-6.14,10.714-8.456,16.933-11.272a187.224,187.224,0,0,0,21.163-11.326c3.275-2.022.269-7.209-3.025-5.174Z" transform="translate(-1024.081 -801.097)"/>
        </g>
      </g>
    </g>
    <g id="Grupo_1192" data-name="Grupo 1192" transform="translate(1134.793 812.441)">
      <g id="Grupo_1189" data-name="Grupo 1189" transform="translate(2.88 3.046)">
        <path id="Caminho_944" data-name="Caminho 944" d="M1137.819,815.687a259.271,259.271,0,0,0,26.283,6.988" transform="translate(-1137.819 -815.687)" fill="#f5f5f5"/>
      </g>
      <g id="Grupo_1191" data-name="Grupo 1191">
        <g id="Grupo_1190" data-name="Grupo 1190">
          <path id="Caminho_945" data-name="Caminho 945" d="M1137.019,818.573q12.977,4.136,26.283,6.987c3.76.806,5.367-4.97,1.593-5.778q-13.318-2.854-26.283-6.988c-3.683-1.173-5.259,4.61-1.593,5.779Z" transform="translate(-1134.935 -812.638)"/>
        </g>
      </g>
    </g>
    <g id="Grupo_1196" data-name="Grupo 1196" transform="translate(1046.165 816.547)">
      <g id="Grupo_1193" data-name="Grupo 1193" transform="translate(2.956 2.885)">
        <path id="Caminho_946" data-name="Caminho 946" d="M1044.278,815.633a50.548,50.548,0,0,0,13.613,38.188" transform="translate(-1044.149 -815.633)" fill="#f5f5f5"/>
      </g>
      <g id="Grupo_1195" data-name="Grupo 1195">
        <g id="Grupo_1194" data-name="Grupo 1194">
          <path id="Caminho_947" data-name="Caminho 947" d="M1041.278,815.629a54.412,54.412,0,0,0,14.491,40.306c2.633,2.829,6.864-1.416,4.238-4.238a48.406,48.406,0,0,1-12.736-36.068c.217-3.853-5.776-3.841-5.992,0Z" transform="translate(-1041.189 -812.744)"/>
        </g>
      </g>
    </g>
    <g id="Grupo_1200" data-name="Grupo 1200" transform="translate(1060.817 810.747)">
      <g id="Grupo_1197" data-name="Grupo 1197" transform="translate(2.976 2.942)">
        <path id="Caminho_948" data-name="Caminho 948" d="M1048.827,813.888c2.773,12.323,6.342,24.851,13.9,34.748,2.656,3.477,6.275,6.79,10.532,6.653" transform="translate(-1048.827 -813.888)" fill="#f5f5f5"/>
      </g>
      <g id="Grupo_1199" data-name="Grupo 1199">
        <g id="Grupo_1198" data-name="Grupo 1198">
          <path id="Caminho_949" data-name="Caminho 949" d="M1045.934,814.681c2.219,9.73,4.854,19.51,9.632,28.341,3.764,6.959,9.079,14.78,17.694,15.259,3.853.215,3.841-5.779,0-5.992-7.4-.41-12.187-11.034-14.764-16.873-3.145-7.13-5.055-14.754-6.782-22.328-.858-3.759-6.637-2.168-5.779,1.593Z" transform="translate(-1045.847 -810.942)"/>
        </g>
      </g>
    </g>
    <g id="Grupo_1208" data-name="Grupo 1208" transform="translate(1123.48 820.339)">
      <g id="Grupo_1205" data-name="Grupo 1205" transform="translate(2.909 2.964)">
        <path id="Caminho_952" data-name="Caminho 952" d="M1155.575,823.513c1.028,4.026-.992,8.166-3.141,11.676-6.188,10.107-14.748,19.533-25.913,22.37" transform="translate(-1126.521 -823.513)" fill="#f5f5f5"/>
      </g>
      <g id="Grupo_1207" data-name="Grupo 1207">
        <g id="Grupo_1206" data-name="Grupo 1206">
          <path id="Caminho_953" data-name="Caminho 953" d="M1152.682,824.306c1.094,6.664-6.093,14.839-10.218,19.385-4.631,5.1-10.058,9.087-16.744,10.974-3.705,1.047-2.13,6.83,1.593,5.779,8.666-2.446,15.768-7.96,21.412-14.871,5.229-6.4,11.162-14.167,9.736-22.86-.623-3.8-6.4-2.186-5.779,1.593Z" transform="translate(-1123.608 -820.546)"/>
        </g>
      </g>
    </g>
    <g id="Grupo_1212" data-name="Grupo 1212" transform="translate(1052.29 657.986)">
      <g id="Grupo_1209" data-name="Grupo 1209" transform="translate(2.841 3.025)">
        <path id="Caminho_954" data-name="Caminho 954" d="M1063.676,750.208c-2.013-8.966.469-18.522,4.941-26.459s10.8-14.525,17.111-20.961c12.431-12.684,25.886-25.639,42.781-29.912,1.414-.358,3.08-.864,3.529-2.309-6-7.618-16.278-10.6-25.63-9.225s-17.847,6.566-25.091,12.894c-10.654,9.307-19.213,21.469-23.388,35.3s-3.747,29.347,2.27,42.418" transform="translate(-1055.173 -661.016)"/>
      </g>
      <g id="Grupo_1211" data-name="Grupo 1211">
        <g id="Grupo_1210" data-name="Grupo 1210">
          <path id="Caminho_955" data-name="Caminho 955" d="M1066.561,749.407c-3.967-20.572,13.35-36.8,26.6-49.847,6.529-6.431,13.384-12.647,21.258-17.4a55.874,55.874,0,0,1,12.536-5.734c3.092-.945,5.932-1.394,7.671-4.349a3.094,3.094,0,0,0-.469-3.631c-18.272-21.748-47.967-5.425-62.783,11.463-17.677,20.149-24.823,48.422-13.763,73.556,1.55,3.522,6.715.475,5.174-3.024-9.655-21.942-3.242-47.265,11.792-65.094,12.577-14.916,38.847-32.3,55.343-12.663l-.469-3.63c-.781,1.326-4.224,1.614-5.634,2.094a61.948,61.948,0,0,0-5.976,2.4,72.808,72.808,0,0,0-12.584,7.549c-7.861,5.78-14.832,12.618-21.647,19.571-13.382,13.652-26.766,29.882-22.822,50.335.729,3.782,6.506,2.181,5.778-1.593Z" transform="translate(-1052.328 -657.987)"/>
        </g>
      </g>
    </g>
    <g id="Grupo_1216" data-name="Grupo 1216" transform="translate(1122.232 660.942)">
      <g id="Grupo_1213" data-name="Grupo 1213" transform="translate(2.972 2.985)">
        <path id="Caminho_956" data-name="Caminho 956" d="M1125.751,664.37l-.416-.433" transform="translate(-1125.335 -663.936)" fill="#f5f5f5"/>
      </g>
      <g id="Grupo_1215" data-name="Grupo 1215">
        <g id="Grupo_1214" data-name="Grupo 1214">
          <path id="Caminho_957" data-name="Caminho 957" d="M1127.866,662.247l-.417-.434a3.025,3.025,0,0,0-4.237,0,3.055,3.055,0,0,0,0,4.238l.415.434a3.026,3.026,0,0,0,4.238,0,3.057,3.057,0,0,0,0-4.238Z" transform="translate(-1122.359 -660.947)"/>
        </g>
      </g>
    </g>
    <g id="Grupo_1204" data-name="Grupo 1204" transform="translate(1113.058 819.524)">
      <g id="Grupo_1201" data-name="Grupo 1201" transform="translate(2.961 2.876)">
        <path id="Caminho_950" data-name="Caminho 950" d="M1150.292,822.609c-.738,12.575-8.839,24.367-20.014,29.129a14.642,14.642,0,0,1-4.128,1.2" transform="translate(-1126.15 -822.609)" fill="#f5f5f5"/>
      </g>
      <g id="Grupo_1203" data-name="Grupo 1203">
        <g id="Grupo_1202" data-name="Grupo 1202">
          <path id="Caminho_951" data-name="Caminho 951" d="M1147.292,822.605c-.971,11.949-9.413,25.188-21.942,27.435-3.789.68-2.183,6.457,1.593,5.779,15.237-2.733,25.171-18.8,26.342-33.214.313-3.844-5.682-3.824-5.992,0Z" transform="translate(-1123.186 -819.73)"/>
        </g>
      </g>
    </g>
    <g id="Grupo_1142" data-name="Grupo 1142" transform="translate(1058.27 723.324)">
      <g id="Grupo_1139" data-name="Grupo 1139" transform="translate(2.983 2.977)">
        <path id="Caminho_918" data-name="Caminho 918" d="M1080.59,738.624c-1.487-5.562-7.018-9.623-12.535-9.2a3.246,3.246,0,0,0-1.467.385,3.4,3.4,0,0,0-1.172,1.509c-1.819,3.856-1.234,8.568.545,12.444s4.624,7.09,7.427,10.24c1.624,1.825,3.363,3.727,5.652,4.43" transform="translate(-1064.306 -729.392)" fill="#f5f5f5"/>
      </g>
      <g id="Grupo_1141" data-name="Grupo 1141">
        <g id="Grupo_1140" data-name="Grupo 1140">
          <path id="Caminho_919" data-name="Caminho 919" d="M1083.476,737.824c-1.686-5.045-5.309-9.264-10.551-10.816-4.635-1.371-8.925-.543-10.688,4.251-2.064,5.612-.415,11.884,2.65,16.8,2.955,4.743,7.377,10.724,12.637,12.953,3.51,1.488,6.568-3.672,3.024-5.173-5.122-2.171-10.413-9.261-12.31-14.37-.817-2.2-2.294-8.255,1.191-9.07,3.657-.856,7.362,4.3,8.269,7.015,1.216,3.639,7.005,2.079,5.779-1.593Z" transform="translate(-1061.319 -726.411)"/>
        </g>
      </g>
    </g>
  </g>
</svg>
