<svg xmlns="http://www.w3.org/2000/svg" width="75.75" height="74.771" viewBox="0 0 75.75 74.771">
  <g id="Grupo_109" data-name="Grupo 109" transform="translate(-1434.039 -2493.181)">
    <path id="Caminho_341" data-name="Caminho 341" d="M42.952-4.754C64.8-5.971,77.789,9.935,77.789,32.006S56.052,52.876,38.718,64.157,2.039,50.233,2.039,28.162,21.1-3.536,42.952-4.754Z" transform="translate(1432 2498)" fill="#04bfcb"/>
    <g id="Grupo_108" data-name="Grupo 108" transform="translate(1448.24 2496.609)">
      <path id="Caminho_340" data-name="Caminho 340" d="M1458.934,2509.722h-4.34l-1.776,1.712,1.776,4.1-3.675,2.692-1.542,1.126,3.441,4.325-1.9,2.969-1.542,1.674,3.441,2.048-1.9,5.949,3.675,1.369v3.345l2.279,3.274v27.661l16.936-12.485,15.212,11.468-1.638-29.919h4.254v-3.345l-.914-3.034,3.489-3.09,1.547-3.242-2.292-1.674-1.829-2.969,2.574-2.837-.745-2.614-1.829-.885V2512.4l-4.254-.966-3.614-1.712-1.924-3.332-2.424,1.987-2.09-4.167-3.521,4.167-2.24-4.167-4.171,4.167-2.953-1.064-2.606-3.1-1.781,4.167Z" transform="translate(-1448.488 -2502.506)" fill="#fff"/>
      <g id="Grupo_100" data-name="Grupo 100">
        <path id="Caminho_308" data-name="Caminho 308" d="M202.486,237.344h0a.179.179,0,0,0-.016-.06c-.022-.184.193-.387-.044-.554h0c-.052-.163-.242-.023-.313-.143h0c.05-.1-.031-.158-.076-.227a1.691,1.691,0,0,0-.6-1.979,3.458,3.458,0,0,0-.829-.675l-.468-.364-.117-.173c-.123-.074-.245-.151-.37-.223-.479-.276-.562-.483-.393-1,.038-.116.088-.229.133-.343h0a.089.089,0,0,0,.011-.052c.1-.422.645-.613.6-1.112.294,0,.307-.272.425-.443a2.2,2.2,0,0,0,.328-.66h0a1.146,1.146,0,0,0,.072-.858,2.676,2.676,0,0,1,.007-.677c.008-.159-.194-.339.06-.48.036-.02.02-.17,0-.252-.066-.236-.147-.468-.222-.7h0a1.19,1.19,0,0,1-.129-.224,2.265,2.265,0,0,0-1.652-1.464,2.953,2.953,0,0,0-.742-.05c-.214-.009-.391-.061-.419-.315l-.094-.45h0c0-.074.007-.148.011-.223h0a5.826,5.826,0,0,0,.524-1.664,3.24,3.24,0,0,0,.249-1.745c0-.112-.152-.219-.068-.376.253-.471-.294-.771-.265-1.2h-.151l-.068-.158a1.651,1.651,0,0,0-.992-.972,11.729,11.729,0,0,0-1.2-.083c-.039.022-.079.042-.119.06a.123.123,0,0,1,.119-.06,1.172,1.172,0,0,0-.711.127l-.016,0c-.007,0-.018.015-.027.024l-.92.283a8.605,8.605,0,0,1-1.43.166c-.337-.01-.426-.425-.749-.459-.179-.109-.289-.3-.488-.392a.289.289,0,0,1-.147-.406.95.95,0,0,0,.017-.329h0c.039-.517-.387-.962-.23-1.5.016-.056-.071-.091-.136-.1l0,0a1.834,1.834,0,0,0-.24-.946c-.067-.082-.129-.254-.25-.146-.206.182-.251-.046-.364-.1l-.438-.537c-.175-.128-.24-.364-.45-.458h0a.2.2,0,0,0-.105-.033l-.417-.131h0a.545.545,0,0,0-.493,0,2.514,2.514,0,0,0-.5.33c-.413.261-.8.564-1.2.834-.176.118-.231.441-.536.359-.077-.139-.01-.328-.157-.442h0c-.144-.149-.058-.4-.225-.534h0c-.022-.142-.238-.139-.227-.305,0-.3-.166-.411-.448-.384.074-.161.108-.278-.12-.377-.277-.12-.319-.469-.535-.683-.145-.144-.249-.357-.456-.465h0a1.438,1.438,0,0,0-1.609.022.5.5,0,0,0-.263.427c0,.065,0,.134-.077.146-.459.067-.626.465-.894.759s-.327.757-.794.847h0c-.3-.324-.388-.8-.774-1.054h0c-.129-.223-.057-.53-.281-.711a2.072,2.072,0,0,1-.525-.683,1.4,1.4,0,0,0-.783-.806,1.515,1.515,0,0,0-1.524.386h0c-.062.3-.382.283-.55.461a10.841,10.841,0,0,0-1.791,2.743,1.3,1.3,0,0,1-.53.661,4.235,4.235,0,0,0-.426.135c-.146.063-.409-.1-.426.08-.019.205.29-.007.388.149-.6.342-.889.225-1.255-.32a6.738,6.738,0,0,0-.566-.9c-.322-.349-.607-.734-.907-1.1-.13-.116-.2-.343-.451-.235h0c-.282-.341-.75-.309-1.091-.544a.728.728,0,0,0-.488-.2,3.2,3.2,0,0,0-1.141.394,2.534,2.534,0,0,0-1.438,2.243,8.831,8.831,0,0,1-.248,1.407c-.214.677-.824.885-1.427,1.075a.955.955,0,0,1-.4-.073,8.385,8.385,0,0,0-2.421-.5,1.359,1.359,0,0,0-1.009.229c-.4.349-.9.525-1.321.839a1.689,1.689,0,0,0-.339.291c-.387.472-.493,1.1-.9,1.552a.233.233,0,0,0-.063.276c.165.242.051.443-.043.665-.054.127-.135.276.022.414a8.32,8.32,0,0,1,1.213,1.525,1,1,0,0,1-.175,1.551,3.7,3.7,0,0,1-.482.287,15.8,15.8,0,0,0-2,1.177,10.769,10.769,0,0,0-1.119,1.14,2.576,2.576,0,0,0-.648,2.68,3.251,3.251,0,0,0,.458.671c0,.014,0,.019,0,.021a.063.063,0,0,0,.076.051h0c.017.044.021.106.053.13.471.343.975.634,1.433,1,.521.418.689.788.469,1.317a2.413,2.413,0,0,1-.7.838,3.378,3.378,0,0,0-1.326,1.878,7.922,7.922,0,0,0-.235,2.342.894.894,0,0,0,.661.8,13.922,13.922,0,0,1,2.011.6c.652.326.772.664.44,1.322-.295.583-.688,1.1-1.024,1.658-.167.275-.206.63-.374.856a3.163,3.163,0,0,0-.508,1.039,5.1,5.1,0,0,0,.026,1.565,1.032,1.032,0,0,0,.681.9,7.442,7.442,0,0,0,2.036.314.591.591,0,0,0,.254-.065,2.75,2.75,0,0,1,1.359-.072c.193.027.221.156.182.337a6.131,6.131,0,0,1-.6,1.395c-.064.159-.2.286-.214.466h0a3.782,3.782,0,0,0-.091,2.769.81.81,0,0,0,.087.206,2.423,2.423,0,0,0,1.983,1.333c.132.012.208.049.134.218a2.087,2.087,0,0,0-.058.405c-.117.572.09,1.132.018,1.721a20.453,20.453,0,0,0,.012,2.594c.007,1.079.014,2.158,0,3.237-.015,1.015-.053,2.029-.095,3.043-.018.424.056.849.032,1.26-.028.484-.071.974-.092,1.458-.06,1.409-.075,2.819-.107,4.229.01.173.032.347.026.52-.039,1.161-.085,2.321-.128,3.482h0c-.042.522-.073,1.045-.129,1.565-.106.986-.075,1.981-.2,2.968a4.106,4.106,0,0,0-.106,1.407c.024.114.017.262.17.236.245-.04.288.016.16.224a.127.127,0,0,0,.027.171,1.385,1.385,0,0,0,.922.367c.2,0,.4-.618.593,0a.8.8,0,0,1,.781-.162c.126.025.386-.268.568-.448a9.964,9.964,0,0,0,.849-1.035,22.148,22.148,0,0,1,3.273-3.34c.585-.493,1.287-.829,1.852-1.347.29-.267.66-.406.955-.68a4.652,4.652,0,0,1,.783-.457,3.986,3.986,0,0,0,.906-.654.65.65,0,0,1,.568-.255.448.448,0,0,1,.238-.258,3.858,3.858,0,0,0,.916-.588,2.308,2.308,0,0,1,.7-.456,24.183,24.183,0,0,0,2.892-1.706c.675-.423.847-.5,1.484-.017.069.052.139.1.209.154h0c.212.152.413.32.636.451a20.106,20.106,0,0,1,2.568,1.8c.454.373.932.7,1.41,1.034,1.094.762,2.233,1.465,3.29,2.274s2.148,1.542,3.246,2.272,2.246,1.423,3.381,2.115a.913.913,0,0,0,.632.215c.529-.086.7-.7,1.215-.812.123-.027-.07-.286.1-.384.1,0,.079.076.093.132.03.12.1.108.134.016.052-.124-.031-.217-.119-.293s-.163-.116-.24-.178a.935.935,0,0,1-.157-.152c-.054-.07-.11-.163-.02-.233s.179-.028.25.069c.1.133.1.127.282.093a.884.884,0,0,0-.472-.483.411.411,0,0,1-.243-.355c-.116-.879-.272-1.755-.327-2.638a19.4,19.4,0,0,0-.2-2.6c-.113-.57-.043-1.153-.136-1.737a23.091,23.091,0,0,1-.145-2.348c-.056-1.033-.1-2.068-.169-3.1a19.537,19.537,0,0,1,.068-2.807,1.342,1.342,0,0,0-.075-.736.547.547,0,0,1-.057-.329,11.344,11.344,0,0,0,.062-2.336c-.067-1.138-.041-2.276-.08-3.413-.012-.349-.024-.7-.062-1.05a14.15,14.15,0,0,1-.166-3.837h0a6.194,6.194,0,0,1,.893,0,2.928,2.928,0,0,0,1.295-.168h0a1.332,1.332,0,0,1,.261-.139,2.518,2.518,0,0,0,1.775-1.756h0a.884.884,0,0,0,.143-.837c.1-.1-.184-.2,0-.309.316-.133.414-.413.2-.613-.125-.117-.051-.192.019-.274a.361.361,0,0,0-.215-.617h0a1.574,1.574,0,0,0-.152-.6c.043-.243-.029-.414-.291-.465h0a1.548,1.548,0,0,0-.516-.833,1.066,1.066,0,0,1,.21-1.126h0c.492-.421,1.061-.745,1.523-1.206.286-.216.562-.445.86-.643a3.748,3.748,0,0,0,1.1-1.026.874.874,0,0,0,.359-.537h0a.5.5,0,0,0,.244-.3l.3-.46c.3-.32.131-.83.465-1.135Zm-2.334-3.461.005.009Zm-2.278-14.505.066-.047A.114.114,0,0,1,197.873,219.378Zm-7.895-3.723c.01-.024.02-.047.03-.073.007.023.015.042.022.061C190.012,215.647,189.994,215.65,189.979,215.655Zm5.1,1.941a.816.816,0,0,1-.082-.014A.15.15,0,0,1,195.077,217.6Zm-29.5-.817c.046,0,.06.042.06.092A.48.48,0,0,0,165.58,216.778Zm12.089,49.206a.626.626,0,0,1-.188.294c-.618.69-1.552.9-2.232,1.481a9.671,9.671,0,0,1-1.512.925c-.721.416-1.41.881-2.078,1.361-.375.269-.763.585-1.141.809-.824.488-1.539,1.1-2.312,1.647a15.888,15.888,0,0,0-1.539,1.177c-.723.654-1.445,1.318-2.117,2.027a5.835,5.835,0,0,1-.886.955c-.1.07-.125.393-.375.139-.042-.042-.063.136-.113.211-.091-.3.121-.538.167-.806a18.375,18.375,0,0,0,.183-2.663c.02-.755.074-1.512.053-2.266-.085-3.017.152-6.031.084-9.048-.023-1.031.064-2.063-.033-3.094-.016-.17.032-.346.032-.519,0-.1.054-.24-.131-.257a.093.093,0,0,1-.068-.143c.373-.465.087-.985.087-1.464,0-.833-.043-1.673-.073-2.507-.029-.811-.044-1.629-.039-2.444,0-.082-.036-.187.073-.231s.172.06.246.124a2.605,2.605,0,0,1,.763,1.483,6.956,6.956,0,0,0,1.153,2.193,1.863,1.863,0,0,0,1.616.9h0c.095.125.224.083.345.068.259-.032.518-.069.777-.107.073-.011.163-.052.188.049.076.31.217.126.33.042.037-.028.031-.14.112-.1.408.223.7-.124,1.049-.2.438-.058.446-.071.239-.364h0c.266-.382.711-.592.951-1.006a.438.438,0,0,1,.408-.208h0a1.2,1.2,0,0,1,.681-.151l.469-.01a1.111,1.111,0,0,1,.684.412c.415.438.892.806,1.292,1.27a1.548,1.548,0,0,0,1.064.508,4.046,4.046,0,0,1,1.1.4h0l-.2.1a.292.292,0,0,0,.41.058,21.574,21.574,0,0,1,.166,2.736c.1,1.361.157,2.725.291,4.085A6.273,6.273,0,0,1,177.669,265.985Zm14.924,9.5a9.081,9.081,0,0,1-.971-.469.318.318,0,0,0-.156-.038.224.224,0,0,0-.267-.112.24.24,0,0,1-.019-.036.917.917,0,0,0-.321-.311,10.959,10.959,0,0,1-1.966-1.42,1.686,1.686,0,0,0-.24-.183c-.987-.729-2.054-1.337-3.019-2.1-1.228-.978-2.578-1.8-3.781-2.814a.518.518,0,0,0-.325-.178.227.227,0,0,1-.017-.032.23.23,0,0,0-.044-.06,3.334,3.334,0,0,0-.779-.705.424.424,0,0,1-.23-.476,11.479,11.479,0,0,0-.092-3.418c-.075-.6-.126-1.2-.161-1.8-.075-1.306-.14-2.612-.26-3.916a.428.428,0,0,0-.086-.191,1.02,1.02,0,0,0-.066-.307.288.288,0,0,1,.03-.055.818.818,0,0,1,.037-.667l.01-.037c.183-.082.35-.177.315-.416l.026-.03a.643.643,0,0,0,.08-.135c0-.011,0-.02,0-.03a.856.856,0,0,0,.322-.446l.023-.017a.22.22,0,0,0,.021-.067.99.99,0,0,0,.115-.768.2.2,0,0,0,.031-.062c0-.012,0-.022,0-.034.1-.143.325-.221.31-.429l.057-.039a1.242,1.242,0,0,1,1.531.137.7.7,0,0,0,.3.155c.013.039.057.026.1.007l.138.078c0,.015-.007.03-.012.048-.007.166.128.237.229.324a6.066,6.066,0,0,0,2.142,1.161,2,2,0,0,0,.214.009,2.96,2.96,0,0,0,1.231.2c.964.065.988-.068,1.041-.415.058.084-.059.214.061.255.093.032.154-.055.219-.116s.136-.107.2-.16a2.821,2.821,0,0,0,.5-.494.449.449,0,0,0,.048,0,1.04,1.04,0,0,0,.484-.737v0a.051.051,0,0,1,.014.006,3.267,3.267,0,0,0,.241-.708,4.919,4.919,0,0,0,.034-1.726c0-.016.008-.032.012-.048.025-.047.05-.094.074-.141l.013-.028H190c.089-.149.26-.263.239-.458.013-.014.023-.029.037-.042a.217.217,0,0,0,.048-.136,1.907,1.907,0,0,1,1.155-.559.157.157,0,0,0,.1-.058l.148.034c.205.084.209.269.207.445a13.917,13.917,0,0,0,.084,2.037c.106.778.038,1.561.09,2.34a33.857,33.857,0,0,1,0,4.153,13.823,13.823,0,0,0-.136,1.461c.068,1.268.034,2.533.034,3.8,0,.2.075.4.069.6a18.5,18.5,0,0,0-.059,2.7c.1.89.119,1.8.185,2.692.073.99.131,1.982.207,2.972a4.234,4.234,0,0,0,.122,1.157A2.039,2.039,0,0,1,192.593,275.486ZM187.5,252.831c0,.008,0,.015.005.023l-.016,0A.061.061,0,0,1,187.5,252.831Zm1.4,1.621a.069.069,0,0,1-.023.042C188.894,254.48,188.9,254.466,188.909,254.452Zm-2.426.667a.1.1,0,0,1-.094-.112A.815.815,0,0,0,186.483,255.119Zm-.145.52c.005.012.009.024.015.037l-.038-.024A.1.1,0,0,0,186.338,255.639Zm5.582-8.145a3.549,3.549,0,0,0-3.873,2.254,8.7,8.7,0,0,0-.6,2.72.281.281,0,0,1,.038.1c-.1.076-.039.193-.055.29h0a.691.691,0,0,1-.759.376c.006-.013.011-.027.015-.04-.065-.126-.173-.117-.286-.089a.3.3,0,0,0-.061.037l-.386-.136a.224.224,0,0,0-.018-.05,2.646,2.646,0,0,0-.916-.507c-.02,0-.038,0-.057,0a5.676,5.676,0,0,0-.758-.582s0,0,0,0a.194.194,0,0,0-.165-.181l-.037,0a.441.441,0,0,0-.254-.181.413.413,0,0,1,0-.064.457.457,0,0,0-.483-.28.175.175,0,0,0-.018.013,1.649,1.649,0,0,0-.457-.216.3.3,0,0,0-.056-.1,2.728,2.728,0,0,0-1.843-.267c-.157.023-.348.058-.416.247l-.008,0a.215.215,0,0,0-.148.015,3.209,3.209,0,0,0-1.6,1.919,3.181,3.181,0,0,1-.364.868c-.374.607-.676.713-1.319.411a5.686,5.686,0,0,1-1.888-1c-.049-.051-.139-.057-.206-.092l-.074-.053a.343.343,0,0,0-.259-.351.488.488,0,0,1-.01-.077,1.568,1.568,0,0,0-.643-.566,2.829,2.829,0,0,0-2.908-.195,6.749,6.749,0,0,0-1.929,1.554,1.528,1.528,0,0,1-1.151.6.485.485,0,0,1-.51-.244,3.681,3.681,0,0,0-1.088-1.323c-.026-.018-.053-.035-.081-.052a5.466,5.466,0,0,0-.226-.518l-.044.074a1.542,1.542,0,0,0-.578-1.343,1.9,1.9,0,0,1-.283-.351,2.28,2.28,0,0,0-1.61-.936,2.831,2.831,0,0,0-1.493.287,1.313,1.313,0,0,1-.871.153h0a13,13,0,0,1,.465-1.885l.066-.1c.2-.222,0-.534.169-.762-.008-.01-.013-.019-.019-.028a.292.292,0,0,0,.14-.244.112.112,0,0,0,.064-.079.819.819,0,0,0,.1-.193c0-.005,0-.01.005-.015.267-.128.283-.174.075-.347,0-.03,0-.059.005-.09-.012-.326.167-.645.052-.971a2.61,2.61,0,0,0-2.363-1.589,10.049,10.049,0,0,0-1.391.123,2.1,2.1,0,0,1-.715,0c-.191-.023-.233-.1-.12-.274a13.991,13.991,0,0,0,1.07-1.991c-.007-.015-.008-.028-.013-.043a.563.563,0,0,0,.281-.531l.038-.027a1.991,1.991,0,0,1,.3-.941,1.128,1.128,0,0,0,.172-.564c0-.016,0-.033,0-.049.189.035.281-.031.215-.266-.024-.086-.039-.174-.057-.262a.454.454,0,0,1,.064-.047.989.989,0,0,0-.1-.768,3.272,3.272,0,0,0-.9-1.144,5.471,5.471,0,0,0-1.871-.868c-.37-.1-.39-.16-.31-.539a2.705,2.705,0,0,1,1-1.422c.309-.276.689-.511.814-.922s.308-.81.414-1.238a2.376,2.376,0,0,0-.091-1.456,3.848,3.848,0,0,0-.866-1.13,14.6,14.6,0,0,0-1.342-1.217.517.517,0,0,1-.078-.823,1.552,1.552,0,0,1,.271-.314,6.056,6.056,0,0,1,2.135-1.381,1.273,1.273,0,0,0,.331-.179,5.249,5.249,0,0,0,1.488-1.431,1.81,1.81,0,0,0,.21-2.132c-.3-.509-.5-1.076-.845-1.558a1.318,1.318,0,0,1-.081-1.582,1.376,1.376,0,0,1,1.321-.8,5.377,5.377,0,0,1,2.45.518,3.408,3.408,0,0,0,.524.215.564.564,0,0,0,.764-.34c.013-.047.023-.094.035-.141a.055.055,0,0,1,.044,0c.113.041.261.232.33.019s-.206-.1-.291-.2l-.007,0c.146-.208.47-.2.567-.469,0,0,0,0,0,0a.687.687,0,0,0,.386-.281l.021.019c.29-.107.322-.394.432-.626.019-.092.036-.183.062-.273a1.377,1.377,0,0,0,.059-.168.541.541,0,0,0,.036-.161,3.967,3.967,0,0,0,.01-.869.259.259,0,0,0,.028-.011c.145-.357.443-.616.581-.989a.77.77,0,0,1,1.188-.419,5.06,5.06,0,0,1,1.127,1.493,2.948,2.948,0,0,0,2.108,1.725.26.26,0,0,0,.305-.08.172.172,0,0,0,.012-.02,2.516,2.516,0,0,0,1.535-.271c.027,0,.053.008.08.014a.316.316,0,0,0,.324-.258.184.184,0,0,0,0-.019.441.441,0,0,0,.252-.148l.04.025a2.658,2.658,0,0,0,1.029-1.194c.3-.488.489-1.039.8-1.523a.521.521,0,0,1,.025-.053.437.437,0,0,0,.438-.262l.041,0c.172-.174.317-.39.6-.4a.4.4,0,0,0,.214.218l-.009,0a3.314,3.314,0,0,0,.734,1.387h.033c.071.2.3.3.37.508a.2.2,0,0,0-.025.1.788.788,0,0,0,.286.436c.344.256.589.689,1.089.683a2.359,2.359,0,0,0,1.942-1.145c.227-.335.486-.644.727-.964s.58-.273.709.118a4.507,4.507,0,0,1,.473,1.571.205.205,0,0,0,.113.184c.159.1.208.283.323.407.2.223.19.623.566.7a.749.749,0,0,1,.447.018l.037.014a.332.332,0,0,0,.09.032.6.6,0,0,0,.159.031,1.576,1.576,0,0,0,1.166-.6l.077-.021a.4.4,0,0,0,.124-.1.359.359,0,0,0,.026-.047c.123-.025.249-.044.312-.18a.105.105,0,0,0,.019.01c.311.031.449-.236.634-.4a.6.6,0,0,1,.705-.167.08.08,0,0,0,.009.087l.02.007c.077.173.074.4.289.479,0,.029.009.059.015.087.029.143.048.289.088.429s-.016.308.192.338l.006.012c-.01,0-.017-.005-.028-.006a1.025,1.025,0,0,0,.038.749c.037.047.071.1.1.147a2.986,2.986,0,0,0,.171.777h0l.277.877a.248.248,0,0,0,.027.152,1.224,1.224,0,0,0,.353.387,4.968,4.968,0,0,0,3.224.849.542.542,0,0,0,.5-.206.2.2,0,0,0,.019.014.937.937,0,0,0,.76-.136,1.923,1.923,0,0,1,1.059-.185c.41.008.606.3.562.709-.047.44-.218.85-.263,1.288,0,.026-.008.054-.01.08-.2.191-.151.453-.148.7l0,0a.215.215,0,0,0-.052.1,1.482,1.482,0,0,0-.053.325c-.007.018-.011.037-.016.055a.211.211,0,0,0-.093.172,2.736,2.736,0,0,0-.066.771s0,.006,0,.009l0,.006a.57.57,0,0,0,0,.3,2.932,2.932,0,0,0,.294,1.129h0a.692.692,0,0,1,.163.395c.01.13.039.272.213.295.028.068.058.134.14.151h0a2.775,2.775,0,0,0,1.215.665h0l.133.007s0,.007,0,.011c.155.177.386.148.582.212.117.038.308.059.288.187-.05.322.157.664-.074.968-.027-.073-.029-.176-.158-.119a.741.741,0,0,0-.259.7c-.015.025-.03.051-.045.076a5.655,5.655,0,0,0-1,2.853,2.307,2.307,0,0,0,.027.687c.118.361.394.667.353,1.084-.007.067.068.132.132.176h.034c.008.265.26.386.363.6l.4.434.362.243h0l1.257.9c.014.031.028.061.041.093.07.137,0,.267-.018.4s-.091.278-.008.416c-.214.071-.309.268-.427.432a4.707,4.707,0,0,1-.913.952,22.148,22.148,0,0,0-2.525,2.149,7.184,7.184,0,0,0-.807,1.025,1.224,1.224,0,0,0-.208.756,5.748,5.748,0,0,0,.772,2.458,2.507,2.507,0,0,1,.463,1.375.432.432,0,0,0,.049.238l-.038.083a1.268,1.268,0,0,1-1.15.944l-.485.079A7.974,7.974,0,0,1,191.92,247.494Z" transform="translate(-153.981 -209.713)" fill="#040405"/>
        <path id="Caminho_309" data-name="Caminho 309" d="M347.471,228.256c.018.009.083-.026.085-.045.022-.211-.167-.283-.277-.408-.015-.017-.043-.021-.065-.03l-.092.036C347.219,227.97,347.273,228.159,347.471,228.256Z" transform="translate(-311.172 -224.412)" fill="#040405"/>
        <path id="Caminho_310" data-name="Caminho 310" d="M347.511,434.181h0l0,0Z" transform="translate(-311.486 -392.401)" fill="#040405"/>
        <path id="Caminho_311" data-name="Caminho 311" d="M226.708,280.952c-.194-.555.145-1.121,0-1.765-.15.333.028.634-.188.892-.016-.142-.028-.253-.04-.363h0q.005-.4.011-.8c.017-.168.264-.17.246-.387a2.672,2.672,0,0,0-.156-.957.537.537,0,0,1-.068-.361,1.914,1.914,0,0,0-.083-.95h0a9.676,9.676,0,0,0-.392-2.039c-.114-.315-.014-.663-.188-.977-.186-.335-.321-.7-.474-1.053-.2-.466-.095-1.015-.375-1.457a3.53,3.53,0,0,1-.5-1.117c-.089-.414-.526-.616-.543-1.045-.323-.058-.069-.435-.248-.5-.3-.113-.38-.378-.548-.585a.6.6,0,0,0-.2-.342l-.765-.8h0c-.1-.239-.1-.57-.475-.586h0l-.43-.328c-.164-.279-.487-.376-.691-.608a.652.652,0,0,0-.82-.23.263.263,0,0,0-.027-.047c.036-.162.061-.319-.158-.372-.24.017-.42-.2-.663-.172h0c-.4-.161-.8-.332-1.206-.481-.481-.177-.963-.358-1.456-.5a7.414,7.414,0,0,0-2.1-.532.539.539,0,0,0-.083-.029,8.332,8.332,0,0,0-3.668-.148c-.319.031-.6.213-.937.219a3.25,3.25,0,0,0-.852.093,11.359,11.359,0,0,0-2.661,1.084,18.113,18.113,0,0,0-3.335,2.324,1.27,1.27,0,0,1-.358.2,5,5,0,0,0-2.167,1.421A18.567,18.567,0,0,0,198,270.065a10.6,10.6,0,0,0-1.987,4.694,16.259,16.259,0,0,0-.082,4.217,11.718,11.718,0,0,0,1.028,3.97,18.657,18.657,0,0,0,.879,1.689,8.15,8.15,0,0,0,2.717,3.07,19.873,19.873,0,0,0,2.327,1.327c.119.1-.28.23.03.341.444.16.864.388,1.311.532a21.98,21.98,0,0,0,2.831.722,12.328,12.328,0,0,0,1.928.248.268.268,0,0,0,.085.023,14.831,14.831,0,0,0,1.531.192h0a2.894,2.894,0,0,0,1.28-.133,2.34,2.34,0,0,0,.91.292,5.342,5.342,0,0,0,1.744-.163h0c.651.1,1.245-.266,1.888-.225a10.756,10.756,0,0,0,1.667-.45l.222,0c.174-.042.487.035.266-.333-.055-.092.113-.114.115-.2h0c.175.17.357.329.624.2.176-.084.345-.181.518-.272.143-.029.289-.052.429-.09s.258-.1.177-.286a5.158,5.158,0,0,0,1.045-.543.149.149,0,0,1-.126-.011.981.981,0,0,1,.126.011l.011.009c.251-.273.649-.313.906-.577.062-.064.159-.074.229-.116.261-.157.584-.234.746-.531h0c.011-.048.029-.137.032-.137.291.05.407-.254.641-.314h0c.016-.083.162-.027.149-.14h0a.389.389,0,0,1,.166-.311,1.22,1.22,0,0,0,.687-.906h0a1.125,1.125,0,0,1,.037-.242c.324.22.309-.154.454-.243.254-.156.219-.291.027-.467-.158-.145-.132-.2.072-.267s.509-.3.488-.338c-.163-.3.116-.486.142-.725a.558.558,0,0,0-.084-.44c-.141-.127-.16.193-.316.16.077-.343.313-.361.6-.317.089.014.356.042.256-.111-.233-.357-.038-.624.074-.919.023-.062.064-.131.012-.171C226.5,281.543,226.632,281.245,226.708,280.952Zm-.407-4.913h0Zm.317,4.871v0c0,.017,0,.034,0,.051l-.015.008C226.61,280.948,226.614,280.929,226.618,280.91Zm-13.29-17.962a1.242,1.242,0,0,0-.144.026A.155.155,0,0,1,213.328,262.948Zm-9.068,3.45a.163.163,0,0,1-.009-.022c.007,0,.012,0,.019,0ZM215.5,288.206a6.982,6.982,0,0,1-2.823.424c-.864-.075-1.73-.138-2.595-.2a16.243,16.243,0,0,1-4.905-1.3c-.735-.293-1.445-.66-2.183-.945a5.412,5.412,0,0,1-3.1-2.827c-.056-.12-.08-.275-.253-.3l-.056-.007a.887.887,0,0,0,.1-.044.509.509,0,0,0-.016-.368c-.2-.49-.3-1.009-.478-1.507a9.184,9.184,0,0,1-.455-2.469,12.818,12.818,0,0,1,.111-1.531.521.521,0,0,0-.12-.07.241.241,0,0,1,.065.022c.258-.183.142-.469.2-.707.244-.94.705-1.8,1-2.725.145-.446.311-.884.467-1.326l.146-.309h0l.6-.874c.008,0,.015,0,.024.005a2.139,2.139,0,0,0,.559-.482.563.563,0,0,0,.033-.112c.023-.023.045-.041.062-.037.157.034-.006.2.107.283a.879.879,0,0,0,.219-.177.3.3,0,0,0,.1-.048c.389-.4.578-.942.983-1.335a14.063,14.063,0,0,1,2.583-2.085,15.08,15.08,0,0,1,4.647-1.822,10.4,10.4,0,0,1,4.381.022,9.669,9.669,0,0,1,4.293,2.193,18.274,18.274,0,0,1,2.847,3.218,11.54,11.54,0,0,1,1.589,4.169,9.183,9.183,0,0,1,.038,3.566,15.931,15.931,0,0,1-1.443,4.519,1.255,1.255,0,0,0-.242.7l.011.007h0s0,.007,0,.011c-.291.1-.354.349-.4.61l0,.01c-.184.049-.264.218-.366.355a8.079,8.079,0,0,1-2.454,2.082A17.072,17.072,0,0,1,215.5,288.206Z" transform="translate(-188.046 -252.413)" fill="#040405"/>
        <path id="Caminho_312" data-name="Caminho 312" d="M347.564,434.655c.05-.261.05-.264-.091-.431C347.484,434.363,347.4,434.526,347.564,434.655Z" transform="translate(-311.448 -392.436)" fill="#040405"/>
        <path id="Caminho_313" data-name="Caminho 313" d="M347.511,434.182l0,0,0,0S347.511,434.185,347.511,434.182Z" transform="translate(-311.486 -392.402)" fill="#040405"/>
        <path id="Caminho_314" data-name="Caminho 314" d="M255.884,305.355c-.016-.208-.076-.414-.1-.627-.033-.275-.275-.3-.517-.209-.013.005-.051-.021-.059-.04-.092-.22-.284-.239-.483-.31-.154-.055-.394-.014-.484-.227a5.259,5.259,0,0,1,.01-.692c.125-.883.044-1.773.115-2.658.073-.921.077-1.848.112-2.772a10.72,10.72,0,0,0,.057-1.453h0c-.139-.269.008-.535.009-.8,0-1.345,0-2.689-.006-4.034a1.767,1.767,0,0,0-.62-1.392.8.8,0,0,0-.582-.166,2.394,2.394,0,0,1-1.666-.174.291.291,0,0,0-.185-.016,2.116,2.116,0,0,0-1.276.45,3.734,3.734,0,0,1-.583.391c-.38.213-.753.441-1.142.637-.651.327-1.211.8-1.847,1.149a15.383,15.383,0,0,0-1.819,1.116c-.5.374-.943.814-1.478,1.148a1.045,1.045,0,0,0-.5,1.3c.173.442.1.955.45,1.348.213.238.3.59.519.821a2.1,2.1,0,0,1,.448.731,1.787,1.787,0,0,0,1.238.917,1.04,1.04,0,0,0,.734-.331c.092-.087.345.015.284-.252a.451.451,0,0,1,.347-.578c-.046-.161-.341-.225-.218-.35.171-.175.277-.407.5-.543.522-.322,1.035-.659,1.548-1,.077-.051.145-.109.236-.054s.071.137.064.231c-.084,1.2-.4,2.361-.524,3.557-.112,1.082-.353,2.152-.413,3.243-.053.029-.1.061-.16.087-.509.237-1.083.047-1.6.244-.232.089-.645.047-.689.108-.24.33-.6.608-.552,1.117a5.751,5.751,0,0,1-.153,1.859c-.067.289.065.329.27.362a.6.6,0,0,0,.362-.059c0,.259.07.494.289.5.369.009.715.174,1.072.153a16.492,16.492,0,0,1,2.652.22c.325.033.657.326,1,.026.042-.037.119,0,.152.071.131.264.4.2.6.2.548.014,1.09.064,1.678.121a.829.829,0,0,1-.556.259c.286-.041.669.215.812-.273.02-.069.117.059.179.073.126.026.262.265.376.044s.309-.213.483-.2c.419.027.812.042,1.051-.4.033-.061.152-.077.234-.108s.186-.063.2-.152c.084-.407.348-.776.242-1.226A8.948,8.948,0,0,1,255.884,305.355Z" transform="translate(-226.24 -274.873)" fill="#04bfcb"/>
      </g>
    </g>
  </g>
</svg>
