<svg xmlns="http://www.w3.org/2000/svg" width="161.897" height="51.698" viewBox="0 0 161.897 51.698">
  <g id="kiper" transform="translate(0 0)">
    <path id="Caminho_193" data-name="Caminho 193" d="M1066.074,653.355,1044.647,668.5l-21.425-15.146a1.179,1.179,0,0,0-1.86.964v32.835a2.356,2.356,0,0,0,1,1.926l22.289,15.756,22.289-15.756a2.354,2.354,0,0,0,1-1.926V654.319A1.179,1.179,0,0,0,1066.074,653.355Zm-4.387,31.327a2.361,2.361,0,0,1-1,1.927l-16.042,11.34-16.04-11.34a2.358,2.358,0,0,1-1-1.927v-5.531l17.038,12.045,17.039-12.045Zm0-12.044a2.361,2.361,0,0,1-1,1.926L1044.647,685.9l-16.04-11.339a2.357,2.357,0,0,1-1-1.926v-7.751l17.038,12.045,17.039-12.045Z" transform="translate(-1021.362 -653.137)" fill="#fff"/>
    <rect id="Ret창ngulo_10" data-name="Ret창ngulo 10" width="4.818" height="28.004" rx="0.617" transform="translate(87.172 13.256)" fill="#fff"/>
    <rect id="Ret창ngulo_11" data-name="Ret창ngulo 11" width="4.818" height="4.818" rx="0.617" transform="translate(87.172 4.926)" fill="#fff"/>
    <path id="Caminho_194" data-name="Caminho 194" d="M1089.937,665.807l-13.715,11.132v-18.9a.727.727,0,0,0-.728-.728h-3.362a.727.727,0,0,0-.728.728V692.92a.727.727,0,0,0,.728.728h3.362a.727.727,0,0,0,.728-.728v-9.777l3.428-2.782,15.183,12.323a.727.727,0,0,0,1.187-.565V687.79a.728.728,0,0,0-.269-.566l-12.278-9.966,12.716-10.321a.728.728,0,0,0-.459-1.294H1090.4A.728.728,0,0,0,1089.937,665.807Z" transform="translate(-1012.387 -652.388)" fill="#fff"/>
    <path id="Caminho_195" data-name="Caminho 195" d="M1114.47,663.952c-6.887,0-12.471,6.494-12.471,14.5h0v21.8a.727.727,0,0,0,.728.728h3.362a.727.727,0,0,0,.728-.728v-10.37a11.354,11.354,0,0,0,7.653,3.069c6.889,0,12.472-6.494,12.472-14.5S1121.359,663.952,1114.47,663.952Zm0,24.19c-4.227,0-7.653-4.336-7.653-9.686s3.426-9.686,7.653-9.686,7.654,4.336,7.654,9.686S1118.7,688.142,1114.47,688.142Z" transform="translate(-1006.899 -651.197)" fill="#fff"/>
    <path id="Caminho_196" data-name="Caminho 196" d="M1137.208,663.952c-6.888,0-12.471,6.494-12.471,14.5s5.583,14.5,12.471,14.5c5,0,9.295-3.422,11.284-8.356a.725.725,0,0,0-.685-.979h-3.7a.727.727,0,0,0-.633.383,7.33,7.33,0,0,1-6.265,4.134c-3.643,0-6.686-3.226-7.458-7.541h19.778a16.872,16.872,0,0,0,.152-2.145C1149.679,670.446,1144.095,663.952,1137.208,663.952Zm-7.351,11.831c.917-4.049,3.858-7.014,7.351-7.014s6.434,2.965,7.352,7.014Z" transform="translate(-1002.821 -651.197)" fill="#fff"/>
    <path id="Caminho_197" data-name="Caminho 197" d="M1159.919,663.867h0a12.4,12.4,0,0,0-7.651,2.645V665.2a.729.729,0,0,0-.727-.729h-3.363a.728.728,0,0,0-.727.729v18.744h0v7.8a.727.727,0,0,0,.727.728h3.363a.728.728,0,0,0,.727-.728V676.338a7.653,7.653,0,0,1,7.653-7.653.727.727,0,0,0,.727-.728V664.6A.729.729,0,0,0,1159.919,663.867Z" transform="translate(-998.748 -651.213)" fill="#fff"/>
  </g>
</svg>
