<svg xmlns="http://www.w3.org/2000/svg" width="180.777" height="52.599" viewBox="0 0 180.777 52.599">
  <g id="leigado" transform="translate(0 0)">
    <path id="Caminho_81" data-name="Caminho 81" d="M1290.223,411.621q0,3.744-1.894,3.744t-1.894-3.744q0-3.744,1.894-3.744t1.894,3.744" transform="translate(-1267.01 -389.592)" fill="#fff"/>
    <path id="Caminho_82" data-name="Caminho 82" d="M1290.923,428.695q0,2.51-1.277,2.511t-1.277-2.511q0-2.512,1.277-2.511t1.277,2.511" transform="translate(-1266.785 -387.461)" fill="#fff"/>
    <path id="Caminho_83" data-name="Caminho 83" d="M1302.4,428.695q0,2.51-1.277,2.511t-1.277-2.511q0-2.512,1.277-2.511t1.277,2.511" transform="translate(-1265.449 -387.461)" fill="#fff"/>
    <path id="Caminho_84" data-name="Caminho 84" d="M1324.4,413c-1.146,1.805-4.933,2.554-6.695,2.731a19.118,19.118,0,0,0-1.013-4.492,1.653,1.653,0,0,1,.749-.308,3.785,3.785,0,0,1,3.347.881.885.885,0,0,0,.572.175.939.939,0,0,0,.793-.4.98.98,0,0,0-.22-1.365,5.591,5.591,0,0,0-5.2-1.1,3.3,3.3,0,0,0-.792.352c-.22-.44-.441-.881-.706-1.321a16.434,16.434,0,0,1,3.26-.484,7.463,7.463,0,0,1,3.612.528,4.134,4.134,0,0,1,2.334,2.379A2.54,2.54,0,0,1,1324.4,413m-9.735-11.144a19.655,19.655,0,0,1-1.894,3.039,18.026,18.026,0,0,0-4.229-3.259,38.922,38.922,0,0,0,4.581-3.392c1.19-1.014,2.291-1.982,3.172-2.775a14.3,14.3,0,0,1-1.63,6.387m-2.114,27.353a6.917,6.917,0,0,1-.573,1.145,11.433,11.433,0,0,0-2.026-2.2,14.117,14.117,0,0,0-4.449-2.511,21.574,21.574,0,0,0-7.18-1.1,22.113,22.113,0,0,0-7.268,1.1,15.5,15.5,0,0,0-4.625,2.467A13.332,13.332,0,0,0,1284.5,430c-.132-.265-.263-.528-.4-.836a28.528,28.528,0,0,1-2.378-7.885c-.792-5.461.4-10.395,3.435-13.918a15.382,15.382,0,0,1,5.638-4.184,18.717,18.717,0,0,1,7.532-1.542,17.208,17.208,0,0,1,2.158.132c-.22.749,21.495.4,12.069,27.441m-4.1,6.43a17.971,17.971,0,0,1-4.933,4.229,10.662,10.662,0,0,1-5.241,1.5,9.148,9.148,0,0,1-2.644-.4,12.085,12.085,0,0,1-2.6-1.1,19.467,19.467,0,0,1-4.933-4.229,28.635,28.635,0,0,1-2.643-3.743,10.488,10.488,0,0,1,2.247-2.334c2.6-2.026,6.254-3.083,10.571-3.083s7.884,1.057,10.307,3.039a8.514,8.514,0,0,1,2.291,2.775,27.1,27.1,0,0,1-2.423,3.347m-27.794-26.119a4.973,4.973,0,0,0-.969-.441,5.737,5.737,0,0,0-5.2,1.1.981.981,0,0,0-.22,1.365.942.942,0,0,0,.794.4.971.971,0,0,0,.572-.176,3.954,3.954,0,0,1,3.347-.881,4.543,4.543,0,0,1,.925.441,20.245,20.245,0,0,0-.969,4.36c-1.674-.132-5.726-.881-6.915-2.73a2.55,2.55,0,0,1-.043-2.511,4.134,4.134,0,0,1,2.334-2.379,8.923,8.923,0,0,1,3.612-.528,17.621,17.621,0,0,1,3.435.528c-.263.528-.483.969-.7,1.454m-1.365-14.006c.881.793,1.938,1.762,3.127,2.731a36.222,36.222,0,0,0,5.11,3.7,18.2,18.2,0,0,0-4.229,3.523,18.475,18.475,0,0,1-2.378-3.655,13.819,13.819,0,0,1-1.63-6.3m28.893,13.655c1.455,0,2.557,1.893,2.557,4.36,0,2.511-1.1,4.362-2.557,4.362s-2.554-1.895-2.554-4.362,1.1-4.36,2.554-4.36m18.676.352a6.625,6.625,0,0,0-3.788-3.833,10.847,10.847,0,0,0-4.8-.7,17.131,17.131,0,0,0-2.732.353c.441-.661.881-1.41,1.366-2.291a15.466,15.466,0,0,0,1.585-10.571,1.266,1.266,0,0,0-2.114-.616c-.045.044-2.29,2.246-4.89,4.405-3.832,3.171-5.417,3.832-5.99,4.008a21.539,21.539,0,0,0-7.18-1.234,21.015,21.015,0,0,0-7.443,1.321,1.52,1.52,0,0,0-.617-.087c-.043,0-1.322.044-6.167-4.008-2.6-2.159-4.844-4.405-4.889-4.405a1.329,1.329,0,0,0-2.2.661,15.614,15.614,0,0,0,1.586,10.615,22.208,22.208,0,0,0,1.233,2.114c-.572-.088-1.144-.132-1.718-.176a10.833,10.833,0,0,0-4.8.7,6.889,6.889,0,0,0-3.788,3.833,5.14,5.14,0,0,0,.265,4.889c.968,1.542,2.864,2.687,5.593,3.393a21.13,21.13,0,0,0,3.436.572,21.986,21.986,0,0,0,.263,3.348,32.113,32.113,0,0,0,2.6,8.588,31.023,31.023,0,0,0,4.448,7,22.5,22.5,0,0,0,5.594,4.844,12.863,12.863,0,0,0,6.519,1.851,14.156,14.156,0,0,0,3.3-.441,13.554,13.554,0,0,0,3.215-1.365,20.794,20.794,0,0,0,5.594-4.845,30.957,30.957,0,0,0,4.448-7,30.626,30.626,0,0,0,2.6-8.59,21.844,21.844,0,0,0,.263-3.347,20.034,20.034,0,0,0,3.216-.573c2.731-.706,4.624-1.85,5.594-3.392a5.14,5.14,0,0,0,.4-5.022" transform="translate(-1269.035 -391.498)" fill="#fff"/>
    <path id="Caminho_85" data-name="Caminho 85" d="M1306.2,411.621q0,3.744-1.894,3.744t-1.895-3.744q0-3.744,1.895-3.744t1.894,3.744" transform="translate(-1265.15 -389.592)" fill="#fff"/>
    <path id="Caminho_86" data-name="Caminho 86" d="M1438.971,417.349a8.732,8.732,0,0,0-.41-2.775,5.87,5.87,0,0,0-1.176-2.087,5.058,5.058,0,0,0-1.865-1.313,6.979,6.979,0,0,0-4.96,0,5.093,5.093,0,0,0-1.878,1.313,5.9,5.9,0,0,0-1.19,2.087,9.475,9.475,0,0,0,0,5.55,5.828,5.828,0,0,0,1.19,2.08,5.146,5.146,0,0,0,1.878,1.307,7,7,0,0,0,4.96,0,5.11,5.11,0,0,0,1.865-1.307,5.8,5.8,0,0,0,1.176-2.08,8.73,8.73,0,0,0,.41-2.774m3.588,0a10.433,10.433,0,0,1-.69,3.828,9.065,9.065,0,0,1-1.936,3.048,8.8,8.8,0,0,1-3,2.008,10.852,10.852,0,0,1-7.78,0,8.828,8.828,0,0,1-3.015-2.008,9.03,9.03,0,0,1-1.944-3.048,10.984,10.984,0,0,1,0-7.657,9.03,9.03,0,0,1,1.944-3.048,8.828,8.828,0,0,1,3.015-2.008,10.179,10.179,0,0,1,3.893-.721,10.044,10.044,0,0,1,3.887.728,8.9,8.9,0,0,1,3,2.008,8.992,8.992,0,0,1,1.936,3.041,10.431,10.431,0,0,1,.69,3.829m-24.347,0a8.636,8.636,0,0,0-.415-2.775,5.893,5.893,0,0,0-1.183-2.081,5.108,5.108,0,0,0-1.865-1.306,6.432,6.432,0,0,0-2.476-.454h-3.653v13.233h3.653a6.432,6.432,0,0,0,2.476-.454,5.1,5.1,0,0,0,1.865-1.307,5.877,5.877,0,0,0,1.183-2.08,8.634,8.634,0,0,0,.415-2.774m3.575,0a10.167,10.167,0,0,1-.689,3.795,8.514,8.514,0,0,1-4.94,4.914,10.559,10.559,0,0,1-3.886.689H1405.1v-18.8h7.175a10.469,10.469,0,0,1,3.886.7,8.822,8.822,0,0,1,3,1.937,8.638,8.638,0,0,1,1.936,2.971,10.169,10.169,0,0,1,.689,3.8m-30.793,2.3h5.992L1394.7,413.4q-.156-.417-.344-.981t-.371-1.229q-.182.663-.358,1.235c-.116.382-.232.716-.344,1Zm12.167,7.1h-2.7a1.179,1.179,0,0,1-.747-.228,1.3,1.3,0,0,1-.423-.565l-1.4-3.836H1390.1l-1.4,3.836a1.231,1.231,0,0,1-.41.545,1.149,1.149,0,0,1-.748.248h-2.716l7.383-18.8h3.574Zm-26.686-2.574a8.154,8.154,0,0,0,3.73-.8v-3.42h-2.352a.731.731,0,0,1-.533-.189.613.613,0,0,1-.2-.461v-1.976h6.253v7.6a10.457,10.457,0,0,1-1.489.9,9.5,9.5,0,0,1-1.651.631,12.889,12.889,0,0,1-1.878.371,17.848,17.848,0,0,1-2.158.123,9.806,9.806,0,0,1-3.782-.714,8.882,8.882,0,0,1-4.959-5.03,10.291,10.291,0,0,1-.709-3.861,10.627,10.627,0,0,1,.689-3.887,8.555,8.555,0,0,1,5.03-5.018,11.127,11.127,0,0,1,4.056-.7,10.588,10.588,0,0,1,3.984.682,9.193,9.193,0,0,1,2.854,1.775l-1.014,1.585a.9.9,0,0,1-.794.481,1.18,1.18,0,0,1-.636-.208q-.415-.248-.852-.495a5.658,5.658,0,0,0-.961-.429,7.849,7.849,0,0,0-1.183-.3,8.69,8.69,0,0,0-1.514-.117,6.494,6.494,0,0,0-2.515.468,5.334,5.334,0,0,0-1.918,1.34,6.042,6.042,0,0,0-1.222,2.092,8.208,8.208,0,0,0-.429,2.731,8.518,8.518,0,0,0,.456,2.891,6.049,6.049,0,0,0,1.274,2.138,5.5,5.5,0,0,0,1.949,1.333,6.472,6.472,0,0,0,2.471.461m-12.855,2.574h-3.51v-18.8h3.51Zm-6.969-18.8v2.782h-8.332v5.212h6.563v2.691h-6.563v5.317h8.332v2.794h-11.855v-18.8Zm-21.8,15.911h7.527v2.886h-11.023v-18.8h3.5Z" transform="translate(-1261.782 -389.607)" fill="#fff"/>
  </g>
</svg>
