<svg xmlns="http://www.w3.org/2000/svg" width="175.95" height="59.983" viewBox="0 0 175.95 59.983">
  <g id="sponte" transform="translate(0 0)">
    <g id="Grupo_69" data-name="Grupo 69">
      <g id="Grupo_66" data-name="Grupo 66">
        <path id="Caminho_198" data-name="Caminho 198" d="M1345.753,700.817c5.4-1,11.008-2.193,16.767-3.591q4.793-1.164,9.439-2.44l-.4-.738c-5.969,1.837-12.216,3.558-18.649,5.121q-3.624.878-7.161,1.648Zm34.47-8.42q4.373-1.329,8.541-2.736v-1.5q-4.05,1.541-8.377,3.023l-.164,1.211Zm14.385-4.779q4.437-1.607,8.554-3.278V682.1c-2.692,1.261-5.551,2.515-8.554,3.75v1.764Zm14.277-5.694q.862-.381,1.7-.76h-1.7v.76Zm10.805-5.216c11.957-6.383,19.226-12.725,19.226-17.739,0-10.26-30.41-11.308-69.241-2.814,34.125-6.311,59.634-4.642,59.634,4.755a8.743,8.743,0,0,1-2.094,5.1h0l.01.042h0l0,.01,0,.006.007.024v.011l.007.031h0l.008.032h0v.012l.016.081h0v.006l.012.076v.015l0,.021v.075h0l0,.011v.021h0v.01l0,.034v.164a2.456,2.456,0,0,1-.4,1.364,2.758,2.758,0,0,1-1.065.96,3.075,3.075,0,0,1-1.445.351h-.129l-.031,0h-.012c-.05,0-.1-.006-.149-.012a58.559,58.559,0,0,1-8.672,6.265h4.282v1.086Zm7.039-10.082v.072a2.148,2.148,0,0,1-.309,1.135,2.175,2.175,0,0,1-.843.8l-.016.008h0l-.014.006,0,0-.012.006,0,0-.009,0-.008,0-.035.017h0l-.013.006h0l-.016.007h0l-.015.007h0l-.012,0,0,0-.011,0-.009,0-.016.007-.007,0-.011,0,0,0-.014,0h0l-.046.019h0l-.036.013-.007,0-.01,0-.017,0h0l-.015.006h0l-.016,0h0l-.028.01h-.006l-.01,0h-.007l-.01,0-.009,0h-.006l-.012,0,0,0c-.042.011-.084.022-.126.031l0,0c-.04.01-.083.016-.126.023l-.006,0h-.017c-.049.007-.1.013-.145.017h-.011l-.03,0h-.036l-.024,0h-.007c.245-.231.484-.462.714-.689h.548l-.229-.33Q1426.209,667.259,1426.731,666.627Z" transform="translate(-1262.967 -650.455)" fill="#fff" fill-rule="evenodd"/>
        <path id="Caminho_199" data-name="Caminho 199" d="M1371.177,658.325c-4.232.784-8.593,1.687-13.058,2.715q.306.127.607.268,2.617-.684,5.28-1.328,3.629-.881,7.171-1.654Zm-36.732,9.118q-1.462.458-2.9.923a8.647,8.647,0,0,1,.288,1.141l-.077.138c.482-.175.97-.351,1.459-.524q.57-.86,1.231-1.678Zm-8.284,2.724q-3.261,1.125-6.37,2.289v1.893q3.2-1.366,6.646-2.7v-.094a3.251,3.251,0,0,0-.276-1.383Zm-12.137,4.531q-4.169,1.683-7.965,3.407c.078.074.144.142.2.2a15.636,15.636,0,0,1,1.483,1.715q2.966-1.554,6.283-3.1V674.7Zm-13.658,6.117c-13.818,6.921-22.365,13.923-22.365,19.366,0,10.259,30.408,11.3,69.238,2.813-34.122,6.31-59.629,4.639-59.629-4.754,0-2.413,1.684-5.134,4.759-8.019a15.552,15.552,0,0,1-1.916-2.981l4.84-2.923a11.637,11.637,0,0,0,1.565,2.269c1.706-1.222,3.626-2.463,5.74-3.713A25.322,25.322,0,0,0,1300.365,680.814Z" transform="translate(-1278 -648.708)" fill="#fff" fill-rule="evenodd"/>
      </g>
      <g id="Grupo_68" data-name="Grupo 68" transform="translate(12.451 10.996)">
        <path id="Caminho_200" data-name="Caminho 200" d="M1410.651,666.907h0v-.445h0a2.423,2.423,0,0,0,1.179-.292,2.224,2.224,0,0,0,.975-2.818,2.1,2.1,0,0,0-.5-.709,2.284,2.284,0,0,0-.745-.47,2.5,2.5,0,0,0-.911-.165h0v-.437h0a3.123,3.123,0,0,1,1.111.2,2.958,2.958,0,0,1,.935.557,2.586,2.586,0,0,1,.63.852,2.536,2.536,0,0,1-.165,2.417,2.748,2.748,0,0,1-1.066.962,3.076,3.076,0,0,1-1.446.351Zm0-2.428.843,1.29h.571l-.936-1.347a1.1,1.1,0,0,0,.615-.257.9.9,0,0,0-.054-1.257,1.468,1.468,0,0,0-.867-.209h-.171v.389h.077c.488,0,.729.15.729.452a.4.4,0,0,1-.208.411,1.433,1.433,0,0,1-.6.1h0Zm0,2.428a3.141,3.141,0,0,1-1.112-.2,2.953,2.953,0,0,1-.937-.563,2.6,2.6,0,0,1-.639-.857,2.512,2.512,0,0,1,0-2.1,2.6,2.6,0,0,1,.636-.852,2.982,2.982,0,0,1,.939-.56,3.173,3.173,0,0,1,1.113-.2v.438a2.5,2.5,0,0,0-.911.165,2.341,2.341,0,0,0-.748.472,2.148,2.148,0,0,0-.5.711,2.194,2.194,0,0,0-.177.876,2.174,2.174,0,0,0,1.158,1.938,2.443,2.443,0,0,0,1.178.292v.445Zm0-4.207h-1.106v3.069h.5v-1.333h.575l.029.043v-.431h-.6v-.959h.6Z" transform="translate(-1261.666 -658.984)" fill="#fff" fill-rule="evenodd"/>
        <path id="Caminho_201" data-name="Caminho 201" d="M1306.672,666.212l-4.257,3.763c-1.5-2.077-3.019-3.124-4.571-3.124a2.783,2.783,0,0,0-1.855.61,1.757,1.757,0,0,0-.718,1.362,2.352,2.352,0,0,0,.514,1.448,40.108,40.108,0,0,0,4.222,3.885c2.191,1.84,3.526,3,3.99,3.476a12.058,12.058,0,0,1,2.479,3.387,8.53,8.53,0,0,1,.731,3.531,8.117,8.117,0,0,1-2.57,6.155,9.39,9.39,0,0,1-6.709,2.423,9.974,9.974,0,0,1-5.627-1.58,12.536,12.536,0,0,1-4.11-4.98l4.841-2.922q2.181,4.014,5.015,4.01a3.7,3.7,0,0,0,2.494-.864,2.566,2.566,0,0,0,1.005-2,3.458,3.458,0,0,0-.759-2.059,21.762,21.762,0,0,0-3.352-3.146q-4.941-4.036-6.385-6.232a7.95,7.95,0,0,1-1.439-4.368,7.144,7.144,0,0,1,2.4-5.4,8.3,8.3,0,0,1,5.916-2.256,9.4,9.4,0,0,1,4.313,1.046A15.915,15.915,0,0,1,1306.672,666.212Z" transform="translate(-1288.19 -659.036)" fill="#fff" fill-rule="evenodd"/>
        <path id="Caminho_202" data-name="Caminho 202" d="M1307.482,661.956h6.112a20.03,20.03,0,0,1,7.151.921,7.249,7.249,0,0,1,3.463,2.964,8.274,8.274,0,0,1,1.083,2.859,20.813,20.813,0,0,0-2.622,8.5,9.039,9.039,0,0,1-3.349,1.736,25.7,25.7,0,0,1-6.069.478v12.82h-5.767V661.956Zm5.767,11.838h1.827a10.027,10.027,0,0,0,3.006-.309,2.682,2.682,0,0,0,1.328-1.018,2.981,2.981,0,0,0,.485-1.723,2.75,2.75,0,0,0-1.356-2.549,7.749,7.749,0,0,0-3.667-.6h-1.623Z" transform="translate(-1283.909 -658.899)" fill="#fff" fill-rule="evenodd"/>
        <path id="Caminho_203" data-name="Caminho 203" d="M1392.737,661.957h16.529V667.6h-10.8v5.472h10.8v5.543h-10.8v7.958h10.8v5.662h-16.529Z" transform="translate(-1264.993 -658.899)" fill="#fff" fill-rule="evenodd"/>
        <path id="Caminho_204" data-name="Caminho 204" d="M1377.823,661.956h15.353v5.683h-5.513v24.594h-5.845V667.639h-4.76Z" transform="translate(-1268.472 -658.899)" fill="#fff" fill-rule="evenodd"/>
        <g id="Grupo_67" data-name="Grupo 67" transform="translate(39.298)">
          <path id="Caminho_205" data-name="Caminho 205" d="M1341.58,659.454a16.73,16.73,0,0,1,12.29,4.793,16.421,16.421,0,0,1,4.851,12.18,21.1,21.1,0,0,1-2.87,10.66,20.008,20.008,0,0,1-7.622,7.681,21.865,21.865,0,0,1-10.93,2.678q-7.718,0-12.33-4.575t-4.616-12.045a21.012,21.012,0,0,1,5.506-14.581,20.284,20.284,0,0,1,15.722-6.791Zm-.252,6.421a13.746,13.746,0,0,0-7.093,1.88,14.056,14.056,0,0,0-5.179,5.406,14.844,14.844,0,0,0-1.964,7.295A11.007,11.007,0,0,0,1329.82,688c1.821,2.064,4.432,3.106,7.848,3.106a13.616,13.616,0,0,0,10.065-4.191,13.842,13.842,0,0,0,4.146-10.146,10.849,10.849,0,0,0-2.912-7.924A10.231,10.231,0,0,0,1341.328,665.875Z" transform="translate(-1320.352 -659.454)" fill="#fff" fill-rule="evenodd"/>
          <path id="Caminho_206" data-name="Caminho 206" d="M1354.474,659.751h5.95l13.112,24.594,3.316-24.594h6.614l-4.868,36.178h-5.8l-13.279-24.863-3.323,24.863h-6.514Z" transform="translate(-1313.845 -659.388)" fill="#fff" fill-rule="evenodd"/>
        </g>
      </g>
    </g>
  </g>
</svg>
