<svg xmlns="http://www.w3.org/2000/svg" xmlns:xlink="http://www.w3.org/1999/xlink" width="203.184" height="41.504" viewBox="0 0 203.184 41.504">
  <defs>
    <clipPath id="clip-path">
      <path id="Caminho_104" data-name="Caminho 104" d="M770.487,532.212l-11.633,3.262a36.323,36.323,0,0,1,.817,14.2,26.278,26.278,0,0,1-.874,3.875,16.059,16.059,0,0,1-2.657,5.221h0l-.041.058a15.344,15.344,0,0,0,6.994,3.358l.007,0,.2-.147.047-.035,0,0a14.731,14.731,0,0,0,3.541-4.238l.044-.071c.169-.294.334-.59.489-.892a20.834,20.834,0,0,0,1.325-3.116c2.491-7.119,2.284-15.79,1.746-21.474Z" transform="translate(-756.101 -532.212)" fill="#fff"/>
    </clipPath>
    <clipPath id="clip-path-2">
      <path id="Caminho_106" data-name="Caminho 106" d="M778.969,530.245a81.532,81.532,0,0,1-.043,14.73v0s-.121,18.909-14.979,22.058c1.812.557,19.2,5.344,25.792-13.6,3.955-12.389,2.706-26.966,2.706-26.966Z" transform="translate(-763.948 -526.467)" fill="#fff"/>
    </clipPath>
    <clipPath id="clip-path-3">
      <path id="Caminho_108" data-name="Caminho 108" d="M739,540.95a43.222,43.222,0,0,0,2.164,9.283,24.145,24.145,0,0,0,1.6,3.628c.186.351.384.7.587,1.036.016.028.034.056.049.084a20.973,20.973,0,0,0,2.229,3.048c.137.148.31.329.511.529,2.521,2.506,9.963,8.55,18.763,3.112l.052-.031c.051-.032.1-.059.153-.093a.114.114,0,0,1-.026,0,15.344,15.344,0,0,1-6.994-3.358c-3.814-3.12-7.76-9.077-7.8-20.4Z" transform="translate(-739 -537.786)" fill="#fff"/>
    </clipPath>
  </defs>
  <g id="wedotax" transform="translate(0 0)">
    <path id="Caminho_96" data-name="Caminho 96" d="M823.959,541.885a2.135,2.135,0,0,0-2.239,1.69l-2.91,12.852-2.851-14.542h-4.951L808,556.4l-3.324-14.512h-4.627l5.323,19.418h4.89l3.316-14.969,3.162,14.969h4.85l5.4-19.418Z" transform="translate(-731.894 -524.672)" fill="#fff"/>
    <path id="Caminho_97" data-name="Caminho 97" d="M833.71,541.616c-5.966.037-8.865,3.292-8.865,9.953,0,6.688,2.876,10.03,8.794,10.216,4.488,0,7.235-2,8.388-6.112H838.62a1.981,1.981,0,0,0-1.536.645,4.8,4.8,0,0,1-3.374,1.492c-2.552,0-3.944-1.6-4.14-4.765l-.014-.219H842.4c.169-4.1-.632-7.107-2.379-8.941a8.343,8.343,0,0,0-6.309-2.268m-4.1,8.059.033-.232c.386-2.715,1.766-4.15,3.989-4.15s3.565,1.436,3.875,4.154l.027.228Z" transform="translate(-729.008 -524.704)" fill="#fff"/>
    <path id="Caminho_98" data-name="Caminho 98" d="M858.646,536.815h-2.27v8.949l-.38-.612a6.056,6.056,0,0,0-5.485-2.976c-5.182.184-7.7,3.512-7.7,10.177,0,6.511,2.949,9.731,9.018,9.841h.112c3.028,0,5.315-.748,6.8-2.224,1.445-1.436,2.178-3.606,2.178-6.455V539.085a2.272,2.272,0,0,0-2.27-2.27M851.9,558.368a3.915,3.915,0,0,1-2.9-1.079c-1.008-1.018-1.488-2.706-1.464-5.162v-.007c.155-3.965,1.607-5.893,4.44-5.893,2.8,0,4.286,1.983,4.4,5.895,0,4.148-1.507,6.247-4.478,6.247" transform="translate(-726.917 -525.263)" fill="#fff"/>
    <path id="Caminho_99" data-name="Caminho 99" d="M870.2,541.616c-5.915,0-8.79,3.3-8.79,10.1,0,6.678,2.958,10.065,8.79,10.065,5.86,0,8.83-3.387,8.83-10.065,0-6.8-2.888-10.1-8.83-10.1m-.037,16.117c-2.684,0-4.064-2.023-4.1-6.012v0c0-4.066,1.391-6.128,4.138-6.128,2.674,0,4.029,2.012,4.029,5.977-.039,4.091-1.407,6.165-4.066,6.165" transform="translate(-724.753 -524.704)" fill="#fff"/>
    <path id="Caminho_100" data-name="Caminho 100" d="M884.15,539.009a2.2,2.2,0,0,0-2.193-2.194h-2.384v21.46c-.036,2.114.776,3.179,2.553,3.356a27.46,27.46,0,0,0,5.023.055v-3.395h-1.333c-1.074,0-1.667-.524-1.667-1.477V545.626h.731a2.218,2.218,0,0,0,2.269-2.267v-.884h-3Z" transform="translate(-722.638 -525.263)" fill="#fff"/>
    <path id="Caminho_101" data-name="Caminho 101" d="M896.359,541.616c-4.4,0-6.864,1.658-7.516,5.063h4.54a.09.09,0,0,0,.077-.066c.372-.889,1.393-1.32,3.121-1.32,2.151,0,3.3.627,3.427,1.87,0,1.213-1.111,1.929-3.4,2.209-4.968.482-8.3,1.742-8.4,6.324a5.673,5.673,0,0,0,1.725,4.365c1.389,1.283,3.5,1.85,6.113,1.648,5.7-.4,8.468-3.04,8.468-8.078v-6.749c-.108-3.542-2.774-5.267-8.152-5.267m3.727,11.789a4.287,4.287,0,0,1-4.664,4.667,2.426,2.426,0,0,1-2.716-2.515c0-1.1.549-2.5,3.165-2.989a21.3,21.3,0,0,0,3.932-1.187l.283-.119Z" transform="translate(-721.634 -524.704)" fill="#fff"/>
    <path id="Caminho_102" data-name="Caminho 102" d="M915.726,551.46l7.29-11.153h-4.194a2.082,2.082,0,0,0-1.994,1.2l-4.007,6.76-3.528-6.2h-5.245l5.945,9.466-6.318,9.953h5.618l3.682-6.51,3.643,6.51h5.5l-6.465-9.916Z" transform="translate(-719.833 -524.856)" fill="#fff"/>
    <g id="Grupo_48" data-name="Grupo 48" transform="translate(19.091 6.414)">
      <path id="Caminho_103" data-name="Caminho 103" d="M770.487,532.212l-11.633,3.262a36.323,36.323,0,0,1,.817,14.2,26.278,26.278,0,0,1-.874,3.875,16.059,16.059,0,0,1-2.657,5.221h0l-.041.058a15.344,15.344,0,0,0,6.994,3.358l.007,0,.2-.147.047-.035,0,0a14.731,14.731,0,0,0,3.541-4.238l.044-.071c.169-.294.334-.59.489-.892a20.834,20.834,0,0,0,1.325-3.116c2.491-7.119,2.284-15.79,1.746-21.474Z" transform="translate(-756.101 -532.212)" fill="#fff"/>
      <g id="Grupo_47" data-name="Grupo 47" clip-path="url(#clip-path)">
        <rect id="Retângulo_6" data-name="Retângulo 6" width="28.095" height="33.529" transform="translate(-12.982 7.495) rotate(-30)" fill="#fff"/>
      </g>
    </g>
    <g id="Grupo_50" data-name="Grupo 50" transform="translate(27.852)">
      <path id="Caminho_105" data-name="Caminho 105" d="M778.969,530.245a81.532,81.532,0,0,1-.043,14.73v0s-.121,18.909-14.979,22.058c1.812.557,19.2,5.344,25.792-13.6,3.955-12.389,2.706-26.966,2.706-26.966Z" transform="translate(-763.948 -526.467)" fill="#fff"/>
      <g id="Grupo_49" data-name="Grupo 49" clip-path="url(#clip-path-2)">
        <rect id="Retângulo_7" data-name="Retângulo 7" width="29.748" height="45.906" transform="translate(-0.001 0)" fill="#fff"/>
      </g>
    </g>
    <g id="Grupo_52" data-name="Grupo 52" transform="translate(0 12.636)">
      <path id="Caminho_107" data-name="Caminho 107" d="M739,540.95a43.222,43.222,0,0,0,2.164,9.283,24.145,24.145,0,0,0,1.6,3.628c.186.351.384.7.587,1.036.016.028.034.056.049.084a20.973,20.973,0,0,0,2.229,3.048c.137.148.31.329.511.529,2.521,2.506,9.963,8.55,18.763,3.112l.052-.031c.051-.032.1-.059.153-.093a.114.114,0,0,1-.026,0,15.344,15.344,0,0,1-6.994-3.358c-3.814-3.12-7.76-9.077-7.8-20.4Z" transform="translate(-739 -537.786)" fill="#fff"/>
      <g id="Grupo_51" data-name="Grupo 51" clip-path="url(#clip-path-3)">
        <rect id="Retângulo_8" data-name="Retângulo 8" width="26.111" height="29.322" transform="translate(0 0)" fill="#fff"/>
      </g>
    </g>
  </g>
</svg>
